<?xml version="1.0" encoding="UTF-8" standalone="no"?>
<!-- Created with Inkscape (http://www.inkscape.org/) -->

<svg
   id="svg2"
   version="1.1"
   inkscape:version="1.4 (e7c3feb100, 2024-10-09)"
   width="682.46234"
   height="481.98557"
   sodipodi:docname="book_icon.svg"
   xmlns:inkscape="http://www.inkscape.org/namespaces/inkscape"
   xmlns:sodipodi="http://sodipodi.sourceforge.net/DTD/sodipodi-0.dtd"
   xmlns:xlink="http://www.w3.org/1999/xlink"
   xmlns="http://www.w3.org/2000/svg"
   xmlns:svg="http://www.w3.org/2000/svg"
   xmlns:rdf="http://www.w3.org/1999/02/22-rdf-syntax-ns#"
   xmlns:cc="http://creativecommons.org/ns#"
   xmlns:dc="http://purl.org/dc/elements/1.1/">
  <metadata
     id="metadata8">
    <rdf:RDF>
      <cc:Work
         rdf:about="">
        <dc:format>image/svg+xml</dc:format>
        <dc:type
           rdf:resource="http://purl.org/dc/dcmitype/StillImage" />
        <dc:title />
      </cc:Work>
    </rdf:RDF>
  </metadata>
  <defs
     id="defs6">
    <linearGradient
       x1="186.42"
       y1="248.05"
       gradientTransform="matrix(1.1115,0,0,1.1115,27.807,-31.68)"
       x2="195.7"
       gradientUnits="userSpaceOnUse"
       y2="254.92"
       id="linearGradient3839">
      <stop
         offset="0"
         stop-color="#f2f2f2"
         id="stop3412-2" />
      <stop
         offset="1"
         stop-color="#afa2a2"
         id="stop3414-8" />
    </linearGradient>
    <linearGradient
       inkscape:collect="always"
       x1="186.42"
       y1="248.05"
       gradientTransform="matrix(3.7567,0,0,3.7567,-619.7,-825.45)"
       x2="195.7"
       gradientUnits="userSpaceOnUse"
       xlink:href="#linearGradient3410"
       y2="254.92"
       id="linearGradient3489" />
    <linearGradient
       inkscape:collect="always"
       x1="186.42"
       y1="248.05"
       x2="195.7"
       gradientUnits="userSpaceOnUse"
       xlink:href="#linearGradient3410"
       y2="254.92"
       id="linearGradient3484" />
    <linearGradient
       inkscape:collect="always"
       x1="186.42"
       y1="248.05"
       gradientTransform="translate(-44.738,-8.1871)"
       x2="195.7"
       gradientUnits="userSpaceOnUse"
       xlink:href="#linearGradient3410"
       y2="254.92"
       id="linearGradient3482" />
    <linearGradient
       inkscape:collect="always"
       x1="186.42"
       y1="248.05"
       gradientTransform="translate(49.012,-1.8121)"
       x2="195.7"
       gradientUnits="userSpaceOnUse"
       xlink:href="#linearGradient3410"
       y2="254.92"
       id="linearGradient3480" />
    <linearGradient
       id="linearGradient3410">
      <stop
         offset="0"
         style="stop-color:rgb(242, 242, 242)"
         id="stop3412" />
      <stop
         offset="1"
         style="stop-color:rgb(175, 162, 162)"
         id="stop3414" />
    </linearGradient>
    <linearGradient
       gradientUnits="userSpaceOnUse"
       y2="46.978371"
       x2="29.705372"
       y1="61.728371"
       x1="14.774293"
       id="linearGradient5758"
       xlink:href="#linearGradient5752"
       inkscape:collect="always" />
    <pattern
       inkscape:collect="always"
       patternUnits="userSpaceOnUse"
       width="10"
       height="10"
       patternTransform="translate(0,0) scale(10,10)"
       id="Polkadots-large"
       inkscape:stockid="Polka dots, large">
      <circle
         style="fill:black;stroke:none"
         cx="2.567"
         cy="0.810"
         r="0.45"
         id="circle5417" />
      <circle
         style="fill:black;stroke:none"
         cx="3.048"
         cy="2.33"
         r="0.45"
         id="circle5419" />
      <circle
         style="fill:black;stroke:none"
         cx="4.418"
         cy="2.415"
         r="0.45"
         id="circle5421" />
      <circle
         style="fill:black;stroke:none"
         cx="1.844"
         cy="3.029"
         r="0.45"
         id="circle5423" />
      <circle
         style="fill:black;stroke:none"
         cx="6.08"
         cy="1.363"
         r="0.45"
         id="circle5425" />
      <circle
         style="fill:black;stroke:none"
         cx="5.819"
         cy="4.413"
         r="0.45"
         id="circle5427" />
      <circle
         style="fill:black;stroke:none"
         cx="4.305"
         cy="4.048"
         r="0.45"
         id="circle5429" />
      <circle
         style="fill:black;stroke:none"
         cx="5.541"
         cy="3.045"
         r="0.45"
         id="circle5431" />
      <circle
         style="fill:black;stroke:none"
         cx="4.785"
         cy="5.527"
         r="0.45"
         id="circle5433" />
      <circle
         style="fill:black;stroke:none"
         cx="2.667"
         cy="5.184"
         r="0.45"
         id="circle5435" />
      <circle
         style="fill:black;stroke:none"
         cx="7.965"
         cy="1.448"
         r="0.45"
         id="circle5437" />
      <circle
         style="fill:black;stroke:none"
         cx="7.047"
         cy="5.049"
         r="0.45"
         id="circle5439" />
      <circle
         style="fill:black;stroke:none"
         cx="4.340"
         cy="0.895"
         r="0.45"
         id="circle5441" />
      <circle
         style="fill:black;stroke:none"
         cx="7.125"
         cy="0.340"
         r="0.45"
         id="circle5443" />
      <circle
         style="fill:black;stroke:none"
         cx="9.553"
         cy="1.049"
         r="0.45"
         id="circle5445" />
      <circle
         style="fill:black;stroke:none"
         cx="7.006"
         cy="2.689"
         r="0.45"
         id="circle5447" />
      <circle
         style="fill:black;stroke:none"
         cx="8.909"
         cy="2.689"
         r="0.45"
         id="circle5449" />
      <circle
         style="fill:black;stroke:none"
         cx="9.315"
         cy="4.407"
         r="0.45"
         id="circle5451" />
      <circle
         style="fill:black;stroke:none"
         cx="7.820"
         cy="3.870"
         r="0.45"
         id="circle5453" />
      <circle
         style="fill:black;stroke:none"
         cx="8.270"
         cy="5.948"
         r="0.45"
         id="circle5455" />
      <circle
         style="fill:black;stroke:none"
         cx="7.973"
         cy="7.428"
         r="0.45"
         id="circle5457" />
      <circle
         style="fill:black;stroke:none"
         cx="9.342"
         cy="8.072"
         r="0.45"
         id="circle5459" />
      <circle
         style="fill:black;stroke:none"
         cx="8.206"
         cy="9.315"
         r="0.45"
         id="circle5461" />
      <circle
         style="fill:black;stroke:none"
         cx="9.682"
         cy="9.475"
         r="0.45"
         id="circle5463" />
      <circle
         style="fill:black;stroke:none"
         cx="9.688"
         cy="6.186"
         r="0.45"
         id="circle5465" />
      <circle
         style="fill:black;stroke:none"
         cx="3.379"
         cy="6.296"
         r="0.45"
         id="circle5467" />
      <circle
         style="fill:black;stroke:none"
         cx="2.871"
         cy="8.204"
         r="0.45"
         id="circle5469" />
      <circle
         style="fill:black;stroke:none"
         cx="4.59"
         cy="8.719"
         r="0.45"
         id="circle5471" />
      <circle
         style="fill:black;stroke:none"
         cx="3.181"
         cy="9.671"
         r="0.45"
         id="circle5473" />
      <circle
         style="fill:black;stroke:none"
         cx="5.734"
         cy="7.315"
         r="0.45"
         id="circle5475" />
      <circle
         style="fill:black;stroke:none"
         cx="6.707"
         cy="6.513"
         r="0.45"
         id="circle5477" />
      <circle
         style="fill:black;stroke:none"
         cx="5.730"
         cy="9.670"
         r="0.45"
         id="circle5479" />
      <circle
         style="fill:black;stroke:none"
         cx="6.535"
         cy="8.373"
         r="0.45"
         id="circle5481" />
      <circle
         style="fill:black;stroke:none"
         cx="4.37"
         cy="7.154"
         r="0.45"
         id="circle5483" />
      <circle
         style="fill:black;stroke:none"
         cx="0.622"
         cy="7.25"
         r="0.45"
         id="circle5485" />
      <circle
         style="fill:black;stroke:none"
         cx="0.831"
         cy="5.679"
         r="0.45"
         id="circle5487" />
      <circle
         style="fill:black;stroke:none"
         cx="1.257"
         cy="8.519"
         r="0.45"
         id="circle5489" />
      <circle
         style="fill:black;stroke:none"
         cx="1.989"
         cy="6.877"
         r="0.45"
         id="circle5491" />
      <circle
         style="fill:black;stroke:none"
         cx="0.374"
         cy="3.181"
         r="0.45"
         id="circle5493" />
      <circle
         style="fill:black;stroke:none"
         cx="1.166"
         cy="1.664"
         r="0.45"
         id="circle5495" />
      <circle
         style="fill:black;stroke:none"
         cx="1.151"
         cy="0.093"
         r="0.45"
         id="circle5497" />
      <circle
         style="fill:black;stroke:none"
         cx="1.151"
         cy="10.093"
         r="0.45"
         id="circle5499" />
      <circle
         style="fill:black;stroke:none"
         cx="1.302"
         cy="4.451"
         r="0.45"
         id="circle5501" />
      <circle
         style="fill:black;stroke:none"
         cx="3.047"
         cy="3.763"
         r="0.45"
         id="circle5503" />
    </pattern>
    <pattern
       patternTransform="matrix(1.35,0,0,1.4125,-1.7716573,-7.454901)"
       id="pattern5727"
       xlink:href="#Polkadots-large"
       inkscape:collect="always" />
    <linearGradient
       id="linearGradient5752"
       inkscape:collect="always">
      <stop
         id="stop5754"
         offset="0"
         style="stop-color:#183767;stop-opacity:1" />
      <stop
         style="stop-color:#093679;stop-opacity:1"
         offset="0.15296786"
         id="stop5760" />
      <stop
         id="stop5762"
         offset="0.41918695"
         style="stop-color:#0044aa;stop-opacity:1;" />
      <stop
         style="stop-color:#0044aa;stop-opacity:1;"
         offset="0.55848801"
         id="stop5766" />
      <stop
         id="stop5768"
         offset="0.65319347"
         style="stop-color:#2a5fae;stop-opacity:1" />
      <stop
         style="stop-color:#0044aa;stop-opacity:1;"
         offset="0.75363874"
         id="stop5764" />
      <stop
         id="stop5756"
         offset="1"
         style="stop-color:#094297;stop-opacity:1" />
    </linearGradient>
  </defs>
  <sodipodi:namedview
     pagecolor="#ffffff"
     bordercolor="#666666"
     borderopacity="1"
     objecttolerance="10"
     gridtolerance="10"
     guidetolerance="10"
     inkscape:pageopacity="0"
     inkscape:pageshadow="2"
     inkscape:window-width="3840"
     inkscape:window-height="1542"
     id="namedview4"
     showgrid="false"
     inkscape:zoom="0.45032404"
     inkscape:cx="-1074.7816"
     inkscape:cy="-576.25172"
     inkscape:window-x="1920"
     inkscape:window-y="0"
     inkscape:window-maximized="1"
     inkscape:current-layer="g3118"
     fit-margin-top="0"
     fit-margin-left="0"
     fit-margin-right="0"
     fit-margin-bottom="0"
     inkscape:showpageshadow="2"
     inkscape:pagecheckerboard="0"
     inkscape:deskcolor="#d1d1d1" />
  <g
     id="g3118"
     transform="matrix(0.94131542,0.33752819,-0.33752819,0.94131542,197.37582,-110.91944)">
    <path
       sodipodi:nodetypes="csssscsccccccscccsccsccsscccsssssscccccccccssssssssccscccccssssssssccccccccccccscccccccscccccccccccccccsssssssscccccsccccccccccccssssssssscccccccccccscccsccccccccssssssscccccccsssssssscccssccscscccccccccccccccccccsccccc"
       inkscape:connector-curvature="0"
       style="fill:#ffffff"
       d="m 245.15428,309.34375 c -8.69294,14.7696 -19.24976,25.28318 -31.03125,30.90625 -10.25014,4.89219 -31.44126,12.0146 -67.21875,22.59375 -30.05899,8.88822 -39.52839,11.73243 -59.499996,17.875 -18.35392,5.64504 -33.01021,9.7132 -49.40625,13.6875 -0.94573,0.22924 -1.8767,0.47613 -2.78125,0.71875 -0.42559,0.1142 -0.83416,0.22712 -1.25,0.34375 -0.58733,0.16473 -1.18267,0.33118 -1.75,0.5 -0.79274,0.23579 -1.55978,0.47693 -2.3125,0.71875 -0.44489,0.14308 -0.88235,0.26176 -1.3125,0.40625 -0.39932,0.13397 -0.80104,0.27146 -1.1875,0.40625 -0.40689,0.14211 -0.79539,0.29495 -1.1875,0.4375 -0.24822,0.0901 -0.50777,0.19113 -0.75,0.28125 -0.23754,0.0886 -0.48711,0.19276 -0.71875,0.28125 -1.48422,0.56699 -2.83345,1.10976 -4.0625,1.65625 -0.29474,0.13079 -0.59577,0.27769 -0.875,0.40625 0.03938,0.008 0.08839,0.0244 0.09375,0.0313 0.11789,0.15173 2.49196,4.10439 5.25,8.8125 1.8681,3.18892 3.64756,6.46212 5.34375,9.8125 1.61342,-0.33992 3.4639,-0.74954 5.53125,-1.25 2.00788,-0.48706 4.42665,-1.11723 6.84375,-1.75 2.54748,-0.66691 5.17414,-1.36496 8.15625,-2.1875 2.91906,-0.80431 6.02691,-1.67739 9.34375,-2.625 3.28849,-0.94018 6.87054,-1.98729 10.53125,-3.0625 3.21107,-0.94314 6.54731,-1.92593 10.03125,-2.96875 0.51954,-0.15551 1.0683,-0.31107 1.59375,-0.46875 2.90687,-0.87214 6.01007,-1.8127 9.09375,-2.75 1.14209,-0.3473 2.42823,-0.73778 3.59375,-1.09375 4.39788,-1.34305 8.966696,-2.75537 13.687496,-4.21875 6.6,-2.04591 20.1,-6.15506 30,-9.125 9.9,-2.96994 26.775,-8.26935 37.5,-11.78125 10.725,-3.51191 29.4,-9.60158 41.5,-13.53125 12.1,-3.92967 28.525,-9.60871 36.5,-12.59375 31.34881,-11.73387 41.14784,-14.7592 49.28125,-15.25 1.62392,-0.098 2.9414,-0.14445 4.03125,-0.15625 0.8322,-0.009 1.49376,0.0105 2.09375,0.0625 0.28821,0.025 0.56616,0.0531 0.8125,0.0937 0.41034,0.0678 0.77146,0.16614 1.09375,0.28125 0.0723,0.0254 0.14975,0.0345 0.21875,0.0625 0.0625,0.0256 0.1274,0.0659 0.1875,0.0937 0.19876,0.0918 0.38354,0.19653 0.5625,0.3125 0.0388,0.0252 0.0868,0.0362 0.125,0.0625 0.0529,0.0363 0.10435,0.0863 0.15625,0.125 0.15779,0.11787 0.31431,0.23523 0.46875,0.375 2.73942,2.47914 2.59207,7.55255 -0.3125,10.28125 -2.74946,2.58298 -25.56602,10.93853 -61.71875,22.5625 -14.56177,4.68196 -38.425,12.5949 -53,17.59375 -14.575,4.99885 -44.5,15.09249 -66.5,22.4375 -22,7.345 -46.749996,15.83497 -54.999996,18.875 -8.25,3.04003 -16.125,5.85807 -17.5,6.25 -1.375,0.39193 -5.9875,2.03008 -10.25,3.65625 -1.23634,0.47167 -2.50405,0.98473 -3.78125,1.5 -0.29255,0.11888 -0.58379,0.22319 -0.875,0.34375 -0.24038,0.0989 -0.47658,0.21052 -0.71875,0.3125 -0.52661,0.22176 -1.04938,0.43094 -1.5625,0.65625 -0.08452,0.0374 -0.16553,0.0876 -0.25,0.125 -0.66791,0.29382 -1.31102,0.57814 -1.9375,0.875 1.19244,3.29189 2.31905,6.64126 3.375,10.0625 l 9.5625,-3.375 c 1.83451,-0.58273 4.1874,-1.37335 6.65625,-2.21875 1.94641,-0.6665 3.9679,-1.36611 5.84375,-2.03125 1.4184,-0.50294 2.76875,-0.97308 3.9375,-1.40625 4.675,-1.73269 15.25,-5.16389 23.5,-7.625 34.749656,-10.36639 85.028196,-27.14508 110.187496,-36.75 5.05331,-1.92917 13.60331,-4.69795 19,-6.15625 11.78727,-3.18516 39.64965,-11.67986 58.5625,-17.875 1.44875,-0.47456 2.81345,-0.92135 4.15625,-1.34375 0.10777,-0.0339 0.20538,-0.0602 0.3125,-0.0937 0.1691,-0.0529 0.33251,-0.10415 0.5,-0.15625 0.0326,-0.0101 0.0612,-0.0212 0.0937,-0.0313 1.34865,-0.4191 2.66099,-0.79067 3.90625,-1.15625 0.93172,-0.27319 1.7806,-0.53786 2.65625,-0.78125 0.26304,-0.0734 0.49194,-0.14805 0.75,-0.21875 0.45942,-0.12554 0.89992,-0.22667 1.34375,-0.34375 0.24782,-0.0656 0.47713,-0.1234 0.71875,-0.1875 0.1964,-0.0509 0.40047,-0.10703 0.59375,-0.15625 0.27877,-0.0728 0.56978,-0.15103 0.84375,-0.21875 0.2826,-0.0696 0.56572,-0.12626 0.84375,-0.1875 0.0514,-0.0123 0.10508,-0.0191 0.15625,-0.0313 0.98244,-0.23367 1.91638,-0.44029 2.8125,-0.625 0.76037,-0.15673 1.48729,-0.31583 2.1875,-0.4375 0.0603,-0.0107 0.12711,-0.021 0.1875,-0.0313 0.15795,-0.0269 0.31165,-0.0676 0.46875,-0.0937 0.0902,-0.0147 0.19205,-0.0172 0.28125,-0.0313 0.12145,-0.0191 0.22404,-0.0444 0.34375,-0.0625 0.70241,-0.10615 1.3615,-0.18269 2,-0.25 0.0891,-0.01 0.1621,-0.0222 0.25,-0.0313 0.7095,-0.0703 1.39939,-0.1035 2.03125,-0.125 0.63186,-0.0215 1.22397,-0.0271 1.78125,0 0.15142,0.007 0.29149,0.0202 0.4375,0.0313 0.30094,0.0227 0.59646,0.0559 0.875,0.0937 0.071,0.01 0.15023,0.0208 0.21875,0.0313 0.01,0.001 0.0216,-10e-4 0.0313,0 0.0326,0.005 0.0614,0.0263 0.0937,0.0313 0.36693,0.0601 0.70427,0.0995 1.03125,0.1875 0.043,0.0115 0.0829,0.0186 0.125,0.0313 0.0302,0.009 0.0639,0.0224 0.0937,0.0313 0.20421,0.066 0.40378,0.14627 0.59375,0.21875 0.3375,0.12913 0.6494,0.27175 0.9375,0.4375 0.0399,0.023 0.086,0.0388 0.125,0.0625 0.24693,0.14987 0.47689,0.32211 0.6875,0.5 0.0627,0.0529 0.12797,0.10085 0.1875,0.15625 0.0517,0.0499 0.10782,0.10427 0.15625,0.15625 0.10389,0.10559 0.18759,0.22989 0.28125,0.34375 0.19435,0.23626 0.37944,0.4783 0.53125,0.75 1.79407,3.21083 0.87276,7.44802 -1.96875,8.96875 -3.31704,1.77522 -17.32831,6.56734 -45.90625,15.65625 -14.575,4.63542 -33.25,10.57333 -41.5,13.21875 -8.25,2.64542 -23.775,7.60771 -34.5,11.03125 -16.44653,5.24992 -64.14819,23.47903 -95.999996,36.6875 -4.675,1.93866 -16.73581,6.52074 -26.8125,10.15625 -2.22587,0.80306 -4.46944,1.63506 -6.65625,2.46875 -0.04282,0.0163 -0.08222,0.0462 -0.125,0.0625 -0.41089,0.15716 -0.84492,0.31219 -1.25,0.46875 -1.22136,0.47116 -2.45219,0.95116 -3.59375,1.40625 -1.47127,0.58801 -2.82622,1.15408 -4.09375,1.6875 -0.92575,0.38898 -1.69096,0.71753 -2.46875,1.0625 -0.74484,0.33036 -1.57584,0.68984 -2.15625,0.96875 0.79584,3.85316 1.50815,7.7869 2.15625,11.78125 0.43237,-0.0879 0.93053,-0.20208 1.46875,-0.34375 0.30367,-0.0807 0.66359,-0.18357 1,-0.28125 0.26562,-0.0771 0.49528,-0.1624 0.78125,-0.25 0.47661,-0.14609 0.96707,-0.29382 1.5,-0.46875 0.19497,-0.064 0.42253,-0.1197 0.625,-0.1875 0.58606,-0.19636 1.22607,-0.42798 1.875,-0.65625 0.16156,-0.0569 0.36587,-0.1287 0.53125,-0.1875 0.98548,-0.35068 2.19062,-0.79979 3.3125,-1.21875 0.12674,-0.0474 0.27783,-0.10805 0.40625,-0.15625 1.25762,-0.47194 2.57731,-0.97801 4,-1.53125 1.57067,-0.61113 3.23567,-1.26333 5,-1.96875 19.91801,-7.96374 53.917586,-20.25266 86.718746,-31.34375 17.76085,-6.00549 35.87949,-12.26647 40.28125,-13.90625 4.40175,-1.63979 15.20175,-4.85544 24,-7.15625 8.79824,-2.30082 21.625,-5.91049 28.5,-8.03125 6.875,-2.12075 19.25777,-5.73162 27.5,-8.03125 8.24223,-2.29964 19.26723,-5.71188 24.5,-7.5625 1.60146,-0.56637 3.18364,-1.10278 4.71875,-1.625 1.53511,-0.52222 3.035,-1.02267 4.5,-1.5 1.4749,-0.48056 2.88772,-0.94107 4.28125,-1.375 0.0324,-0.01 0.0614,-0.0212 0.0937,-0.0313 1.1138,-0.34643 2.18478,-0.65231 3.25,-0.96875 0.37738,-0.11188 0.75403,-0.23565 1.125,-0.34375 0.28508,-0.0831 0.59329,-0.16909 0.875,-0.25 0.11446,-0.0329 0.22817,-0.0638 0.34375,-0.0937 0.2395,-0.0684 0.4821,-0.12076 0.71875,-0.1875 1.75234,-0.49417 3.44121,-0.9726 5.03125,-1.375 0.85996,-0.21749 1.69377,-0.40752 2.5,-0.59375 0.81191,-0.19067 1.58341,-0.36833 2.34375,-0.53125 0.51274,-0.10985 1.01131,-0.2154 1.5,-0.3125 0.96528,-0.19223 1.88118,-0.35791 2.75,-0.5 0.65968,-0.10789 1.27284,-0.20265 1.875,-0.28125 0.59314,-0.0774 1.15175,-0.1388 1.6875,-0.1875 0.37331,-0.034 0.71919,-0.0727 1.0625,-0.0937 0.66461,-0.0396 1.25565,-0.0441 1.8125,-0.0313 0.55685,0.0128 1.05401,0.0596 1.5,0.125 0.3356,0.0497 0.63586,0.10726 0.90625,0.1875 0.26782,0.0795 0.51647,0.1715 0.71875,0.28125 0.18316,0.0994 0.34055,0.2193 0.46875,0.34375 0.01,0.01 0.0217,0.0214 0.0313,0.0313 0.0485,0.0498 0.0851,0.1026 0.125,0.15625 0.073,0.0987 0.14431,0.19995 0.1875,0.3125 0.0937,0.24407 0.1763,0.47722 0.25,0.71875 1.45261,3.83423 3.0878,8.89545 -1.03125,14.375 -6.08953,8.10087 -13.3884,9.73716 -19.9375,12.1875 -6.3658,2.38175 -35.9414,10.60328 -52.6875,14.65625 -6.325,1.53081 -23.2,6.26983 -37.5,10.53125 -14.3,4.26141 -32.75,9.62987 -41,11.9375 -20.88498,5.84179 -34.5292,10.25316 -68,22.03125 -15.95,5.61267 -38.328126,13.27495 -49.749996,17 -3.47643,1.13378 -7.71633,2.52782 -12,3.9375 -4.54867,1.48959 -8.4718,2.78802 -12.25,4.0625 0.41089,4.15696 0.76368,8.36134 1.03125,12.65625 l 0.6875,11.15625 c 0.227817,4.12974 1.694002,-0.0225 2.8125,-0.375 1.68953,-0.53188 3.40513,-1.08033 5.125,-1.625 0.9668,-0.30675 1.63499,-0.51599 2.5625,-0.8125 2.46636,-0.78575 4.7,-1.50268 6.28125,-2.03125 34.544766,-11.54747 98.317436,-31.24153 142.499996,-44 15.4,-4.44702 32.95,-9.62732 39,-11.5 4.60963,-1.42684 10.79027,-3.17852 18.34375,-5.21875 7.55348,-2.04023 16.47764,-4.36293 26.53125,-6.90625 6.70241,-1.69555 13.91326,-3.49672 21.5625,-5.375 35.24817,-8.65524 50.04923,-13.74683 65.0625,-22.28125 6.74561,-3.83461 18.91473,-15.92161 24.15625,-24.03125 0.30664,-0.47443 0.61252,-0.95188 0.90625,-1.4375 0.1443,-0.24047 0.29691,-0.47552 0.4375,-0.71875 0.14279,-0.24479 0.26738,-0.50243 0.40625,-0.75 0.27551,-0.49538 0.55209,-0.99371 0.8125,-1.5 0.26041,-0.50629 0.50471,-1.01426 0.75,-1.53125 0.48653,-1.02544 0.95236,-2.08563 1.375,-3.15625 0.004,-0.009 -0.004,-0.0224 0,-0.0313 0.42566,-1.07988 0.81824,-2.16602 1.1875,-3.28125 0.18463,-0.55761 0.36183,-1.12027 0.53125,-1.6875 0.24353,-0.81539 0.47538,-1.63414 0.6875,-2.46875 0.21212,-0.83461 0.41311,-1.67805 0.59375,-2.53125 0.0851,-0.40182 0.17192,-0.81291 0.25,-1.21875 0.14672,-0.76372 0.25311,-1.53485 0.375,-2.3125 0.0165,-0.10529 0.0464,-0.20696 0.0625,-0.3125 0.0689,-0.45317 0.12701,-0.91726 0.1875,-1.375 0.10133,-0.76636 0.20349,-1.56494 0.28125,-2.34375 0.0123,-0.12371 0.0196,-0.25098 0.0313,-0.375 0.10119,-1.07432 0.19355,-2.15313 0.25,-3.25 0.003,-0.0622 -0.003,-0.12519 0,-0.1875 0.0334,-0.68011 0.0463,-1.3741 0.0625,-2.0625 0.0144,-0.60731 0.0302,-1.23018 0.0313,-1.84375 3.8e-4,-0.32922 0.003,-0.66902 0,-1 -0.0101,-0.99217 -0.0176,-1.99245 -0.0625,-3 -0.0413,-0.92054 -0.11716,-1.84847 -0.1875,-2.78125 -0.005,-0.0623 -0.0264,-0.12519 -0.0313,-0.1875 -0.067,-0.86651 -0.15795,-1.74842 -0.25,-2.625 -0.005,-0.0512 0.005,-0.105 0,-0.15625 -0.087,-0.81625 -0.17244,-1.64416 -0.28125,-2.46875 -10e-4,-0.0101 0.001,-0.0212 0,-0.0313 -0.1836,-1.38479 -0.41124,-2.78068 -0.65625,-4.1875 -0.18744,-1.07623 -0.40154,-2.16176 -0.625,-3.25 -0.13228,-0.64456 -0.26129,-1.28891 -0.40625,-1.9375 -0.023,-0.10285 -0.0392,-0.20955 -0.0625,-0.3125 -0.23486,-1.03718 -0.4827,-2.0781 -0.75,-3.125 -27.50507,-55.41591 -11.50427,-79.95464 -170.31245,-36.24995 z"
       id="path3096" />
    <path
       sodipodi:nodetypes="ssssssssssssccscccssssscssssscccscassssssssssssssssssss"
       inkscape:connector-curvature="0"
       id="path3108"
       d="M 424.81053,6.40625 C 419.2766,6.451483 413.85409,6.886345 409.59178,7.75 c -13.89202,2.814884 -68.84325,22.612998 -123.1875,44.375 -9.625,3.854304 -23.8,9.335651 -31.5,12.1875 -7.7,2.85185 -17.51508,6.526456 -21.8125,8.15625 -10.93427,4.146807 -42.41735,14.98593 -73.6875,25.375 -14.575,4.84234 -28.75,9.70019 -31.5,10.78125 -2.75,1.08105 -13.55,4.85032 -24,8.40625 -21.871996,7.4426 -27.008926,10.00104 -32.624996,16.09375 -7.79188,8.4532 -11.46507,18.86562 -47.40625,134.21875 -3.68438,11.825 -8.19009,26.225 -10,32 -4.2271997,13.488 -11.4136897,39.75747 -16.5312497,60.34375 -2.79396,11.23918 -4.08143,18.68677 -4.21875,24.40625 l -0.21875,8.21875 c 0,0 0.95398,3.06465 2,4.21875 1.44487,1.59417 5.53124997,3.3125 5.53124997,3.3125 l 9.62499973,0.25 c 2.41358,0.0562 7.02146,0.7587 8.875,0.875 4.37241,-2.10127 10.9647,-4.59964 19.0625,-6.5625 16.39604,-3.9743 31.05233,-8.04246 49.40625,-13.6875 19.971606,-6.14257 29.441006,-8.98678 59.499996,-17.875 35.77749,-10.57915 57.39878,-17.91257 68.27463,-21.18591 117.65843,-35.41215 125.28529,-49.61447 163.39187,-1.02617 12.75172,16.25925 14.48412,25.73393 17.02253,35.67587 5.06355,21.16491 -0.50562,41.33825 -15.60899,51.48313 -14.3357,9.62925 -24.39427,14.89794 -59.64244,23.55318 -30.59696,7.51313 -54.14515,13.6951 -66.4375,17.5 -6.05,1.87268 -23.6,7.05298 -39,11.5 -44.18256,12.75847 -107.95523,32.45253 -142.499996,44 -1.58125,0.52857 -3.81489,1.2455 -6.28125,2.03125 -0.92751,0.29651 -1.5957,0.50575 -2.5625,0.8125 -1.71987,0.54467 -3.43547,1.09312 -5.125,1.625 -1.49875,0.47253 -3.16324,0.9926 -4.4375,1.40625 -0.900635,0.29236 -1.644954,0.93643 -2.375,1.53125 -4.37344,2.76083 -11.13608,6.84606 -12.711371,12.60044 -1.815811,6.63298 2.038371,18.00012 5.211371,19.96206 3.46833,2.14454 13.21148,0.46325 25.78125,-4.4375 17.40162,-6.78461 54.772886,-21.80774 63.499996,-25.53125 4.125,-1.75998 20.775,-7.63292 37,-13.0625 29.55573,-9.8906 45.71901,-14.87723 97,-29.90625 15.125,-4.43271 30.875,-9.14747 35,-10.46875 4.125,-1.32128 13.575,-4.05056 21,-6.0625 23.88031,-6.47082 45.3584,-12.55966 51.03125,-14.46875 7.5622,-2.5449 22.61825,-9.23159 29.40625,-13.0625 17.89609,-10.09993 28.65394,-30.3216 38.59375,-72.46875 1.55652,-6.6 4.67478,-19.70699 6.90625,-29.15625 4.20385,-17.8014 5.45245,-23.59833 14.5625,-66.34375 2.98905,-14.025 7.92487,-36.975 10.96875,-51 3.04388,-14.025 6.70039,-30.9 8.125,-37.5 1.42461,-6.6 3.24897,-14.925 4.03125,-18.5 0.78229,-3.575 3.035,-15.95 5.03125,-27.5 5.71761,-33.08132 5.25441,-53.27876 -1.78125,-75.5 C 487.9312,61.927651 478.85845,40.141288 476.49803,36.25 469.10967,24.069833 457.17904,12.562467 448.52928,9.25 443.56702,7.3496763 434.03374,6.3308621 424.81053,6.40625 z"
       style="fill:#676767;fill-opacity:1" />
    <path
       id="path3104"
       d="m 307.71678,334.40625 c -1.08985,0.0118 -2.40733,0.0583 -4.03125,0.15625 -8.13341,0.4908 -17.93244,3.51613 -49.28125,15.25 -7.975,2.98504 -24.4,8.66408 -36.5,12.59375 -12.1,3.92967 -30.775,10.01934 -41.5,13.53125 -10.725,3.5119 -27.6,8.81131 -37.5,11.78125 -9.9,2.96994 -23.4,7.07909 -30,9.125 -4.7208,1.46338 -9.289616,2.8757 -13.687496,4.21875 -1.16552,0.35597 -2.45166,0.74645 -3.59375,1.09375 -3.08368,0.9373 -6.18688,1.87786 -9.09375,2.75 -0.52545,0.15768 -1.07421,0.31324 -1.59375,0.46875 -3.48394,1.04282 -6.82018,2.02561 -10.03125,2.96875 -3.66071,1.07521 -7.24276,2.12232 -10.53125,3.0625 -3.31684,0.94761 -6.42469,1.82069 -9.34375,2.625 -2.98211,0.82254 -5.60877,1.52059 -8.15625,2.1875 -2.4171,0.63277 -4.83587,1.26294 -6.84375,1.75 -2.09691,0.50865 -3.90013,0.90635 -5.53125,1.25 3.55317,7.01837 6.73146,14.3958 9.53125,22.125 0.62648,-0.29686 1.26959,-0.58118 1.9375,-0.875 0.49546,-0.21927 0.99055,-0.44005 1.5,-0.65625 0.10385,-0.0437 0.20822,-0.0814 0.3125,-0.125 0.53267,-0.22431 1.0548,-0.43725 1.59375,-0.65625 1.2772,-0.51527 2.54491,-1.02833 3.78125,-1.5 4.2625,-1.62617 8.875,-3.26432 10.25,-3.65625 1.375,-0.39193 9.25,-3.20997 17.5,-6.25 8.25,-3.04003 32.999996,-11.53 54.999996,-18.875 22,-7.34501 51.925,-17.43865 66.5,-22.4375 14.575,-4.99885 38.43823,-12.91179 53,-17.59375 36.15273,-11.62397 58.96929,-19.97952 61.71875,-22.5625 2.90457,-2.7287 3.05192,-7.80211 0.3125,-10.28125 -0.15444,-0.13977 -0.31096,-0.25713 -0.46875,-0.375 -0.0519,-0.0387 -0.10339,-0.0887 -0.15625,-0.125 -0.0382,-0.0263 -0.0862,-0.0373 -0.125,-0.0625 -0.17896,-0.11597 -0.36374,-0.22066 -0.5625,-0.3125 -0.0601,-0.0278 -0.125,-0.0682 -0.1875,-0.0937 -0.069,-0.028 -0.1464,-0.0371 -0.21875,-0.0625 -0.32385,-0.11386 -0.68101,-0.21497 -1.09375,-0.28125 -0.25248,-0.0405 -0.51607,-0.0695 -0.8125,-0.0937 -0.59287,-0.0487 -1.27636,-0.0713 -2.09375,-0.0625 z"
       style="fill:#676767;fill-opacity:1"
       inkscape:connector-curvature="0" />
    <path
       id="path3102"
       d="m 308.09178,367.375 c -0.63186,0.0215 -1.32175,0.0547 -2.03125,0.125 -0.0879,0.009 -0.16092,0.0217 -0.25,0.0313 -0.73739,0.0777 -1.52091,0.18294 -2.34375,0.3125 -0.24368,0.0382 -0.49864,0.0822 -0.75,0.125 -0.76948,0.13097 -1.53194,0.29502 -2.375,0.46875 -0.89612,0.18471 -1.83006,0.39133 -2.8125,0.625 -0.32505,0.0771 -0.66531,0.13629 -1,0.21875 -0.70041,0.17312 -1.4128,0.36576 -2.15625,0.5625 -0.44383,0.11708 -0.88433,0.21821 -1.34375,0.34375 -0.25806,0.0707 -0.48696,0.14537 -0.75,0.21875 -0.87565,0.24339 -1.72453,0.50806 -2.65625,0.78125 -1.26874,0.37201 -2.62436,0.75986 -4,1.1875 -0.16749,0.0521 -0.3309,0.10336 -0.5,0.15625 -1.43782,0.45013 -2.91181,0.9275 -4.46875,1.4375 -18.91285,6.19514 -46.77523,14.68984 -58.5625,17.875 -5.39669,1.4583 -13.94669,4.22708 -19,6.15625 -25.1593,9.60492 -75.43784,26.38361 -110.187496,36.75 -8.25,2.46111 -18.825,5.89231 -23.5,7.625 -1.16875,0.43317 -2.5191,0.90331 -3.9375,1.40625 -4.25521,1.50881 -9.21918,3.20785 -12.5,4.25 l -9.5625,3.375 c 2.26133,7.32663 4.2076,14.95339 5.84375,22.875 0.58041,-0.27891 1.41141,-0.63839 2.15625,-0.96875 0.77779,-0.34497 1.543,-0.67352 2.46875,-1.0625 1.26753,-0.53342 2.62248,-1.09949 4.09375,-1.6875 1.14156,-0.45509 2.37239,-0.93509 3.59375,-1.40625 0.40508,-0.15656 0.83911,-0.31159 1.25,-0.46875 2.22854,-0.85054 4.50981,-1.71175 6.78125,-2.53125 10.07669,-3.63551 22.1375,-8.21759 26.8125,-10.15625 31.851806,-13.20847 79.553466,-31.43758 95.999996,-36.6875 10.725,-3.42354 26.25,-8.38583 34.5,-11.03125 8.25,-2.64542 26.925,-8.58333 41.5,-13.21875 28.57794,-9.08891 42.58921,-13.88103 45.90625,-15.65625 2.84151,-1.52073 3.76282,-5.75792 1.96875,-8.96875 -0.1524,-0.27276 -0.33633,-0.51328 -0.53125,-0.75 -0.19492,-0.23672 -0.38541,-0.45569 -0.625,-0.65625 -0.20605,-0.17248 -0.44693,-0.35433 -0.6875,-0.5 -0.039,-0.0237 -0.0851,-0.0395 -0.125,-0.0625 -0.28642,-0.16429 -0.6021,-0.30959 -0.9375,-0.4375 -0.25818,-0.0985 -0.52416,-0.20441 -0.8125,-0.28125 -0.32698,-0.088 -0.66432,-0.12742 -1.03125,-0.1875 -0.0323,-0.005 -0.0612,-0.0261 -0.0937,-0.0313 -0.01,-10e-4 -0.0216,10e-4 -0.0313,0 -0.34149,-0.0521 -0.71731,-0.0966 -1.09375,-0.125 -0.14601,-0.011 -0.28608,-0.0238 -0.4375,-0.0313 -0.55728,-0.0271 -1.14939,-0.0215 -1.78125,0 z"
       style="fill:#676767;fill-opacity:1"
       inkscape:connector-curvature="0" />
    <path
       id="path3098"
       d="m 343.87303,392.5 c -0.52806,-0.0122 -1.09371,-0.004 -1.71875,0.0313 -0.37234,0.0204 -0.75024,0.0568 -1.15625,0.0937 -0.53771,0.049 -1.09213,0.10962 -1.6875,0.1875 -0.60216,0.0786 -1.21532,0.17336 -1.875,0.28125 -0.86882,0.14209 -1.78472,0.30777 -2.75,0.5 -0.48869,0.0971 -0.98726,0.20265 -1.5,0.3125 -1.51774,0.32516 -3.12382,0.69001 -4.84375,1.125 -1.5927,0.40281 -3.27561,0.88004 -5.03125,1.375 -0.34697,0.0978 -0.7094,0.17988 -1.0625,0.28125 -3.00603,0.86338 -6.20191,1.85343 -9.625,2.96875 -1.465,0.47733 -2.96489,0.97778 -4.5,1.5 -1.53511,0.52222 -3.11729,1.05863 -4.71875,1.625 -5.23277,1.85062 -16.25777,5.26286 -24.5,7.5625 -8.24223,2.29963 -20.625,5.9105 -27.5,8.03125 -6.875,2.12076 -19.70176,5.73043 -28.5,8.03125 -8.79825,2.30081 -19.59825,5.51646 -24,7.15625 -4.40176,1.63978 -22.5204,7.90076 -40.28125,13.90625 -32.80116,11.09109 -66.800736,23.38001 -86.718746,31.34375 -1.76433,0.70542 -3.42933,1.35762 -5,1.96875 -1.42269,0.55324 -2.74238,1.05931 -4,1.53125 -0.12842,0.0482 -0.27951,0.10885 -0.40625,0.15625 -1.12188,0.41896 -2.32702,0.86807 -3.3125,1.21875 -0.16538,0.0588 -0.36969,0.13058 -0.53125,0.1875 -0.64893,0.22827 -1.28894,0.45989 -1.875,0.65625 -0.20247,0.0678 -0.43003,0.1235 -0.625,0.1875 -0.53293,0.17493 -1.02339,0.32266 -1.5,0.46875 -0.28597,0.0876 -0.51563,0.17288 -0.78125,0.25 -0.95319,0.27747 -1.77993,0.48489 -2.46875,0.625 1.01592,6.26127 1.84673,12.70342 2.5,19.3125 3.7782,-1.27448 7.70133,-2.57291 12.25,-4.0625 4.28367,-1.40968 8.52357,-2.80372 12,-3.9375 11.42187,-3.72505 33.799996,-11.38733 49.749996,-17 33.4708,-11.77809 47.11502,-16.18946 68,-22.03125 8.25,-2.30763 26.7,-7.67609 41,-11.9375 14.3,-4.26142 31.175,-9.00044 37.5,-10.53125 16.7461,-4.05297 46.3217,-12.2745 52.6875,-14.65625 6.5491,-2.45034 13.84797,-4.08663 19.9375,-12.1875 4.37407,-5.8188 2.27981,-11.18858 0.78125,-15.09375 -0.13229,-0.34474 -0.406,-0.62319 -0.8125,-0.84375 -0.40773,-0.21945 -0.95601,-0.37073 -1.625,-0.46875 -0.44599,-0.0654 -0.94315,-0.11219 -1.5,-0.125 z"
       style="fill:#676767;fill-opacity:1"
       inkscape:connector-curvature="0" />
  </g>
</svg>
