<svg xmlns="http://www.w3.org/2000/svg" viewBox="0 0 500 555"><path d="M327,268.41l-21.91-38.68-39.3-11.54L296,213.78l-28.29-50L239.3,148.2l27.36,4.54,59.78,9.08L237.14,90c-4.4-4.26-11-2.34-13.25,3.87l-22.95,87.6,31.91,5.35-35.35,7.75-19.74,75.35,58.71,8.27-66.2,10.57L87.5,330.09s54.4-2.44,72.91-5c70.09-9.78,121.6-10.76,191.73-21.57C364.41,301.6,412,270.65,412,270.65Z" style="fill:#f15a24"/><path d="M175.45,411.91q0,26.08-14.85,40t-42.91,13.87H87.76V360.09h33.18q25.89,0,40.2,13.66T175.45,411.91Zm-23.28.58q0-34-30.07-34H110.17v68.8h9.62Q152.17,447.25,152.17,412.49Z" style="fill:#4d4948"/><path d="M256.2,436.41q0,14.31-10.3,22.55t-28.66,8.24q-16.92,0-29.93-6.36V440a123.11,123.11,0,0,0,18.11,6.72,53.24,53.24,0,0,0,13.55,2q7.38,0,11.32-2.82t3.94-8.39a9.25,9.25,0,0,0-1.74-5.53,19.52,19.52,0,0,0-5.1-4.66,129.87,129.87,0,0,0-13.7-7.15q-9.67-4.56-14.53-8.75a32.75,32.75,0,0,1-7.73-9.75,27.82,27.82,0,0,1-2.89-13q0-14,9.5-22.05t26.28-8a62.14,62.14,0,0,1,15.73,1.95A108.57,108.57,0,0,1,255.7,366l-7.23,17.42a106.72,106.72,0,0,0-14-4.84,45.3,45.3,0,0,0-10.88-1.37q-6.36,0-9.76,3a9.76,9.76,0,0,0-3.4,7.73,9.53,9.53,0,0,0,1.38,5.17,15.1,15.1,0,0,0,4.37,4.27q3,2.06,14.21,7.4,14.81,7.1,20.31,14.21T256.2,436.41Z" style="fill:#4d4948"/><path d="M385.4,465.75H359.88l-14.31-55.5q-.79-3-2.71-12.25t-2.21-12.47q-.43,3.9-2.16,12.54t-2.68,12.32l-14.24,55.36H296.12l-27-105.66H291.2l13.52,57.67q3.54,16,5.14,27.68.43-4.11,2-12.75t2.93-13.41l15.4-59.19h21.18l15.4,59.19q1,4,2.53,12.14t2.32,14q.72-5.64,2.31-14.05t2.89-13.63l13.45-57.67H412.3Z" style="fill:#4d4948"/></svg>