<?xml version="1.0" encoding="UTF-8" standalone="no"?>
<svg
   width="32"
   height="32"
   viewBox="0 0 32 32"
   version="1.1"
   id="svg1"
   xmlns="http://www.w3.org/2000/svg"
   xmlns:svg="http://www.w3.org/2000/svg">
  <defs
     id="defs1" />
  <path
     fill="currentColor"
     d="M12 2C8.145 2 5 5.145 5 9c0 2.41 1.23 4.55 3.094 5.813C4.527 16.343 2 19.883 2 24h2c0-4.43 3.57-8 8-8c1.375 0 2.656.36 3.781.969A8 8 0 0 0 14 22c0 4.406 3.594 8 8 8s8-3.594 8-8s-3.594-8-8-8a7.96 7.96 0 0 0-4.688 1.531a10 10 0 0 0-1.406-.719A7.02 7.02 0 0 0 19 9c0-3.855-3.145-7-7-7m0 2c2.773 0 5 2.227 5 5s-2.227 5-5 5s-5-2.227-5-5s2.227-5 5-5m10 12c3.324 0 6 2.676 6 6s-2.676 6-6 6s-6-2.676-6-6s2.676-6 6-6m3.281 3.281L22 22.563l-2.281-2.282l-1.438 1.438l3 3l.719.687l.719-.687l4-4z"
     id="path1"
     style="fill:#333333;fill-opacity:1" />
</svg>
