<?xml version="1.0" encoding="UTF-8" standalone="no"?>
<svg
   viewBox="0 0 535 535"
   version="1.1"
   id="svg1"
   sodipodi:docname="expert-icon.svg"
   inkscape:version="1.4 (e7c3feb100, 2024-10-09)"
   width="535"
   height="535"
   xmlns:inkscape="http://www.inkscape.org/namespaces/inkscape"
   xmlns:sodipodi="http://sodipodi.sourceforge.net/DTD/sodipodi-0.dtd"
   xmlns="http://www.w3.org/2000/svg"
   xmlns:svg="http://www.w3.org/2000/svg">
  <defs
     id="defs1" />
  <sodipodi:namedview
     id="namedview1"
     pagecolor="#ffffff"
     bordercolor="#666666"
     borderopacity="1.0"
     inkscape:showpageshadow="2"
     inkscape:pageopacity="0.0"
     inkscape:pagecheckerboard="0"
     inkscape:deskcolor="#d1d1d1"
     inkscape:zoom="0.93633406"
     inkscape:cx="371.66222"
     inkscape:cy="507.83157"
     inkscape:window-width="3840"
     inkscape:window-height="1542"
     inkscape:window-x="1920"
     inkscape:window-y="0"
     inkscape:window-maximized="1"
     inkscape:current-layer="svg1" />
  <!--! Font Awesome Pro 6.2.0 by @fontawesome - https://fontawesome.com License - https://fontawesome.com/license (Commercial License) Copyright 2022 Fonticons, Inc. -->
  <g
     id="g7"
     transform="translate(7.2381649,1.3386699)">
    <path
       style="fill:#676767;fill-opacity:1"
       d="m 310.16184,372.32266 h -99.8 c -78.5,0 -142.100005,59.7 -142.100005,133.3 0,14.8 12.7,26.7 28.4,26.7 H 423.86184 c 15.7,0 28.4,-11.9 28.4,-26.7 0,-73.6 -63.6,-133.3 -142.1,-133.3 z"
       id="path5" />
    <path
       style="fill:#676767;fill-opacity:1"
       d="m 260.26825,360.08705 c 57.41,0 103.1,-46.56 103.1,-104 0,-57.44 -46.54,-104 -103.1,-104 -57.41,0 -103.1,46.56 -103.1,104 -0.9,57.4 45.7,104 103.1,104 z"
       id="path3" />
    <path
       style="fill:#676767;fill-opacity:1"
       d="m 452.26184,28.339112 c -512.000005,0 -512.000005,0 0,0 z"
       id="path1" />
    <g
       id="g6"
       transform="translate(-64.560302,42.339112)">
      <path
         sodipodi:type="star"
         style="fill:#676767;fill-opacity:1;fill-rule:evenodd;stroke:none;stroke-width:7.13953;stroke-linecap:round;stroke-linejoin:round;stroke-miterlimit:0;stroke-opacity:1"
         id="path2"
         inkscape:flatsided="false"
         sodipodi:sides="5"
         sodipodi:cx="129.51974"
         sodipodi:cy="229.03493"
         sodipodi:r1="225.26811"
         sodipodi:r2="112.63406"
         sodipodi:arg1="2.1969812"
         sodipodi:arg2="2.8252998"
         inkscape:rounded="0.02"
         inkscape:randomized="0"
         d="M -2.5003782,411.56276 C -4.9245869,409.80936 23.403493,266.91269 22.47289,264.06924 21.542286,261.2258 -85.789462,162.72792 -84.871001,159.88053 -83.95254,157.03314 60.704131,139.81725 63.120835,138.05352 65.53754,136.28979 126.04725,3.7737113 129.0391,3.767328 c 2.99185,-0.00638 64.06651,132.250282 66.49072,134.003682 2.42421,1.7534 147.15301,18.35184 148.08362,21.19528 0.9306,2.84345 -105.97986,101.79846 -106.89832,104.64585 -0.91846,2.84739 28.01915,145.62186 25.60245,147.38559 -2.41671,1.76373 -129.56566,-69.33538 -132.55751,-69.329 -2.99185,0.006 -129.83622973,71.64743 -132.2604382,69.89403 z"
         inkscape:transform-center-x="0.049898954"
         inkscape:transform-center-y="-7.1789024"
         transform="matrix(0.33618453,0,0,0.33618453,469.56442,57.757745)" />
      <path
         sodipodi:type="star"
         style="fill:#676767;fill-opacity:1;fill-rule:evenodd;stroke:none;stroke-width:7.13953;stroke-linecap:round;stroke-linejoin:round;stroke-miterlimit:0;stroke-opacity:1"
         id="path2-3"
         inkscape:flatsided="false"
         sodipodi:sides="5"
         sodipodi:cx="129.51974"
         sodipodi:cy="229.03493"
         sodipodi:r1="225.26811"
         sodipodi:r2="112.63406"
         sodipodi:arg1="2.1969812"
         sodipodi:arg2="2.8252998"
         inkscape:rounded="0.02"
         inkscape:randomized="0"
         d="M -2.5003782,411.56276 C -4.9245869,409.80936 23.403493,266.91269 22.47289,264.06924 21.542286,261.2258 -85.789462,162.72792 -84.871001,159.88053 -83.95254,157.03314 60.704131,139.81725 63.120835,138.05352 65.53754,136.28979 126.04725,3.7737113 129.0391,3.767328 c 2.99185,-0.00638 64.06651,132.250282 66.49072,134.003682 2.42421,1.7534 147.15301,18.35184 148.08362,21.19528 0.9306,2.84345 -105.97986,101.79846 -106.89832,104.64585 -0.91846,2.84739 28.01915,145.62186 25.60245,147.38559 -2.41671,1.76373 -129.56566,-69.33538 -132.55751,-69.329 -2.99185,0.006 -129.83622973,71.64743 -132.2604382,69.89403 z"
         inkscape:transform-center-x="0.049898954"
         inkscape:transform-center-y="-7.1789024"
         transform="matrix(0.33618453,0,0,0.33618453,281.3295,-43.605629)" />
      <path
         sodipodi:type="star"
         style="fill:#676767;fill-opacity:1;fill-rule:evenodd;stroke:none;stroke-width:7.13953;stroke-linecap:round;stroke-linejoin:round;stroke-miterlimit:0;stroke-opacity:1"
         id="path2-3-4"
         inkscape:flatsided="false"
         sodipodi:sides="5"
         sodipodi:cx="129.51974"
         sodipodi:cy="229.03493"
         sodipodi:r1="225.26811"
         sodipodi:r2="112.63406"
         sodipodi:arg1="2.1969812"
         sodipodi:arg2="2.8252998"
         inkscape:rounded="0.02"
         inkscape:randomized="0"
         d="M -2.5003782,411.56276 C -4.9245869,409.80936 23.403493,266.91269 22.47289,264.06924 21.542286,261.2258 -85.789462,162.72792 -84.871001,159.88053 -83.95254,157.03314 60.704131,139.81725 63.120835,138.05352 65.53754,136.28979 126.04725,3.7737113 129.0391,3.767328 c 2.99185,-0.00638 64.06651,132.250282 66.49072,134.003682 2.42421,1.7534 147.15301,18.35184 148.08362,21.19528 0.9306,2.84345 -105.97986,101.79846 -106.89832,104.64585 -0.91846,2.84739 28.01915,145.62186 25.60245,147.38559 -2.41671,1.76373 -129.56566,-69.33538 -132.55751,-69.329 -2.99185,0.006 -129.83622973,71.64743 -132.2604382,69.89403 z"
         inkscape:transform-center-x="0.049898954"
         inkscape:transform-center-y="-7.1789024"
         transform="matrix(0.33618453,0,0,0.33618453,93.09459,63.097719)" />
    </g>
  </g>
</svg>
