<?xml version="1.0" encoding="UTF-8" standalone="no"?>
<svg
   id="Layer_1"
   data-name="Layer 1"
   width="800"
   height="600"
   viewBox="0 0 799.99999 600.00002"
   version="1.1"
   sodipodi:docname="flag_no.svg"
   inkscape:version="1.2.2 (b0a8486541, 2022-12-01)"
   xmlns:inkscape="http://www.inkscape.org/namespaces/inkscape"
   xmlns:sodipodi="http://sodipodi.sourceforge.net/DTD/sodipodi-0.dtd"
   xmlns="http://www.w3.org/2000/svg"
   xmlns:svg="http://www.w3.org/2000/svg">
  <sodipodi:namedview
     id="namedview1216"
     pagecolor="#ffffff"
     bordercolor="#666666"
     borderopacity="1.0"
     inkscape:showpageshadow="2"
     inkscape:pageopacity="0.0"
     inkscape:pagecheckerboard="0"
     inkscape:deskcolor="#d1d1d1"
     showgrid="false"
     inkscape:zoom="0.86589878"
     inkscape:cx="276.59122"
     inkscape:cy="475.22876"
     inkscape:window-width="1920"
     inkscape:window-height="1032"
     inkscape:window-x="0"
     inkscape:window-y="0"
     inkscape:window-maximized="1"
     inkscape:current-layer="Layer_1" />
  <defs
     id="defs1199">
    <style
       id="style1197">.cls-1{fill:#2a2e3d;}.cls-2{fill:#c23669;}</style>
  </defs>
  <g
     id="g1853"
     transform="matrix(27.562418,0,0,27.562418,70.92007,44.972679)">
    <rect
       width="22"
       height="16"
       fill="#ba0c2f"
       id="rect1629"
       x="0.93944341"
       y="0.81298047" />
    <g
       fill="#ffffff"
       id="g1635"
       transform="translate(0.93944343,0.81298046)">
      <rect
         width="4"
         height="16"
         x="6"
         id="rect1631"
         y="0" />
      <rect
         width="22"
         height="4"
         y="6"
         id="rect1633"
         x="0" />
    </g>
    <g
       fill="#00205b"
       id="g1641"
       transform="translate(0.93944343,0.81298046)">
      <rect
         width="2"
         height="16"
         x="7"
         id="rect1637"
         y="0" />
      <rect
         width="22"
         height="2"
         y="7"
         id="rect1639"
         x="0" />
    </g>
  </g>
  <g
     id="g1813"
     transform="matrix(0.3522477,0,0,0.3522477,674.16374,436.48366)">
    <circle
       class="cls-1"
       cx="-65.819626"
       cy="48.649288"
       r="229.95"
       id="circle1490"
       style="fill:#2a2e3d" />
    <path
       class="cls-2"
       d="m 46.70038,103.63929 q -3.41,-17.82 -11.87,-27.35 -8.46,-9.53 -18.24,-13.59 a 65.14,65.14 0 0 0 -17.81,-4.88 v -2.52 q 22.9,-2.55 35.83,-12.3 a 52.22,52.22 0 0 0 18.24,-24.81 97,97 0 0 0 5.3,-32.43 q 0,-34.35 -12.93,-53.64 -12.93,-19.29 -40.08,-27.35 -27.14,-8.07 -70.38,-8.07 -29.26,0 -49.83,0.21 -20.57,0.21 -37.7,1.07 c -5,0.25 -10.14,0.59 -15.42,1 l 64.33,47.92 a 53.31,53.31 0 1 1 -20.65,28.73 l -64.94,-48.38 v 266.28 h 90.28 v -107.17 q 12.81,0.1 28.41,0.31 11.87,0 17.18,3.82 5.31,3.82 7.81,16.11 l 19.08,86.93 h 96.26 z"
       id="path1492"
       style="fill:#ffffff" />
    <circle
       class="cls-3"
       cx="-73.359619"
       cy="-9.3807116"
       r="22.139999"
       id="circle1494"
       style="fill:#c23669" />
  </g>
</svg>
