<?xml version="1.0" encoding="UTF-8" standalone="no"?>
<svg
   width="32"
   height="32"
   viewBox="0 0 32 32"
   version="1.1"
   id="svg1"
   sodipodi:docname="git.svg"
   inkscape:version="1.4.2 (ebf0e940d0, 2025-05-08)"
   xmlns:inkscape="http://www.inkscape.org/namespaces/inkscape"
   xmlns:sodipodi="http://sodipodi.sourceforge.net/DTD/sodipodi-0.dtd"
   xmlns="http://www.w3.org/2000/svg"
   xmlns:svg="http://www.w3.org/2000/svg">
  <defs
     id="defs1" />
  <sodipodi:namedview
     id="namedview1"
     pagecolor="#ffffff"
     bordercolor="#666666"
     borderopacity="1.0"
     inkscape:showpageshadow="2"
     inkscape:pageopacity="0.0"
     inkscape:pagecheckerboard="0"
     inkscape:deskcolor="#d1d1d1"
     inkscape:zoom="13.923872"
     inkscape:cx="33.754977"
     inkscape:cy="21.222544"
     inkscape:window-width="3440"
     inkscape:window-height="1382"
     inkscape:window-x="1920"
     inkscape:window-y="0"
     inkscape:window-maximized="1"
     inkscape:current-layer="svg1" />
  <path
     fill="#333333"
     d="m 12.2,6.4 c -1.316,0 -2.4,1.084 -2.4,2.4 0,1.0344 0.6752,1.916 1.6,2.2504 v 9.8992 c -0.9248,0.3344 -1.6,1.216 -1.6,2.2504 0,1.316 1.084,2.4 2.4,2.4 1.316,0 2.4,-1.084 2.4,-2.4 0,-1.016 -0.6528,-1.8752 -1.5504,-2.2248 0.116,-0.984 0.4976,-1.4688 1.1008,-1.8752 0.7184,-0.484 1.8216,-0.772 3.024,-1.0504 1.204,-0.2776 2.4944,-0.5656 3.576,-1.3248 0.9496,-0.6656 1.668,-1.756 1.824,-3.2744 C 23.5136,13.1216 24.2,12.24 24.2,11.2 c 0,-1.316 -1.084,-2.4 -2.4,-2.4 -1.316,0 -2.4,1.084 -2.4,2.4 0,1.0216 0.6656,1.8816 1.5752,2.2248 -0.1096,1.0504 -0.516,1.572 -1.1256,2 -0.7184,0.504 -1.828,0.8 -3.024,1.0752 -1.1976,0.2752 -2.4944,0.5184 -3.576,1.2504 -0.0872,0.0592 -0.168,0.1336 -0.2496,0.2 v -6.9 C 13.9248,10.716 14.6,9.8344 14.6,8.8 14.6,7.484 13.516,6.4 12.2,6.4 m 0,1.6 C 12.6504,8 13,8.3504 13,8.8 13,9.2496 12.6496,9.6 12.2,9.6 11.7504,9.6 11.4,9.2496 11.4,8.8 11.4,8.3504 11.7504,8 12.2,8 m 9.6,2.4 c 0.4504,0 0.8,0.3504 0.8,0.8 0,0.4496 -0.3504,0.8 -0.8,0.8 -0.4496,0 -0.8,-0.3504 -0.8,-0.8 0,-0.4496 0.3504,-0.8 0.8,-0.8 m -9.6,12 c 0.4504,0 0.8,0.3504 0.8,0.8 0,0.4496 -0.3504,0.8 -0.8,0.8 -0.4496,0 -0.8,-0.3504 -0.8,-0.8 0,-0.4496 0.3504,-0.8 0.8,-0.8"
     id="path1"
     style="stroke-width:0.8" />
</svg>
