<?xml version="1.0" encoding="UTF-8" standalone="no"?>
<svg
   width="32"
   height="32"
   viewBox="0 0 32 32"
   version="1.1"
   id="svg1"
   xmlns="http://www.w3.org/2000/svg"
   xmlns:svg="http://www.w3.org/2000/svg">
  <defs
     id="defs1" />
  <path
     fill="currentColor"
     d="M22 3c-3.301 0-6 2.699-6 6c0 .992.383 2.004.875 3.125a35 35 0 0 0 1.75 3.406a62 62 0 0 0 2.563 4.031L22 20.75l.813-1.188s1.288-1.836 2.562-4.03a35 35 0 0 0 1.75-3.407C27.617 11.004 28 9.992 28 9c0-3.301-2.699-6-6-6M11.969 4.938L4 8.344V27.53l8.031-3.468l8 3L28 23.655v-8.718a49 49 0 0 1-2 3.437v3.969l-5 2.125v-1.625l-1.469-2.125c-.156-.227-.34-.497-.531-.782v4.625l-6-2.25V7.438l1.094.407a8 8 0 0 1 .531-1.938zM22 5c2.219 0 4 1.781 4 4c0 .387-.241 1.3-.688 2.313c-.445 1.011-1.074 2.16-1.687 3.218c-.816 1.406-1.168 1.908-1.625 2.596c-.457-.688-.809-1.19-1.625-2.596c-.613-1.059-1.241-2.207-1.688-3.219C18.242 10.302 18 9.387 18 9c0-2.219 1.781-4 4-4M11 7.5v14.844l-5 2.125V9.656z"
     id="path1"
     style="fill:#808080;fill-opacity:1" />
</svg>
