<?xml version="1.0" encoding="UTF-8" standalone="no"?>
<svg
   id="Layer_1"
   data-name="Layer 1"
   width="800"
   height="600"
   viewBox="0 0 799.99999 600.00002"
   version="1.1"
   sodipodi:docname="openscience_no.svg"
   inkscape:version="1.2.2 (b0a8486541, 2022-12-01)"
   xmlns:inkscape="http://www.inkscape.org/namespaces/inkscape"
   xmlns:sodipodi="http://sodipodi.sourceforge.net/DTD/sodipodi-0.dtd"
   xmlns="http://www.w3.org/2000/svg"
   xmlns:svg="http://www.w3.org/2000/svg">
  <sodipodi:namedview
     id="namedview1216"
     pagecolor="#ffffff"
     bordercolor="#666666"
     borderopacity="1.0"
     inkscape:showpageshadow="2"
     inkscape:pageopacity="0.0"
     inkscape:pagecheckerboard="0"
     inkscape:deskcolor="#d1d1d1"
     showgrid="false"
     inkscape:zoom="0.86589878"
     inkscape:cx="276.59122"
     inkscape:cy="475.22876"
     inkscape:window-width="1920"
     inkscape:window-height="1032"
     inkscape:window-x="0"
     inkscape:window-y="0"
     inkscape:window-maximized="1"
     inkscape:current-layer="Layer_1" />
  <defs
     id="defs1199">
    <style
       id="style1197">.cls-1{fill:#2a2e3d;}.cls-2{fill:#c23669;}</style>
  </defs>
  <g
     id="Layer_2"
     data-name="Layer 2"
     transform="matrix(5.0268833,0,0,5.0268833,176.30369,76.379096)">
    <g
       id="Layer_1-2"
       data-name="Layer 1">
      <path
         class="cls-1"
         d="m 87.93,53.93 0.15,-0.67 0.15,-0.85 a 45.18,45.18 0 0 0 0.77,-7.94 44.5,44.5 0 0 0 -89,0 c 0,0.21 0,0.42 0,0.62 A 44.3,44.3 0 0 0 13,76 5.9114127,5.9114127 0 1 0 21.36,67.64 32.64,32.64 0 1 1 76.82,48.83 c 0,0.17 0,0.35 -0.07,0.52 -0.07,0.17 0,0.29 -0.07,0.44 A 32.74,32.74 0 0 1 50.39,76.57 V 56.23 a 13.32,13.32 0 1 0 -11.83,0 V 83 83 a 5.92,5.92 0 0 0 5.92,6 44.31,44.31 0 0 0 30.52,-12.21 5.59,5.59 0 0 0 0.93,-0.77 44.2,44.2 0 0 0 12,-22.09 z"
         id="path2663"
         style="fill:#ed7d31" />
    </g>
  </g>
</svg>
