<?xml version="1.0" encoding="UTF-8" standalone="no"?>
<svg
   id="svg2"
   viewBox="0 0 480 480"
   version="1.1"
   sodipodi:docname="question_icon.svg"
   inkscape:version="1.4 (e7c3feb100, 2024-10-09)"
   xmlns:inkscape="http://www.inkscape.org/namespaces/inkscape"
   xmlns:sodipodi="http://sodipodi.sourceforge.net/DTD/sodipodi-0.dtd"
   xmlns="http://www.w3.org/2000/svg"
   xmlns:svg="http://www.w3.org/2000/svg"
   xmlns:rdf="http://www.w3.org/1999/02/22-rdf-syntax-ns#"
   xmlns:cc="http://creativecommons.org/ns#"
   xmlns:dc="http://purl.org/dc/elements/1.1/">
  <defs
     id="defs1" />
  <sodipodi:namedview
     id="namedview1"
     pagecolor="#ffffff"
     bordercolor="#666666"
     borderopacity="1.0"
     inkscape:showpageshadow="2"
     inkscape:pageopacity="0.0"
     inkscape:pagecheckerboard="0"
     inkscape:deskcolor="#d1d1d1"
     inkscape:zoom="0.53255854"
     inkscape:cx="217.81643"
     inkscape:cy="459.10446"
     inkscape:window-width="1912"
     inkscape:window-height="1534"
     inkscape:window-x="3840"
     inkscape:window-y="0"
     inkscape:window-maximized="0"
     inkscape:current-layer="g4014" />
  <g
     id="layer1"
     transform="translate(-142.86 -212.36)">
    <g
       id="g4014">
      <path
         id="path1"
         style="fill:#676767;fill-rule:evenodd;stroke-width:7.13953;stroke-linecap:round;stroke-linejoin:round;stroke-miterlimit:0"
         d="M 382.86 231.72719 A 220.63303 220.63303 0 0 0 162.22719 452.36 A 220.63303 220.63303 0 0 0 382.86 672.99281 A 220.63303 220.63303 0 0 0 603.49281 452.36 A 220.63303 220.63303 0 0 0 382.86 231.72719 z M 372.18617 263.69984 C 412.56603 263.69984 443.34705 271.97494 464.52992 288.52406 C 485.7128 304.90769 496.30336 328.90352 496.30336 360.51234 C 496.30336 376.73048 493.07783 391.29348 486.62367 404.2018 C 480.16951 416.94462 469.16422 430.68011 453.60805 445.40883 L 437.71938 459.55922 C 426.46597 469.81967 419.10289 478.09477 415.62758 484.38344 C 412.15226 490.50661 410.41469 497.2918 410.41469 504.73891 L 410.41469 515.90883 L 320.80141 515.90883 L 320.80141 503.74477 C 320.80141 490.17449 323.5316 478.17657 328.99281 467.75063 C 334.45402 457.15919 345.95465 443.75392 363.49672 427.53578 L 379.38539 413.1393 C 388.81839 404.53375 395.68613 396.42377 399.98891 388.81117 C 404.45717 381.19858 406.69008 373.58588 406.69008 365.97328 C 406.69008 354.3889 402.71959 345.3708 394.77602 338.91664 C 386.83244 332.29699 375.74459 328.98695 361.51234 328.98695 C 348.10756 328.98695 333.62711 331.7997 318.07094 337.42641 C 302.51476 342.88762 286.29674 351.08016 269.41664 362.00258 L 269.41664 284.05531 C 289.44108 277.10468 307.72689 271.97451 324.27602 268.66469 C 340.82514 265.35486 356.79549 263.69984 372.18617 263.69984 z M 320.80141 552.64711 L 410.41469 552.64711 L 410.41469 641.02016 L 320.80141 641.02016 L 320.80141 552.64711 z " />
      <g
         id="g3856"
         fill="#250"
         transform="matrix(1 -.22818 0 1 123.78 486.41)" />
      <g
         id="g3869"
         fill="#250"
         transform="matrix(.93139 -.36402 .36402 .93139 -303.21 509.13)" />
    </g>
  </g>
  <metadata
     id="metadata1">
    <rdf:RDF>
      <cc:Work>
        <dc:format>image/svg+xml</dc:format>
        <dc:type
           rdf:resource="http://purl.org/dc/dcmitype/StillImage" />
        <cc:license
           rdf:resource="http://creativecommons.org/licenses/publicdomain/" />
        <dc:publisher>
          <cc:Agent
             rdf:about="http://openclipart.org/">
            <dc:title>Openclipart</dc:title>
          </cc:Agent>
        </dc:publisher>
        <dc:date>2013-05-21T04:11:18</dc:date>
        <dc:description>map style windows 8</dc:description>
        <dc:source>https://openclipart.org/detail/178411/map-icon-by-fabiovaleggia-178411</dc:source>
        <dc:creator>
          <cc:Agent>
            <dc:title>fabiovaleggia</dc:title>
          </cc:Agent>
        </dc:creator>
        <dc:subject>
          <rdf:Bag>
            <rdf:li>map</rdf:li>
            <rdf:li>mappa</rdf:li>
          </rdf:Bag>
        </dc:subject>
      </cc:Work>
      <cc:License
         rdf:about="http://creativecommons.org/licenses/publicdomain/">
        <cc:permits
           rdf:resource="http://creativecommons.org/ns#Reproduction" />
        <cc:permits
           rdf:resource="http://creativecommons.org/ns#Distribution" />
        <cc:permits
           rdf:resource="http://creativecommons.org/ns#DerivativeWorks" />
      </cc:License>
    </rdf:RDF>
  </metadata>
</svg>
