<?xml version="1.0" encoding="UTF-8" standalone="no"?>
<svg
   id="Layer_1"
   data-name="Layer 1"
   width="800"
   height="600"
   viewBox="0 0 799.99999 600.00002"
   version="1.1"
   sodipodi:docname="RDMkit_logo.svg"
   inkscape:version="1.2.2 (b0a8486541, 2022-12-01)"
   xmlns:inkscape="http://www.inkscape.org/namespaces/inkscape"
   xmlns:sodipodi="http://sodipodi.sourceforge.net/DTD/sodipodi-0.dtd"
   xmlns="http://www.w3.org/2000/svg"
   xmlns:svg="http://www.w3.org/2000/svg">
  <sodipodi:namedview
     id="namedview1216"
     pagecolor="#ffffff"
     bordercolor="#666666"
     borderopacity="1.0"
     inkscape:showpageshadow="2"
     inkscape:pageopacity="0.0"
     inkscape:pagecheckerboard="0"
     inkscape:deskcolor="#d1d1d1"
     showgrid="false"
     inkscape:zoom="0.86589878"
     inkscape:cx="276.59122"
     inkscape:cy="475.22876"
     inkscape:window-width="1920"
     inkscape:window-height="1032"
     inkscape:window-x="0"
     inkscape:window-y="0"
     inkscape:window-maximized="1"
     inkscape:current-layer="Layer_1" />
  <defs
     id="defs1199">
    <style
       id="style1197">.cls-1{fill:#2a2e3d;}.cls-2{fill:#c23669;}</style>
  </defs>
  <g
     id="g1342"
     transform="translate(64.745,229.83)">
    <path
       class="cls-1"
       d="m 414.24,0.07 q 14.83,0 15.44,15.24 l 4.88,125 H 394.93 L 390.66,33 h -3.05 l -13.82,71.54 q -2,13.41 -16.66,13.41 h -22.77 q -14.43,0 -16.86,-13.41 L 303.47,33 h -3.05 L 297,140.31 h -39.66 l 4.87,-125 Q 262.83,0.07 277.66,0.07 h 38 q 14.22,0 16.66,13.62 l 10.16,55.69 c 0.54,3.38 1,6.84 1.32,10.36 0.32,3.52 0.65,7.05 0.92,10.57 h 1.83 q 0.62,-5.28 1.12,-10.57 c 0.33,-3.52 0.77,-7 1.32,-10.36 l 9.55,-55.69 Q 361,0.07 375.42,0.07 Z"
       id="path1201" />
    <path
       class="cls-2"
       d="m 514.92,140.31 h 43.37 L 535,101.75 A 37.82,37.82 0 0 0 529.56,94 24,24 0 0 0 524.12,89.11 V 88.4 A 43.45,43.45 0 0 0 529.56,84 26.79,26.79 0 0 0 535,77.11 l 19.71,-30.84 h -43.17 l -17.89,31.22 h -5.38 c 0.2,-1.23 0.39,-2.49 0.55,-3.76 a 119.47,119.47 0 0 0 0.94,-14.67 V 0.07 h -39.43 v 140.24 h 39.43 v -26.9 a 74.66,74.66 0 0 0 -1.22,-12.5 c -0.08,-0.42 -0.15,-0.82 -0.23,-1.23 h 5.23 z"
       id="path1203" />
    <path
       class="cls-2"
       d="m 570.49,35.07 h 17.8 q 12.19,0 12.2,-12.4 v -10.2 q 0,-12.39 -12.2,-12.4 h -17.8 q -12.21,0 -12.2,12.4 v 10.2 q 0,12.41 12.2,12.4 z"
       id="path1205" />
    <path
       class="cls-2"
       d="m 670.51,69.3 v -23 h -22.14 v -24 h -38.61 v 24.09 l -51.32,-0.11 v 94.06 h 38.25 v -71.1 l 13.11,0.06 0.09,45.39 q 0,12.07 7.87,18.85 7.87,6.78 21.24,6.77 c 2.93,0 6.31,-0.19 10.15,-0.55 3.84,-0.36 7.66,-0.89 11.44,-1.56 a 43.76,43.76 0 0 0 9.52,-2.65 L 665.94,111 h -9.7 q -4.22,0 -6,-1.56 -1.78,-1.56 -1.83,-5 V 69.3 Z"
       id="path1207" />
    <path
       class="cls-1"
       d="M 111.59,97.84 Q 110,89.43 106,84.91 A 23.89,23.89 0 0 0 97.38,78.5 31.1,31.1 0 0 0 89,76.2 V 75 q 10.81,-1.2 16.93,-5.81 A 24.67,24.67 0 0 0 114.54,57.47 45.81,45.81 0 0 0 117,42.14 Q 117,25.91 110.89,16.8 104.78,7.69 92,3.88 79.13,0.07 58.7,0.07 q -13.83,0 -23.54,0.1 -9.71,0.1 -17.83,0.5 c -2.35,0.12 -4.79,0.28 -7.28,0.47 l 30.39,22.64 a 25.2,25.2 0 1 1 -10.77,20.66 25.4,25.4 0 0 1 1,-7.08 L 0,14.5 V 140.31 H 42.67 V 89.68 q 6.06,0 13.42,0.14 5.61,0 8.12,1.81 2.51,1.81 3.7,7.61 l 9,41.07 h 45.48 z"
       id="path1209" />
    <circle
       class="cls-2"
       cx="54.869999"
       cy="44.439999"
       r="10.46"
       id="circle1211" />
    <path
       class="cls-1"
       d="M 247.51,35.77 Q 244.14,22.13 236.64,14.33 229.14,6.53 217,3.26 204.82,0 187.23,0 169.84,0 155.91,0.59 141.98,1.18 128.94,2 v 136.33 q 12.84,0.79 27.07,1.38 14.23,0.59 31.22,0.6 17.6,0 29.75,-3.26 12.15,-3.26 19.66,-11.05 7.5,-7.8 10.87,-21.44 3.37,-13.64 3.36,-34.39 0,-20.76 -3.36,-34.4 z M 204,94.46 q -1.58,8.51 -5.53,11.66 -3.95,3.15 -11.27,3.16 -8.16,0 -15.41,-0.12 V 31 h 15.41 q 7.32,0 11.27,3.16 3.95,3.16 5.53,11.69 1.58,8.49 1.58,24.3 0,15.81 -1.58,24.31 z"
       id="path1213" />
  </g>
</svg>
