<?xml version="1.0" encoding="UTF-8" standalone="no"?>
<svg
   id="_50"
   data-name="50"
   viewBox="0 0 460 460"
   version="1.1"
   sodipodi:docname="search.svg"
   inkscape:version="1.3.2 (091e20ef0f, 2023-11-25, custom)"
   xmlns:inkscape="http://www.inkscape.org/namespaces/inkscape"
   xmlns:sodipodi="http://sodipodi.sourceforge.net/DTD/sodipodi-0.dtd"
   xmlns="http://www.w3.org/2000/svg"
   xmlns:svg="http://www.w3.org/2000/svg">
  <sodipodi:namedview
     id="namedview1"
     pagecolor="#ffffff"
     bordercolor="#666666"
     borderopacity="1.0"
     inkscape:showpageshadow="2"
     inkscape:pageopacity="0.0"
     inkscape:pagecheckerboard="0"
     inkscape:deskcolor="#d1d1d1"
     inkscape:zoom="2.435666"
     inkscape:cx="224.16867"
     inkscape:cy="238.12789"
     inkscape:window-width="3440"
     inkscape:window-height="1382"
     inkscape:window-x="1920"
     inkscape:window-y="0"
     inkscape:window-maximized="1"
     inkscape:current-layer="_50" />
  <defs
     id="defs1">
    <style
       id="style1">
      .cls-1 {
        fill: #c33669;
        isolation: isolate;
        opacity: .5;
      }

      .cls-1, .cls-2 {
        stroke-width: 0px;
      }

      .cls-2 {
        fill: #2a2e3d;
      }
    </style>
  </defs>
  <g
     id="layer1"
     transform="matrix(1.5273969,0,0,1.5273969,-407.61443,-480.3445)"
     inkscape:label="search-ideogram.svg">
    <path
       id="path3058-6"
       style="color:#000000;text-indent:0;text-transform:none"
       d="m 393.36,334.66 c -26.422,0 -52.849,10.027 -72.935,30.113 -40.172,40.171 -40.218,105.74 -0.046,145.91 35.217,35.216 89.911,39.558 129.94,13.03 l 60.918,60.916 c 8.0386,8.0384 20.97,8.0384 29.008,0 8.0387,-8.0384 8.0387,-20.969 0,-29.008 L 479.373,494.705 C 505.87,454.682 501.5,399.973 466.296,364.765 446.21,344.68 419.782,334.652 393.361,334.652 Z m -0.046,27.166 c 19.371,0.009 38.738,7.4275 53.596,22.285 29.716,29.715 29.762,77.521 0.046,107.24 -29.716,29.715 -77.523,29.715 -107.24,0 -29.716,-29.715 -29.716,-77.52 0,-107.24 14.858,-14.858 34.225,-22.295 53.596,-22.285 z m -54.656,99.224 a 2.9472,2.9471 0 0 0 -2.5325,4.236 c 10.265,21.49 32.226,36.328 57.602,36.328 5.5064,0 10.842,-0.71645 15.932,-2.0259 a 2.9472,2.9471 0 0 0 -0.0921,-5.7094 c -25.496,-5.6948 -48.907,-16.882 -68.975,-32.231 a 2.9472,2.9471 0 0 0 -1.9339,-0.59857 z" />
  </g>
</svg>
