<?xml version="1.0" encoding="UTF-8" standalone="no"?>
<!-- Created with Inkscape (http://www.inkscape.org/) -->

<svg
   id="svg2"
   version="1.1"
   inkscape:version="1.4 (e7c3feb100, 2024-10-09)"
   width="31.846254"
   height="30.283754"
   sodipodi:docname="target-icon.svg"
   xmlns:inkscape="http://www.inkscape.org/namespaces/inkscape"
   xmlns:sodipodi="http://sodipodi.sourceforge.net/DTD/sodipodi-0.dtd"
   xmlns="http://www.w3.org/2000/svg"
   xmlns:svg="http://www.w3.org/2000/svg"
   xmlns:rdf="http://www.w3.org/1999/02/22-rdf-syntax-ns#"
   xmlns:cc="http://creativecommons.org/ns#"
   xmlns:dc="http://purl.org/dc/elements/1.1/">
  <metadata
     id="metadata8">
    <rdf:RDF>
      <cc:Work
         rdf:about="">
        <dc:format>image/svg+xml</dc:format>
        <dc:type
           rdf:resource="http://purl.org/dc/dcmitype/StillImage" />
        <dc:title />
      </cc:Work>
    </rdf:RDF>
  </metadata>
  <defs
     id="defs6" />
  <sodipodi:namedview
     pagecolor="#ffffff"
     bordercolor="#666666"
     borderopacity="1"
     objecttolerance="10"
     gridtolerance="10"
     guidetolerance="10"
     inkscape:pageopacity="0"
     inkscape:pageshadow="2"
     inkscape:window-width="1912"
     inkscape:window-height="1534"
     id="namedview4"
     showgrid="false"
     showguides="true"
     inkscape:guide-bbox="true"
     inkscape:zoom="6.7428571"
     inkscape:cx="-13.42161"
     inkscape:cy="3.1885593"
     inkscape:window-x="1920"
     inkscape:window-y="0"
     inkscape:window-maximized="0"
     inkscape:current-layer="svg2"
     fit-margin-top="0"
     fit-margin-left="0"
     fit-margin-right="0"
     fit-margin-bottom="0"
     inkscape:showpageshadow="2"
     inkscape:pagecheckerboard="0"
     inkscape:deskcolor="#d1d1d1">
    <inkscape:grid
       type="xygrid"
       id="grid3084"
       empspacing="5"
       visible="true"
       enabled="true"
       snapvisiblegridlinesonly="true"
       originx="5.09375px"
       originy="-33.908754px"
       spacingy="1"
       spacingx="1"
       units="px" />
  </sodipodi:namedview>
  <path
     style="fill:#676767;fill-opacity:1;stroke:#80ba27;stroke-width:0;stroke-linecap:square;stroke-linejoin:round;stroke-miterlimit:4;stroke-opacity:1;stroke-dasharray:none"
     d="m 27.929555,0.03731675 -4.53125,3.96874995 0.03125,2.75 -10.6875,9.3125003 c -0.267116,0.240883 -0.25303,0.675245 0.03125,1 0.286602,0.327408 0.727387,0.39535 1,0.15625 l 10.5625,-9.2187503 2.9375,0.4375 4.53125,-3.9375 -3.84375,-0.59375 -0.03125,-3.87499995 z M 12.648305,5.0060667 c -6.9620639,0 -12.59374989,5.6629363 -12.59374989,12.6250003 0,6.962064 5.63168599,12.59375 12.59374989,12.59375 6.962064,0 12.625,-5.631686 12.625,-12.59375 0,-2.3535 -0.655558,-4.549492 -1.78125,-6.4375 l -2.375,2.0625 c 0.667511,1.314588 1.03125,2.800572 1.03125,4.375 0,5.323932 -4.301069,9.625 -9.625,9.625 -5.3239309,0 -9.6562499,-4.301068 -9.6562499,-9.625 0,-5.323931 4.332319,-9.6562503 9.6562499,-9.6562503 1.956061,0 3.763927,0.589802 5.28125,1.59375 l 2.375,-2.0625 c -2.103887,-1.568663 -4.710796,-2.5 -7.53125,-2.5 z m -0.125,5.4687503 c -3.9204059,0.05529 -7.0728249,3.266717 -7.0624999,7.1875 0.01041,3.952804 3.234696,7.135409 7.1874999,7.125 3.952804,-0.01041 7.135409,-3.203446 7.125,-7.15625 -0.0025,-0.963496 -0.182807,-1.879055 -0.53125,-2.71875 l -1.0625,0.875 c 0.186067,0.571902 0.310833,1.179428 0.3125,1.8125 0.0085,3.243326 -2.600424,5.866459 -5.84375,5.875 -3.2433259,0.0085 -5.8664589,-2.600424 -5.8749999,-5.84375 -0.0085,-3.217052 2.564506,-5.86088 5.7812499,-5.90625 l 0.0625,0 c 0.786243,-0.0021 1.533813,0.157395 2.21875,0.4375 l 1.03125,-0.90625 c -0.98704,-0.509396 -2.096333,-0.78437 -3.28125,-0.78125 l -0.0625,0 z m -0.03125,3.71875 c -0.202221,0.01134 -0.403919,0.05184 -0.59375,0.09375 -0.657519,0.145166 -1.235104,0.470472 -1.6875,0.9375 -0.4523959,0.467028 -0.7751689,1.055884 -0.9062499,1.71875 -0.04414,0.22039 -0.06311,0.45412 -0.0625,0.6875 6.2e-4,0.235286 0.01681,0.465563 0.0625,0.6875 0.09197,0.44349 0.285305,0.856762 0.53125,1.21875 0.2446669,0.362813 0.5442499,0.66139 0.9062499,0.90625 0.543,0.367291 1.200392,0.595609 1.90625,0.59375 0.421314,-0.0011 0.814832,-0.07641 1.1875,-0.21875 0.25169,-0.09613 0.499365,-0.224841 0.71875,-0.375 0.18814,-0.128773 0.34119,-0.274721 0.5,-0.4375 0.153784,-0.154596 0.284232,-0.318361 0.40625,-0.5 0.24486,-0.365662 0.441233,-0.77367 0.53125,-1.21875 0.04095,-0.202475 0.05993,-0.41186 0.0625,-0.625 l -1.1875,1.03125 c -0.607855,0.534557 -1.811538,0.131532 -2.71875,-0.90625 -0.899889,-1.029358 -1.123786,-2.270465 -0.53125,-2.8125 l 0.875,-0.78125 z"
     id="path3064"
     inkscape:connector-curvature="0" />
  <text
     xml:space="preserve"
     style="font-style:normal;font-weight:normal;line-height:0%;font-family:sans-serif;letter-spacing:0px;word-spacing:0px;fill:#000000;fill-opacity:1;stroke:none"
     x="-9.1435385"
     y="81.544205"
     id="text3087"><tspan
       sodipodi:role="line"
       id="tspan3089"
       x="-9.1435385"
       y="81.544205"
       style="font-style:normal;font-variant:normal;font-weight:normal;font-stretch:normal;font-size:12px;line-height:1.25;font-family:OpenDyslexicAlta;-inkscape-font-specification:OpenDyslexicAlta"> </tspan></text>
</svg>
