<?xml version="1.0" encoding="UTF-8" standalone="no"?>
<svg
   width="32"
   height="32"
   viewBox="0 0 32 32"
   version="1.1"
   id="svg1"
   xmlns="http://www.w3.org/2000/svg"
   xmlns:svg="http://www.w3.org/2000/svg">
  <defs
     id="defs1" />
  <path
     fill="currentColor"
     d="M11.5 6A3.514 3.514 0 0 0 8 9.5c0 1.922 1.578 3.5 3.5 3.5S15 11.422 15 9.5S13.422 6 11.5 6m9 0A3.514 3.514 0 0 0 17 9.5c0 1.922 1.578 3.5 3.5 3.5S24 11.422 24 9.5S22.422 6 20.5 6m-9 2c.84 0 1.5.66 1.5 1.5s-.66 1.5-1.5 1.5s-1.5-.66-1.5-1.5s.66-1.5 1.5-1.5m9 0c.84 0 1.5.66 1.5 1.5s-.66 1.5-1.5 1.5s-1.5-.66-1.5-1.5s.66-1.5 1.5-1.5M7 12c-2.2 0-4 1.8-4 4c0 1.113.477 2.117 1.219 2.844A5.04 5.04 0 0 0 2 23h2c0-1.668 1.332-3 3-3s3 1.332 3 3h2a5.04 5.04 0 0 0-2.219-4.156C10.523 18.117 11 17.114 11 16c0-2.2-1.8-4-4-4m5 11c-.625.836-1 1.887-1 3h2c0-1.668 1.332-3 3-3s3 1.332 3 3h2a5.02 5.02 0 0 0-1-3c-.34-.453-.75-.84-1.219-1.156C19.523 21.117 20 20.114 20 19c0-2.2-1.8-4-4-4s-4 1.8-4 4c0 1.113.477 2.117 1.219 2.844A5 5 0 0 0 12 23m8 0h2c0-1.668 1.332-3 3-3s3 1.332 3 3h2a5.04 5.04 0 0 0-2.219-4.156C28.523 18.117 29 17.114 29 16c0-2.2-1.8-4-4-4s-4 1.8-4 4c0 1.113.477 2.117 1.219 2.844A5.04 5.04 0 0 0 20 23M7 14c1.117 0 2 .883 2 2s-.883 2-2 2s-2-.883-2-2s.883-2 2-2m18 0c1.117 0 2 .883 2 2s-.883 2-2 2s-2-.883-2-2s.883-2 2-2m-9 3c1.117 0 2 .883 2 2s-.883 2-2 2s-2-.883-2-2s.883-2 2-2"
     id="path1"
     style="fill:#333333;fill-opacity:1" />
</svg>
