<?xml version="1.0" encoding="UTF-8" standalone="no"?>
<svg
   viewBox="0 0 45 44.84536"
   xml:space="preserve"
   fill-rule="evenodd"
   clip-rule="evenodd"
   stroke-linejoin="round"
   stroke-miterlimit="2"
   version="1.1"
   id="svg4"
   sodipodi:docname="dmeg.svg"
   width="45"
   height="44.84536"
   inkscape:version="1.3.2 (091e20ef0f, 2023-11-25, custom)"
   xmlns:inkscape="http://www.inkscape.org/namespaces/inkscape"
   xmlns:sodipodi="http://sodipodi.sourceforge.net/DTD/sodipodi-0.dtd"
   xmlns="http://www.w3.org/2000/svg"
   xmlns:svg="http://www.w3.org/2000/svg"><defs
   id="defs4" /><sodipodi:namedview
   id="namedview4"
   pagecolor="#ffffff"
   bordercolor="#666666"
   borderopacity="1.0"
   inkscape:showpageshadow="2"
   inkscape:pageopacity="0.0"
   inkscape:pagecheckerboard="0"
   inkscape:deskcolor="#d1d1d1"
   inkscape:zoom="4.062069"
   inkscape:cx="145.49236"
   inkscape:cy="145"
   inkscape:window-width="3440"
   inkscape:window-height="1382"
   inkscape:window-x="1920"
   inkscape:window-y="0"
   inkscape:window-maximized="1"
   inkscape:current-layer="svg4" />
  <path
   d="M 16.485625,40.985545 4.128446,28.628367 c -3.38566161,-3.385807 -3.38566161,-8.926073 0,-12.31188 L 16.48577,3.9594539 c 3.385807,-3.38580675 8.925927,-3.38580675 12.311734,0 L 41.154682,16.316487 c 3.385807,3.385807 3.385807,8.926073 0,12.31188 L 28.797504,40.985545 c -3.385807,3.385807 -8.926218,3.385807 -12.311879,0"
   fill="#9f0074"
   fill-rule="nonzero"
   id="path1"
   style="stroke-width:0.145189" />
  <path
   d="m 23.26653,26.371695 c -0.132122,0 -0.264244,0.0498 -0.364134,0.151722 l -3.32294,3.320762 H 16.70094 v -0.327401 a 0.51571122,0.51571122 0 0 0 -0.515857,-0.515856 0.51396895,0.51396895 0 0 0 -0.513678,0.515856 v 0.494223 a 0.8621321,0.8621321 0 0 0 0.862568,0.862713 h 2.015948 l -0.502934,0.505113 a 0.51425933,0.51425933 0 0 0 0,0.728267 0.51571122,0.51571122 0 0 0 0.364134,0.151723 c 0.132267,0 0.262356,-0.05198 0.364134,-0.151723 l 4.855409,-4.855409 c 0.201813,-0.201522 0.201813,-0.528778 0,-0.728268 A 0.50641913,0.50641913 0 0 0 23.26653,26.371695"
   fill="#fafcff"
   fill-rule="nonzero"
   id="path2"
   style="stroke-width:0.145189" />
  <path
   d="m 16.534263,12.853004 c -0.461701,0 -0.864891,0.40319 -0.862713,0.862713 v 6.442035 l -1.508513,1.508513 a 0.51425933,0.51425933 0 0 0 0,0.728413 0.5054028,0.5054028 0 0 0 0.361811,0.151723 0.51542084,0.51542084 0 0 0 0.366457,-0.151723 l 2.913216,-2.913216 a 0.51817943,0.51817943 0 0 0 0,-0.728268 0.52456775,0.52456775 0 0 0 -0.366312,-0.151723 c -0.130089,0 -0.262356,0.05198 -0.362101,0.151723 l -0.374878,0.374878 v -5.245678 h 8.21726 c 0.407401,0 0.806235,0.166968 1.092402,0.455458 l 2.56636,2.564037 H 26.45096 v -1.426046 c 0,-0.283989 -0.229834,-0.516001 -0.513679,-0.516001 a 0.5173083,0.5173083 0 0 0 -0.516001,0.516001 v 1.597369 c 0,0.229834 0.08885,0.446601 0.251467,0.609213 a 0.86198691,0.86198691 0 0 0 0.60689,0.249144 h 2.891583 c 0.01307,0.07593 0.02381,0.149545 0.02381,0.227657 v 11.685389 h -6.34011 a 0.51571122,0.51571122 0 0 0 -0.515857,0.515856 0.51542084,0.51542084 0 0 0 0.515857,0.513824 h 6.507079 a 0.85574379,0.85574379 0 0 0 0.609067,-0.251467 0.86677815,0.86677815 0 0 0 0.253646,-0.611246 V 18.159226 A 2.5611334,2.5611334 0 0 0 29.47031,16.338411 l -2.728972,-2.728972 a 2.5852348,2.5852348 0 0 0 -1.82067,-0.756435 z m -3.46537,10.119381 c -0.132122,0 -0.264244,0.0498 -0.364134,0.151723 l -0.485512,0.485512 c -0.201668,0.199489 -0.201668,0.526745 0,0.728413 a 0.51353339,0.51353339 0 0 0 0.364134,0.149544 0.51396895,0.51396895 0 0 0 0.364134,-0.149544 l 0.485512,-0.485657 a 0.51396895,0.51396895 0 0 0 0,-0.728268 0.50641913,0.50641913 0 0 0 -0.364134,-0.151723"
   fill="#fafcff"
   fill-rule="nonzero"
   id="path3"
   style="stroke-width:0.145189" />
  <path
   d="m 21.809849,21.030338 c -0.132122,0 -0.264244,0.0498 -0.364134,0.151722 l -4.744775,4.742598 v -3.025884 a 0.5133882,0.5133882 0 0 0 -0.513824,-0.513678 h -0.0022 a 0.5133882,0.5133882 0 0 0 -0.513678,0.513678 v 4.057742 l -1.753593,1.751414 a 0.51817943,0.51817943 0 0 0 0,0.728268 0.52340624,0.52340624 0 0 0 0.364134,0.151723 0.52413218,0.52413218 0 0 0 0.366312,-0.151723 l 7.52587,-7.52587 c 0.201813,-0.201522 0.201813,-0.528778 0,-0.728268 a 0.50641913,0.50641913 0 0 0 -0.364134,-0.151722 m -4.85599,11.654318 c -0.132122,0 -0.264244,0.0498 -0.364134,0.151723 l -0.728268,0.728268 c -0.201667,0.199489 -0.201667,0.526745 0,0.728413 a 0.51353339,0.51353339 0 0 0 0.364134,0.149544 0.51396895,0.51396895 0 0 0 0.364134,-0.149544 l 0.728268,-0.728413 a 0.51396895,0.51396895 0 0 0 0,-0.728268 0.50641913,0.50641913 0 0 0 -0.364134,-0.151723"
   fill="#fafcff"
   fill-rule="nonzero"
   id="path4"
   style="stroke-width:0.145189" />
</svg>
