<?xml version="1.0" encoding="UTF-8" standalone="no"?>
<!-- Created with Inkscape (http://www.inkscape.org/) -->

<svg
   width="22.93494mm"
   height="15.407206mm"
   viewBox="0 0 22.934941 15.407206"
   version="1.1"
   id="svg2031"
   inkscape:version="1.2.2 (b0a8486541, 2022-12-01)"
   sodipodi:docname="ELIXIR-NO_dark.svg"
   xmlns:inkscape="http://www.inkscape.org/namespaces/inkscape"
   xmlns:sodipodi="http://sodipodi.sourceforge.net/DTD/sodipodi-0.dtd"
   xmlns="http://www.w3.org/2000/svg"
   xmlns:svg="http://www.w3.org/2000/svg"
   xmlns:rdf="http://www.w3.org/1999/02/22-rdf-syntax-ns#"
   xmlns:cc="http://creativecommons.org/ns#"
   xmlns:dc="http://purl.org/dc/elements/1.1/">
  <defs
     id="defs2025" />
  <sodipodi:namedview
     id="base"
     pagecolor="#ffffff"
     bordercolor="#666666"
     borderopacity="1.0"
     inkscape:pageopacity="0.0"
     inkscape:pageshadow="2"
     inkscape:zoom="7.9195959"
     inkscape:cx="14.584077"
     inkscape:cy="8.9019694"
     inkscape:document-units="mm"
     inkscape:current-layer="g1331"
     showgrid="false"
     fit-margin-top="0"
     fit-margin-left="0"
     fit-margin-right="0"
     fit-margin-bottom="0"
     inkscape:window-width="1920"
     inkscape:window-height="1032"
     inkscape:window-x="0"
     inkscape:window-y="0"
     inkscape:window-maximized="1"
     inkscape:pagecheckerboard="0"
     inkscape:showpageshadow="2"
     inkscape:deskcolor="#d1d1d1" />
  <metadata
     id="metadata2028">
    <rdf:RDF>
      <cc:Work
         rdf:about="">
        <dc:format>image/svg+xml</dc:format>
        <dc:type
           rdf:resource="http://purl.org/dc/dcmitype/StillImage" />
      </cc:Work>
    </rdf:RDF>
  </metadata>
  <g
     inkscape:label="Layer 1"
     inkscape:groupmode="layer"
     id="layer1"
     transform="translate(-4.4190138,-5.8912371)">
    <g
       id="g1326" />
    <g
       id="g1331"
       style="fill:#4d4948;fill-opacity:1"
       transform="translate(-5.881512,17.887887)">
      <path
         id="path1255"
         style="fill:#ffffff;fill-opacity:1;stroke-width:0.0332908"
         d="m 43.083984,-51.832031 -0.02344,0.541015 c -0.02725,0.654407 -0.05627,0.895111 -0.207031,1.671875 -0.100661,0.518601 -2.958088,13.799061 -3.144532,14.615235 -0.142363,0.623248 -0.617822,2.105233 -0.841796,2.621094 l -0.05469,0.125 h 2.126953 2.125 l 0.01953,-0.523438 c 0.0189,-0.504053 0.07961,-0.95932 0.226563,-1.707031 0.05015,-0.255217 3.532345,-16.352911 3.724609,-17.21875 l 0.02734,-0.125 h -1.990234 z m 7.81836,0.43164 c -0.160007,0 -0.375776,0.02357 -0.480469,0.05078 -0.617745,0.160902 -1.11274,0.649714 -1.314453,1.296875 -0.08084,0.259751 -0.06988,0.779902 0.02344,1.050781 0.240635,0.698521 0.843655,1.189404 1.550782,1.263672 1.065297,0.111851 1.980139,-0.656316 2.039062,-1.712891 0.02109,-0.37748 -0.02755,-0.614075 -0.193359,-0.945312 -0.313187,-0.625739 -0.925402,-1.003907 -1.625,-1.003907 z m -18.986328,6.320313 c -2.379796,4.17e-4 -4.759356,0.01985 -5.003907,0.05664 -1.586887,0.238776 -2.411201,1.047428 -2.945312,2.892579 -0.160963,0.556055 -1.5987,6.865912 -1.654297,7.259765 -0.06145,0.435447 -0.04413,1.040803 0.03906,1.316406 0.08569,0.283805 0.245055,0.556543 0.41211,0.705079 0.318149,0.282909 0.921386,0.500035 1.537109,0.554687 0.172706,0.0155 2.882922,0.03068 6.023438,0.0332 l 5.710937,0.0039 0.376953,-0.917969 c 0.207421,-0.504809 0.37166,-0.922065 0.365235,-0.927735 -0.0063,-0.0057 -0.16067,0.01752 -0.34375,0.05078 -0.711897,0.12907 -1.04409,0.13596 -5.777344,0.125 -4.29642,-0.0099 -4.584572,-0.01513 -4.695312,-0.07031 -0.160971,-0.08022 -0.230469,-0.210135 -0.230469,-0.429687 0,-0.250315 0.02733,-0.396491 0.373047,-1.916016 l 0.304687,-1.339844 h 5.601563 c 5.305167,0 5.600935,-0.0034 5.617187,-0.05859 0.02588,-0.08682 0.879529,-3.892288 0.972656,-4.335937 0.107452,-0.511827 0.136013,-1.124075 0.06836,-1.496094 -0.152073,-0.836186 -0.700878,-1.290504 -1.751953,-1.451172 -0.24015,-0.03671 -2.620204,-0.0551 -5,-0.05469 z m 16.417968,0.0059 v 0.457031 c -7.5e-5,0.455668 -0.06343,0.972412 -0.234375,1.890626 -0.09886,0.530997 -1.847137,8.091793 -1.966797,8.505859 -0.102606,0.355086 -0.469684,1.391358 -0.615234,1.738281 -0.04396,0.104731 -0.08008,0.197205 -0.08008,0.207031 0,0.0098 0.896155,0.01758 1.992188,0.01758 h 1.99414 l 0.01758,-0.457032 c 0.0178,-0.433916 0.105347,-1.017715 0.257813,-1.728515 0.06104,-0.28458 2.344211,-10.391669 2.384765,-10.556683 l 0.01953,-0.07422 H 50.21875 Z m 21.783204,0 -0.02148,0.507813 c -0.03837,0.960638 -0.132197,1.433601 -1.208984,6.099609 -0.502829,2.178883 -0.960142,4.11561 -1.015625,4.302735 -0.137673,0.464231 -0.447668,1.323556 -0.642578,1.78125 l -0.05273,0.125 h 1.994141 1.992187 l 0.02148,-0.22461 c 0.01172,-0.123579 0.02148,-0.30158 0.02148,-0.396484 5.25e-4,-0.384034 0.248475,-1.560009 1.398438,-6.652344 0.661568,-2.929591 1.214594,-5.376057 1.230468,-5.435547 l 0.0293,-0.107422 h -1.873047 z m 7.357421,0 -0.02148,0.507813 c -0.02245,0.554562 -0.114981,1.096168 -0.373047,2.189453 -0.07995,0.338732 -0.475951,2.07611 -0.880859,3.861328 -0.952286,4.19862 -1.156051,4.996245 -1.501953,5.867187 -0.07106,0.178886 -0.128907,0.341612 -0.128907,0.359376 0.01511,0.02037 0.722913,0.03125 1.980469,0.03125 h 1.980469 v -0.339844 c 7.5e-5,-0.438342 0.07514,-1.087095 0.193359,-1.65625 0.312609,-1.504808 1.755873,-7.838037 1.826172,-8.013672 0.108537,-0.271109 0.323972,-0.510781 0.550781,-0.613281 0.174917,-0.07896 0.18271,-0.07926 1.574219,-0.08984 1.394222,-0.01043 1.89841,0.0087 2.953125,0.115234 0.664403,0.06716 0.645128,0.07459 0.935547,-0.287109 0.1104,-0.137526 0.258973,-0.313825 0.332031,-0.390625 l 0.132813,-0.138672 -0.382813,-0.693359 -0.384765,-0.691407 -1.84375,-0.0098 c -1.58592,-0.0083 -1.885673,-0.0037 -2.150391,0.04297 -0.595189,0.105056 -1.065098,0.420753 -1.408203,0.94336 -0.09728,0.148195 -0.164762,0.223833 -0.164063,0.185547 6.43e-4,-0.03577 0.02804,-0.316338 0.06055,-0.623047 l 0.06055,-0.556641 h -1.669922 z m -44.828125,1.634766 c 2.351662,-0.0045 2.34028,0.01496 2.511719,0.173828 0.102066,0.0946 0.140819,0.324177 0.09766,0.572266 -0.02632,0.151298 -0.717598,3.150177 -0.757812,3.287109 -0.01617,0.05503 -0.230006,0.05859 -3.863281,0.05859 -3.646473,0 -3.842802,-0.0033 -3.826172,-0.05859 0.04638,-0.154405 0.661862,-2.84537 0.689453,-3.013672 0.0741,-0.453974 0.29062,-0.795465 0.595703,-0.9375 0.148403,-0.06905 0.180059,-0.06905 3.392578,-0.07813 0.439802,-0.0012 0.824205,-0.0033 1.160156,-0.0039 z"
         transform="matrix(0.26458333,0,0,0.26458333,4.4067359,5.8107057)" />
      <path
         id="path1241"
         style="fill:#ffffff;fill-opacity:1;stroke-width:0.0332908"
         d="m 76.068359,-15.613281 -0.0332,0.125 c -0.01832,0.06926 -0.377086,1.501444 -0.796875,3.18164 l -0.763672,3.0546879 1.21875,-0.00977 1.216797,-0.00781 0.320313,-1.2832029 c 0.17639,-0.704931 0.330899,-1.322099 0.34375,-1.373047 l 0.02344,-0.09375 0.373047,0.0098 0.373047,0.0098 0.05859,0.349609 c 0.03175,0.192254 0.134884,0.810015 0.230468,1.373047 l 0.173829,1.0234379 h 1.330078 1.328125 l -0.02148,-0.091797 c -0.04453,-0.1764057 -0.617187,-2.6317439 -0.617187,-2.6464849 0,-0.0083 0.07933,-0.02382 0.175781,-0.03516 0.420461,-0.04942 0.717258,-0.246436 0.890625,-0.589844 0.05745,-0.113801 0.180883,-0.523022 0.302734,-1.001953 0.301531,-1.185256 0.287167,-1.495161 -0.07812,-1.759765 -0.30649,-0.222013 -0.182999,-0.213649 -3.261719,-0.22461 z m 17.835938,0 -0.537109,0.0098 -0.53711,0.0078 -1,2.044922 -1,2.044922 -0.0078,-2.052735 -0.0098,-2.052734 h -1.222656 -1.22461 l -0.998046,2.033203 c -0.548542,1.118366 -1.005043,2.038497 -1.015626,2.044922 -0.01776,0.0109 -0.0099,-2.973335 0.0098,-3.738281 l 0.0098,-0.339844 h -1.230469 -1.228516 l 0.02148,0.824219 c 0.01209,0.453173 0.02148,1.882308 0.02148,3.177734 v 2.3554688 h 1.167969 1.167969 l 1.037109,-2.1015628 1.039063,-2.101562 0.01953,0.746093 c 0.01134,0.409743 0.02302,1.355431 0.02539,2.101563 l 0.0039,1.3554688 h 1.177734 1.175781 l 1.56836,-3.1796878 z m 5.763672,0 -1.21875,0.0098 -1.21875,0.0078 -2.0625,2.830078 c -1.133734,1.556341 -2.172153,2.9841837 -2.308594,3.171875 l -0.248047,0.3398438 h 0.589844 0.591797 l 0.61914,-0.8398438 0.619141,-0.839844 h 1.410156 1.408203 l 0.0918,0.53125 c 0.05053,0.292959 0.116248,0.6724365 0.146485,0.8417971 l 0.05469,0.3066407 h 1.279297 c 1.223399,0 1.279299,-0.00144 1.279299,-0.060547 0,-0.062219 -0.982367,-6.0822088 -1.015627,-6.2226558 z m -40.298828,0.002 -0.779297,3.121094 c -0.428727,1.716555 -0.786607,3.145608 -0.794922,3.177734 -0.01364,0.053707 0.02716,0.058613 0.513672,0.058594 h 0.529297 l 0.644531,-2.605469 c 0.354716,-1.432743 0.653102,-2.618577 0.664062,-2.636719 0.02799,0.05326 0.326922,1.194424 0.675782,2.595703 l 0.654296,2.63086 1.576172,0.00781 1.578125,0.00977 0.779297,-3.123047 c 0.428807,-1.716729 0.786607,-3.145608 0.794922,-3.177734 0.01364,-0.05386 -0.02709,-0.05893 -0.513672,-0.05859 h -0.529297 l -0.644531,2.572266 c -0.355139,1.414302 -0.656252,2.582474 -0.667969,2.595703 -0.02752,-0.05369 -0.304468,-1.130565 -0.628906,-2.447266 -0.334896,-1.359179 -0.624814,-2.527029 -0.642578,-2.595703 l -0.03125,-0.125 h -1.587891 z m 42.138669,0 0.76172,1.914062 c 0.41879,1.053185 0.76172,1.945761 0.76172,1.982422 0,0.05312 -0.51779,2.1759503 -0.58594,2.402344 -0.0165,0.054724 0.0546,0.058594 1.19727,0.058594 h 1.2168 l 0.0332,-0.125 c 0.0181,-0.068663 0.152,-0.5977281 0.29687,-1.177735 l 0.26172,-1.054687 1.75391,-2 1.7539,-2 -0.625,0.002 -0.625,0.002 -1.14648,1.314453 c -0.75982,0.871729 -1.15443,1.300587 -1.16992,1.271485 -0.0129,-0.02401 -0.24505,-0.616053 -0.51563,-1.316407 l -0.49218,-1.273437 h -1.4375 z m -31.095701,0.01563 c -1.490991,0.0015 -1.618496,0.01065 -1.769531,0.0625 -0.604225,0.207447 -0.987572,0.588505 -1.234375,1.228515 -0.05697,0.147738 -0.283408,0.997302 -0.503906,1.886719 -0.327564,1.321406 -0.404363,1.675466 -0.417969,1.9375 -0.03581,0.6810522 0.177519,1.0268048 0.72461,1.1738284 0.266547,0.071622 4.365889,0.074961 4.701171,0.00391 0.551551,-0.1168781 0.988031,-0.4748735 1.263672,-1.0390624 0.151333,-0.30974 0.200815,-0.486366 0.578125,-2.009765 0.227403,-0.918169 0.427864,-1.783608 0.44336,-1.923829 0.07108,-0.640924 -0.09668,-1.019279 -0.53711,-1.222656 l -0.207031,-0.09766 h -2.314453 c -0.272657,0 -0.513564,-2.14e-4 -0.726563,0 z m 1.22461,1.044922 0.08398,0.08398 c 0.046,0.04588 0.08398,0.114549 0.08398,0.152344 -10e-7,0.143078 -0.906313,3.682138 -0.96875,3.783203 -0.03575,0.0579 -0.115751,0.128723 -0.177735,0.158203 -0.09319,0.04441 -0.24386,0.05469 -0.867187,0.05469 H 69.0371 l -0.08008,-0.08203 c -0.04505,-0.04494 -0.08203,-0.106041 -0.08203,-0.134765 0,-0.09482 0.901244,-3.65918 0.951172,-3.761719 0.02699,-0.05537 0.09089,-0.129354 0.140625,-0.166016 0.08344,-0.06145 0.151633,-0.06905 0.880859,-0.07813 z m 6.595703,0.0039 h 0.783203 c 0.476254,0 0.8085,0.01437 0.847656,0.03516 0.08992,0.04806 0.08195,0.173611 -0.03711,0.666016 -0.12446,0.514862 -0.149028,0.578611 -0.271484,0.681641 l -0.09961,0.08203 h -0.796875 c -0.744945,0 -0.797502,-0.0042 -0.78125,-0.05859 0.0096,-0.03204 0.07736,-0.305324 0.152344,-0.607422 0.07495,-0.30212 0.15178,-0.605154 0.169922,-0.673828 z m 19.085937,0.388672 0.175782,1.011719 c 0.09592,0.557045 0.174847,1.040139 0.175781,1.072265 0.0015,0.05408 -0.06559,0.05859 -0.935547,0.05859 h -0.935547 l 0.08203,-0.109375 c 0.0447,-0.0595 0.332518,-0.466812 0.640625,-0.90625 0.308123,-0.439438 0.614491,-0.872749 0.679688,-0.962891 z"
         transform="matrix(0.26458333,0,0,0.26458333,4.4067359,5.8107057)" />
    </g>
    <path
       style="fill:#f57d20;fill-opacity:1;stroke-width:0.00880819"
       d="m 12.063734,21.293927 c -0.191394,-0.02568 -0.599843,-0.239587 -0.871515,-0.45641 -0.611232,-0.487825 -0.870796,-1.21399 -0.754854,-2.111804 0.102362,-0.792662 0.492079,-1.724311 1.14006,-2.725404 0.686102,-1.059988 1.647695,-2.159308 2.675108,-3.058258 l 0.09808,-0.08581 -0.03065,-0.08154 c -0.01686,-0.04485 -0.07545,-0.194508 -0.130219,-0.332576 -0.827741,-2.08687 -1.859796,-3.8582299 -2.93291,-5.0338792 -0.136165,-0.149175 -0.172711,-0.201276 -0.178747,-0.254822 -0.0041,-0.03595 -0.0024,-0.04057 0.01799,-0.04985 0.06552,-0.02985 0.138458,0.02093 0.376463,0.262148 1.028948,1.0428127 1.894639,2.2273204 2.691367,3.6825442 0.142733,0.2607 0.466386,0.906154 0.592929,1.182463 0.04992,0.109002 0.09211,0.199613 0.09375,0.20136 0.0016,0.0017 0.05969,-0.04416 0.128994,-0.102022 0.525954,-0.439078 1.338102,-1.031092 2.060844,-1.502249 l 0.172591,-0.112512 -0.0044,-0.09448 c -0.0054,-0.114617 0.0056,-0.173727 0.04839,-0.259745 0.04243,-0.08534 0.134702,-0.178383 0.21452,-0.216324 0.163752,-0.07784 0.346677,-0.06862 0.491131,0.02474 l 0.05474,0.03538 0.200062,-0.121739 c 0.110034,-0.06696 0.254367,-0.1542915 0.320741,-0.1940786 l 0.120679,-0.07234 -0.01797,-0.041557 c -0.07321,-0.1693183 -0.06917,-0.3859443 0.01036,-0.5558981 0.107978,-0.2307557 0.350278,-0.3864616 0.604079,-0.3881914 0.06747,-4.598e-4 0.189718,0.023222 0.255213,0.049441 0.107797,0.043154 0.244151,0.1503374 0.303219,0.2383497 0.013,0.019366 0.01433,0.018738 0.314337,-0.1485425 l 0.301285,-0.1679907 -0.0292,-0.05845 c -0.06268,-0.1254856 -0.08789,-0.2383008 -0.08689,-0.3887571 0.0016,-0.237711 0.08981,-0.440769 0.264829,-0.6094845 0.165576,-0.159616 0.357336,-0.236102 0.591937,-0.236102 0.169615,0 0.298057,0.03462 0.444813,0.119894 0.09432,0.0548 0.241067,0.202066 0.290671,0.2916853 0.01938,0.03501 0.03813,0.063747 0.04167,0.063859 0.0051,1.603e-4 0.744661,-0.3754893 0.753252,-0.3825833 0.0012,-9.94e-4 -0.01332,-0.03754 -0.03226,-0.08122 -0.06952,-0.160276 -0.09765,-0.296733 -0.09765,-0.473662 0,-0.317503 0.113133,-0.593121 0.334711,-0.815433 0.194843,-0.195488 0.425208,-0.304279 0.709016,-0.334836 0.259135,-0.0279 0.530302,0.04208 0.761882,0.196612 0.08339,0.05565 0.246835,0.219809 0.302528,0.303857 0.345452,0.521331 0.228709,1.20819 -0.268324,1.5786854 -0.127612,0.095123 -0.304809,0.1728594 -0.474544,0.2081823 -0.102102,0.021248 -0.318867,0.021486 -0.424398,4.66e-4 -0.294018,-0.058563 -0.556566,-0.2246347 -0.726757,-0.4597017 l -0.01913,-0.02642 -0.05565,0.03023 c -0.125405,0.06812 -0.707676,0.3899207 -0.710419,0.3926276 -0.0016,0.00161 0.0042,0.033959 0.01294,0.071895 0.0242,0.1049965 0.02042,0.2721809 -0.0087,0.3840743 -0.08196,0.3150472 -0.331781,0.5565058 -0.650617,0.6288398 -0.098,0.022234 -0.280985,0.020256 -0.379237,-0.0041 -0.140767,-0.034893 -0.26589,-0.1002423 -0.378912,-0.1978976 l -0.05102,-0.044083 -0.191205,0.1158817 c -0.105163,0.063735 -0.244714,0.1489014 -0.310115,0.1892587 -0.13416,0.082787 -0.122495,0.061908 -0.109901,0.1967073 0.01769,0.189369 -0.05634,0.3825474 -0.201943,0.526959 -0.127577,0.1265314 -0.284388,0.1903574 -0.467681,0.1903574 -0.144485,0 -0.263072,-0.03495 -0.378454,-0.111535 l -0.04831,-0.03206 -0.227028,0.153504 c -0.124866,0.08443 -0.272145,0.185035 -0.327287,0.223572 l -0.100258,0.07007 0.0014,0.08763 c 0.0025,0.150017 -0.03894,0.255646 -0.139813,0.356515 -0.147817,0.147817 -0.362617,0.188083 -0.548988,0.102912 l -0.0458,-0.02093 -0.06606,0.04837 c -0.491734,0.360029 -1.20725,0.942056 -1.669281,1.357855 -0.152998,0.137687 -0.516117,0.478787 -0.583394,0.548015 l -0.03741,0.0385 0.02955,0.07015 c 0.01625,0.03858 0.06428,0.159335 0.106721,0.268336 0.494362,1.269611 0.844531,2.535521 0.95266,3.444002 0.02136,0.179434 0.02159,0.438331 4.93e-4,0.537299 -0.08024,0.376333 -0.299721,0.68393 -0.560972,0.786191 -0.09425,0.03689 -0.1465,0.04467 -0.265637,0.03953 -0.195389,-0.0084 -0.289333,-0.05768 -0.289246,-0.151656 8.8e-5,-0.06248 0.02406,-0.0898 0.151986,-0.172983 0.147103,-0.09565 0.224086,-0.237503 0.244971,-0.451395 0.0436,-0.446466 -0.17931,-1.606349 -0.543615,-2.828674 -0.123714,-0.415089 -0.317363,-1.008538 -0.329097,-1.008538 -0.01451,0 -0.449323,0.49206 -0.709833,0.803284 l -0.157061,0.187637 0.255121,0.0045 c 0.245941,0.0043 0.256636,0.0052 0.297201,0.0253 0.07467,0.03697 0.129756,0.123243 0.129631,0.203009 -1.24e-4,0.08039 -0.04554,0.161431 -0.112536,0.200813 l -0.04156,0.02443 -0.448955,0.0044 -0.448955,0.0044 -0.112726,0.14974 c -0.12734,0.169152 -0.304193,0.415327 -0.41131,0.572532 l -0.07202,0.105698 0.738175,0.0044 0.738174,0.0044 0.04535,0.02392 c 0.16563,0.08736 0.166869,0.324419 0.0021,0.406514 l -0.04653,0.02319 h -0.88603 -0.88603 l -0.07232,0.122245 c -0.134324,0.227047 -0.398249,0.726068 -0.398249,0.752994 0,0.0031 0.496723,0.0056 1.103829,0.0056 1.212603,0 1.15641,-0.0024 1.223743,0.05325 0.01817,0.01503 0.04394,0.04586 0.05725,0.06852 0.0206,0.03504 0.02421,0.05105 0.02421,0.107252 0,0.05674 -0.0037,0.07271 -0.02609,0.113168 -0.02704,0.04881 -0.07337,0.0873 -0.127162,0.10564 -0.02212,0.0075 -0.34674,0.01021 -1.243215,0.01021 h -1.213274 l -0.04124,0.112304 c -0.257749,0.701935 -0.337102,1.406183 -0.219093,1.944408 0.115521,0.526873 0.401809,0.964584 0.801971,1.226146 0.03976,0.02599 0.08091,0.05936 0.09146,0.07417 0.02672,0.03753 0.03161,0.09521 0.01233,0.145681 -0.04725,0.123723 -0.199603,0.193133 -0.372883,0.169881 z"
       id="path895" />
  </g>
</svg>
