<?xml version="1.0" encoding="UTF-8" standalone="no"?>
<!-- Created with Inkscape (http://www.inkscape.org/) -->

<svg
   width="575.26617mm"
   height="87.937782mm"
   viewBox="0 0 575.26617 87.937782"
   version="1.1"
   id="svg1"
   xmlns="http://www.w3.org/2000/svg"
   xmlns:svg="http://www.w3.org/2000/svg">
  <defs
     id="defs1" />
  <g
     id="layer1"
     transform="translate(180.71042,-82.285423)">
    <text
       xml:space="preserve"
       style="font-size:58.0834px;line-height:1.25;font-family:'TeX Gyre Adventor';-inkscape-font-specification:'TeX Gyre Adventor';text-align:center;letter-spacing:0px;word-spacing:0px;text-anchor:middle;fill:#ffffff;fill-opacity:1;stroke:#ffffff;stroke-width:0.544533"
       x="160.38158"
       y="144.91522"
       id="text1"><tspan
         style="font-style:normal;font-variant:normal;font-weight:normal;font-stretch:normal;font-size:58.0834px;font-family:'TeX Gyre Adventor';-inkscape-font-specification:'TeX Gyre Adventor';letter-spacing:0px;fill:#ffffff;fill-opacity:1;stroke:#ffffff;stroke-width:0.544533"
         x="160.38158"
         y="144.91522"
         id="tspan3">reseach-data.no</tspan></text>
    <g
       id="g2"
       transform="matrix(0.22089093,0,0,0.22089093,-48.911276,83.74754)"
       style="stroke:#ffffff">
      <g
         id="g40-6-2-2-9-0"
         transform="matrix(1.21,0,0,1.21,-4935.2172,-65.7057)"
         style="fill:none;fill-opacity:1;stroke:#ffffff;stroke-linecap:round;stroke-opacity:1">
        <g
           id="g12"
           transform="translate(-92.724266,-12.733712)"
           style="stroke:#ffffff">
          <path
             style="fill:none;fill-opacity:1;fill-rule:evenodd;stroke:#ffffff;stroke-width:6.55017;stroke-linecap:round;stroke-linejoin:round;stroke-dasharray:none;stroke-opacity:1"
             id="path38-1-2-4-0-6-0-6-6"
             d="M 3740.5921,310.76173 A 134.70537,133.24098 0 0 1 3727.2707,160.56867 134.70537,133.24098 0 0 1 3864.1532,94.236851" />
          <path
             style="fill:none;fill-opacity:1;fill-rule:evenodd;stroke:#ffffff;stroke-width:6.55017;stroke-linecap:round;stroke-linejoin:round;stroke-dasharray:none;stroke-opacity:1"
             id="path38-1-2-4-8-6-4-9-0-1"
             d="m 3978.7904,237.45874 a 134.70537,133.24098 0 0 1 -63.0029,101.707 134.70537,133.24098 0 0 1 -120.0717,11.0639" />
          <path
             style="fill:none;fill-opacity:1;fill-rule:evenodd;stroke:#ffffff;stroke-width:6.55017;stroke-linecap:round;stroke-linejoin:round;stroke-dasharray:none;stroke-opacity:1"
             id="path38-1-2-4-5-2-9-6-6-5"
             d="m 3923.249,117.90647 a 134.70537,133.24098 0 0 1 21.7618,19.3616" />
          <path
             style="fill:none;fill-opacity:1;fill-rule:evenodd;stroke:#ffffff;stroke-width:6.55017;stroke-linecap:round;stroke-linejoin:round;stroke-dasharray:none;stroke-opacity:1"
             id="path38-1-2-2-8-6-50-3-2-5"
             d="m 3738.2581,283.70234 a 121.23484,119.91689 0 0 1 5.7024,-124.54747 121.23484,119.91689 0 0 1 114.4544,-52.22411" />
          <path
             style="fill:none;fill-opacity:1;fill-rule:evenodd;stroke:#ffffff;stroke-width:6.55017;stroke-linecap:round;stroke-linejoin:round;stroke-dasharray:none;stroke-opacity:1"
             id="path38-1-2-2-8-2-1-4-8-6-4"
             d="m 3963.922,247.11439 a 121.23484,119.91689 0 0 1 -120.9465,98.85526" />
          <path
             style="fill:none;fill-opacity:1;fill-rule:evenodd;stroke:#ffffff;stroke-width:6.55017;stroke-linecap:round;stroke-linejoin:round;stroke-dasharray:none;stroke-opacity:1"
             id="path38-1-2-2-8-9-8-8-5-1-7"
             d="m 3906.2653,122.83502 a 121.23484,119.91689 0 0 1 27.597,22.11504" />
          <path
             style="fill:none;fill-opacity:1;fill-rule:evenodd;stroke:#ffffff;stroke-width:6.55017;stroke-linecap:round;stroke-linejoin:round;stroke-dasharray:none;stroke-opacity:1"
             id="path38-8-5-8-7-7-71-6-8-6"
             d="M 3739.8029,329.70061 A 148.1759,146.56508 0 0 1 3726.4036,137.64484 148.1759,146.56508 0 0 1 3916.8889,98.135029" />
          <path
             style="fill:none;fill-opacity:1;fill-rule:evenodd;stroke:#ffffff;stroke-width:6.55017;stroke-linecap:round;stroke-linejoin:round;stroke-dasharray:none;stroke-opacity:1"
             id="path38-8-5-8-7-45-9-7-1-7-5"
             d="m 3939.5484,113.55932 a 148.1759,146.56508 0 0 1 15.8566,15.21828" />
          <path
             style="fill:none;fill-opacity:1;fill-rule:evenodd;stroke:#ffffff;stroke-width:6.55017;stroke-linecap:round;stroke-linejoin:round;stroke-dasharray:none;stroke-opacity:1"
             id="path38-8-5-8-7-4-2-2-1-9-6"
             d="m 3992.755,225.95273 a 148.1759,146.56508 0 0 1 -69.8082,124.49971 148.1759,146.56508 0 0 1 -143.7493,7.13668" />
          <path
             style="fill:none;fill-opacity:1;fill-rule:evenodd;stroke:#ffffff;stroke-width:6.55017;stroke-linecap:round;stroke-linejoin:round;stroke-dasharray:none;stroke-opacity:1"
             id="path38-8-1-9-3-0-0-7-5-2-9"
             d="m 4007.3056,216.82624 a 162.9935,161.22159 0 0 1 -126.7683,166.48665 162.9935,161.22159 0 0 1 -186.8631,-96.32081 162.9935,161.22159 0 0 1 65.3419,-198.149561 162.9935,161.22159 0 0 1 208.3426,31.184411" />
          <path
             style="fill:none;stroke:#ffffff;stroke-width:2.32639;stroke-linecap:round;stroke-linejoin:miter;stroke-dasharray:none;stroke-opacity:1"
             d="m 129.65645,37.74249 c 9.81236,-7.388399 19.6249,-14.776933 27.47461,-22.639495 7.84972,-7.862563 13.73713,-16.1996671 19.62444,-24.5366386"
             id="path2-7-6-8-9-2-0-3-91-4-7-3"
             transform="matrix(1.367354,0,0,1.4725676,3622.0612,269.84825)" />
          <path
             style="fill:none;stroke:#ffffff;stroke-width:6.55017;stroke-linecap:round;stroke-linejoin:miter;stroke-dasharray:none;stroke-opacity:1"
             d="m 3814.6661,290.62332 c 5.1275,-4.61539 6.3632,-12.9245 19.3488,-19.94422 12.9856,-7.01972 32.8849,-18.92466 50.8651,-22.53184 25.726,-5.16115 72.9549,-1.22186 78.7412,-1.21014"
             id="path2-7-8-3-5-2-5-1-6-7-4-3-7" />
          <path
             style="fill:none;stroke:#ffffff;stroke-width:2.32633;stroke-linecap:round;stroke-linejoin:miter;stroke-dasharray:none;stroke-opacity:1"
             d="m 130.10224,30.984317 c 10.77114,-5.382133 21.5425,-10.764376 29.12025,-13.791369 7.57776,-3.026992 11.96249,-3.69897 16.34714,-4.370937"
             id="path2-7-6-8-4-4-0-7-1-71-7-6-4"
             transform="matrix(1.367354,0,0,1.4725676,3618.1915,239.45988)" />
          <path
             style="fill:none;stroke:#ffffff;stroke-width:4.61605;stroke-linecap:round;stroke-linejoin:miter;stroke-dasharray:none;stroke-opacity:1"
             d="m 134.07787,62.611547 c 11.21283,-4.741796 22.42584,-9.483669 33.10157,-14.78476 10.67573,-5.301092 20.81497,-11.161796 40.67175,-13.766772 19.85678,-2.604976 49.43129,-1.954334 79.00579,-1.303692"
             id="path2-7-8-3-0-5-8-2-1-6-1-5"
             transform="matrix(1.367354,0,0,1.4725676,3586.7238,187.71626)" />
          <path
             style="fill:none;stroke:#ffffff;stroke-width:4.61605;stroke-linecap:round;stroke-linejoin:miter;stroke-dasharray:none;stroke-opacity:1"
             d="m 137.97368,54.330501 c 9.83573,2.431357 19.67146,4.862713 29.50719,7.29407 0.0924,0.272844 0.18478,0.545693 17.14123,0.593182 16.95646,0.04749 50.77703,-0.130371 84.59753,-0.30823"
             id="path2-7-8-6-0-9-9-59-3-2-2"
             transform="matrix(1.367354,0,0,-1.4725676,3624.0229,317.14065)" />
          <path
             style="fill:none;stroke:#ffffff;stroke-width:2.32635;stroke-linecap:round;stroke-linejoin:miter;stroke-dasharray:none;stroke-opacity:1"
             d="m 127.78893,25.731742 c 2.67246,3.975645 5.34498,7.951376 9.55923,10.601219 4.21424,2.649843 9.97052,3.973998 15.7267,5.298128"
             id="path2-7-82-2-1-3-7-1-9-5"
             transform="matrix(1.367354,0,0,1.4725676,3650.6968,163.84319)" />
          <path
             style="fill:none;stroke:#ffffff;stroke-width:4.6161;stroke-linecap:round;stroke-linejoin:miter;stroke-dasharray:none;stroke-opacity:1"
             d="m 137.30325,21.138279 c 3.31528,14.344806 6.63064,28.689913 10.13725,36.974089 3.50661,8.284176 7.20475,10.508082 22.7904,11.682621 15.58566,1.174539 43.05879,1.299745 70.53193,1.424951"
             id="path2-72-4-5-1-7-7-3-4"
             transform="matrix(1.367354,0,0,1.4725676,3677.846,111.15748)" />
          <ellipse
             style="fill:#ffffff;fill-opacity:1;stroke:#ffffff;stroke-width:3.9792;stroke-linecap:round;stroke-linejoin:round;stroke-dasharray:none;stroke-opacity:1"
             id="path13-8-6-98-0-4-9-6-5-1-7"
             cx="3810.6243"
             cy="297.71628"
             rx="7.0704446"
             ry="7.6144938" />
          <path
             style="fill:none;stroke:#ffffff;stroke-width:2.32633;stroke-linecap:round;stroke-linejoin:miter;stroke-dasharray:none;stroke-opacity:1"
             d="m 82.906361,31.201991 c 2.211328,-5.53368 4.422694,-11.067454 7.113448,-15.49838 2.690754,-4.430925 5.861064,-7.7592795 9.031325,-11.0875822"
             id="path2-7-6-9-2-9-4-73-9-9-4"
             transform="matrix(1.367354,0,0,1.4725676,3657.06,264.08759)" />
          <path
             style="fill:none;stroke:#ffffff;stroke-width:3.99437;stroke-linecap:round;stroke-linejoin:miter;stroke-dasharray:none;stroke-opacity:1"
             d="m 133.23207,262.73547 c 7.3326,-13.16302 14.66519,-26.32604 21.99781,-39.48909"
             id="path37-1-2-2-7-6-6-4-4"
             transform="matrix(0.82644629,0,0,0.82644629,3716.7971,98.287315)" />
          <path
             style="fill:none;fill-opacity:1;fill-rule:evenodd;stroke:#ffffff;stroke-width:9.03238;stroke-linecap:square;stroke-linejoin:miter;stroke-miterlimit:0;stroke-dasharray:none;stroke-opacity:1;paint-order:markers fill stroke"
             id="path43-8-5-2-7-3"
             d="m 3771.2709,146.36527 c -1.8715,1.40358 -107.2862,-43.62868 -107.566,-45.95129 -0.2797,-2.322613 91.4267,-71.09826 93.578,-70.179234 2.1513,0.919026 15.8596,114.726934 13.988,116.130524 z"
             transform="matrix(0.72518845,0,0,0.72518845,1263.3483,84.820678)" />
          <path
             d="m 3768.9037,347.81283 55.3581,-15.32505 7.2857,8.80713 8.8975,-36.8147 -20.0272,-78.59777 68.6675,-109.3996 42.1754,-6.5872 -58.7405,-14.203506 -130.4365,198.144286 z"
             id="path74-0-4-2-3-2-8-2-7"
             style="fill:none;fill-opacity:1;stroke:#ffffff;stroke-width:3.99429;stroke-linecap:round;stroke-dasharray:none;stroke-opacity:1" />
          <ellipse
             style="fill:#ffffff;fill-opacity:1;stroke:#ffffff;stroke-width:3.3275;stroke-linecap:round;stroke-linejoin:round;stroke-dasharray:none;stroke-opacity:1"
             id="path13-8-0-5-7-0-8-4-7-6-4-3-8"
             cx="3791.6384"
             cy="289.3049"
             rx="5.5891309"
             ry="6.0191975" />
          <ellipse
             style="fill:#ffffff;fill-opacity:1;stroke:#ffffff;stroke-width:4.81483;stroke-linecap:round;stroke-linejoin:round;stroke-dasharray:none;stroke-opacity:1"
             id="path13-8-62-4-7-5-1-8-7-6"
             cx="3804.6951"
             cy="241.09726"
             rx="8.5552378"
             ry="9.2135372" />
          <ellipse
             style="fill:#ffffff;fill-opacity:1;stroke:#ffffff;stroke-width:3.3275;stroke-linecap:round;stroke-linejoin:round;stroke-dasharray:none;stroke-opacity:1"
             id="path13-8-0-5-6-2-9-9-0-1-5-8"
             cx="3794.4294"
             cy="329.46158"
             rx="5.5891309"
             ry="6.0191975" />
          <ellipse
             style="fill:#ffffff;fill-opacity:1;stroke:#ffffff;stroke-width:3.3275;stroke-linecap:round;stroke-linejoin:round;stroke-dasharray:none;stroke-opacity:1"
             id="path13-8-0-5-7-4-7-9-3-2-61-0-9-8"
             cx="3820.5989"
             cy="198.79413"
             rx="5.5891309"
             ry="6.0191975" />
          <ellipse
             style="fill:#ffffff;fill-opacity:1;stroke:#ffffff;stroke-width:3.3275;stroke-linecap:round;stroke-linejoin:round;stroke-dasharray:none;stroke-opacity:1"
             id="path13-8-0-5-1-5-6-9-2-5-3-2-4"
             cx="3768.9031"
             cy="317.41437"
             rx="5.5891309"
             ry="6.0191975" />
          <ellipse
             style="fill:#ffffff;fill-opacity:1;stroke:#ffffff;stroke-width:3.3275;stroke-linecap:round;stroke-linejoin:round;stroke-dasharray:none;stroke-opacity:1"
             id="path13-8-0-4-6-1-2-8-9-0-2-3"
             cx="3823.6042"
             cy="321.06146"
             rx="5.5809107"
             ry="6.0103436" />
          <ellipse
             style="fill:#ffffff;fill-opacity:1;stroke:#ffffff;stroke-width:4.81483;stroke-linecap:round;stroke-linejoin:round;stroke-dasharray:none;stroke-opacity:1"
             id="path13-8-6-4-3-9-8-9-49-4-8-1"
             cx="3762.4475"
             cy="287.25836"
             rx="8.5552378"
             ry="9.2135372" />
          <ellipse
             style="fill:#ffffff;fill-opacity:1;stroke:#ffffff;stroke-width:4.44873;stroke-linecap:round;stroke-linejoin:round;stroke-dasharray:none;stroke-opacity:1"
             id="path13-8-6-9-2-0-3-7-0-4-9-4"
             cx="3863.0999"
             cy="133.52098"
             rx="7.9047279"
             ry="8.5129728" />
        </g>
      </g>
    </g>
  </g>
</svg>
