<?xml version="1.0" encoding="UTF-8" standalone="no"?>
<!-- Created with Inkscape (http://www.inkscape.org/) -->

<svg
   width="50.77597mm"
   height="16.260864mm"
   viewBox="0 0 50.77597 16.260864"
   version="1.1"
   id="svg1032"
   inkscape:version="1.1.1 (3bf5ae0d25, 2021-09-20)"
   sodipodi:docname="nb-logo.svg"
   xmlns:inkscape="http://www.inkscape.org/namespaces/inkscape"
   xmlns:sodipodi="http://sodipodi.sourceforge.net/DTD/sodipodi-0.dtd"
   xmlns="http://www.w3.org/2000/svg"
   xmlns:svg="http://www.w3.org/2000/svg">
  <sodipodi:namedview
     id="namedview1034"
     pagecolor="#ffffff"
     bordercolor="#666666"
     borderopacity="1.0"
     inkscape:pageshadow="2"
     inkscape:pageopacity="0.0"
     inkscape:pagecheckerboard="0"
     inkscape:document-units="mm"
     showgrid="false"
     fit-margin-left="1"
     fit-margin-top="1"
     fit-margin-right="1"
     fit-margin-bottom="1"
     inkscape:zoom="0.64052329"
     inkscape:cx="178.76009"
     inkscape:cy="-38.249975"
     inkscape:window-width="1680"
     inkscape:window-height="987"
     inkscape:window-x="3592"
     inkscape:window-y="26"
     inkscape:window-maximized="1"
     inkscape:current-layer="layer1" />
  <defs
     id="defs1029">
    <clipPath
       clipPathUnits="userSpaceOnUse"
       id="clipPath1054">
      <path
         d="M 0,595.28 H 841.89 V 0 H 0 Z"
         id="path1052" />
    </clipPath>
    <clipPath
       clipPathUnits="userSpaceOnUse"
       id="clipPath1317">
      <path
         d="M 0,595.28 H 841.89 V 0 H 0 Z"
         id="path1315" />
    </clipPath>
  </defs>
  <g
     inkscape:label="Layer 1"
     inkscape:groupmode="layer"
     id="layer1"
     transform="translate(-14.680164,-158.75135)">
    <g
       id="g1042"
       inkscape:label="NB-logo-no-eng-svart"
       transform="matrix(0.35277777,0,0,-0.35277777,-56.764691,226.31325)">
      <g
         id="g1044"
         transform="translate(237.3398,155.1543)">
        <path
           d="M 0,0 H 0.616 V -5.597 H 0.112 l -3.614,4.59 v -4.59 H -4.118 V 0 h 0.592 L 0,-4.485 Z"
           style="fill:#1d1d1b;fill-opacity:1;fill-rule:nonzero;stroke:none"
           id="path1046" />
      </g>
      <g
         id="g1048">
        <g
           id="g1050"
           clip-path="url(#clipPath1054)">
          <g
             id="g1056"
             transform="translate(239.75,150.7891)">
            <path
               d="m 0,0 c 0,-0.528 0.479,-0.831 1.04,-0.831 0.759,0 1.383,0.463 1.383,1.119 v 0.4 C 2.119,0.775 1.711,0.863 1.207,0.863 0.432,0.863 0,0.527 0,0 M -0.072,2.11 -0.256,2.614 C 0.2,2.822 0.647,2.958 1.247,2.958 2.375,2.958 3.006,2.383 3.006,1.295 V -1.231 H 2.415 v 0.623 C 2.127,-0.983 1.647,-1.319 0.919,-1.319 c -0.767,0 -1.543,0.431 -1.543,1.295 0,0.879 0.72,1.343 1.768,1.343 0.527,0 0.903,-0.072 1.271,-0.175 v 0.143 c 0,0.743 -0.456,1.128 -1.232,1.128 -0.488,0 -0.871,-0.129 -1.255,-0.305"
               style="fill:#1d1d1b;fill-opacity:1;fill-rule:nonzero;stroke:none"
               id="path1058" />
          </g>
          <g
             id="g1060"
             transform="translate(244.8623,150.7334)">
            <path
               d="m 0,0 c 0,-0.504 0.28,-0.688 0.696,-0.688 0.208,0 0.384,0.04 0.599,0.144 V -1.072 C 1.08,-1.184 0.848,-1.248 0.552,-1.248 c -0.664,0 -1.168,0.328 -1.168,1.168 v 2.494 h -0.575 v 0.544 h 0.575 V 4.205 H 0 V 2.958 H 1.312 V 2.414 H 0 Z"
               style="fill:#1d1d1b;fill-opacity:1;fill-rule:nonzero;stroke:none"
               id="path1062" />
          </g>
          <path
             d="m 247.319,153.691 h 0.616 v -4.134 h -0.616 z m -0.04,1.583 h 0.704 v -0.68 h -0.704 z"
             style="fill:#1d1d1b;fill-opacity:1;fill-rule:nonzero;stroke:none"
             id="path1064" />
          <g
             id="g1066"
             transform="translate(251.2539,153.2354)">
            <path
               d="m 0,0 c -0.896,0 -1.511,-0.711 -1.511,-1.607 0,-0.895 0.656,-1.616 1.527,-1.616 0.895,0 1.519,0.713 1.519,1.6 C 1.535,-0.719 0.872,0 0,0 m 0,-3.773 c -1.239,0 -2.143,0.974 -2.143,2.15 0,1.176 0.912,2.167 2.159,2.167 1.239,0 2.151,-0.976 2.151,-2.151 0,-1.175 -0.92,-2.166 -2.167,-2.166"
               style="fill:#1d1d1b;fill-opacity:1;fill-rule:nonzero;stroke:none"
               id="path1068" />
          </g>
          <g
             id="g1070"
             transform="translate(255.1504,149.5576)">
            <path
               d="M 0,0 H -0.616 V 4.134 H 0 v -0.72 c 0.272,0.447 0.704,0.808 1.415,0.808 1,0 1.584,-0.672 1.584,-1.656 V 0 H 2.383 V 2.414 C 2.383,3.182 1.967,3.662 1.239,3.662 0.528,3.662 0,3.143 0,2.367 Z"
               style="fill:#1d1d1b;fill-opacity:1;fill-rule:nonzero;stroke:none"
               id="path1072" />
          </g>
          <g
             id="g1074"
             transform="translate(259.7749,150.7891)">
            <path
               d="m 0,0 c 0,-0.528 0.479,-0.831 1.04,-0.831 0.759,0 1.382,0.463 1.382,1.119 v 0.4 C 2.119,0.775 1.711,0.863 1.208,0.863 0.432,0.863 0,0.527 0,0 M -0.072,2.11 -0.256,2.614 C 0.2,2.822 0.647,2.958 1.247,2.958 2.375,2.958 3.006,2.383 3.006,1.295 V -1.231 H 2.415 v 0.623 C 2.127,-0.983 1.647,-1.319 0.919,-1.319 c -0.767,0 -1.543,0.431 -1.543,1.295 0,0.879 0.72,1.343 1.767,1.343 0.528,0 0.904,-0.072 1.272,-0.175 v 0.143 c 0,0.743 -0.456,1.128 -1.232,1.128 -0.487,0 -0.871,-0.129 -1.255,-0.305"
               style="fill:#1d1d1b;fill-opacity:1;fill-rule:nonzero;stroke:none"
               id="path1076" />
          </g>
          <path
             d="m 264.151,155.395 h 0.616 v -5.837 h -0.616 z"
             style="fill:#1d1d1b;fill-opacity:1;fill-rule:nonzero;stroke:none"
             id="path1078" />
          <g
             id="g1080"
             transform="translate(268.7026,155.1543)">
            <path
               d="m 0,0 h 0.632 v -5.013 h 3.15 V -5.597 H 0 Z"
               style="fill:#1d1d1b;fill-opacity:1;fill-rule:nonzero;stroke:none"
               id="path1082" />
          </g>
          <path
             d="m 273.607,153.691 h 0.616 v -4.134 h -0.616 z m -0.04,1.583 h 0.704 v -0.68 h -0.704 z"
             style="fill:#1d1d1b;fill-opacity:1;fill-rule:nonzero;stroke:none"
             id="path1084" />
          <g
             id="g1086"
             transform="translate(277.7417,153.2275)">
            <path
               d="m 0,0 c -0.768,0 -1.495,-0.64 -1.495,-1.6 0,-0.966 0.727,-1.606 1.495,-1.606 0.8,0 1.455,0.592 1.455,1.599 C 1.455,-0.623 0.784,0 0,0 m 0.112,-3.758 c -0.768,0 -1.263,0.416 -1.583,0.879 V -3.67 h -0.616 v 5.837 h 0.616 v -2.534 c 0.336,0.495 0.824,0.919 1.583,0.919 0.992,0 1.975,-0.784 1.975,-2.152 0,-1.359 -0.976,-2.158 -1.975,-2.158"
               style="fill:#1d1d1b;fill-opacity:1;fill-rule:nonzero;stroke:none"
               id="path1088" />
          </g>
          <g
             id="g1090"
             transform="translate(281.5825,149.5576)">
            <path
               d="M 0,0 H -0.616 V 4.134 H 0 V 3.055 c 0.304,0.687 0.904,1.183 1.687,1.15 V 3.542 H 1.639 C 0.736,3.542 0,2.895 0,1.646 Z"
               style="fill:#1d1d1b;fill-opacity:1;fill-rule:nonzero;stroke:none"
               id="path1092" />
          </g>
          <g
             id="g1094"
             transform="translate(284.3198,150.7891)">
            <path
               d="m 0,0 c 0,-0.528 0.479,-0.831 1.04,-0.831 0.759,0 1.382,0.463 1.382,1.119 v 0.4 C 2.119,0.775 1.711,0.863 1.208,0.863 0.432,0.863 0,0.527 0,0 M -0.072,2.11 -0.256,2.614 C 0.2,2.822 0.647,2.958 1.247,2.958 2.375,2.958 3.006,2.383 3.006,1.295 V -1.231 H 2.415 v 0.623 C 2.127,-0.983 1.647,-1.319 0.919,-1.319 c -0.767,0 -1.543,0.431 -1.543,1.295 0,0.879 0.72,1.343 1.767,1.343 0.528,0 0.904,-0.072 1.272,-0.175 v 0.143 c 0,0.743 -0.456,1.128 -1.232,1.128 -0.487,0 -0.871,-0.129 -1.255,-0.305"
               style="fill:#1d1d1b;fill-opacity:1;fill-rule:nonzero;stroke:none"
               id="path1096" />
          </g>
          <g
             id="g1098"
             transform="translate(289.2559,149.5576)">
            <path
               d="M 0,0 H -0.616 V 4.134 H 0 V 3.055 c 0.303,0.687 0.903,1.183 1.687,1.15 V 3.542 H 1.639 C 0.735,3.542 0,2.895 0,1.646 Z"
               style="fill:#1d1d1b;fill-opacity:1;fill-rule:nonzero;stroke:none"
               id="path1100" />
          </g>
          <g
             id="g1102"
             transform="translate(293.8945,149.4219)">
            <path
               d="m 0,0 c -0.352,-0.855 -0.751,-1.167 -1.375,-1.167 -0.344,0 -0.6,0.071 -0.879,0.207 l 0.207,0.488 c 0.2,-0.103 0.385,-0.152 0.649,-0.152 0.367,0 0.599,0.191 0.847,0.775 L -2.43,4.27 h 0.68 L -0.248,0.823 1.08,4.27 h 0.655 z"
               style="fill:#1d1d1b;fill-opacity:1;fill-rule:nonzero;stroke:none"
               id="path1104" />
          </g>
          <g
             id="g1106"
             transform="translate(300.8945,153.2354)">
            <path
               d="m 0,0 c -0.895,0 -1.511,-0.711 -1.511,-1.607 0,-0.895 0.656,-1.616 1.528,-1.616 0.895,0 1.518,0.713 1.518,1.6 C 1.535,-0.719 0.872,0 0,0 m 0,-3.773 c -1.238,0 -2.143,0.974 -2.143,2.15 0,1.176 0.913,2.167 2.16,2.167 1.239,0 2.15,-0.976 2.15,-2.151 0,-1.175 -0.919,-2.166 -2.167,-2.166"
               style="fill:#1d1d1b;fill-opacity:1;fill-rule:nonzero;stroke:none"
               id="path1108" />
          </g>
          <g
             id="g1110"
             transform="translate(306.3262,153.6748)">
            <path
               d="m 0,0 v -0.527 h -1.303 v -3.59 h -0.615 v 3.59 h -0.568 v 0.536 h 0.568 v 0.359 c 0,0.903 0.455,1.384 1.247,1.384 0.288,0 0.48,-0.032 0.68,-0.105 V 1.111 c -0.224,0.065 -0.392,0.105 -0.601,0.105 -0.478,0 -0.719,-0.288 -0.719,-0.88 V 0 Z"
               style="fill:#1d1d1b;fill-opacity:1;fill-rule:nonzero;stroke:none"
               id="path1112" />
          </g>
          <g
             id="g1114"
             transform="translate(313.7334,155.1543)">
            <path
               d="M 0,0 H 0.616 V -5.597 H 0.112 l -3.614,4.59 v -4.59 H -4.118 V 0 h 0.592 L 0,-4.485 Z"
               style="fill:#1d1d1b;fill-opacity:1;fill-rule:nonzero;stroke:none"
               id="path1116" />
          </g>
          <g
             id="g1118"
             transform="translate(317.7188,153.2354)">
            <path
               d="m 0,0 c -0.896,0 -1.512,-0.711 -1.512,-1.607 0,-0.895 0.657,-1.616 1.528,-1.616 0.895,0 1.519,0.713 1.519,1.6 C 1.535,-0.719 0.871,0 0,0 m 0,-3.773 c -1.239,0 -2.143,0.974 -2.143,2.15 0,1.176 0.912,2.167 2.159,2.167 1.24,0 2.15,-0.976 2.15,-2.151 0,-1.175 -0.919,-2.166 -2.166,-2.166"
               style="fill:#1d1d1b;fill-opacity:1;fill-rule:nonzero;stroke:none"
               id="path1120" />
          </g>
          <g
             id="g1122"
             transform="translate(321.6152,149.5576)">
            <path
               d="M 0,0 H -0.615 V 4.134 H 0 V 3.055 c 0.304,0.687 0.903,1.183 1.688,1.15 V 3.542 H 1.639 C 0.736,3.542 0,2.895 0,1.646 Z"
               style="fill:#1d1d1b;fill-opacity:1;fill-rule:nonzero;stroke:none"
               id="path1124" />
          </g>
          <g
             id="g1126"
             transform="translate(328.373,150.373)">
            <path
               d="M 0,0 1.088,3.318 H 1.727 L 0.271,-0.848 H -0.264 L -1.375,2.415 -2.494,-0.848 H -3.038 L -4.485,3.318 H -3.83 L -2.742,0 -1.631,3.335 h 0.512 z"
               style="fill:#1d1d1b;fill-opacity:1;fill-rule:nonzero;stroke:none"
               id="path1128" />
          </g>
          <g
             id="g1130"
             transform="translate(331.2793,150.7891)">
            <path
               d="m 0,0 c 0,-0.528 0.479,-0.831 1.039,-0.831 0.76,0 1.383,0.463 1.383,1.119 v 0.4 C 2.118,0.775 1.711,0.863 1.207,0.863 0.432,0.863 0,0.527 0,0 m -0.072,2.11 -0.184,0.504 c 0.455,0.208 0.902,0.344 1.502,0.344 1.128,0 1.76,-0.575 1.76,-1.663 V -1.231 H 2.414 v 0.623 C 2.127,-0.983 1.646,-1.319 0.919,-1.319 c -0.768,0 -1.543,0.431 -1.543,1.295 0,0.879 0.72,1.343 1.767,1.343 0.527,0 0.904,-0.072 1.271,-0.175 v 0.143 c 0,0.743 -0.455,1.128 -1.231,1.128 -0.488,0 -0.871,-0.129 -1.255,-0.305"
               style="fill:#1d1d1b;fill-opacity:1;fill-rule:nonzero;stroke:none"
               id="path1132" />
          </g>
          <g
             id="g1134"
             transform="translate(337.4531,149.4219)">
            <path
               d="m 0,0 c -0.352,-0.855 -0.751,-1.167 -1.375,-1.167 -0.344,0 -0.6,0.071 -0.879,0.207 l 0.207,0.488 c 0.2,-0.103 0.385,-0.152 0.649,-0.152 0.367,0 0.599,0.191 0.847,0.775 L -2.43,4.27 h 0.68 L -0.248,0.823 1.08,4.27 h 0.655 z"
               style="fill:#1d1d1b;fill-opacity:1;fill-rule:nonzero;stroke:none"
               id="path1136" />
          </g>
          <g
             id="g1138"
             transform="translate(206.8735,177.9854)">
            <path
               d="M 0,0 C 0.838,0 1.517,0.68 1.517,1.518 1.517,2.355 0.838,3.035 0,3.035 -0.838,3.035 -1.518,2.355 -1.518,1.518 -1.518,0.68 -0.838,0 0,0"
               style="fill:#1d1d1b;fill-opacity:1;fill-rule:nonzero;stroke:none"
               id="path1140" />
          </g>
          <g
             id="g1142"
             transform="translate(222.0498,177.9854)">
            <path
               d="m 0,0 c -0.838,0 -1.518,0.68 -1.518,1.518 0,0.837 0.68,1.517 1.518,1.517 0.838,0 1.517,-0.68 1.517,-1.517 C 1.517,0.68 0.838,0 0,0 m 0,-7.527 c -0.838,0 -1.518,0.679 -1.518,1.517 0,0.838 0.68,1.518 1.518,1.518 0.838,0 1.517,-0.68 1.517,-1.518 0,-0.838 -0.679,-1.517 -1.517,-1.517 m 0,-7.481 c -0.838,0 -1.518,0.68 -1.518,1.518 0,0.838 0.68,1.517 1.518,1.517 0.838,0 1.517,-0.679 1.517,-1.517 0,-0.838 -0.679,-1.518 -1.517,-1.518 M -7.556,0 c -0.838,0 -1.517,0.68 -1.517,1.518 0,0.837 0.679,1.517 1.517,1.517 0.838,0 1.517,-0.68 1.517,-1.517 C -6.039,0.68 -6.718,0 -7.556,0 m -3.778,-17.403 H 6.483 v 28.097 h -17.817 z"
               style="fill:#1d1d1b;fill-opacity:1;fill-rule:nonzero;stroke:none"
               id="path1144" />
          </g>
          <g
             id="g1146"
             transform="translate(222.1606,155.3975)">
            <path
               d="M 0,0 C 0.838,0 1.517,0.68 1.517,1.518 1.517,2.354 0.838,3.034 0,3.034 -0.838,3.034 -1.518,2.354 -1.518,1.518 -1.518,0.68 -0.838,0 0,0"
               style="fill:#1d1d1b;fill-opacity:1;fill-rule:nonzero;stroke:none"
               id="path1148" />
          </g>
          <g
             id="g1150"
             transform="translate(238.978,169.0566)">
            <path
               d="M 0,0 H 1.416 V -8.192 H 0.21 l -4.517,5.828 V -8.192 H -5.723 V 0 h 1.334 L 0,-5.665 Z"
               style="fill:#1d1d1b;fill-opacity:1;fill-rule:nonzero;stroke:none"
               id="path1152" />
          </g>
          <g
             id="g1154"
             transform="translate(246.1489,163.4854)">
            <path
               d="m 0,0 c -0.363,0.141 -0.866,0.246 -1.416,0.246 -0.889,0 -1.416,-0.363 -1.416,-0.994 v -0.023 c 0,-0.586 0.527,-0.914 1.194,-0.914 0.936,0 1.638,0.527 1.638,1.299 z m -0.035,-2.621 v 0.761 c -0.421,-0.503 -1.065,-0.89 -2.001,-0.89 -1.171,0 -2.2,0.668 -2.2,1.908 v 0.024 c 0,1.334 1.065,1.989 2.504,1.989 0.749,0 1.229,-0.106 1.709,-0.257 v 0.151 c 0,0.855 -0.539,1.324 -1.521,1.324 -0.691,0 -1.206,-0.153 -1.768,-0.387 l -0.386,1.135 c 0.678,0.304 1.346,0.515 2.352,0.515 1.826,0 2.716,-0.96 2.716,-2.61 v -3.663 z"
               style="fill:#1d1d1b;fill-opacity:1;fill-rule:nonzero;stroke:none"
               id="path1156" />
          </g>
          <g
             id="g1158"
             transform="translate(251.3198,160.7471)">
            <path
               d="m 0,0 c -0.878,0 -1.849,0.316 -2.622,0.925 l 0.632,0.96 c 0.668,-0.504 1.393,-0.762 2.025,-0.762 0.609,0 0.96,0.258 0.96,0.668 v 0.023 c 0,0.48 -0.656,0.644 -1.381,0.866 -0.913,0.258 -1.931,0.633 -1.931,1.814 v 0.024 c 0,1.17 0.971,1.884 2.2,1.884 0.772,0 1.615,-0.269 2.27,-0.703 L 1.592,4.693 c -0.597,0.364 -1.229,0.585 -1.744,0.585 -0.55,0 -0.866,-0.257 -0.866,-0.62 V 4.635 c 0,-0.446 0.667,-0.632 1.393,-0.866 C 1.276,3.488 2.294,3.078 2.294,1.967 V 1.943 C 2.294,0.645 1.288,0 0,0"
               style="fill:#1d1d1b;fill-opacity:1;fill-rule:nonzero;stroke:none"
               id="path1160" />
          </g>
          <path
             d="m 255.075,169.337 h 1.521 v -1.346 h -1.521 z m 1.475,-2.293 v -6.262 c 0,-1.252 -0.644,-1.826 -1.803,-1.826 -0.269,0 -0.456,0.023 -0.679,0.059 v 1.135 c 0.141,-0.023 0.27,-0.035 0.398,-0.035 0.398,0 0.667,0.21 0.667,0.749 v 6.18 z"
             style="fill:#1d1d1b;fill-opacity:1;fill-rule:nonzero;stroke:none"
             id="path1162" />
          <g
             id="g1164"
             transform="translate(260.9956,165.9316)">
            <path
               d="m 0,0 c -1.135,0 -1.861,-0.89 -1.861,-1.978 0,-1.099 0.784,-2.001 1.884,-2.001 1.147,0 1.873,0.89 1.873,1.978 C 1.896,-0.901 1.112,0 0,0 m 0,-5.208 c -1.884,0 -3.277,1.439 -3.277,3.207 0,1.779 1.404,3.242 3.3,3.242 1.896,0 3.289,-1.439 3.289,-3.219 0,-1.767 -1.404,-3.23 -3.312,-3.23"
               style="fill:#1d1d1b;fill-opacity:1;fill-rule:nonzero;stroke:none"
               id="path1166" />
          </g>
          <g
             id="g1168"
             transform="translate(266.8213,160.8643)">
            <path
               d="M 0,0 H -1.416 V 6.18 H 0 V 5.22 c 0.398,0.585 0.971,1.089 1.931,1.089 1.393,0 2.2,-0.937 2.2,-2.376 V 0 H 2.715 v 3.512 c 0,0.959 -0.48,1.509 -1.322,1.509 C 0.573,5.021 0,4.447 0,3.488 Z"
               style="fill:#1d1d1b;fill-opacity:1;fill-rule:nonzero;stroke:none"
               id="path1170" />
          </g>
          <g
             id="g1172"
             transform="translate(276.4741,163.4854)">
            <path
               d="m 0,0 c -0.363,0.141 -0.866,0.246 -1.416,0.246 -0.889,0 -1.416,-0.363 -1.416,-0.994 v -0.023 c 0,-0.586 0.527,-0.914 1.194,-0.914 0.936,0 1.638,0.527 1.638,1.299 z m -0.035,-2.621 v 0.761 c -0.421,-0.503 -1.065,-0.89 -2.001,-0.89 -1.171,0 -2.2,0.668 -2.2,1.908 v 0.024 c 0,1.334 1.065,1.989 2.504,1.989 0.749,0 1.229,-0.106 1.709,-0.257 v 0.151 c 0,0.855 -0.539,1.324 -1.521,1.324 -0.691,0 -1.206,-0.153 -1.768,-0.387 l -0.386,1.135 c 0.678,0.304 1.346,0.515 2.352,0.515 1.826,0 2.716,-0.96 2.716,-2.61 v -3.663 z"
               style="fill:#1d1d1b;fill-opacity:1;fill-rule:nonzero;stroke:none"
               id="path1174" />
          </g>
          <path
             d="m 279.608,169.407 h 1.417 v -8.543 h -1.417 z"
             style="fill:#1d1d1b;fill-opacity:1;fill-rule:nonzero;stroke:none"
             id="path1176" />
          <g
             id="g1178"
             transform="translate(286.0562,165.9434)">
            <path
               d="m 0,0 c -0.959,0 -1.802,-0.784 -1.802,-1.989 0,-1.205 0.843,-1.99 1.802,-1.99 0.972,0 1.767,0.761 1.767,1.99 C 1.767,-0.772 0.96,0 0,0 m 0.328,-5.208 c -1.018,0 -1.662,0.516 -2.095,1.088 v -0.959 h -1.416 v 8.543 h 1.416 V 0.07 c 0.456,0.644 1.1,1.159 2.095,1.159 1.463,0 2.879,-1.159 2.879,-3.218 0,-2.061 -1.405,-3.219 -2.879,-3.219"
               style="fill:#1d1d1b;fill-opacity:1;fill-rule:nonzero;stroke:none"
               id="path1180" />
          </g>
          <path
             d="m 290.482,167.044 h 1.417 v -6.18 h -1.417 z m -0.058,2.293 h 1.521 v -1.346 h -1.521 z"
             style="fill:#1d1d1b;fill-opacity:1;fill-rule:nonzero;stroke:none"
             id="path1182" />
          <g
             id="g1184"
             transform="translate(296.9297,165.9434)">
            <path
               d="m 0,0 c -0.959,0 -1.802,-0.784 -1.802,-1.989 0,-1.205 0.843,-1.99 1.802,-1.99 0.972,0 1.767,0.761 1.767,1.99 C 1.767,-0.772 0.96,0 0,0 m 0.328,-5.208 c -1.018,0 -1.662,0.516 -2.095,1.088 v -0.959 h -1.416 v 8.543 h 1.416 V 0.07 c 0.456,0.644 1.1,1.159 2.095,1.159 1.463,0 2.879,-1.159 2.879,-3.218 0,-2.061 -1.405,-3.219 -2.879,-3.219"
               style="fill:#1d1d1b;fill-opacity:1;fill-rule:nonzero;stroke:none"
               id="path1186" />
          </g>
          <path
             d="m 301.497,169.407 h 1.417 v -8.543 h -1.417 z"
             style="fill:#1d1d1b;fill-opacity:1;fill-rule:nonzero;stroke:none"
             id="path1188" />
          <path
             d="m 304.843,167.044 h 1.417 v -6.18 h -1.417 z m -0.058,2.293 h 1.521 v -1.346 h -1.521 z"
             style="fill:#1d1d1b;fill-opacity:1;fill-rule:nonzero;stroke:none"
             id="path1190" />
          <g
             id="g1192"
             transform="translate(310.9043,165.9316)">
            <path
               d="m 0,0 c -1.136,0 -1.861,-0.89 -1.861,-1.978 0,-1.099 0.784,-2.001 1.884,-2.001 1.147,0 1.873,0.89 1.873,1.978 C 1.896,-0.901 1.111,0 0,0 m 0,-5.208 c -1.885,0 -3.277,1.439 -3.277,3.207 0,1.779 1.404,3.242 3.3,3.242 1.896,0 3.289,-1.439 3.289,-3.219 0,-1.767 -1.405,-3.23 -3.312,-3.23"
               style="fill:#1d1d1b;fill-opacity:1;fill-rule:nonzero;stroke:none"
               id="path1194" />
          </g>
          <g
             id="g1196"
             transform="translate(317.1064,162.7959)">
            <path
               d="m 0,0 c 0,-0.551 0.281,-0.773 0.762,-0.773 0.315,0 0.595,0.07 0.877,0.21 V -1.721 C 1.288,-1.92 0.891,-2.037 0.363,-2.037 c -1.041,0 -1.779,0.457 -1.779,1.814 v 3.254 h -0.783 v 1.217 h 0.783 V 5.945 H 0 V 4.248 H 1.662 V 3.031 H 0 Z"
               style="fill:#1d1d1b;fill-opacity:1;fill-rule:nonzero;stroke:none"
               id="path1198" />
          </g>
          <g
             id="g1200"
             transform="translate(324.2568,164.3877)">
            <path
               d="M 0,0 C -0.093,0.912 -0.631,1.626 -1.568,1.626 -2.434,1.626 -3.043,0.959 -3.171,0 Z m -1.381,-2.506 c 0.692,0 1.183,0.258 1.674,0.738 l 0.831,-0.738 c -0.585,-0.701 -1.393,-1.158 -2.528,-1.158 -1.79,0 -3.171,1.299 -3.171,3.219 0,1.779 1.252,3.23 3.018,3.23 1.967,0 2.962,-1.545 2.962,-3.336 0,-0.129 -0.011,-0.246 -0.023,-0.387 h -4.541 c 0.163,-1.005 0.866,-1.568 1.778,-1.568"
               style="fill:#1d1d1b;fill-opacity:1;fill-rule:nonzero;stroke:none"
               id="path1202" />
          </g>
          <g
             id="g1204"
             transform="translate(332.8691,160.8643)">
            <path
               d="m 0,0 h -1.638 l -1.861,2.668 -0.866,-0.9 V 0 h -1.416 v 8.543 h 1.416 V 3.441 l 2.563,2.739 h 1.72 L -2.54,3.663 Z"
               style="fill:#1d1d1b;fill-opacity:1;fill-rule:nonzero;stroke:none"
               id="path1206" />
          </g>
          <g
             id="g1208"
             transform="translate(337.5586,164.3877)">
            <path
               d="M 0,0 C -0.093,0.912 -0.632,1.626 -1.567,1.626 -2.435,1.626 -3.043,0.959 -3.171,0 Z m -1.381,-2.506 c 0.691,0 1.183,0.258 1.674,0.738 l 0.831,-0.738 c -0.586,-0.701 -1.393,-1.158 -2.528,-1.158 -1.79,0 -3.171,1.299 -3.171,3.219 0,1.779 1.252,3.23 3.018,3.23 1.966,0 2.962,-1.545 2.962,-3.336 0,-0.129 -0.011,-0.246 -0.023,-0.387 h -4.541 c 0.163,-1.005 0.865,-1.568 1.778,-1.568"
               style="fill:#1d1d1b;fill-opacity:1;fill-rule:nonzero;stroke:none"
               id="path1210" />
          </g>
          <g
             id="g1212"
             transform="translate(341.9561,162.7959)">
            <path
               d="m 0,0 c 0,-0.551 0.28,-0.773 0.761,-0.773 0.316,0 0.596,0.07 0.878,0.21 V -1.721 C 1.288,-1.92 0.89,-2.037 0.362,-2.037 c -1.041,0 -1.778,0.457 -1.778,1.814 V 3.031 H -2.2 v 1.217 h 0.784 V 5.945 H 0 V 4.248 H 1.662 V 3.031 H 0 Z"
               style="fill:#1d1d1b;fill-opacity:1;fill-rule:nonzero;stroke:none"
               id="path1214" />
          </g>
        </g>
      </g>
    </g>
  </g>
</svg>
