<?xml version="1.0" encoding="UTF-8" standalone="no"?>
<!-- Created with Inkscape (http://www.inkscape.org/) -->

<svg
   version="1.1"
   id="svg892"
   xml:space="preserve"
   width="323.52933"
   height="59.657867"
   viewBox="0 0 323.52933 59.657867"
   sodipodi:docname="ntnu-logot.svg"
   inkscape:version="1.1.1 (3bf5ae0d25, 2021-09-20)"
   xmlns:inkscape="http://www.inkscape.org/namespaces/inkscape"
   xmlns:sodipodi="http://sodipodi.sourceforge.net/DTD/sodipodi-0.dtd"
   xmlns="http://www.w3.org/2000/svg"
   xmlns:svg="http://www.w3.org/2000/svg"><defs
     id="defs896"><clipPath
       clipPathUnits="userSpaceOnUse"
       id="clipPath906"><path
         d="M 0,44.743 H 242.647 V 0 H 0 Z"
         id="path904" /></clipPath></defs><sodipodi:namedview
     id="namedview894"
     pagecolor="#ffffff"
     bordercolor="#666666"
     borderopacity="1.0"
     inkscape:pageshadow="2"
     inkscape:pageopacity="0.0"
     inkscape:pagecheckerboard="0"
     showgrid="false"
     inkscape:zoom="0.88477296"
     inkscape:cx="54.816323"
     inkscape:cy="-7.3465175"
     inkscape:window-width="1680"
     inkscape:window-height="987"
     inkscape:window-x="3592"
     inkscape:window-y="26"
     inkscape:window-maximized="1"
     inkscape:current-layer="g898" /><g
     id="g898"
     inkscape:groupmode="layer"
     inkscape:label="ntnu_uten_slagord_svart"
     transform="matrix(1.3333333,0,0,-1.3333333,0,59.657867)"><g
       id="g900"><g
         id="g902"
         clip-path="url(#clipPath906)"><path
           d="M 33.081,11.659 H 11.024 v 22.062 h 22.057 z m 0,33.084 H 11.024 C 4.936,44.743 0,39.807 0,33.721 V 11.659 C 0,5.575 4.936,0.639 11.024,0.639 h 22.057 c 6.087,0 11.022,4.936 11.022,11.02 v 22.062 c 0,6.086 -4.935,11.022 -11.022,11.022"
           style="fill:#231f20;fill-opacity:1;fill-rule:nonzero;stroke:none"
           id="path908" /><g
           id="g910"
           transform="translate(21.9785,31.8133)"><path
             d="m 0,0 c -4.998,0 -9.046,-4.054 -9.046,-9.048 0,-4.998 4.048,-9.046 9.046,-9.046 4.996,0 9.046,4.048 9.046,9.046 C 9.046,-4.054 4.996,0 0,0"
             style="fill:#231f20;fill-opacity:1;fill-rule:nonzero;stroke:none"
             id="path912" /></g><g
           id="g914"
           transform="translate(74.956,44.6971)"><path
             d="m 0,0 21.479,-31.225 v 24.024 l -0.062,5.714 H 14.962 V 0 h 13.843 v -1.487 h -5.34 L 23.404,-7.201 V -44.386 L 22.41,-44.697 -6.394,-2.792 v -33.649 l 0.061,-5.896 h 6.641 v -1.49 h -14.337 v 1.49 h 5.709 l 0.062,5.896 v 29.24 l -0.062,5.714 h -5.709 V 0 Z"
             style="fill:#231f20;fill-opacity:1;fill-rule:nonzero;stroke:none"
             id="path916" /></g><g
           id="g918"
           transform="translate(146.5961,44.6971)"><path
             d="m 0,0 v -14.028 h -1.862 c -0.188,2.172 -0.437,4.902 -2.361,8.132 -2.234,3.786 -5.277,3.974 -8.256,4.097 h -3.477 l -0.06,-5.587 v -28.617 l 0.06,-6.334 h 6.706 v -1.49 h -20.361 v 1.49 h 6.703 l 0.063,6.334 v 28.617 l -0.063,5.587 h -2.856 c -3.601,-0.061 -6.331,-0.061 -8.939,-4.22 -2.048,-3.292 -2.234,-5.899 -2.359,-8.009 h -1.799 V 0 Z"
             style="fill:#231f20;fill-opacity:1;fill-rule:nonzero;stroke:none"
             id="path920" /></g><g
           id="g922"
           transform="translate(164.226,44.6971)"><path
             d="m 0,0 21.479,-31.225 v 24.024 l -0.061,5.714 H 14.961 V 0 h 13.844 v -1.487 h -5.339 l -0.064,-5.714 v -37.185 l -0.993,-0.311 -28.804,41.905 v -33.649 l 0.063,-5.896 h 6.644 v -1.49 h -14.343 v 1.49 h 5.714 l 0.058,5.896 v 29.24 l -0.058,5.714 h -5.714 V 0 Z"
             style="fill:#231f20;fill-opacity:1;fill-rule:nonzero;stroke:none"
             id="path924" /></g><g
           id="g926"
           transform="translate(217.1342,44.6971)"><path
             d="M 0,0 V -1.487 H -6.148 L -6.207,-6.766 V -30.48 c 0.059,-6.147 0.186,-11.98 11.733,-11.98 11.669,0 12.414,5.09 12.599,10.615 v 25.079 l -0.06,5.279 H 11.798 V 0 h 13.715 v -1.487 h -5.398 l -0.061,-5.279 v -22.598 c -0.065,-8.132 -0.127,-15.083 -16.205,-15.083 -2.294,0 -7.761,0.247 -11.234,1.675 -5.526,2.36 -5.649,7.201 -5.713,13.161 v 22.845 l -0.063,5.279 H -18.5 l 0,1.487 z"
             style="fill:#231f20;fill-opacity:1;fill-rule:nonzero;stroke:none"
             id="path928" /></g></g></g></g></svg>
