<?xml version="1.0" encoding="UTF-8" standalone="no"?>
<!-- Created with Inkscape (http://www.inkscape.org/) -->

<svg
   version="1.1"
   id="svg9"
   xml:space="preserve"
   width="944.88135"
   height="302.36267"
   viewBox="0 0 944.88135 302.36267"
   sodipodi:docname="uib-logo-inv.svg"
   inkscape:version="1.1.1 (3bf5ae0d25, 2021-09-20)"
   xmlns:inkscape="http://www.inkscape.org/namespaces/inkscape"
   xmlns:sodipodi="http://sodipodi.sourceforge.net/DTD/sodipodi-0.dtd"
   xmlns="http://www.w3.org/2000/svg"
   xmlns:svg="http://www.w3.org/2000/svg"><defs
     id="defs13"><clipPath
       clipPathUnits="userSpaceOnUse"
       id="clipPath23"><path
         d="M 0,226.772 H 708.661 V 0 H 0 Z"
         id="path21" /></clipPath></defs><sodipodi:namedview
     id="namedview11"
     pagecolor="#ffffff"
     bordercolor="#666666"
     borderopacity="1.0"
     inkscape:pageshadow="2"
     inkscape:pageopacity="0.0"
     inkscape:pagecheckerboard="0"
     showgrid="false"
     inkscape:zoom="0.79269212"
     inkscape:cx="472.44067"
     inkscape:cy="150.7521"
     inkscape:window-width="1680"
     inkscape:window-height="987"
     inkscape:window-x="3592"
     inkscape:window-y="26"
     inkscape:window-maximized="1"
     inkscape:current-layer="g15" /><g
     id="g15"
     inkscape:groupmode="layer"
     inkscape:label="UiB_Positiv2linjer"
     transform="matrix(1.3333333,0,0,-1.3333333,0,302.36267)"><g
       id="g17"
       style="fill:#ffffff"><g
         id="g19"
         clip-path="url(#clipPath23)"
         style="fill:#ffffff"><g
           id="g25"
           transform="translate(127.2109,89.1151)"
           style="fill:#ffffff"><path
             d="m 0,0 c -0.49,0.964 -1.293,1.239 -2.561,1.312 0.284,-0.787 0.443,-1.311 0.595,-2.228 0,0 0.833,0.134 0.781,-0.409 -0.046,-0.476 -0.478,-0.488 -0.686,-0.488 0.005,-0.515 0.085,-0.656 0.029,-1.339 0,0 1.198,0.268 2.024,-0.681 C 0.593,-2.744 0.509,-1.002 0,0 m -0.387,-5.115 c -0.234,0.802 -1.507,0.74 -1.507,0.74 0,0 0.234,-1.453 -0.212,-2.488 -0.336,-0.78 -1.027,-1.281 -1.107,-1.305 l 0.013,-0.04 c 0.291,-0.081 1.017,-0.063 1.746,0.494 0.691,0.528 1.246,1.655 1.067,2.599 m -3.04,0.141 c 0.552,2.123 0.037,6.593 -1.44,7.443 -0.908,0.3 -1.78,0.28 -2.226,-0.073 0.929,-1.913 0.58,-3.546 0.58,-3.546 0,0 1.229,0.181 1.252,-0.353 0.016,-0.384 -0.408,-0.652 -0.872,-0.676 -0.465,-0.025 -0.676,-0.408 -0.676,-0.408 0,0 -0.209,-0.461 -0.396,-1.882 0.636,0.654 2.497,1.231 3.778,-0.505 M -7.892,0.23 c -0.013,1.367 -0.806,1.865 -0.806,1.865 0,0 -0.561,-0.095 -0.842,-0.179 -0.263,-0.079 -0.245,-0.024 -1.276,-1.613 -1.152,-1.777 -1.828,-2.649 -1.189,-5.369 0.939,1.001 2.457,1.032 3.341,-0.137 0,0 0.292,1.378 0.321,2.297 -0.35,0.496 -0.762,0.681 -1.455,0.874 -0.629,0.176 -0.553,1.018 0.441,0.845 0.737,-0.128 1.277,-0.537 1.277,-0.537 0,0 0.202,0.588 0.188,1.954 m -11.496,0.073 c -1.032,1.589 -1.014,1.534 -1.276,1.613 -0.281,0.084 -0.842,0.179 -0.842,0.179 0,0 -0.793,-0.498 -0.807,-1.865 -0.014,-1.366 0.189,-1.954 0.189,-1.954 0,0 0.54,0.409 1.277,0.537 0.993,0.173 1.07,-0.669 0.441,-0.845 -0.693,-0.193 -1.105,-0.378 -1.456,-0.874 0.03,-0.919 0.322,-2.297 0.322,-2.297 0.883,1.169 2.401,1.138 3.34,0.137 0.64,2.72 -0.036,3.592 -1.188,5.369 m -3.611,-4.772 c -0.187,1.421 -0.396,1.882 -0.396,1.882 0,0 -0.212,0.383 -0.677,0.408 -0.464,0.024 -0.888,0.292 -0.871,0.676 0.022,0.534 1.251,0.353 1.251,0.353 0,0 -0.348,1.633 0.58,3.546 -0.445,0.353 -1.318,0.373 -2.225,0.073 -1.478,-0.85 -1.992,-5.32 -1.44,-7.443 1.281,1.736 3.142,1.159 3.778,0.505 m -3.992,-3.699 c -0.08,0.024 -0.771,0.525 -1.107,1.305 -0.447,1.035 -0.213,2.488 -0.213,2.488 0,0 -1.272,0.062 -1.506,-0.74 -0.18,-0.944 0.376,-2.071 1.066,-2.599 0.73,-0.557 1.456,-0.575 1.746,-0.494 z m -3.395,4.335 c 0.826,0.949 2.023,0.681 2.023,0.681 -0.055,0.683 0.024,0.824 0.029,1.339 -0.207,0 -0.64,0.012 -0.685,0.488 -0.052,0.543 0.781,0.409 0.781,0.409 0.152,0.917 0.311,1.441 0.595,2.228 -1.269,-0.073 -2.072,-0.348 -2.562,-1.312 -0.509,-1.002 -0.592,-2.744 -0.181,-3.833 M -4.452,-6.68 c 0.001,0.279 0.031,1.07 -0.954,1.391 -0.984,0.32 -1.477,-0.446 -1.477,-0.446 0,0 0.461,-0.652 0.489,-1.801 0.029,-1.208 -0.633,-1.853 -0.633,-1.853 L -7.039,-9.51 c 0.43,0.055 2.581,0.86 2.587,2.83 m -4.527,-2.846 c 0,0 -0.739,0.594 -0.519,2.785 0.056,0.562 -0.54,1.345 -1.465,0.951 -0.625,-0.265 -0.797,-1.156 -0.516,-1.75 0.337,-0.712 1.437,-1.755 2.422,-2.037 z m -10.263,3.736 c -0.924,0.394 -1.521,-0.389 -1.464,-0.951 0.22,-2.191 -0.519,-2.785 -0.519,-2.785 l 0.077,-0.051 c 0.985,0.282 2.085,1.325 2.422,2.037 0.282,0.594 0.11,1.485 -0.516,1.75 m -3.923,-3.72 -0.012,0.121 c 0,0 -0.663,0.645 -0.633,1.853 0.027,1.149 0.488,1.801 0.488,1.801 0,0 -0.492,0.766 -1.477,0.446 -0.985,-0.321 -0.954,-1.112 -0.954,-1.391 0.007,-1.97 2.158,-2.775 2.588,-2.83 m -14.911,42.441 c 0.256,-0.512 0.695,-0.526 0.76,-0.475 0,0 0.563,0.467 1.227,1.46 0.664,0.993 1.171,2.057 1.171,2.057 0,0 -0.044,0.102 -0.175,0.139 -0.132,0.036 -0.621,-0.131 -0.621,-0.131 0,0 -0.273,-0.254 -0.587,-0.597 -0.314,-0.343 -0.957,-0.927 -1.402,-1.249 -0.446,-0.321 -0.628,-0.693 -0.373,-1.204 m 1.304,8.227 c 0.413,0.114 2.723,1.365 3.676,2.661 0.954,1.295 2.298,5.175 2.37,5.744 0.071,0.57 -0.413,0.37 -0.598,0.114 -0.186,-0.256 -1.083,-2.309 -2.208,-3.747 -1.124,-1.438 -3.98,-2.992 -3.98,-2.992 -0.143,-0.327 0.057,-1.338 0.74,-1.78 m 1.284,5.602 c 0.061,-0.045 0.335,-0.061 0.838,0.183 0.502,0.244 0.472,0.488 0.472,0.488 0,0 -0.412,2.711 -0.442,3.061 -0.015,0.181 -0.047,0.429 -0.121,0.545 -0.09,-0.057 -0.333,-0.178 -0.411,-0.259 -0.309,-0.609 -0.371,-1.907 -0.427,-2.479 -0.062,-0.609 0.091,-1.539 0.091,-1.539 m 1.288,15.187 c 0.049,-1.459 0.184,-3.214 0.852,-3.106 0.583,0.095 0.907,0.13 1.379,0.154 0.473,0.024 0.45,-0.803 -0.111,-0.915 -0.561,-0.112 -1.486,-0.328 -1.529,-0.851 -0.03,-0.368 0.087,-2.06 0.793,-3.036 0.196,-0.271 0.527,-0.209 0.527,-0.209 0,0 0.272,0.417 0.481,0.417 0.207,0 0.272,-0.128 0.047,-0.505 -0.224,-0.376 -0.4,-0.656 -0.08,-1.361 0.32,-0.705 1.025,-0.833 1.522,-1.241 0.496,-0.409 0.761,-0.417 0.977,0.023 0.216,0.441 0.776,1.642 1.313,2.179 0.537,0.536 0.849,0.352 0.569,-0.08 -0.281,-0.433 -1.56,-2.771 -0.749,-3.258 0.619,-0.371 0.97,-0.511 1.271,-0.528 0.477,-0.029 0.655,0.038 0.791,0.494 0.136,0.457 0.397,0.81 0.697,0.753 0.17,-0.032 0.01,-0.626 0.137,-1.043 0.129,-0.416 0.28,-0.656 0.825,-0.687 0.65,-0.038 1.493,-0.011 1.738,0.072 0.45,0.153 0.151,2.013 0.289,2.9 0.059,0.385 0.191,0.61 0.431,0.474 0.081,-1.536 1.384,-2.944 1.384,-2.944 0,0 0.631,0.052 1.33,0.648 0.466,0.396 0.192,1.19 0.192,1.19 0,0 -0.552,0.087 -1.033,0.527 -0.48,0.44 -0.969,1.298 -0.665,2.002 0.305,0.705 0.441,-0.528 1.065,-0.849 0.625,-0.32 0.633,0.121 0.369,0.513 -0.264,0.392 -1.049,1.754 -0.641,2.018 0.409,0.264 0.353,-0.208 0.609,-0.296 0.256,-0.089 0.216,1.689 0.216,1.689 0,0 -0.452,0.388 -0.942,-0.152 -0.48,-0.529 -0.955,-1.011 -1.885,-1.313 -0.306,-0.1 0,-1.433 -0.312,-1.489 -0.312,-0.057 -0.537,1 -1.049,0.96 -0.512,-0.04 -0.788,-3.494 -1.233,-3.419 -0.596,0.101 -0.103,3.628 -0.103,3.628 0,0 -0.434,0.312 -1.011,0.488 -0.576,0.176 -1.064,0.248 -1.064,0.248 0,0 -0.535,-0.132 -1.16,-0.998 -0.591,-0.82 -0.67,-1.214 -0.872,-1.123 -0.278,0.124 -0.034,1.283 0.886,2.202 0.43,0.428 0.285,0.593 0.285,0.593 0,0 -0.455,0.62 -0.992,0.508 -0.536,-0.113 -1.558,-0.939 -1.895,-1.505 -0.377,-0.634 -0.769,-0.511 -0.739,0.116 0.031,0.654 -0.005,0.832 0.735,1.383 0.747,0.556 1.073,0.697 1.208,0.97 0.076,0.153 0.065,1.668 -0.58,2.345 -0.221,0.232 -0.121,0.355 -1.473,0.554 -0.99,0.146 -1.979,-0.047 -1.938,0.345 0.036,0.345 1.119,1.047 3.596,0.504 0.274,-0.06 0.461,0.102 0.536,0.497 0.098,0.52 0.341,1.237 0.492,1.605 0.13,0.32 0.181,0.449 -0.318,0.826 -0.683,0.515 -0.988,0.958 -1.108,1.287 -0.121,0.328 0.124,1.085 0.589,0.668 0.464,-0.417 0.963,-0.86 1.578,-1.194 0.402,-0.217 1.541,0.254 1.269,0.638 -0.152,0.215 -0.684,0.818 -1.085,1.618 -0.4,0.801 -0.455,1.3 -0.814,1.629 -0.294,0.271 -2.07,0.778 -2.403,0.667 -0.38,-0.127 -1.147,-0.426 -1.243,-0.633 -0.194,-0.42 -0.436,-0.733 -0.246,-1.161 0.25,-0.564 1.161,-0.821 1.308,-1.16 0.07,-0.162 -0.118,-0.849 -0.262,-0.905 -0.144,-0.056 -0.601,0.279 -0.873,0.495 -0.273,0.216 -0.697,0.661 -0.901,0.335 -0.259,-0.416 -0.377,-1.178 0.05,-1.426 1.356,-0.785 1.262,-0.633 1.262,-0.912 0,-0.186 -0.219,-0.576 -0.482,-0.554 -0.475,0.039 -1.159,0.442 -1.346,0.338 -0.252,-0.141 -0.508,-1.23 -0.461,-2.647 m 1.086,10.2 c 1.444,-1.052 3.213,-1.076 3.638,-1.076 0.567,0 1.187,-0.134 1.556,-0.677 0.335,-0.492 0.775,-1.276 1.063,-1.03 0.317,0.27 -0.277,1.054 -0.366,1.255 -0.089,0.202 -0.13,0.402 0.019,0.525 0.312,0.256 1.552,-1.043 1.765,-0.796 0.212,0.246 -1.947,1.926 -1.597,2.43 0.267,0.384 0.948,0.165 1.769,-0.619 1.196,-1.142 2.171,-1.256 2.437,-1.02 0.168,0.15 -1.094,0.946 -2.005,1.791 -0.731,0.678 -1.568,1.637 -3.471,1.872 -1.902,0.235 -2.676,-0.047 -3.704,0.207 -0.636,0.157 -1.472,0.634 -1.837,1.378 -0.466,0.947 -0.433,1.177 -0.632,0.879 -0.159,-0.238 -0.437,-1.164 -0.403,-1.97 0.033,-0.805 0.324,-2.097 1.768,-3.149 m 10.446,0.673 c 0.371,-0.141 0.648,-0.146 0.768,0.158 0.553,1.404 1.734,1.537 2.588,1.135 0.449,-0.212 0.712,-0.181 0.891,0.232 -0.144,0.608 -1.308,1.635 -2.779,1.211 -1.498,-0.431 -1.75,-2.179 -1.468,-2.736 m 2.456,0.149 c -1.081,-0.4 -1.209,-1.782 -0.884,-2.334 0.465,-0.221 0.736,-0.111 0.836,0.298 0.195,0.798 0.915,1.065 1.589,0.691 0.279,-0.155 0.645,-0.023 0.699,0.423 -0.214,0.574 -1.205,1.305 -2.24,0.922 m 2.807,1.462 c 0.105,-0.555 0.514,-0.478 0.72,-0.219 0.355,0.448 0.875,0.746 1.595,0.746 0.721,0 1.24,-0.298 1.595,-0.746 0.205,-0.259 0.614,-0.336 0.719,0.219 -0.185,1.296 -1.407,1.821 -2.314,1.821 -0.907,0 -2.129,-0.525 -2.315,-1.821 m 5.195,-2.384 c 0.055,-0.446 0.421,-0.578 0.7,-0.423 0.673,0.374 1.393,0.107 1.589,-0.691 0.1,-0.409 0.371,-0.519 0.836,-0.298 0.387,0.492 0.197,1.934 -0.884,2.334 -1.035,0.383 -2.027,-0.348 -2.241,-0.922 m 0.449,2.298 c 0.18,-0.413 0.443,-0.444 0.892,-0.232 0.854,0.402 2.035,0.269 2.588,-1.135 0.12,-0.304 0.397,-0.299 0.768,-0.158 0.282,0.557 0.03,2.305 -1.468,2.736 -1.471,0.424 -2.635,-0.603 -2.78,-1.211 m 4.406,-3.206 c 0.266,-0.236 1.242,-0.122 2.438,1.02 0.821,0.784 1.502,1.003 1.769,0.619 0.35,-0.504 -1.809,-2.184 -1.597,-2.43 0.213,-0.247 1.452,1.052 1.764,0.796 0.15,-0.123 0.109,-0.323 0.019,-0.525 -0.089,-0.201 -0.682,-0.985 -0.366,-1.255 0.288,-0.246 0.729,0.538 1.063,1.03 0.37,0.543 0.989,0.677 1.556,0.677 0.426,0 2.194,0.024 3.638,1.076 1.444,1.052 1.735,2.344 1.769,3.149 0.033,0.806 -0.245,1.732 -0.403,1.97 C 4.096,77.564 4.129,77.334 3.663,76.387 3.297,75.643 2.461,75.166 1.826,75.009 0.797,74.755 0.024,75.037 -1.879,74.802 -3.782,74.567 -4.619,73.608 -5.349,72.93 -6.26,72.085 -7.522,71.289 -7.355,71.139 M 3.556,64.594 C 3.369,64.698 2.686,64.295 2.211,64.256 1.948,64.234 1.728,64.624 1.728,64.81 c 0,0.279 -0.094,0.127 1.262,0.912 0.427,0.248 0.309,1.01 0.05,1.426 C 2.837,67.474 2.412,67.029 2.139,66.813 1.867,66.597 1.41,66.262 1.266,66.318 c -0.143,0.056 -0.332,0.743 -0.262,0.905 0.148,0.339 1.058,0.596 1.308,1.16 0.19,0.428 -0.051,0.741 -0.246,1.161 -0.095,0.207 -0.863,0.506 -1.243,0.633 -0.333,0.111 -2.109,-0.396 -2.403,-0.667 -0.358,-0.329 -0.414,-0.828 -0.814,-1.629 -0.401,-0.8 -0.933,-1.403 -1.085,-1.618 -0.272,-0.384 0.867,-0.855 1.269,-0.638 0.615,0.334 1.114,0.777 1.579,1.194 0.464,0.417 0.709,-0.34 0.589,-0.668 -0.121,-0.329 -0.426,-0.772 -1.109,-1.287 -0.499,-0.377 -0.448,-0.506 -0.317,-0.826 0.15,-0.368 0.393,-1.085 0.491,-1.605 0.075,-0.395 0.262,-0.557 0.537,-0.497 2.476,0.543 3.56,-0.159 3.596,-0.504 0.04,-0.392 -0.949,-0.199 -1.938,-0.345 -1.352,-0.199 -1.253,-0.322 -1.473,-0.554 -0.646,-0.677 -0.657,-2.192 -0.581,-2.345 0.135,-0.273 0.461,-0.414 1.209,-0.97 0.739,-0.551 0.703,-0.729 0.734,-1.383 0.03,-0.627 -0.362,-0.75 -0.739,-0.116 -0.337,0.566 -1.359,1.392 -1.895,1.505 -0.537,0.112 -0.991,-0.508 -0.991,-0.508 0,0 -0.146,-0.165 0.284,-0.594 0.92,-0.918 1.164,-2.077 0.887,-2.201 -0.203,-0.091 -0.282,0.303 -0.873,1.123 -0.625,0.866 -1.159,0.998 -1.159,0.998 0,0 -0.489,-0.072 -1.065,-0.248 -0.577,-0.176 -1.011,-0.488 -1.011,-0.488 0,0 0.494,-3.527 -0.102,-3.628 -0.446,-0.075 -0.721,3.379 -1.234,3.419 -0.512,0.04 -0.737,-1.017 -1.049,-0.961 -0.312,0.057 -0.005,1.39 -0.312,1.49 -0.93,0.302 -1.405,0.784 -1.885,1.313 -0.489,0.539 -0.942,0.152 -0.942,0.152 0,0 -0.04,-1.778 0.217,-1.689 0.256,0.088 0.199,0.56 0.608,0.296 0.408,-0.264 -0.376,-1.626 -0.64,-2.018 -0.265,-0.392 -0.257,-0.833 0.368,-0.513 0.624,0.321 0.761,1.554 1.065,0.849 0.304,-0.704 -0.184,-1.562 -0.665,-2.002 -0.48,-0.44 -1.033,-0.527 -1.033,-0.527 0,0 -0.274,-0.794 0.192,-1.19 0.699,-0.596 1.33,-0.648 1.33,-0.648 0,0 1.303,1.408 1.385,2.944 0.24,0.136 0.371,-0.089 0.43,-0.474 0.138,-0.887 -0.161,-2.747 0.29,-2.9 0.245,-0.083 1.088,-0.11 1.737,-0.072 0.545,0.031 0.696,0.271 0.824,0.687 0.129,0.417 -0.031,1.011 0.138,1.043 0.3,0.057 0.561,-0.296 0.697,-0.753 0.136,-0.456 0.314,-0.523 0.791,-0.494 0.302,0.017 0.652,0.157 1.271,0.528 0.811,0.487 -0.468,2.825 -0.748,3.258 -0.281,0.432 0.032,0.616 0.568,0.08 0.537,-0.537 1.097,-1.738 1.314,-2.179 0.215,-0.44 0.48,-0.432 0.976,-0.023 0.497,0.408 1.202,0.536 1.522,1.241 0.32,0.705 0.144,0.985 -0.08,1.361 -0.224,0.377 -0.16,0.505 0.048,0.505 0.208,0 0.481,-0.417 0.481,-0.417 0,0 0.33,-0.062 0.526,0.209 0.706,0.976 0.823,2.668 0.794,3.036 -0.043,0.523 -0.969,0.739 -1.53,0.851 -0.56,0.112 -0.583,0.939 -0.111,0.915 0.472,-0.024 0.797,-0.059 1.379,-0.154 0.668,-0.108 0.803,1.647 0.852,3.106 0.047,1.417 -0.209,2.506 -0.461,2.647 M 4.437,50.492 c -0.03,-0.35 -0.441,-3.061 -0.441,-3.061 0,0 -0.031,-0.244 0.472,-0.488 0.503,-0.244 0.777,-0.228 0.838,-0.183 0,0 0.152,0.93 0.091,1.539 C 5.34,48.871 5.279,50.169 4.969,50.778 4.891,50.859 4.649,50.98 4.558,51.037 4.485,50.921 4.453,50.673 4.437,50.492 M 3.349,45.93 c -1.125,1.438 -2.022,3.491 -2.208,3.747 -0.185,0.256 -0.668,0.456 -0.597,-0.114 0.071,-0.569 1.415,-4.449 2.369,-5.744 0.953,-1.296 3.263,-2.547 3.676,-2.661 0.684,0.442 0.883,1.453 0.741,1.78 0,0 -2.857,1.554 -3.981,2.992 M 6.118,35.384 c -0.313,0.343 -0.587,0.596 -0.587,0.596 0,0 -0.489,0.168 -0.621,0.132 -0.131,-0.037 -0.175,-0.139 -0.175,-0.139 0,0 0.507,-1.064 1.171,-2.057 0.665,-0.993 1.227,-1.46 1.227,-1.46 0.066,-0.051 0.504,-0.037 0.76,0.475 0.255,0.511 0.072,0.883 -0.373,1.204 -0.445,0.322 -1.088,0.906 -1.402,1.249 m 0.053,-3.98 C 5.719,31.878 5.06,32.998 4.807,33.067 4.554,33.137 4.614,32.925 4.614,32.925 4.451,31.161 2.985,14.058 -0.974,2.539 -0.65,2.3 -0.264,2.553 -0.009,2.752 4.023,11.114 6.623,30.93 6.171,31.404 M -7.682,8.349 C -7.702,8.58 -8.095,9.002 -8.229,8.378 -8.363,7.755 -8.833,7.247 -9.495,6.499 c -0.662,-0.748 -2.436,-1.736 -3.289,-3.098 -0.854,-1.362 -0.528,-3.078 -0.528,-3.078 0.518,0.134 0.429,1.234 1.966,2.416 1.621,1.247 1.736,0.777 2.896,1.861 1.31,1.223 0.787,3.519 0.768,3.749 m -6.11,-4.626 c 0,0 0.546,1.064 2.585,2.517 1.771,1.261 2.272,2.611 2.355,4.328 0.077,1.576 -0.526,2.135 -0.526,2.135 l -0.123,-0.097 c 0,0 0.183,-1.206 -1.031,-3.084 -0.896,-1.386 -2.05,-2.022 -2.517,-2.27 -0.468,-0.247 -0.894,-0.641 -0.99,-1.769 -0.097,-1.127 -0.097,-1.526 0.055,-1.801 0.151,-0.275 0.192,0.041 0.192,0.041 m 1.052,7.497 c 0.119,0.872 -0.109,2.014 -0.504,2.912 -0.395,0.899 -1.143,1.429 -1.143,1.429 0,0 -0.323,-0.45 -0.328,-1.148 0.186,-0.51 0.767,-0.904 0.915,-1.828 0.112,-0.707 -0.202,-1.677 -1.057,-1.951 -0.215,-0.068 -0.331,0.043 -0.533,0.198 0.132,0.267 0.72,0.59 0.402,1.997 -0.485,0 -0.323,-1.321 -0.891,-1.348 -0.181,-0.008 -0.408,0.123 -0.452,0.417 0.234,0.343 0.711,1.38 0.682,2.539 -0.017,0.697 -0.146,1.124 -0.146,1.124 0,0 -0.704,-0.684 -1.098,-1.582 -0.395,-0.898 -0.669,-1.887 -0.549,-2.759 0.15,-1.089 1.164,-2.014 2.351,-2.014 1.186,0 2.201,0.925 2.351,2.014 m -3.402,-5.737 c -0.097,1.128 -0.523,1.522 -0.99,1.769 -0.468,0.248 -1.621,0.884 -2.518,2.27 -1.214,1.878 -1.03,3.084 -1.03,3.084 l -0.124,0.097 c 0,0 -0.602,-0.559 -0.526,-2.135 0.083,-1.717 0.584,-3.067 2.355,-4.328 2.039,-1.453 2.585,-2.517 2.585,-2.517 0,0 0.041,-0.316 0.193,-0.041 0.151,0.275 0.151,0.674 0.055,1.801 m -1.256,-2.082 c -0.854,1.362 -2.628,2.35 -3.29,3.098 -0.662,0.748 -1.131,1.256 -1.266,1.879 -0.134,0.624 -0.527,0.202 -0.547,-0.029 -0.019,-0.229 -0.542,-2.526 0.768,-3.749 1.16,-1.084 1.275,-0.614 2.896,-1.861 1.537,-1.182 1.448,-2.282 1.966,-2.416 0,0 0.326,1.716 -0.527,3.078 M -31.16,44.48 c -0.014,0.37 -0.342,0.1 -0.442,-0.256 -0.099,-0.356 -0.365,-1.202 -1.249,-2.288 -1.253,-1.538 -4.023,-2.639 -4.023,-2.639 0,0 -0.074,-1.322 0.139,-1.763 0.214,-0.442 0.618,-0.241 0.618,-0.241 0,0 1.974,0.65 3.013,1.646 1.848,1.772 1.958,5.171 1.944,5.541 m -1.716,-9.593 c 0.047,-2.811 2.231,-24.541 5.272,-31.816 0.116,-0.278 1.119,1.047 0.929,2.025 -0.069,0.354 -4.032,21.936 -3.072,35.984 0.007,0.101 -0.361,-0.194 -0.375,-0.228 -1.383,-3.395 -2.772,-4.828 -2.754,-5.965 m 14.023,30.17 c 0.476,0.1 0.747,0.081 1.244,0.138 0.497,0.058 0.208,0.432 -0.01,0.52 -0.472,0.193 -1.117,0.391 -1.866,0.235 -0.549,-0.114 -1.552,-0.498 -1.344,-1.039 0.216,-0.562 1.187,-0.021 1.976,0.146 m -8.802,-2.808 c -0.721,-2.132 0.188,-4.507 2.3,-5.221 2.112,-0.715 4.288,0.38 5.01,2.513 0.721,2.133 -0.066,4.563 -2.179,5.278 -2.112,0.714 -4.409,-0.436 -5.131,-2.57 m 6.859,6.387 c -0.139,0.196 -0.697,0.857 -2.299,0.789 -0.662,-0.028 -3.267,-0.537 -2.749,-1.415 0.117,-0.198 0.76,-0.326 1.641,0.033 1.959,0.799 3.111,0.323 3.28,0.297 0.17,-0.026 0.255,0.119 0.127,0.296 m -0.455,-1.018 c -0.85,-0.085 -1.572,-0.482 -2.766,-0.484 -0.54,-0.001 -0.194,-0.623 -0.046,-0.715 0.148,-0.092 0.725,-0.509 2.212,-0.023 1.311,0.428 1.523,0.404 2.295,0.327 0.516,-0.052 0.592,0.347 0.297,0.511 -0.333,0.186 -1.142,0.469 -1.992,0.384 m 2.163,2.74 c -1.043,-0.611 -0.716,-1.76 -0.22,-2.141 0.349,-0.269 0.669,-0.031 0.686,0.17 -0.412,0.873 0.828,1.348 1.15,0.679 0.219,-0.116 0.45,0.132 0.392,0.494 -0.128,0.812 -1.185,1.279 -2.008,0.798 m 6.048,1.803 c -0.074,0.698 -0.996,1.603 -2.05,1.603 -1.054,0 -1.977,-0.905 -2.051,-1.603 0.158,-0.222 0.364,-0.516 0.756,-0.223 0.292,0.218 0.641,0.576 1.295,0.576 0.655,0 1.003,-0.358 1.295,-0.576 0.392,-0.293 0.598,10e-4 0.755,0.223 m 1.942,-1.8 c -0.824,0.477 -1.879,0.006 -2.004,-0.807 -0.056,-0.362 0.176,-0.608 0.394,-0.492 0.319,0.67 1.562,0.201 1.153,-0.674 0.018,-0.201 0.339,-0.438 0.687,-0.168 0.494,0.385 0.816,1.534 -0.23,2.141 m 0.173,-3.127 c -0.295,-0.164 -0.219,-0.563 0.297,-0.511 0.772,0.077 0.984,0.101 2.294,-0.327 1.488,-0.486 2.066,-0.069 2.213,0.023 0.148,0.092 0.494,0.714 -0.046,0.715 -1.194,0.002 -1.915,0.399 -2.766,0.484 -0.85,0.085 -1.658,-0.198 -1.992,-0.384 m 3.836,2.191 c -1.601,0.068 -2.16,-0.593 -2.299,-0.789 -0.127,-0.177 -0.042,-0.322 0.127,-0.296 0.169,0.026 1.321,0.502 3.28,-0.297 0.881,-0.359 1.525,-0.231 1.641,-0.033 0.519,0.878 -2.087,1.387 -2.749,1.415 m -2.748,-9.884 c 0.721,-2.133 2.896,-3.228 5.009,-2.513 2.113,0.714 3.021,3.089 2.3,5.221 -0.722,2.134 -3.019,3.284 -5.131,2.57 -2.113,-0.715 -2.9,-3.145 -2.178,-5.278 m 0.482,5.37 c 0.208,0.541 -0.795,0.925 -1.345,1.039 -0.748,0.156 -1.393,-0.042 -1.865,-0.235 -0.218,-0.088 -0.507,-0.462 -0.01,-0.52 0.497,-0.057 0.768,-0.038 1.244,-0.138 0.789,-0.167 1.76,-0.708 1.976,-0.146 M -3.419,29.072 C -3.8,28.95 -4.37,29.685 -4.777,30.38 c -0.342,0.582 -0.755,1.544 -0.755,1.544 0,0 -0.795,-0.298 -0.536,-1.558 0.305,-1.485 1.749,-3.845 3.557,-3.043 1.006,0.447 0.766,2.063 0.192,3.334 -0.368,0.814 -0.883,1.516 -1.343,1.759 -0.356,-0.11 -0.292,-0.8 -0.243,-1.22 0.131,-1.102 0.867,-2.001 0.486,-2.124 m -5.068,-1.49 c 1.491,0.273 1.858,1.617 1.226,2.881 -0.648,1.296 -1.001,1.119 -1.965,3.814 -0.191,0.534 -0.546,0.422 -0.546,0.422 0,0 -0.274,-1.252 0.155,-2.651 0.357,-1.165 0.927,-1.709 0.465,-1.931 -0.463,-0.221 -1.466,0.883 -1.88,1.837 -0.415,0.955 -0.722,2.58 -0.722,2.58 0,0 -0.503,-0.089 -0.578,-0.661 -0.12,-0.908 0.167,-6.963 3.845,-6.291 m -5.416,-8.858 c -0.066,-1.319 1.45,-4.898 3.777,-3.944 2.163,0.887 0.176,4.493 -0.612,5.096 -0.549,0.421 -0.939,1.002 -0.939,1.002 0,0 -0.388,0.078 -0.555,-0.232 0.023,-1.612 1.477,-3.003 1.038,-3.187 -0.755,-0.317 -2.005,2.578 -2.005,2.578 0,0 -0.639,0.006 -0.704,-1.313 m -1.188,2.177 c 2.074,0 3.182,2.828 3.079,5.125 -0.161,3.602 -1.151,3.485 -1.151,3.485 0,0 -0.143,-0.307 -0.113,-0.666 0.022,-0.263 0.323,-1.181 0.323,-2.06 0,-1.098 -0.437,-2.337 -0.718,-2.151 -0.167,0.111 -0.137,0.674 -0.127,1.159 0.011,0.616 0.024,1.129 -0.269,1.129 -0.318,0 -0.141,-0.784 -0.255,-2.033 -0.124,-1.371 -0.73,-2.176 -1.238,-1.764 0,0 0.321,0.531 0.301,1.906 -0.018,1.279 -0.235,2.578 -0.735,2.535 -0.74,-0.065 -0.175,-1.169 -0.488,-1.296 -0.312,-0.127 -0.594,0.138 -0.584,1.016 0.009,0.879 0.433,2.519 0.455,2.781 0.03,0.36 -0.232,0.699 -0.232,0.699 0,0 -1.167,-1.138 -1.328,-4.74 -0.103,-2.297 1.006,-5.125 3.08,-5.125 m -4.967,-6.121 c 2.328,-0.954 3.843,2.625 3.777,3.944 -0.065,1.319 -0.704,1.313 -0.704,1.313 0,0 -1.25,-2.895 -2.005,-2.578 -0.438,0.184 1.015,1.575 1.039,3.187 -0.167,0.31 -0.555,0.232 -0.555,0.232 0,0 -0.391,-0.581 -0.94,-1.002 -0.788,-0.603 -2.775,-4.209 -0.612,-5.096 m 1.603,22.46 c 0.413,-1.684 1.211,-3.326 3.363,-3.326 h 0.001 c 2.153,0 2.95,1.642 3.364,3.326 0.629,2.564 -0.181,6.545 -0.45,7.097 -0.271,0.551 -0.664,0.202 -0.664,0.202 0,0 0.586,-2.727 0.183,-4.361 -0.27,-1.092 -0.788,-1.473 -0.919,-0.829 -0.292,1.432 -0.178,2.739 -0.153,3.323 0.025,0.543 -0.354,1.114 -0.448,0.857 -0.394,-1.066 -1.029,-3.705 -0.587,-5.614 0.062,-0.268 0.156,-0.556 0.213,-0.813 0.062,-0.275 0.08,-0.516 -0.04,-0.664 -0.274,-0.342 -1.028,0.418 -1.215,1.09 -0.479,1.729 -0.012,3.422 -0.22,4.379 -0.058,0.266 -0.44,0.134 -0.445,-0.141 -0.011,-0.717 0.014,-1.428 -0.372,-1.451 -0.341,-0.021 -0.599,0.568 -0.701,1.509 -0.154,1.417 0.203,2.715 0.203,2.715 0,0 -0.393,0.349 -0.663,-0.202 -0.27,-0.552 -1.08,-4.533 -0.45,-7.097 m 0.791,27.325 c -0.843,-0.505 -1.019,-1.047 -0.773,-1.22 0.742,-0.521 1.548,0.439 2.137,1.26 0.109,0.153 0.152,0.304 -0.014,0.393 -0.332,0.179 -1.077,-0.27 -1.35,-0.433 m 2.573,6.849 c -0.937,0 -1.509,-0.87 -1.394,-1.558 0.114,-0.687 0.289,-0.875 0.426,-1.042 0.086,-0.105 0.333,0.007 0.285,0.16 -0.047,0.153 -0.157,1.119 0.683,1.119 0.838,0 0.729,-0.966 0.681,-1.119 -0.047,-0.153 0.2,-0.265 0.286,-0.16 0.136,0.167 0.312,0.355 0.426,1.042 0.115,0.688 -0.458,1.558 -1.393,1.558 m 3.344,-8.069 c 0.246,0.173 0.07,0.715 -0.773,1.22 -0.273,0.163 -1.018,0.612 -1.35,0.433 -0.166,-0.089 -0.123,-0.24 -0.014,-0.393 0.589,-0.821 1.396,-1.781 2.137,-1.26 m -3.988,-0.852 c 0.469,0.189 0.142,1.204 0.643,1.204 0.502,0 0.174,-1.015 0.644,-1.204 0.3,-0.122 0.549,0.133 0.528,0.458 -0.011,0.161 -0.264,1.739 -1.172,1.739 -0.908,0 -1.161,-1.578 -1.172,-1.739 -0.021,-0.325 0.229,-0.58 0.529,-0.458 m -1.852,-4.207 c -0.863,-0.709 -0.386,-3.762 -0.077,-5.195 0.264,-1.231 1.16,-3.88 2.572,-4.864 1.413,0.984 2.308,3.633 2.572,4.864 0.309,1.433 0.787,4.486 -0.076,5.195 -0.864,0.71 -1.674,0.81 -1.713,0.648 -0.191,-0.805 -0.198,-2.21 -0.198,-4.692 0,-1.579 -0.381,-2.87 -0.585,-2.87 -0.204,0 -0.585,1.291 -0.585,2.87 0,2.482 -0.007,3.887 -0.198,4.692 -0.039,0.162 -0.849,0.062 -1.712,-0.648 m -0.264,-24.413 c -0.075,0.572 -0.578,0.661 -0.578,0.661 0,0 -0.307,-1.625 -0.722,-2.58 -0.415,-0.954 -1.417,-2.058 -1.88,-1.837 -0.463,0.222 0.108,0.766 0.465,1.931 0.429,1.399 0.155,2.651 0.155,2.651 0,0 -0.355,0.112 -0.546,-0.422 -0.964,-2.695 -1.318,-2.518 -1.965,-3.814 -0.633,-1.264 -0.265,-2.608 1.226,-2.881 3.678,-0.672 3.965,5.383 3.845,6.291 m -8.428,-2.677 c 0.05,0.42 0.114,1.11 -0.243,1.22 -0.46,-0.243 -0.974,-0.945 -1.342,-1.759 -0.574,-1.271 -0.815,-2.887 0.192,-3.334 1.808,-0.802 3.251,1.558 3.556,3.043 0.259,1.26 -0.536,1.558 -0.536,1.558 0,0 -0.413,-0.962 -0.754,-1.544 -0.408,-0.695 -0.978,-1.43 -1.359,-1.308 -0.381,0.123 0.356,1.022 0.486,2.124 m 5.113,-5.302 c -0.035,0.02 -0.159,0.021 -0.159,0.021 -0.374,-0.204 -1.051,-1.226 -1.391,-1.547 -0.363,-0.342 -0.889,-1.329 -1.127,-1.557 -0.239,-0.228 -0.481,-0.007 -0.517,0.093 -0.036,0.101 0.425,0.953 0.684,1.357 0.259,0.404 0.825,2.409 0.825,2.409 -0.073,0.187 -0.311,0.093 -0.311,0.093 0,0 -0.705,-0.715 -1.898,-2.011 -2.081,-2.262 -2.53,-3.795 -1.12,-4.749 0.791,-0.535 2.171,-0.145 3.536,1.306 1.546,1.644 1.721,4.191 1.478,4.585 M -24.58,11.898 h -0.223 c -0.139,-0.785 -0.522,-4.096 -0.522,-5.251 0,-1.008 0.29,-1.665 0.745,-1.665 0.456,0 0.745,0.639 0.745,1.673 0,1.034 -0.745,5.243 -0.745,5.243 m 1.451,3.082 c 0.673,0.824 1.042,1.808 1.08,1.918 0.132,0.385 0.11,0.512 -0.072,0.716 0,0 -1.497,-2.33 -2.019,-1.939 -0.523,0.39 1.188,2.924 1.188,2.924 -0.076,0.083 -0.166,0.235 -0.562,-0.029 -0.19,-0.126 -1.192,-0.773 -1.833,-1.614 -0.699,-0.92 -0.978,-2.09 -0.27,-2.798 0.704,-0.703 1.761,-0.068 2.488,0.822 m 19.125,5.023 c 1.41,0.954 0.961,2.487 -1.12,4.749 -1.192,1.296 -1.898,2.011 -1.898,2.011 0,0 -0.238,0.094 -0.311,-0.093 0,0 0.566,-2.005 0.825,-2.409 0.26,-0.404 0.72,-1.256 0.684,-1.357 -0.036,-0.1 -0.277,-0.321 -0.516,-0.093 -0.238,0.228 -0.764,1.215 -1.128,1.557 -0.34,0.321 -1.017,1.343 -1.391,1.547 0,0 -0.124,-10e-4 -0.158,-0.021 -0.243,-0.394 -0.068,-2.941 1.477,-4.585 1.365,-1.451 2.745,-1.841 3.536,-1.306 M -5.38,11.898 h -0.224 c 0,0 -0.745,-4.209 -0.745,-5.243 0,-1.034 0.29,-1.673 0.745,-1.673 0.456,0 0.745,0.657 0.745,1.665 0,1.155 -0.383,4.466 -0.521,5.251 m 0.813,2.26 c 0.708,0.708 0.43,1.878 -0.27,2.798 -0.641,0.841 -1.643,1.488 -1.832,1.614 -0.397,0.264 -0.487,0.112 -0.562,0.029 0,0 1.71,-2.534 1.188,-2.924 -0.523,-0.391 -2.02,1.939 -2.02,1.939 -0.182,-0.204 -0.203,-0.331 -0.071,-0.716 0.038,-0.11 0.406,-1.094 1.079,-1.918 0.727,-0.89 1.784,-1.525 2.488,-0.822 m 7.488,24.781 c 1.04,-0.996 3.014,-1.646 3.014,-1.646 0,0 0.403,-0.201 0.617,0.241 0.214,0.441 0.139,1.763 0.139,1.763 0,0 -2.77,1.101 -4.022,2.639 -0.885,1.086 -1.151,1.932 -1.25,2.288 C 1.319,44.58 0.992,44.85 0.977,44.48 0.963,44.11 1.073,40.711 2.921,38.939 M -0.06,40.852 C -0.074,40.886 -0.443,41.181 -0.436,41.08 0.525,27.032 -3.439,5.45 -3.508,5.096 c -0.19,-0.978 0.813,-2.303 0.929,-2.025 3.041,7.275 5.226,29.005 5.272,31.816 0.019,1.137 -1.371,2.57 -2.753,5.965 m -1.804,5.362 c -0.489,-0.227 -1.771,1.84 -1.771,1.84 0,0 -0.55,0.183 -0.41,-0.611 0.175,-0.986 1.658,-4.385 3.394,-3.6 1.685,0.762 -0.288,4.062 -0.654,4.42 -0.167,0.162 -0.541,0.401 -0.69,0.122 0,0 0.609,-1.949 0.131,-2.171 M -3.87,42.02 c 0,0 -0.326,-0.236 -0.911,0.99 -0.585,1.226 -0.787,2.249 -0.832,2.53 -0.045,0.281 -0.293,0.371 -0.383,0.124 -0.089,-0.247 -0.101,-2.654 0.833,-4.285 0.899,-1.572 1.855,-1.811 2.62,-1.338 0.765,0.472 -0.18,1.934 -0.483,2.44 -0.304,0.506 -0.383,1.147 -0.383,1.147 0,0 -0.63,0.844 -0.821,0.675 0,0 -0.124,-0.63 0.079,-1.282 0.202,-0.653 0.281,-1.001 0.281,-1.001 m -1.368,-5.264 c -0.54,-0.011 -0.945,0.371 -1.687,1.17 -0.743,0.798 -1.631,2.036 -1.631,2.036 0,0 -0.236,0.033 -0.225,-0.372 0.011,-0.404 0.506,-2.766 1.912,-4.251 1.406,-1.485 2.839,-1.6 3.565,-1.024 1.148,0.911 0.817,2.578 -0.112,3.24 -1.17,0.832 -2.002,1.586 -2.306,2.137 -0.303,0.551 -0.607,0.315 -0.607,0.315 0,0 -0.022,-0.507 0.304,-1.418 0.326,-0.911 1.327,-1.821 0.787,-1.833 m -3.678,7.688 c -1.128,-0.399 -2.295,2.65 -2.295,2.65 0,0 -0.438,0.003 -0.404,-0.402 0.289,-3.47 2.755,-4.735 3.632,-4.319 0.579,0.275 1.092,0.923 0.585,2.362 -0.334,0.951 -0.984,1.653 -1.433,1.965 -0.295,0.205 -0.493,0.174 -0.493,0.174 0,0 0.948,-2.238 0.408,-2.43 m -11.943,2.43 c 0,0 -0.198,0.031 -0.493,-0.174 -0.449,-0.312 -1.099,-1.014 -1.433,-1.965 -0.506,-1.439 0.006,-2.087 0.585,-2.362 0.877,-0.416 3.343,0.849 3.632,4.319 0.034,0.405 -0.402,0.403 -0.402,0.403 0,0 -1.169,-3.05 -2.297,-2.651 -0.54,0.192 0.408,2.43 0.408,2.43 m -3.298,-8.285 c 0.326,0.911 0.303,1.418 0.303,1.418 0,0 -0.303,0.236 -0.607,-0.315 -0.304,-0.551 -1.136,-1.305 -2.306,-2.137 -0.929,-0.662 -1.26,-2.329 -0.112,-3.24 0.726,-0.576 2.159,-0.461 3.565,1.024 1.406,1.485 1.901,3.847 1.912,4.251 0.011,0.405 -0.225,0.372 -0.225,0.372 0,0 -0.888,-1.238 -1.631,-2.036 -0.742,-0.799 -1.147,-1.181 -1.687,-1.17 -0.539,0.012 0.461,0.922 0.788,1.833 m -2.156,3.431 c 0,0 0.079,0.349 0.281,1.001 0.203,0.652 0.079,1.282 0.079,1.282 -0.191,0.169 -0.821,-0.675 -0.821,-0.675 0,0 -0.079,-0.641 -0.383,-1.147 -0.303,-0.506 -1.248,-1.968 -0.483,-2.44 0.765,-0.473 1.721,-0.234 2.621,1.338 0.933,1.631 0.922,4.038 0.832,4.285 -0.09,0.247 -0.338,0.157 -0.382,-0.124 -0.045,-0.281 -0.248,-1.304 -0.833,-2.53 -0.585,-1.226 -0.911,-0.99 -0.911,-0.99 m -1.875,6.365 c -0.148,0.279 -0.523,0.04 -0.689,-0.122 -0.366,-0.358 -2.34,-3.658 -0.654,-4.42 1.736,-0.785 3.218,2.615 3.393,3.6 0.14,0.794 -0.41,0.611 -0.41,0.611 0,0 -1.282,-2.067 -1.771,-1.84 -0.478,0.222 0.131,2.171 0.131,2.171 M -30.14,2.565 c 0.256,-0.2 0.607,-0.265 0.931,-0.026 -3.959,11.519 -5.425,28.622 -5.587,30.386 0,0 0.06,0.212 -0.194,0.142 -0.253,-0.069 -0.912,-1.189 -1.364,-1.663 -0.452,-0.474 2.12,-19.543 6.214,-28.839 m -8.07,34.343 c 0.088,1.301 -0.069,2.689 -0.069,2.689 0,0 -1.006,1.266 -0.832,2.637 0.173,1.37 1.439,2.324 1.439,2.324 0,0 0.416,2.688 0.867,6.123 0.452,3.434 1.163,6.036 1.163,6.036 0,0 -0.384,2.247 -0.191,4.753 0.249,3.236 2.034,6.219 1.903,7.404 -0.228,2.047 -1.08,1.869 -1.557,5.397 -0.4,2.968 1.336,4.995 1.336,4.995 0,0 0.521,-2.515 1.752,-3.001 1.232,-0.485 1.735,-0.052 3.123,-0.138 0.675,-0.042 1.768,-0.122 3.208,-0.85 2.376,1.388 3.105,1.266 5.169,1.162 2.065,-0.104 2.203,0.034 3.989,0.468 0.219,0.053 1.081,0.263 1.818,0.241 0.738,0.022 1.6,-0.188 1.818,-0.241 1.787,-0.434 1.925,-0.572 3.989,-0.468 2.065,0.104 2.793,0.226 5.17,-1.162 1.44,0.728 2.533,0.808 3.208,0.85 1.388,0.086 1.891,-0.347 3.123,0.138 1.231,0.486 1.752,3.001 1.752,3.001 0,0 1.736,-2.027 1.336,-4.995 C 4.827,70.743 3.974,70.921 3.747,68.874 3.615,67.689 5.401,64.706 5.65,61.47 5.843,58.964 5.459,56.717 5.459,56.717 c 0,0 0.711,-2.602 1.163,-6.036 0.45,-3.435 0.867,-6.123 0.867,-6.123 0,0 1.266,-0.954 1.439,-2.324 0.174,-1.371 -0.832,-2.637 -0.832,-2.637 0,0 -0.157,-1.388 -0.069,-2.689 0.086,-1.3 0,-1.561 0.294,-2.012 C 8.616,34.445 9.293,33.908 9.31,33.058 9.328,32.208 8.121,31.508 7.891,31.12 7.285,24.67 3.943,6.968 0.834,1.312 1.98,-0.335 2.129,-1.766 1.731,-4.288 2.239,-4.542 2.733,-4.839 3.202,-5.184 l 2.58,-1.899 c -1.507,-0.459 -2.95,-1.148 -4.234,-2.122 -1.706,-1.293 -6.746,-5.272 -6.746,-5.272 l -1.551,1.153 -6.531,4.807 c -0.205,0.356 -0.546,1.34 -0.564,2.208 0.689,1.474 0.868,3.721 0.632,4.063 -0.134,0.195 -0.799,-0.347 -1.33,-1.181 -0.425,-0.667 -0.55,-0.641 -0.55,-0.641 0,0 -0.124,-0.026 -0.549,0.641 -0.531,0.834 -1.196,1.376 -1.33,1.181 -0.236,-0.342 -0.057,-2.589 0.632,-4.063 -0.018,-0.868 -0.345,-1.697 -0.548,-2.135 l 15.761,-11.304 c -0.004,-0.003 -2.598,-1.715 -2.598,-1.715 l -5.36,3.617 c -2.124,1.434 -3.641,2.464 -5.983,2.464 -2.008,0 -3.936,-0.911 -5.635,-1.94 l -11.028,8.117 c -1.299,0.955 -2.728,1.663 -4.235,2.122 l 2.58,1.899 c 0.469,0.345 0.962,0.642 1.471,0.896 -0.398,2.522 -0.249,3.953 0.897,5.6 -3.109,5.656 -6.451,23.358 -7.057,29.808 -0.23,0.388 -1.437,1.088 -1.419,1.938 0.017,0.85 0.694,1.387 0.989,1.838 0.294,0.451 0.208,0.712 0.294,2.012 m 4.465,37.444 c -0.077,0.147 -0.081,0.403 0.097,0.428 0.325,-0.293 0.574,-0.465 0.997,-0.623 0.659,-0.245 1.211,-0.344 2.133,-0.344 0.511,0 1.147,-0.049 1.621,-0.284 0.218,-0.108 0.576,-0.671 0.866,-1.077 0.228,-0.319 -0.037,-0.665 -0.117,-0.592 -0.489,0.446 -0.96,0.816 -2.929,0.804 -1.944,-0.011 -2.614,1.582 -2.668,1.688 M -8.32,59.817 c -0.375,0.841 -0.077,1.435 0.155,0.916 0.511,-1.147 1.736,-1.659 2.821,-1.176 1.084,0.484 1.429,1.832 0.918,2.979 -0.126,0.284 0.404,0.041 0.656,-0.524 0.622,-1.396 0.203,-3.037 -1.117,-3.625 -1.32,-0.589 -2.812,0.035 -3.433,1.43 m 6.168,12.635 c 0.291,0.406 0.648,0.969 0.867,1.077 0.474,0.235 1.109,0.284 1.62,0.284 0.922,0 1.474,0.099 2.133,0.344 0.424,0.158 0.673,0.33 0.997,0.623 0.178,-0.025 0.174,-0.281 0.098,-0.428 -0.055,-0.106 -0.725,-1.699 -2.669,-1.688 -1.969,0.012 -2.44,-0.358 -2.929,-0.804 -0.079,-0.073 -0.345,0.273 -0.117,0.592 m -53.225,-89.449 7.971,5.657 c 4.205,3.094 9.82,2.935 14.137,0 l 10.715,-7.285 -3.881,-2.856 -2.188,1.611 c -1.886,1.388 -4.122,2.122 -6.464,2.122 -2.342,0 -4.577,-0.734 -6.463,-2.122 -4.995,-3.676 -5.352,-3.938 -5.377,-3.957 -2.957,1.967 -5.738,4.198 -8.285,6.674 -0.055,0.052 -0.11,0.103 -0.165,0.156 m 28.964,79.009 c 0.252,0.565 0.783,0.808 0.656,0.524 -0.511,-1.147 -0.166,-2.495 0.919,-2.979 1.084,-0.483 2.31,0.029 2.821,1.176 0.231,0.519 0.53,-0.075 0.155,-0.916 -0.622,-1.395 -2.113,-2.019 -3.434,-1.43 -1.32,0.588 -1.739,2.229 -1.117,3.625 m -18.577,-87.08 c 0.025,0.017 0.356,0.237 4.713,3.132 3.192,2.122 7.227,2.178 10.381,0 11.854,-8.185 15.459,-10.674 16.557,-11.432 -11.07,-0.398 -22.198,2.555 -31.651,8.3 m 34.845,5.412 c 10.4,-7.113 13.825,-9.456 14.955,-10.229 -4.903,-1.782 -10.011,-2.907 -15.222,-3.322 -2.726,1.921 -11.382,8.31 -14.211,10.393 l 4.366,3.213 c 3.087,2.273 6.948,2.109 10.112,-0.055 m 12.699,8.282 c 4.272,2.999 9.932,3.094 14.136,0 l 8.482,-5.643 c -2.594,-2.53 -5.422,-4.819 -8.454,-6.827 -0.135,0.087 -0.932,0.607 -5.704,3.719 -2.125,1.385 -3.768,2.343 -6.11,2.343 -1.547,0 -3.045,-0.327 -4.428,-0.944 l -4.079,3.03 z m 6.602,-9.972 c 3.888,-2.322 5.368,-3.205 5.933,-3.542 -2.659,-1.629 -5.463,-3.084 -8.384,-4.25 -0.504,0.371 -7.612,5.602 -8.351,6.146 l 1.359,1.056 c 3.088,2.273 6.151,2.555 9.443,0.59 m 59.081,45.617 c 0,-45.954 -37.385,-83.339 -83.339,-83.339 -45.953,0 -83.339,37.385 -83.339,83.339 0,45.953 37.386,83.339 83.339,83.339 45.954,0 83.339,-37.386 83.339,-83.339 m 1.7,0 c 0,46.891 -38.148,85.039 -85.039,85.039 -46.891,0 -85.039,-38.148 -85.039,-85.039 0,-46.891 38.148,-85.04 85.039,-85.04 46.891,0 85.039,38.149 85.039,85.04 M 57.338,5.796 C 55.027,6.551 53.123,5.504 51.674,4.28 L 49.822,2.731 C 48.969,2.014 47.566,1.18 46.154,1.641 45.035,2.006 43.621,3.033 44.4,5.417 c 0.762,2.336 2.558,2.477 3.829,2.412 0.186,0.074 0.24,0.487 0.125,0.631 C 47.333,8.794 45.899,9.02 45.243,8.992 45.18,8.797 45.02,8.472 44.819,8.188 44.443,7.611 44.011,6.783 43.765,6.029 c -1.033,-3.163 0.252,-5.575 2.563,-6.33 1.995,-0.651 3.843,0.307 5.043,1.261 l 2.263,1.819 c 1.723,1.402 2.987,1.233 4.057,0.883 1.46,-0.477 2.472,-1.911 1.805,-3.955 -0.922,-2.822 -3.631,-3.041 -4.991,-3.001 -0.178,-0.049 -0.249,-0.43 -0.118,-0.607 1.159,-0.325 2.99,-0.573 3.62,-0.455 0.419,0.375 1.472,1.457 2.14,3.501 1.032,3.162 -0.133,5.777 -2.809,6.651 M 47.035,-17.772 c 2.267,-1.491 2.539,-1.731 1.858,-3.091 l -0.287,-0.577 c 0.044,-0.213 0.414,-0.395 0.563,-0.309 0.661,1.098 1.117,1.84 1.708,2.738 0.563,0.856 1.062,1.569 1.809,2.61 0.02,0.169 -0.337,0.465 -0.507,0.394 L 51.763,-16.5 c -0.979,-1.164 -1.307,-1.01 -3.574,0.482 l -7.614,5.007 c -2.268,1.491 -2.603,1.773 -1.88,3.105 l 0.309,0.563 c -10e-4,0.185 -0.414,0.395 -0.563,0.31 -0.66,-1.097 -1.117,-1.839 -1.68,-2.695 -0.591,-0.898 -1.091,-1.611 -1.837,-2.652 -0.02,-0.172 0.337,-0.467 0.507,-0.395 l 0.394,0.506 c 0.937,1.192 1.329,0.995 3.596,-0.495 z m -8.912,-10.426 c -1.616,1.817 -3.788,1.872 -5.657,1.546 l -2.38,-0.403 c -1.099,-0.19 -2.731,-0.203 -3.718,0.907 -0.782,0.879 -1.486,2.48 0.389,4.147 1.836,1.632 3.458,0.848 4.523,0.151 0.198,-0.03 0.453,0.3 0.427,0.483 -0.714,0.803 -1.839,1.721 -2.419,2.027 -0.153,-0.136 -0.455,-0.336 -0.772,-0.481 -0.616,-0.307 -1.406,-0.805 -1.999,-1.332 -2.487,-2.211 -2.593,-4.942 -0.977,-6.76 1.394,-1.568 3.473,-1.672 4.991,-1.453 l 2.871,0.43 c 2.196,0.342 3.201,-0.442 3.949,-1.283 1.021,-1.149 1.172,-2.897 -0.435,-4.326 -2.218,-1.973 -4.669,-0.796 -5.824,-0.075 -0.178,0.046 -0.431,-0.247 -0.408,-0.466 0.838,-0.865 2.294,-2.002 2.897,-2.219 0.551,0.113 2.007,0.517 3.614,1.946 2.486,2.211 2.799,5.057 0.928,7.161 m -21.224,-8.446 c -0.439,1.092 -1.669,4.018 -1.608,5.036 0.019,0.228 0.417,0.609 1.13,1.032 l 0.313,0.182 c 0.086,0.199 -0.048,0.532 -0.286,0.575 -0.788,-0.372 -1.396,-0.644 -2.418,-1.054 -0.902,-0.363 -1.719,-0.663 -2.831,-1.054 -0.161,-0.148 -0.032,-0.537 0.191,-0.613 l 0.423,0.115 c 0.998,0.263 1.435,0.272 1.663,0.116 0.738,-0.531 2.001,-3.61 2.449,-4.726 l 2.041,-5.083 c 0.2,-0.498 0.352,-0.878 0.305,-1.036 l -0.047,-0.019 c -1.574,0.692 -3.272,1.555 -5.645,2.726 l -3.343,1.664 c -1.137,0.564 -5.198,2.574 -6.16,3.595 -0.289,-0.172 -0.683,-0.358 -1.064,-0.51 -0.427,-0.172 -1.686,-0.677 -2.712,-1.006 -0.152,-0.171 -0.009,-0.528 0.191,-0.613 l 0.422,0.115 c 0.599,0.157 1.236,0.22 1.702,0.02 0.718,-0.346 0.942,-0.835 1.209,-1.5 l 2.756,-6.864 c 0.457,-1.14 1.644,-4.028 1.655,-5.017 -0.014,-0.308 -0.336,-0.604 -0.854,-0.894 l -0.613,-0.329 c -0.085,-0.2 0.072,-0.523 0.286,-0.574 0.812,0.38 1.444,0.661 2.442,1.062 0.878,0.353 1.719,0.663 2.807,1.045 0.119,0.185 0.028,0.48 -0.191,0.612 l -0.765,-0.224 c -0.613,-0.191 -1.145,-0.239 -1.392,-0.035 -0.69,0.551 -1.953,3.629 -2.401,4.745 l -2.079,5.178 c -0.286,0.712 -0.482,1.269 -0.501,1.591 l 0.047,0.019 c 0.709,-0.321 3.106,-1.621 4.043,-2.1 l 8.027,-4.058 c 3.011,-1.522 4.033,-2.077 4.48,-2.366 0.262,0.105 0.356,0.281 0.347,0.443 -0.319,0.589 -1.454,3.415 -1.74,4.128 z m -35.226,-14.209 c 0.043,-2.687 -0.078,-3.072 -1.534,-3.224 l -0.843,-0.09 c -0.152,-0.156 -0.094,-0.564 0.061,-0.639 1.508,0.075 2.378,0.115 3.478,0.133 l 2.303,0.038 c 2.277,0.036 4.554,0.048 6.858,0.034 0.321,0.696 0.929,2.677 1.093,3.575 -0.106,0.228 -0.465,0.299 -0.642,0.169 -0.644,-1.341 -1.32,-2.248 -1.776,-2.511 -0.559,-0.291 -1.299,-0.406 -3.269,-0.437 -2.252,-0.037 -2.793,0.236 -3.105,0.538 -0.417,0.428 -0.508,1.297 -0.53,2.653 l -0.058,3.607 c -0.011,0.666 0.065,0.692 0.833,0.705 l 1.484,0.024 c 0.998,0.016 1.612,0 1.972,-0.096 0.514,-0.12 0.699,-0.501 0.809,-0.96 l 0.246,-0.994 c 0.131,-0.151 0.566,-0.144 0.665,0.037 -0.009,0.562 -0.127,1.532 -0.142,2.453 -0.016,0.972 0.07,1.971 0.061,2.585 -0.106,0.179 -0.541,0.173 -0.666,0.017 l -0.188,-1.052 c -0.118,-0.642 -0.294,-0.799 -0.599,-0.906 -0.306,-0.107 -1.098,-0.171 -2.173,-0.189 l -1.484,-0.024 c -0.767,-0.012 -0.844,-0.013 -0.855,0.703 l -0.083,5.117 c -0.016,0.972 -0.017,1.023 0.75,1.036 l 1.843,0.029 c 1.125,0.019 1.944,0.006 2.484,-0.113 1.335,-0.311 1.58,-1.202 1.984,-2.399 0.13,-0.151 0.538,-0.093 0.638,0.062 -0.12,1.124 -0.304,2.964 -0.464,3.396 -0.306,-0.082 -1.815,-0.106 -3.453,-0.132 l -4.81,-0.079 c -1.049,-0.017 -1.919,-0.006 -3.02,0.028 -0.152,-0.079 -0.196,-0.541 -0.041,-0.64 l 0.411,-0.045 c 1.512,-0.154 1.569,-0.537 1.612,-3.198 z m -12.468,1.578 c 0.39,1.246 0.628,1.922 1.692,1.724 l 0.406,-0.074 c 0.217,0.093 0.307,0.467 0.167,0.618 -0.821,0.202 -1.659,0.438 -2.612,0.736 -1.441,0.451 -2.776,0.896 -3.469,1.166 -0.194,-0.019 -0.356,-0.45 -0.191,-0.609 l 1.036,-0.458 c 1.461,-0.645 1.488,-0.815 0.846,-2.866 l -0.306,-0.977 c -0.244,-0.782 -0.504,-1.183 -0.679,-1.315 -0.399,-0.332 -1.402,-0.366 -2.916,0.107 -4.908,1.537 -6.172,5.981 -4.704,10.67 1.146,3.663 4.277,6.384 9.015,4.9 2.49,-0.78 4.062,-2.183 3.92,-5.034 0.101,-0.193 0.548,-0.306 0.683,-0.133 0.238,1.534 0.489,2.85 0.742,3.655 -0.309,0.043 -1.012,0.451 -1.445,0.694 -0.385,0.227 -1.595,0.901 -2.987,1.337 -3.688,1.154 -6.465,0.763 -8.636,-0.434 -2.019,-1.138 -3.36,-3.024 -4.009,-5.099 -0.673,-2.149 -0.496,-4.323 0.511,-6.247 1.284,-2.493 3.694,-4.133 6.6,-5.042 1.318,-0.413 3.168,-0.671 4.57,-0.734 0.502,-0.023 0.972,-0.063 1.265,-0.155 0.121,0.043 0.167,0.189 0.116,0.286 -0.386,0.308 -0.349,0.94 -0.043,1.917 z m -23.583,23.507 c 0.418,0.582 0.54,0.621 1.83,-0.303 2.31,-1.654 2.213,-3.944 1.036,-5.588 -1.013,-1.415 -2.013,-1.801 -2.888,-1.836 -0.931,-0.026 -1.782,0.457 -2.531,0.993 -1.061,0.76 -1.344,1.025 -1.362,1.132 -0.002,0.128 0.162,0.357 0.43,0.731 z m -8.41,-8.144 c -1.564,-2.186 -1.799,-2.426 -3.11,-1.707 l -0.565,0.309 c -0.229,-0.056 -0.411,-0.398 -0.331,-0.55 1.008,-0.658 1.772,-1.174 2.646,-1.8 0.832,-0.595 1.525,-1.123 2.432,-1.835 0.17,-0.027 0.464,0.297 0.414,0.491 l -0.392,0.375 c -1.088,1.03 -0.951,1.31 0.613,3.495 l 1.877,2.623 c 0.313,0.436 0.369,0.428 1.306,-0.242 0.832,-0.597 1.016,-1.043 1.001,-1.724 -0.025,-1.399 -0.2,-3.445 -0.21,-4.603 -0.027,-3.159 0.662,-4.44 2.431,-5.706 0.395,-0.282 0.758,-0.479 0.99,-0.551 0.164,0.009 0.262,0.19 0.188,0.306 -0.532,0.444 -0.889,1.046 -1.019,1.611 -0.566,2.199 -0.478,4.653 -0.221,8.53 0.015,0.241 0.06,0.524 0.254,0.574 1.338,-0.329 3.674,-0.364 5.089,1.614 1.043,1.456 0.984,2.914 0.358,4.15 -0.585,1.205 -1.738,2.188 -3.028,3.111 -2.04,1.461 -3.521,2.426 -4.761,3.156 -0.226,0.036 -0.464,-0.297 -0.393,-0.506 l 0.607,-0.559 c 0.778,-0.715 0.587,-1.114 -0.828,-3.091 z m -14.895,16.514 c -2.149,-1.614 -2.533,-1.742 -3.511,-0.653 l -0.569,0.63 c -0.215,0.03 -0.511,-0.257 -0.48,-0.425 0.947,-1.177 1.49,-1.857 2.151,-2.738 l 1.383,-1.842 c 1.368,-1.821 2.716,-3.657 4.058,-5.53 0.752,0.149 2.712,0.82 3.536,1.215 0.123,0.22 -0.031,0.553 -0.241,0.619 -1.464,-0.267 -2.595,-0.252 -3.076,-0.037 -0.563,0.281 -1.091,0.813 -2.274,2.388 -1.353,1.801 -1.45,2.401 -1.389,2.83 0.102,0.589 0.751,1.173 1.836,1.987 l 2.886,2.168 c 0.532,0.399 0.598,0.353 1.059,-0.261 l 0.892,-1.187 c 0.599,-0.798 0.948,-1.304 1.081,-1.652 0.205,-0.487 0.006,-0.86 -0.301,-1.219 l -0.66,-0.783 c -0.046,-0.195 0.215,-0.543 0.42,-0.517 0.45,0.337 1.166,1.004 1.903,1.557 0.778,0.584 1.637,1.101 2.129,1.47 0.081,0.19 -0.18,0.538 -0.379,0.548 l -0.962,-0.466 c -0.589,-0.282 -0.819,-0.231 -1.086,-0.047 -0.266,0.184 -0.783,0.788 -1.429,1.647 l -0.891,1.187 c -0.461,0.614 -0.508,0.675 0.065,1.106 l 4.094,3.074 c 0.777,0.584 0.818,0.614 1.279,0 l 1.107,-1.473 c 0.676,-0.901 1.148,-1.571 1.368,-2.078 0.533,-1.264 -0.045,-1.985 -0.776,-3.015 -0.046,-0.194 0.241,-0.491 0.425,-0.481 0.839,0.759 2.22,1.988 2.476,2.372 -0.246,0.199 -1.153,1.407 -2.136,2.717 l -2.89,3.847 c -0.63,0.839 -1.132,1.551 -1.752,2.461 -0.154,0.077 -0.553,-0.159 -0.542,-0.343 l 0.205,-0.358 c 0.763,-1.315 0.487,-1.587 -1.641,-3.185 z m 2.106,21.948 c 0.432,0.16 0.587,0.107 0.748,-0.106 0.175,-0.181 0.356,-0.524 0.55,-1.052 0.671,-1.825 0.427,-3.905 -1.926,-4.771 -2.258,-0.83 -3.464,0.226 -4.461,2.64 -0.499,1.208 -0.459,1.249 0.213,1.497 z M -82.47,2.016 c 0.48,0.177 0.659,0.133 1.136,-1.163 1.405,-3.819 -0.452,-5.592 -2.349,-6.29 -2.402,-0.884 -3.963,0.397 -4.749,2.534 -0.265,0.721 -0.41,1.485 -0.025,2.145 0.36,0.65 1.568,1.149 2.432,1.467 z m -4.639,0.529 c -2.522,-0.927 -2.804,-0.976 -3.488,0.217 l -0.231,0.406 c -0.197,0.091 -0.564,-0.098 -0.583,-0.268 0.351,-0.88 0.699,-1.679 1.088,-2.735 0.371,-1.009 0.731,-2.212 0.988,-2.908 1.589,-4.324 4.222,-5.701 7.008,-4.676 2.57,0.944 3.064,3.307 2.828,4.693 -0.05,0.282 -0.048,0.5 0.192,0.589 1.203,-1.194 2.462,-1.876 4.191,-1.24 1.537,0.565 2.206,1.71 2.331,2.929 0.155,1.284 -0.255,2.769 -0.811,4.282 -0.821,2.233 -1.494,3.84 -2.091,5.093 -0.167,0.157 -0.536,0.049 -0.61,-0.197 l 0.211,-0.795 c 0.302,-1.116 -0.119,-1.38 -1.897,-2.034 z m 138.282,26.48 c 2.406,0.351 3.646,2.136 4.402,3.875 l 0.971,2.212 c 0.446,1.022 1.333,2.393 2.802,2.607 1.166,0.169 2.89,-0.123 3.251,-2.606 0.354,-2.431 -1.192,-3.355 -2.36,-3.861 -0.134,-0.149 0.001,-0.543 0.168,-0.622 1.064,0.155 2.449,0.589 3.024,0.906 -0.03,0.202 -0.031,0.564 0.023,0.908 0.081,0.685 0.1,1.618 -0.014,2.404 -0.48,3.293 -2.703,4.883 -5.11,4.532 -2.077,-0.302 -3.307,-1.982 -3.958,-3.37 l -1.22,-2.635 c -0.922,-2.022 -2.13,-2.431 -3.244,-2.593 -1.52,-0.222 -3.064,0.614 -3.374,2.742 -0.428,2.938 1.903,4.339 3.139,4.906 0.138,0.124 0.031,0.497 -0.164,0.597 -1.183,-0.224 -2.934,-0.815 -3.447,-1.201 -0.208,-0.521 -0.672,-1.959 -0.362,-4.088 0.48,-3.292 2.686,-5.119 5.473,-4.713 m 0.411,28.726 c 0.813,0.083 1.477,0.122 1.626,0.108 l 0.022,-0.046 C 53.023,57.54 52.503,57.032 52.04,56.579 l -3.148,-3.065 c -0.52,-0.509 -0.635,-0.508 -0.959,0.159 l -1.376,2.831 c -0.313,0.644 -0.301,0.679 0.318,0.752 z M 44.403,49.17 c -0.463,-0.453 -0.821,-0.769 -1.074,-0.893 -0.23,-0.111 -0.525,0.144 -0.806,0.605 l -0.393,0.634 c -0.194,0.105 -0.55,-0.097 -0.553,-0.326 0.347,-0.658 0.818,-1.51 1.355,-2.615 0.504,-1.036 0.872,-1.853 1.284,-2.819 0.148,-0.068 0.539,0.065 0.576,0.283 l -0.233,0.654 c -0.366,1.046 -0.166,1.513 1.489,3.142 l 7.719,7.649 c 0.845,0.837 1.725,1.72 2.592,2.511 0.138,0.125 0.106,0.308 0.039,0.446 -0.422,0.108 -1.027,0.298 -1.456,0.772 -0.335,-0.248 -0.839,-0.323 -1.824,-0.403 l -7.355,-0.673 c -3.047,-0.285 -4.856,-0.368 -6.116,-0.468 -0.985,-0.081 -1.484,0.302 -1.799,0.833 l -0.438,0.725 c -0.182,0.083 -0.528,-0.142 -0.553,-0.325 0.325,-0.61 0.774,-1.417 1.143,-2.176 0.503,-1.093 0.849,-1.807 1.094,-2.428 0.193,-0.162 0.561,0.018 0.598,0.235 l -0.3,0.793 c -0.223,0.575 -0.14,0.756 0.136,0.891 0.253,0.123 0.953,0.264 2.156,0.422 l 2.808,0.369 c 0.561,0.073 0.698,-0.031 0.977,-0.606 l 1.689,-3.476 c 0.335,-0.69 0.311,-0.816 -0.117,-1.222 z m -2.435,27.04 c 0.617,0.577 0.619,0.613 1.142,0.051 l 1.241,-1.327 c 0.96,-1.029 1.475,-1.879 1.558,-2.607 0.057,-0.472 -0.513,-1.249 -0.928,-1.742 -0.025,-0.198 0.272,-0.516 0.492,-0.451 0.508,0.58 2.145,1.864 3.104,2.374 0.04,0.107 -0.134,0.331 -0.258,0.389 -0.749,-0.173 -0.943,-0.04 -1.886,0.97 l -7.075,7.574 c -0.803,0.86 -1.399,1.46 -0.905,2.132 0.004,0.108 -0.242,0.333 -0.332,0.354 -0.87,-0.567 -2.329,-1.405 -3.45,-1.892 -0.08,-0.214 0.071,-0.563 0.323,-0.608 0.66,0.231 1.246,0.428 2.077,0.363 0.866,-0.065 1.865,-1.058 2.616,-1.863 l 0.96,-1.028 c 0.525,-0.561 0.506,-0.579 -0.074,-1.121 l -8.36,-7.807 c -1.963,-1.835 -2.331,-2.003 -3.42,-1.025 l -0.685,0.621 c -0.233,0.063 -0.516,-0.272 -0.467,-0.436 1.155,-1.162 1.785,-1.8 2.483,-2.547 0.699,-0.749 1.274,-1.402 2.233,-2.503 0.16,-0.059 0.532,0.217 0.502,0.4 l -0.503,0.65 c -0.919,1.172 -0.674,1.472 1.29,3.306 z m -23.262,4.558 c -1.432,-2.303 -1.665,-2.581 -3.042,-1.936 l -0.584,0.273 c -0.211,-0.049 -0.384,-0.424 -0.294,-0.57 1.114,-0.633 1.866,-1.07 2.779,-1.638 0.869,-0.541 1.595,-1.022 2.654,-1.74 0.171,-0.017 0.458,0.348 0.381,0.515 l -0.502,0.403 c -1.188,0.95 -1.042,1.281 0.39,3.585 l 4.811,7.737 c 1.432,2.304 1.705,2.646 3.055,1.958 l 0.57,-0.295 c 0.185,0.006 0.385,0.425 0.295,0.571 -1.114,0.63 -1.866,1.068 -2.736,1.608 -0.912,0.568 -1.638,1.049 -2.698,1.768 -0.171,0.018 -0.457,-0.346 -0.381,-0.514 l 0.516,-0.381 c 1.215,-0.907 1.029,-1.303 -0.404,-3.607 z m -9.149,5.218 c 0.732,2.319 -0.335,4.212 -1.572,5.649 l -1.568,1.837 c -0.726,0.846 -1.574,2.241 -1.127,3.657 0.354,1.123 1.368,2.548 3.76,1.793 2.343,-0.74 2.501,-2.534 2.449,-3.806 0.076,-0.185 0.489,-0.235 0.633,-0.119 0.324,1.025 0.535,2.461 0.501,3.116 -0.196,0.062 -0.522,0.218 -0.809,0.416 -0.58,0.371 -1.413,0.795 -2.17,1.034 C 6.481,100.564 4.082,99.255 3.35,96.935 2.719,94.934 3.695,93.096 4.662,91.906 L 6.503,89.66 C 7.923,87.951 7.765,86.686 7.426,85.612 6.964,84.147 5.54,83.12 3.489,83.767 0.658,84.661 0.412,87.369 0.439,88.729 0.387,88.906 0.006,88.973 -0.17,88.84 -0.484,87.678 -0.713,85.845 -0.589,85.216 -0.21,84.8 0.883,83.758 2.933,83.111 6.106,82.11 8.71,83.301 9.557,85.986 m -26.772,15.611 c 0.012,0.717 0.09,0.818 1.676,0.792 2.84,-0.046 4.062,-1.985 4.03,-4.007 -0.028,-1.739 -0.631,-2.625 -1.331,-3.151 -0.751,-0.551 -1.725,-0.638 -2.646,-0.622 -1.305,0.02 -1.688,0.078 -1.763,0.156 -0.075,0.103 -0.071,0.385 -0.063,0.846 z M -19.5,90.119 c -0.043,-2.687 -0.1,-3.019 -1.587,-3.174 l -0.641,-0.067 c -0.156,-0.176 -0.111,-0.56 0.041,-0.64 1.203,0.032 2.125,0.043 3.199,0.025 1.024,-0.016 1.893,-0.056 3.044,-0.126 0.154,0.074 0.213,0.508 0.061,0.639 l -0.536,0.085 c -1.48,0.229 -1.527,0.537 -1.483,3.223 l 0.052,3.224 c 0.009,0.537 0.061,0.562 1.212,0.543 1.023,-0.016 1.429,-0.279 1.803,-0.848 0.775,-1.164 1.795,-2.946 2.445,-3.904 1.775,-2.613 3.069,-3.274 5.243,-3.31 0.487,-0.007 0.897,0.037 1.128,0.11 0.13,0.101 0.108,0.306 -0.02,0.359 -0.69,0.062 -1.324,0.354 -1.753,0.745 -1.716,1.486 -3.039,3.555 -5.032,6.888 -0.125,0.207 -0.249,0.465 -0.118,0.617 1.287,0.491 3.228,1.79 3.267,4.22 0.029,1.791 -0.847,2.957 -2.065,3.617 -1.167,0.659 -2.674,0.811 -4.26,0.837 -2.508,0.04 -4.274,-0.008 -5.709,-0.112 -0.206,-0.099 -0.213,-0.509 -0.036,-0.639 l 0.817,-0.116 c 1.047,-0.145 1.117,-0.581 1.077,-3.012 z m -18.48,-4.023 c 0.768,-2.574 0.755,-2.979 -0.606,-3.519 l -0.787,-0.315 c -0.103,-0.191 0.063,-0.569 0.232,-0.598 1.432,0.481 2.259,0.754 3.313,1.069 l 2.207,0.659 c 2.183,0.651 4.373,1.279 6.595,1.888 0.121,0.758 0.171,2.829 0.086,3.738 -0.164,0.192 -0.529,0.163 -0.664,-0.011 -0.258,-1.465 -0.663,-2.521 -1.032,-2.898 -0.459,-0.431 -1.14,-0.742 -3.029,-1.306 -2.158,-0.644 -2.753,-0.528 -3.135,-0.321 -0.517,0.299 -0.84,1.111 -1.228,2.411 l -1.032,3.458 c -0.191,0.638 -0.124,0.684 0.611,0.904 l 1.423,0.424 c 0.956,0.286 1.552,0.437 1.925,0.441 0.527,0.024 0.808,-0.292 1.038,-0.704 l 0.506,-0.891 c 0.167,-0.111 0.584,0.014 0.631,0.215 -0.161,0.538 -0.538,1.44 -0.801,2.324 -0.279,0.931 -0.466,1.917 -0.642,2.505 -0.149,0.144 -0.566,0.02 -0.645,-0.164 l 0.104,-1.064 c 0.061,-0.65 -0.067,-0.848 -0.332,-1.034 -0.265,-0.186 -1.011,-0.462 -2.041,-0.77 l -1.422,-0.424 c -0.736,-0.22 -0.809,-0.242 -1.014,0.445 l -1.465,4.905 c -0.278,0.932 -0.292,0.981 0.443,1.201 l 1.766,0.526 c 1.079,0.323 1.871,0.532 2.423,0.563 1.37,0.062 1.847,-0.73 2.559,-1.773 0.167,-0.11 0.544,0.056 0.599,0.233 -0.421,1.049 -1.095,2.771 -1.367,3.144 -0.272,-0.162 -1.719,-0.593 -3.288,-1.062 l -4.611,-1.376 c -1.005,-0.3 -1.846,-0.525 -2.916,-0.79 -0.125,-0.119 -0.042,-0.575 0.135,-0.628 l 0.407,0.067 c 1.498,0.261 1.657,-0.092 2.418,-2.643 z m -13.081,-7.643 c 0.941,-0.678 2,-1.493 2.811,-2.252 0.136,0.025 0.258,0.071 0.366,0.139 0.087,0.055 0.16,0.132 0.197,0.216 -0.355,1.38 -0.921,4.533 -1.311,7.071 l -0.509,3.4 c -0.418,2.823 -0.68,5.11 -0.715,6.51 -0.005,0.632 0.156,1.096 0.648,1.467 l 0.622,0.453 c 0.04,0.177 -0.178,0.523 -0.384,0.514 -0.688,-0.49 -1.345,-0.935 -2.06,-1.386 -0.823,-0.519 -1.659,-1.015 -2.292,-1.355 -0.097,-0.185 0.064,-0.537 0.297,-0.572 l 0.418,0.203 c 0.812,0.391 1.138,0.355 1.233,0.203 0.096,-0.152 0.224,-0.403 0.338,-0.968 0.219,-1.163 0.743,-4.251 1.044,-6.119 0.226,-1.462 0.722,-4.265 0.952,-6.118 -2.639,1.786 -5.205,3.648 -7.785,5.532 -1.708,1.222 -2.814,2.16 -2.993,2.349 -0.088,0.187 0.003,0.426 0.758,1.053 l 0.297,0.248 c 0.07,0.225 -0.178,0.523 -0.384,0.514 -0.882,-0.613 -1.626,-1.113 -2.58,-1.714 -0.93,-0.586 -1.637,-1.002 -2.292,-1.354 -0.105,-0.221 0.064,-0.538 0.298,-0.572 l 0.417,0.202 c 0.999,0.479 1.611,0.229 2.873,-0.669 z m -11.871,-8.952 c 1.941,-1.896 2.161,-2.183 1.235,-3.388 l -0.393,-0.512 c 0.003,-0.217 0.332,-0.467 0.494,-0.411 0.858,0.952 1.447,1.592 2.198,2.361 0.715,0.732 1.342,1.337 2.273,2.217 0.052,0.163 -0.242,0.522 -0.422,0.484 l -0.502,-0.405 c -1.184,-0.954 -1.476,-0.741 -3.417,1.155 l -6.518,6.366 c -1.94,1.896 -2.216,2.236 -1.252,3.406 l 0.41,0.493 c 0.034,0.182 -0.331,0.467 -0.494,0.411 -0.857,-0.952 -1.447,-1.592 -2.162,-2.324 -0.751,-0.769 -1.377,-1.374 -2.308,-2.254 -0.053,-0.163 0.241,-0.521 0.422,-0.483 l 0.484,0.422 c 1.146,0.991 1.493,0.723 3.434,-1.172 z m -12.106,-4.002 c -1.03,0.572 -3.829,2.067 -4.424,2.894 -0.129,0.189 -0.06,0.736 0.225,1.514 l 0.129,0.338 c -0.059,0.209 -0.373,0.383 -0.584,0.266 -0.378,-0.789 -0.678,-1.383 -1.212,-2.345 -0.472,-0.851 -0.916,-1.599 -1.532,-2.604 -0.032,-0.214 0.313,-0.434 0.534,-0.352 l 0.256,0.355 c 0.609,0.833 0.942,1.117 1.218,1.14 0.907,0.052 3.829,-1.54 4.881,-2.123 l 4.789,-2.658 c 0.47,-0.261 0.828,-0.459 0.89,-0.611 l -0.025,-0.045 c -1.658,-0.456 -3.519,-0.856 -6.099,-1.444 l -3.644,-0.818 c -1.238,-0.279 -5.657,-1.28 -7.047,-1.095 -0.117,-0.317 -0.306,-0.709 -0.504,-1.067 -0.224,-0.403 -0.882,-1.589 -1.47,-2.491 -0.01,-0.229 0.325,-0.415 0.534,-0.355 l 0.256,0.355 c 0.365,0.5 0.82,0.95 1.307,1.09 0.775,0.184 1.258,-0.054 1.884,-0.402 l 6.468,-3.589 c 1.074,-0.596 3.817,-2.088 4.449,-2.848 0.184,-0.249 0.12,-0.681 -0.099,-1.233 l -0.268,-0.642 c 0.06,-0.209 0.386,-0.361 0.584,-0.266 0.39,0.808 0.703,1.424 1.225,2.364 0.459,0.828 0.916,1.599 1.52,2.581 -0.025,0.22 -0.281,0.391 -0.535,0.356 l -0.452,-0.657 c -0.355,-0.534 -0.738,-0.907 -1.058,-0.905 -0.883,-0.007 -3.805,1.584 -4.857,2.168 l -4.878,2.707 c -0.672,0.372 -1.174,0.681 -1.393,0.919 l 0.025,0.045 c 0.753,0.196 3.432,0.7 4.461,0.919 l 8.79,1.914 c 3.296,0.718 4.439,0.932 4.968,0.989 0.137,0.247 0.1,0.443 -0.01,0.563 -0.619,0.255 -3.282,1.733 -3.953,2.106 z M -82.56,41.923 c 3.834,-0.656 6.473,-2.534 5.848,-6.193 -0.66,-3.859 -3.55,-4.664 -7.612,-3.969 l -5.449,0.931 c -2.623,0.449 -3.044,0.572 -2.92,2.057 l 0.054,0.614 c -0.075,0.168 -0.513,0.191 -0.614,0.053 -0.162,-1.245 -0.279,-2.082 -0.455,-3.116 -0.173,-1.009 -0.345,-1.862 -0.611,-3.115 0.05,-0.165 0.47,-0.288 0.597,-0.154 l 0.158,0.622 c 0.377,1.441 0.814,1.419 3.438,0.97 l 5.953,-1.018 c 3.003,-0.513 4.952,-0.197 6.291,0.951 1.27,1.055 1.896,2.74 2.193,4.48 0.32,1.867 -0.017,3.846 -1.017,5.133 -1.273,1.672 -3.533,2.421 -5.728,2.797 l -2.851,0.487 c -1.412,0.241 -4.314,0.737 -5.086,1.233 -0.302,0.207 -0.447,0.725 -0.39,1.364 l 0.053,0.615 c -0.13,0.152 -0.453,0.233 -0.614,0.052 -0.105,-0.917 -0.196,-1.602 -0.377,-2.661 -0.168,-0.985 -0.353,-1.914 -0.567,-2.863 0.075,-0.168 0.394,-0.275 0.597,-0.154 l 0.158,0.622 c 0.158,0.622 0.413,1.046 0.745,1.171 0.831,0.299 3.74,-0.146 5.305,-0.414 z m 448.054,-28.45 -0.072,-0.004 c -1.481,-0.087 -2.657,-0.135 -4.622,-0.135 -1.587,0 -3.072,0.038 -5.3,0.135 l -0.046,0.002 -0.043,-0.016 c -0.22,-0.083 -0.377,-0.298 -0.428,-0.591 -0.052,-0.295 0.011,-0.692 0.271,-0.915 l 0.052,-0.045 0.831,-0.098 c 1.603,-0.2 2.391,-0.44 2.628,-0.797 0.558,-0.881 0.866,-4.146 0.866,-9.194 v -9.63 c 0,-0.606 0,-1.228 -0.061,-1.551 -1.641,1.687 -3.356,3.607 -5.506,6.015 l -6.1,6.845 -0.041,0.046 c -4.469,5.01 -7.03,8.302 -7.611,9.787 l -0.067,0.167 -0.177,-0.027 c -0.546,-0.084 -1.288,-0.133 -2.037,-0.133 -0.788,0 -3.187,0 -5.069,0.135 l -0.061,0.004 -0.055,-0.027 c -0.208,-0.104 -0.348,-0.315 -0.393,-0.593 -0.053,-0.334 0.044,-0.693 0.245,-0.893 l 0.055,-0.055 0.84,-0.099 c 1.229,-0.153 2.148,-0.504 2.652,-1.008 0.869,-0.951 0.932,-1.802 0.932,-3.089 V -5.703 c 0.003,-2.367 0.008,-7.293 -0.565,-8.768 -0.172,-0.378 -0.78,-0.637 -1.8,-0.77 l -1.294,-0.144 -0.056,-0.056 c -0.175,-0.175 -0.264,-0.46 -0.238,-0.763 0.024,-0.303 0.155,-0.559 0.356,-0.703 l 0.065,-0.046 0.079,0.004 c 1.528,0.087 2.724,0.134 4.668,0.134 1.578,0 3.1,-0.039 5.255,-0.134 l 0.077,-0.003 0.063,0.045 c 0.186,0.132 0.309,0.344 0.348,0.597 0.047,0.298 -0.029,0.606 -0.209,0.845 l -0.06,0.08 -1.498,0.145 c -1.137,0.09 -1.908,0.36 -2.117,0.741 -0.503,0.889 -0.78,4.158 -0.78,9.204 v 9.809 c 0,0.924 0.019,1.918 0.137,2.545 0.684,-0.751 1.981,-2.284 3.139,-3.653 0.739,-0.873 1.423,-1.683 1.866,-2.19 l 10.439,-11.879 c 3.47,-3.949 5.135,-5.912 5.745,-6.776 l 0.068,-0.095 h 0.116 c 0.533,0 0.932,0.242 1.068,0.649 l 0.016,0.046 -0.006,0.05 c -0.061,0.528 -0.134,2.318 -0.134,7.849 l -0.001,11.357 c -0.008,2.316 -0.023,7.135 0.652,8.566 0.092,0.184 0.693,0.565 2.352,0.823 l 0.704,0.102 0.053,0.052 c 0.19,0.191 0.286,0.506 0.251,0.821 -0.033,0.284 -0.171,0.523 -0.381,0.654 z M 323.143,-9.862 c -0.301,0.082 -0.608,0.04 -0.818,-0.11 l -0.07,-0.082 c -1.07,-2.141 -2.288,-3.816 -3.095,-4.265 -0.984,-0.492 -2.36,-0.65 -5.659,-0.65 -3.982,0 -4.816,0.5 -5.28,0.963 -0.665,0.707 -0.795,2.195 -0.795,4.526 v 6.345 c 0,0.99 0,0.99 1.261,0.99 h 2.61 c 1.633,0 2.772,-0.036 3.41,-0.218 0.781,-0.196 1.056,-0.757 1.231,-1.543 l 0.405,-1.755 0.046,-0.093 c 0.199,-0.24 0.596,-0.296 0.868,-0.273 0.314,0.027 0.558,0.155 0.67,0.35 l 0.029,0.052 v 0.06 c 0,0.441 -0.034,1.008 -0.074,1.664 -0.05,0.822 -0.106,1.754 -0.106,2.656 0,0.946 0.056,1.911 0.105,2.762 0.041,0.697 0.075,1.298 0.075,1.783 v 0.06 l -0.029,0.051 c -0.112,0.196 -0.356,0.323 -0.67,0.351 -0.267,0.024 -0.669,-0.034 -0.868,-0.273 l -0.408,-1.945 c -0.218,-1.092 -0.51,-1.265 -0.931,-1.406 -0.493,-0.164 -1.861,-0.258 -3.753,-0.258 h -2.61 c -1.261,0 -1.261,0 -1.261,1.035 v 8.999 c 0,1.575 0,1.575 1.126,1.575 h 3.239 c 1.979,0 3.391,-0.044 4.311,-0.263 2.12,-0.53 2.563,-1.928 3.177,-3.862 l 0.084,-0.263 0.041,-0.076 c 0.141,-0.17 0.403,-0.258 0.712,-0.241 0.271,0.014 0.615,0.114 0.773,0.351 l 0.044,0.066 -0.059,0.65 c -0.179,2.003 -0.426,4.747 -0.68,5.468 l -0.068,0.194 -0.199,-0.05 c -0.513,-0.129 -3.312,-0.129 -6.021,-0.129 h -8.459 c -1.732,0 -3.218,0.038 -5.299,0.135 l -0.059,0.003 -0.053,-0.026 c -0.249,-0.125 -0.356,-0.482 -0.374,-0.774 -0.009,-0.163 -0.005,-0.563 0.26,-0.74 l 0.818,-0.126 c 2.464,-0.292 2.547,-0.812 2.547,-5.446 v -16.2 c 0,-4.738 -0.217,-5.193 -2.586,-5.4 l -1.565,-0.143 -0.058,-0.058 c -0.224,-0.224 -0.256,-0.602 -0.211,-0.881 0.047,-0.293 0.179,-0.514 0.36,-0.603 l 0.051,-0.026 0.057,0.002 c 2.704,0.091 4.188,0.134 6.112,0.134 h 4.049 c 3.97,0 8.026,-0.045 12.055,-0.134 l 0.145,-0.003 0.063,0.13 c 0.599,1.244 1.726,4.722 2.043,6.308 l 0.014,0.07 -0.029,0.065 c -0.109,0.247 -0.344,0.435 -0.644,0.517 m -34.338,5.605 -0.067,-0.003 c -1.515,-0.092 -3.026,-0.135 -4.756,-0.135 -2.799,0 -5.199,0.051 -6.419,0.135 l -0.055,0.003 -0.05,-0.021 c -0.274,-0.117 -0.381,-0.458 -0.389,-0.739 -0.011,-0.368 0.133,-0.672 0.378,-0.794 l 2.054,-0.248 c 2.649,-0.299 2.726,-0.415 2.726,-4.141 V -12 c 0,-1.374 -0.211,-2.158 -0.415,-2.443 -0.389,-0.603 -1.844,-1.247 -4.76,-1.247 -8.188,0 -13.275,5.828 -13.275,15.21 0,9.389 6.369,12.734 12.33,12.734 5.113,0 7.891,-1.918 9.007,-6.221 l 0.015,-0.059 0.043,-0.043 c 0.241,-0.242 0.693,-0.277 1.007,-0.208 0.294,0.063 0.5,0.214 0.578,0.422 l 0.021,0.055 -0.009,0.058 c -0.452,3.021 -0.673,5.145 -0.673,6.491 v 0.266 l -0.262,-0.043 c -0.448,-0.076 -1.67,0.183 -2.475,0.354 l -0.226,0.047 c -0.679,0.16 -3.099,0.682 -5.767,0.682 -6.271,0 -10.991,-1.746 -14.427,-5.336 -2.651,-2.822 -4.111,-6.664 -4.111,-10.819 0,-4.036 1.454,-7.623 4.204,-10.373 3.269,-3.311 8.071,-5.061 13.885,-5.061 2.698,0 6.057,0.634 8.113,1.177 0.703,0.185 1.584,0.397 2.146,0.397 h 0.074 l 0.061,0.045 c 0.134,0.1 0.218,0.256 0.23,0.428 0.012,0.17 -0.048,0.339 -0.161,0.452 l -0.077,0.05 c -0.647,0.252 -0.937,1.172 -0.937,2.985 v 2.52 c 0,2.323 0.071,3.358 1.739,3.557 l 0.786,0.098 0.052,0.044 c 0.21,0.18 0.32,0.498 0.288,0.831 -0.028,0.298 -0.165,0.545 -0.368,0.66 z m -56.929,4.137 c 0,-0.633 0,-1.23 0.091,-1.35 0.086,-0.045 0.691,-0.135 2.925,-0.135 1.404,0 3.185,0.127 4.499,1.124 1.453,1.131 2.161,2.898 2.161,5.401 0,3.093 -1.827,6.704 -6.976,6.704 -2.7,0 -2.7,-0.138 -2.7,-1.214 z m 21.156,-16.335 c 0.033,-0.22 -0.053,-0.443 -0.225,-0.58 l -0.069,-0.038 c -0.453,-0.15 -1.201,-0.237 -2.052,-0.237 -4.122,0 -6.43,1.401 -9.498,5.766 -0.592,0.842 -1.345,2.033 -2.141,3.293 -0.776,1.229 -1.58,2.501 -2.27,3.504 -0.609,0.89 -1.241,1.342 -3.01,1.342 -1.891,0 -1.891,0 -1.891,-0.765 v -5.67 c 0,-4.82 0.117,-5.072 2.506,-5.402 l 1.01,-0.144 0.049,-0.041 c 0.188,-0.157 0.276,-0.463 0.234,-0.82 -0.038,-0.329 -0.176,-0.583 -0.367,-0.678 l -0.052,-0.027 -0.059,0.003 c -2.182,0.097 -3.681,0.134 -5.345,0.134 -1.762,0 -3.336,-0.037 -5.614,-0.134 l -0.059,-0.002 -0.052,0.026 c -0.173,0.085 -0.298,0.279 -0.351,0.545 -0.057,0.275 -0.036,0.663 0.19,0.927 l 0.057,0.066 1.213,0.146 c 2.361,0.285 2.502,0.588 2.502,5.401 V 6.315 c 0,4.373 -0.167,4.844 -1.783,5.041 l -1.544,0.22 c -0.222,0.159 -0.348,0.485 -0.321,0.832 0.025,0.312 0.173,0.565 0.397,0.677 l 0.081,0.023 c 2.758,0.247 5.954,0.362 10.054,0.362 2.516,0 5.389,-0.164 7.622,-1.378 1.755,-0.914 3.852,-2.786 3.852,-6.497 0,-4.948 -4.275,-7.114 -5.7,-7.697 -0.045,-0.104 -0.02,-0.322 0.266,-0.779 3.412,-5.502 5.882,-9.303 8.998,-11.916 0.779,-0.686 1.863,-1.126 2.978,-1.208 l 0.067,-0.016 c 0.175,-0.069 0.297,-0.232 0.327,-0.434 m -39.396,6.593 c -0.301,0.082 -0.607,0.04 -0.817,-0.11 l -0.071,-0.082 c -1.07,-2.141 -2.288,-3.816 -3.094,-4.265 -0.985,-0.492 -2.361,-0.65 -5.66,-0.65 -3.982,0 -4.816,0.5 -5.28,0.963 -0.664,0.707 -0.795,2.195 -0.795,4.526 v 6.345 c 0,0.99 0,0.99 1.261,0.99 h 2.61 c 1.633,0 2.773,-0.036 3.41,-0.218 0.781,-0.196 1.056,-0.757 1.231,-1.543 l 0.405,-1.755 0.046,-0.093 c 0.198,-0.24 0.593,-0.296 0.868,-0.273 0.314,0.027 0.558,0.155 0.67,0.35 l 0.029,0.052 v 0.06 c 0,0.441 -0.034,1.008 -0.074,1.664 -0.05,0.822 -0.106,1.754 -0.106,2.656 0,0.946 0.056,1.911 0.105,2.762 0.041,0.697 0.075,1.298 0.075,1.783 v 0.06 l -0.029,0.051 c -0.112,0.196 -0.356,0.323 -0.67,0.351 -0.269,0.024 -0.669,-0.034 -0.868,-0.273 l -0.408,-1.945 c -0.218,-1.092 -0.51,-1.265 -0.931,-1.406 -0.493,-0.164 -1.861,-0.258 -3.753,-0.258 h -2.61 c -1.261,0 -1.261,0 -1.261,1.035 v 8.999 c 0,1.575 0,1.575 1.126,1.575 h 3.239 c 1.979,0 3.391,-0.044 4.311,-0.263 2.12,-0.53 2.563,-1.928 3.177,-3.862 l 0.083,-0.263 0.042,-0.076 c 0.141,-0.17 0.405,-0.258 0.713,-0.241 0.27,0.014 0.614,0.114 0.772,0.351 l 0.044,0.066 -0.059,0.65 c -0.179,2.003 -0.425,4.747 -0.68,5.468 l -0.068,0.194 -0.199,-0.05 c -0.513,-0.129 -3.312,-0.129 -6.02,-0.129 h -8.46 c -1.733,0 -3.219,0.038 -5.299,0.135 l -0.059,0.003 -0.052,-0.026 c -0.249,-0.125 -0.357,-0.482 -0.374,-0.774 -0.01,-0.163 -0.005,-0.563 0.259,-0.74 l 0.819,-0.126 c 2.463,-0.292 2.547,-0.812 2.547,-5.446 v -16.2 c 0,-4.738 -0.218,-5.193 -2.586,-5.4 l -1.566,-0.143 -0.057,-0.058 c -0.225,-0.224 -0.257,-0.602 -0.211,-0.881 0.046,-0.293 0.178,-0.514 0.359,-0.603 l 0.051,-0.026 0.057,0.002 c 2.703,0.091 4.188,0.134 6.112,0.134 h 4.049 c 3.97,0 8.026,-0.045 12.055,-0.134 l 0.145,-0.003 0.063,0.13 c 0.599,1.244 1.726,4.722 2.043,6.308 l 0.014,0.07 -0.028,0.065 c -0.11,0.247 -0.345,0.435 -0.645,0.517 M 173.242,5.775 c 0,5.427 -4.96,5.849 -6.48,5.849 -0.939,0 -1.604,-0.084 -1.98,-0.25 -0.326,-0.1 -0.496,-0.189 -0.496,-0.964 V 1.275 c 0,-0.476 0.007,-0.773 0.135,-0.896 0.201,-0.194 0.911,-0.179 1.972,-0.139 4.929,0.193 6.849,1.745 6.849,5.535 m 2.16,-14.805 c 0,2.79 -1.135,7.47 -8.73,7.47 -2.386,0 -2.386,-0.258 -2.386,-0.945 v -6.66 c 0,-1.599 0.093,-3.833 0.891,-4.758 0.677,-0.818 1.72,-1.182 3.385,-1.182 2.554,0 6.84,0.789 6.84,6.075 m 4.545,1.035 c 0,-5.691 -4.445,-8.954 -12.195,-8.954 -0.596,0 -1.388,0.028 -2.226,0.058 -1.006,0.036 -2.146,0.076 -3.174,0.076 -1.344,0 -2.488,-0.041 -3.594,-0.082 -0.524,-0.019 -1.043,-0.038 -1.575,-0.052 l -0.056,-0.002 -0.051,0.026 c -0.18,0.09 -0.311,0.31 -0.359,0.603 -0.045,0.278 -0.014,0.656 0.211,0.881 l 0.051,0.051 0.882,0.148 c 2.179,0.369 2.287,0.622 2.287,5.402 v 17.1 c 0,3.313 -0.16,3.977 -2,4.14 l -1.504,0.141 -0.051,0.038 c -0.237,0.177 -0.365,0.496 -0.335,0.831 0.028,0.308 0.183,0.56 0.414,0.675 l 0.08,0.023 c 2.624,0.243 5.796,0.362 9.695,0.362 2.397,0 5.434,-0.146 7.663,-1.286 2.283,-1.114 3.542,-3.184 3.542,-5.824 0,-3.593 -2.286,-5.21 -4.571,-6.299 0.05,-0.143 0.21,-0.24 0.651,-0.32 2.15,-0.398 6.215,-2.527 6.215,-7.736 m -55.332,19.8 1.183,0.095 0.048,0.032 c 0.187,0.124 0.282,0.393 0.262,0.738 -0.019,0.293 -0.126,0.651 -0.375,0.776 l -0.052,0.026 -0.058,-0.003 c -2.131,-0.085 -3.725,-0.135 -5.571,-0.135 -1.931,0 -3.479,0.048 -5.661,0.135 l -0.058,0.003 -0.052,-0.026 c -0.249,-0.125 -0.356,-0.482 -0.374,-0.774 -0.009,-0.163 -0.004,-0.563 0.26,-0.74 l 0.049,-0.032 1.183,-0.095 c 2.456,-0.208 2.539,-0.741 2.539,-5.536 V -9.75 c 0,-4.75 -0.072,-5.197 -2.548,-5.491 l -1.202,-0.145 -0.055,-0.055 c -0.225,-0.225 -0.256,-0.603 -0.211,-0.881 0.048,-0.293 0.179,-0.513 0.359,-0.603 l 0.052,-0.026 0.058,0.002 c 2.186,0.087 3.735,0.134 5.661,0.134 1.85,0 3.385,-0.047 5.571,-0.134 l 0.058,-0.002 0.052,0.026 c 0.249,0.124 0.356,0.481 0.375,0.773 0.02,0.346 -0.075,0.615 -0.262,0.74 l -1.223,0.171 c -2.475,0.294 -2.547,0.742 -2.547,5.491 V 6.269 c 0,4.794 0.083,5.328 2.539,5.536 m 429.766,54.453 -0.038,0.077 c -0.166,0.333 -0.812,0.356 -1.095,0.243 l -0.073,-0.028 -0.039,-0.068 c -0.605,-1.051 -0.885,-1.148 -3.314,-1.148 h -18.407 -0.07 c -2.054,0 -3.137,0.065 -3.352,1.212 l -0.012,0.068 -0.049,0.049 c -0.23,0.23 -0.934,0.164 -1.139,0.028 l -0.08,-0.053 -0.016,-0.095 c -0.314,-1.79 -0.98,-4.64 -1.701,-6.668 l -0.032,-0.09 0.043,-0.086 c 0.124,-0.249 0.401,-0.451 0.723,-0.527 0.294,-0.069 0.578,-0.021 0.783,0.133 l 0.048,0.035 0.023,0.054 c 0.463,1.053 0.9,2.048 1.971,3.03 1.02,0.939 3.294,1.065 5.383,1.065 h 2.474 c 1.125,0 1.125,0 1.125,-1.215 V 42.16 c 0,-4.738 -0.217,-5.193 -2.583,-5.4 l -1.62,-0.136 -0.1,-0.033 c -0.232,-0.144 -0.36,-0.442 -0.342,-0.798 0.013,-0.267 0.114,-0.596 0.36,-0.718 l 0.051,-0.026 0.057,0.002 c 2.756,0.086 4.406,0.134 6.248,0.134 1.748,0 3.228,-0.041 5.886,-0.134 l 0.058,-0.002 0.051,0.026 c 0.248,0.124 0.355,0.48 0.374,0.772 0.011,0.164 0.005,0.563 -0.26,0.74 l -1.546,0.173 c -2.413,0.208 -2.494,0.728 -2.494,5.4 v 20.164 c 0,0.569 -10e-4,0.945 0.108,1.054 0.104,0.104 0.437,0.111 0.972,0.111 h 3.195 c 2.439,0 4.102,-0.353 5.087,-1.081 0.458,-0.336 0.835,-1.477 1.034,-3.13 l 0.008,-0.066 0.043,-0.052 c 0.204,-0.246 0.595,-0.299 0.874,-0.264 0.318,0.036 0.562,0.181 0.67,0.397 l 0.03,0.059 -0.007,0.065 c -0.13,1.299 0.181,4.947 0.669,6.759 z m -38.01,-24.12 c -0.299,0.081 -0.607,0.041 -0.817,-0.11 l -0.07,-0.082 c -1.071,-2.141 -2.288,-3.816 -3.095,-4.265 -0.984,-0.492 -2.36,-0.65 -5.659,-0.65 -3.983,0 -4.817,0.5 -5.281,0.963 -0.665,0.707 -0.794,2.195 -0.794,4.526 v 6.345 c 0,0.99 0,0.99 1.26,0.99 h 2.611 c 1.632,0 2.771,-0.036 3.41,-0.218 0.78,-0.196 1.055,-0.757 1.23,-1.543 l 0.406,-1.755 0.045,-0.093 c 0.2,-0.24 0.593,-0.297 0.869,-0.273 0.313,0.027 0.557,0.155 0.67,0.35 l 0.029,0.052 v 0.06 c 0,0.441 -0.034,1.008 -0.074,1.664 -0.05,0.822 -0.107,1.754 -0.107,2.656 0,0.946 0.057,1.911 0.106,2.762 0.041,0.697 0.075,1.298 0.075,1.783 v 0.06 l -0.029,0.051 c -0.113,0.196 -0.357,0.323 -0.67,0.351 -0.27,0.024 -0.669,-0.034 -0.869,-0.273 l -0.408,-1.945 c -0.218,-1.092 -0.51,-1.265 -0.93,-1.406 -0.494,-0.164 -1.862,-0.258 -3.753,-0.258 h -2.611 c -1.26,0 -1.26,0 -1.26,1.035 v 8.999 c 0,1.575 0,1.575 1.126,1.575 h 3.239 c 1.978,0 3.39,-0.044 4.31,-0.263 2.12,-0.53 2.564,-1.928 3.177,-3.862 l 0.084,-0.263 0.041,-0.076 c 0.142,-0.17 0.404,-0.26 0.713,-0.241 0.27,0.014 0.614,0.114 0.772,0.351 l 0.044,0.066 -0.058,0.65 c -0.18,2.003 -0.426,4.746 -0.681,5.468 l -0.067,0.194 -0.199,-0.05 c -0.513,-0.129 -3.313,-0.129 -6.021,-0.129 h -8.46 c -1.731,0 -3.218,0.038 -5.299,0.135 l -0.058,0.003 -0.053,-0.026 c -0.249,-0.125 -0.357,-0.482 -0.374,-0.774 -0.01,-0.163 -0.005,-0.563 0.26,-0.74 l 0.818,-0.127 c 2.464,-0.291 2.547,-0.811 2.547,-5.445 v -16.2 c 0,-4.738 -0.218,-5.193 -2.586,-5.4 l -1.565,-0.143 -0.058,-0.058 c -0.225,-0.224 -0.257,-0.602 -0.211,-0.881 0.047,-0.293 0.179,-0.514 0.359,-0.603 l 0.051,-0.026 0.058,0.002 c 2.704,0.091 4.187,0.134 6.111,0.134 h 4.05 c 3.97,0 8.025,-0.045 12.055,-0.134 l 0.144,-0.003 0.064,0.13 c 0.598,1.244 1.725,4.722 2.043,6.308 l 0.013,0.07 -0.028,0.065 c -0.11,0.247 -0.345,0.434 -0.645,0.517 m -34.862,24.44 -0.073,-0.028 -0.039,-0.068 c -0.606,-1.051 -0.885,-1.148 -3.315,-1.148 h -18.406 -0.07 c -2.054,0 -3.137,0.065 -3.352,1.212 l -0.013,0.068 -0.048,0.049 c -0.23,0.23 -0.934,0.164 -1.139,0.028 l -0.08,-0.053 -0.017,-0.095 c -0.313,-1.79 -0.979,-4.64 -1.7,-6.668 l -0.032,-0.09 0.043,-0.086 c 0.124,-0.249 0.401,-0.451 0.722,-0.527 0.295,-0.069 0.58,-0.021 0.784,0.133 l 0.048,0.035 0.023,0.054 c 0.463,1.053 0.899,2.048 1.971,3.03 1.02,0.939 3.294,1.065 5.382,1.065 h 2.475 c 1.125,0 1.125,0 1.125,-1.215 V 42.16 c 0,-4.738 -0.218,-5.193 -2.584,-5.4 l -1.619,-0.136 -0.101,-0.033 c -0.231,-0.144 -0.359,-0.442 -0.341,-0.798 0.012,-0.267 0.114,-0.596 0.36,-0.718 l 0.051,-0.026 0.056,0.002 c 2.757,0.086 4.407,0.134 6.248,0.134 1.748,0 3.229,-0.041 5.887,-0.134 l 0.058,-0.002 0.051,0.026 c 0.248,0.124 0.355,0.48 0.374,0.772 0.01,0.164 0.004,0.563 -0.26,0.74 l -1.546,0.173 c -2.413,0.208 -2.494,0.728 -2.494,5.4 v 20.164 c 0,0.569 -10e-4,0.945 0.108,1.054 0.104,0.104 0.437,0.111 0.972,0.111 h 3.195 c 2.439,0 4.102,-0.353 5.087,-1.081 0.458,-0.336 0.835,-1.477 1.034,-3.13 l 0.008,-0.066 0.043,-0.052 c 0.204,-0.246 0.598,-0.299 0.874,-0.264 0.317,0.036 0.562,0.181 0.67,0.397 l 0.029,0.059 -0.007,0.065 c -0.129,1.299 0.182,4.947 0.669,6.759 l 0.022,0.082 -0.038,0.077 c -0.166,0.333 -0.811,0.356 -1.095,0.243 m -36.876,-24.44 c -0.301,0.081 -0.607,0.041 -0.817,-0.11 l -0.071,-0.082 c -1.07,-2.141 -2.288,-3.816 -3.094,-4.265 -0.985,-0.492 -2.361,-0.65 -5.66,-0.65 -3.982,0 -4.816,0.5 -5.28,0.963 -0.665,0.707 -0.795,2.195 -0.795,4.526 v 6.345 c 0,0.99 0,0.99 1.261,0.99 h 2.61 c 1.633,0 2.772,-0.036 3.411,-0.218 0.78,-0.196 1.055,-0.757 1.23,-1.543 l 0.405,-1.755 0.046,-0.093 c 0.198,-0.24 0.592,-0.297 0.868,-0.273 0.314,0.027 0.558,0.155 0.67,0.35 l 0.03,0.052 v 0.06 c 0,0.441 -0.035,1.008 -0.075,1.664 -0.049,0.822 -0.106,1.754 -0.106,2.656 0,0.946 0.057,1.911 0.105,2.762 0.041,0.697 0.076,1.298 0.076,1.783 v 0.06 l -0.03,0.051 c -0.112,0.196 -0.356,0.323 -0.67,0.351 -0.271,0.024 -0.669,-0.034 -0.868,-0.273 l -0.408,-1.945 c -0.218,-1.092 -0.51,-1.265 -0.931,-1.406 -0.493,-0.164 -1.861,-0.258 -3.753,-0.258 h -2.61 c -1.261,0 -1.261,0 -1.261,1.035 v 8.999 c 0,1.575 0,1.575 1.126,1.575 h 3.239 c 1.979,0 3.391,-0.044 4.311,-0.263 2.12,-0.53 2.564,-1.928 3.177,-3.862 l 0.084,-0.263 0.041,-0.076 c 0.142,-0.17 0.406,-0.26 0.713,-0.241 0.27,0.014 0.614,0.114 0.772,0.351 l 0.044,0.066 -0.058,0.65 c -0.18,2.003 -0.426,4.746 -0.681,5.468 l -0.068,0.194 -0.199,-0.05 c -0.512,-0.129 -3.312,-0.129 -6.02,-0.129 h -8.46 c -1.732,0 -3.218,0.038 -5.299,0.135 l -0.059,0.003 -0.052,-0.026 c -0.249,-0.125 -0.357,-0.482 -0.374,-0.774 -0.01,-0.163 -0.005,-0.563 0.259,-0.74 l 0.819,-0.127 c 2.464,-0.291 2.547,-0.811 2.547,-5.445 v -16.2 c 0,-4.738 -0.218,-5.193 -2.586,-5.4 l -1.566,-0.143 -0.057,-0.058 c -0.225,-0.224 -0.257,-0.602 -0.211,-0.881 0.047,-0.293 0.178,-0.514 0.359,-0.603 l 0.051,-0.026 0.057,0.002 c 2.705,0.091 4.188,0.134 6.112,0.134 h 4.05 c 3.969,0 8.025,-0.045 12.054,-0.134 l 0.145,-0.003 0.063,0.13 c 0.599,1.244 1.726,4.722 2.043,6.308 l 0.014,0.07 -0.028,0.065 c -0.11,0.247 -0.345,0.434 -0.645,0.517 m -34.862,24.44 -0.073,-0.028 -0.04,-0.068 c -0.605,-1.051 -0.884,-1.148 -3.314,-1.148 h -18.406 c -2.079,-0.001 -3.204,0.052 -3.422,1.212 l -0.013,0.068 -0.049,0.049 c -0.229,0.23 -0.933,0.164 -1.138,0.028 l -0.08,-0.053 -0.017,-0.095 c -0.313,-1.79 -0.979,-4.64 -1.7,-6.668 l -0.032,-0.09 0.043,-0.086 c 0.124,-0.249 0.401,-0.451 0.722,-0.527 0.294,-0.069 0.579,-0.021 0.783,0.133 l 0.048,0.035 0.024,0.054 c 0.463,1.053 0.899,2.048 1.97,3.03 1.021,0.939 3.294,1.065 5.383,1.065 h 2.475 c 1.125,0 1.125,0 1.125,-1.215 V 42.16 c 0,-4.738 -0.218,-5.193 -2.584,-5.4 l -1.619,-0.136 -0.101,-0.033 c -0.231,-0.144 -0.359,-0.442 -0.342,-0.798 0.013,-0.267 0.115,-0.596 0.361,-0.718 l 0.05,-0.026 0.057,0.002 c 2.757,0.086 4.406,0.134 6.248,0.134 1.748,0 3.229,-0.041 5.887,-0.134 l 0.057,-0.002 0.051,0.026 c 0.248,0.124 0.356,0.48 0.374,0.772 0.011,0.164 0.005,0.563 -0.259,0.74 l -1.546,0.173 c -2.413,0.208 -2.495,0.728 -2.495,5.4 v 20.164 c 0,0.569 -0.001,0.945 0.109,1.054 0.103,0.104 0.436,0.111 0.972,0.111 h 3.195 c 2.438,0 4.101,-0.353 5.087,-1.081 0.458,-0.336 0.835,-1.477 1.034,-3.13 l 0.008,-0.066 0.043,-0.052 c 0.204,-0.246 0.598,-0.299 0.874,-0.264 0.317,0.036 0.561,0.181 0.67,0.397 l 0.029,0.059 -0.007,0.065 c -0.13,1.299 0.182,4.947 0.669,6.759 l 0.022,0.082 -0.039,0.077 c -0.166,0.333 -0.81,0.356 -1.094,0.243 m -39.229,-2.773 1.184,0.095 0.048,0.032 c 0.187,0.124 0.282,0.393 0.261,0.738 -0.018,0.293 -0.126,0.651 -0.375,0.776 l -0.051,0.026 -0.058,-0.003 c -2.131,-0.085 -3.726,-0.135 -5.571,-0.135 -1.931,0 -3.479,0.048 -5.661,0.135 l -0.058,0.003 -0.052,-0.026 c -0.249,-0.125 -0.356,-0.482 -0.374,-0.774 -0.01,-0.163 -0.005,-0.563 0.26,-0.74 l 0.049,-0.032 1.182,-0.095 c 2.456,-0.208 2.539,-0.741 2.539,-5.536 V 42.25 c 0,-4.75 -0.071,-5.197 -2.547,-5.491 l -1.203,-0.145 -0.054,-0.055 c -0.225,-0.225 -0.256,-0.603 -0.211,-0.881 0.048,-0.293 0.179,-0.513 0.359,-0.603 l 0.052,-0.026 0.058,0.002 c 2.186,0.087 3.735,0.134 5.661,0.134 1.849,0 3.385,-0.047 5.571,-0.134 l 0.058,-0.002 0.051,0.026 c 0.249,0.124 0.357,0.481 0.375,0.773 0.021,0.346 -0.074,0.615 -0.261,0.74 l -1.223,0.171 c -2.476,0.294 -2.547,0.742 -2.547,5.491 v 16.019 c 0,4.794 0.083,5.328 2.538,5.536 m -21.271,-20.79 c 0,3.555 -1.874,6.443 -5.731,8.831 l -3.599,2.25 c -1.39,0.863 -3.72,2.706 -3.72,5.343 0,1.434 0.5,4.77 5.131,4.77 4.051,0 5.282,-2.628 5.902,-4.918 l 0.044,-0.086 c 0.135,-0.161 0.376,-0.24 0.659,-0.226 0.296,0.016 0.666,0.14 0.826,0.381 l 0.038,0.057 v 0.068 c 0,1.797 -0.385,4.399 -0.824,5.569 l -0.054,0.146 h -0.157 c -0.32,0 -0.928,0.081 -1.516,0.262 -1.065,0.286 -2.739,0.593 -4.243,0.593 -5.625,0 -9.405,-3.201 -9.405,-7.965 0,-3.846 2.698,-6.434 4.961,-7.929 l 4.277,-2.79 c 3.152,-2.029 3.587,-4.136 3.587,-6.111 0,-2.464 -1.67,-4.95 -5.4,-4.95 -4.629,0 -6.646,3.558 -7.524,6.544 l -0.029,0.061 c -0.108,0.163 -0.31,0.256 -0.568,0.26 -0.292,0.001 -0.685,-0.114 -0.882,-0.389 l -0.046,-0.063 0.004,-0.078 c 0.086,-2.024 0.659,-5.329 1.242,-6.398 l 0.031,-0.055 0.054,-0.032 c 1.095,-0.632 3.477,-1.694 7.132,-1.694 5.867,0 9.81,3.435 9.81,8.549 M 301.261,62.41 V 51.88 c 0,-0.633 0,-1.23 0.091,-1.35 0.086,-0.045 0.691,-0.135 2.925,-0.135 1.404,0 3.185,0.127 4.499,1.124 1.453,1.131 2.161,2.898 2.161,5.401 0,3.093 -1.827,6.704 -6.976,6.704 -2.7,0 -2.7,-0.138 -2.7,-1.214 m -2.024,-27.225 c -1.762,0 -3.336,-0.037 -5.615,-0.134 l -0.058,-0.002 -0.052,0.026 c -0.173,0.085 -0.298,0.279 -0.352,0.545 -0.056,0.275 -0.035,0.663 0.191,0.927 l 0.056,0.066 1.213,0.146 c 2.362,0.285 2.502,0.588 2.502,5.401 v 16.155 c 0,4.373 -0.167,4.844 -1.782,5.041 l -1.544,0.22 c -0.223,0.159 -0.348,0.485 -0.321,0.832 0.025,0.312 0.173,0.565 0.396,0.677 l 0.081,0.023 c 2.759,0.247 5.954,0.362 10.055,0.362 2.516,0 5.389,-0.164 7.622,-1.378 1.755,-0.914 3.852,-2.786 3.852,-6.497 0,-4.948 -4.276,-7.114 -5.7,-7.697 -0.045,-0.104 -0.02,-0.322 0.266,-0.779 3.412,-5.502 5.882,-9.303 8.998,-11.916 0.778,-0.686 1.862,-1.126 2.978,-1.208 l 0.067,-0.016 c 0.175,-0.069 0.297,-0.232 0.327,-0.434 0.032,-0.22 -0.053,-0.443 -0.225,-0.58 l -0.07,-0.038 c -0.452,-0.15 -1.2,-0.237 -2.051,-0.237 -4.123,0 -6.43,1.401 -9.498,5.766 -0.592,0.842 -1.345,2.033 -2.141,3.293 -0.776,1.229 -1.58,2.501 -2.271,3.504 -0.608,0.89 -1.24,1.342 -3.009,1.342 -1.891,0 -1.891,0 -1.891,-0.765 v -5.67 c 0,-4.82 0.117,-5.072 2.506,-5.402 l 1.01,-0.144 0.048,-0.041 c 0.189,-0.157 0.277,-0.463 0.235,-0.82 -0.038,-0.329 -0.176,-0.583 -0.367,-0.678 l -0.052,-0.027 -0.059,0.003 c -2.182,0.097 -3.681,0.134 -5.345,0.134 m -40.132,-0.11 0.051,-0.026 0.057,0.002 c 2.703,0.091 4.188,0.134 6.111,0.134 h 4.05 c 3.97,0 8.026,-0.045 12.055,-0.134 l 0.144,-0.003 0.064,0.13 c 0.599,1.244 1.726,4.722 2.043,6.308 l 0.014,0.07 -0.029,0.065 c -0.109,0.247 -0.344,0.434 -0.644,0.517 -0.3,0.081 -0.608,0.041 -0.818,-0.11 l -0.07,-0.082 c -1.07,-2.141 -2.288,-3.816 -3.095,-4.265 -0.984,-0.492 -2.36,-0.65 -5.659,-0.65 -3.982,0 -4.816,0.5 -5.28,0.963 -0.664,0.707 -0.795,2.195 -0.795,4.526 v 6.345 c 0,0.99 0,0.99 1.261,0.99 h 2.61 c 1.633,0 2.773,-0.036 3.41,-0.218 0.78,-0.196 1.056,-0.757 1.231,-1.543 l 0.405,-1.755 0.046,-0.093 c 0.198,-0.24 0.591,-0.297 0.868,-0.273 0.313,0.027 0.558,0.155 0.67,0.35 l 0.029,0.052 v 0.06 c 0,0.441 -0.034,1.008 -0.074,1.664 -0.05,0.822 -0.106,1.754 -0.106,2.656 0,0.946 0.056,1.911 0.105,2.762 0.041,0.697 0.075,1.298 0.075,1.783 v 0.06 l -0.029,0.051 c -0.112,0.196 -0.357,0.323 -0.67,0.351 -0.271,0.024 -0.669,-0.034 -0.868,-0.273 l -0.408,-1.945 c -0.218,-1.092 -0.51,-1.265 -0.931,-1.406 -0.493,-0.164 -1.861,-0.258 -3.753,-0.258 h -2.61 c -1.261,0 -1.261,0 -1.261,1.035 v 8.999 c 0,1.575 0,1.575 1.126,1.575 h 3.239 c 1.979,0 3.391,-0.044 4.311,-0.263 2.12,-0.53 2.563,-1.928 3.176,-3.862 l 0.084,-0.263 0.041,-0.076 c 0.143,-0.17 0.408,-0.26 0.713,-0.241 0.271,0.014 0.615,0.114 0.773,0.351 l 0.044,0.066 -0.059,0.65 c -0.179,2.003 -0.426,4.746 -0.68,5.468 l -0.068,0.194 -0.199,-0.05 c -0.513,-0.129 -3.313,-0.129 -6.021,-0.129 h -8.46 c -1.732,0 -3.218,0.038 -5.298,0.135 l -0.059,0.003 -0.053,-0.026 c -0.249,-0.125 -0.356,-0.482 -0.374,-0.774 -0.009,-0.163 -0.005,-0.563 0.26,-0.74 l 0.818,-0.127 c 2.464,-0.291 2.547,-0.811 2.547,-5.445 v -16.2 c 0,-4.738 -0.217,-5.193 -2.586,-5.4 l -1.565,-0.143 -0.058,-0.058 c -0.224,-0.224 -0.257,-0.602 -0.211,-0.881 0.047,-0.293 0.179,-0.514 0.36,-0.603 m -26.749,-0.307 0.029,-0.109 0.105,-0.042 c 0.251,-0.101 0.506,-0.151 0.758,-0.151 0.233,0 0.453,0.061 0.62,0.173 l 0.066,0.043 0.023,0.075 c 0.788,2.453 2.947,7.754 4.672,11.723 l 2.431,5.534 c 2.128,4.824 3.818,8.298 5.024,10.322 0.598,0.965 1.226,1.39 2.163,1.469 l 1.436,0.096 0.059,0.059 c 0.2,0.2 0.251,0.578 0.213,0.864 -0.039,0.29 -0.163,0.509 -0.349,0.616 l -0.059,0.033 -0.067,-0.004 c -1.513,-0.092 -2.896,-0.135 -4.352,-0.135 -1.77,0 -3.47,0.049 -4.664,0.135 l -0.067,0.005 -0.06,-0.034 c -0.214,-0.122 -0.365,-0.393 -0.394,-0.708 -0.031,-0.32 0.07,-0.613 0.269,-0.783 l 0.053,-0.045 0.878,-0.099 c 1.804,-0.206 1.826,-0.614 1.826,-0.631 0,-0.303 -0.045,-0.766 -0.39,-1.672 -0.795,-2.01 -2.937,-7.155 -4.181,-10.073 -0.324,-0.745 -0.731,-1.708 -1.179,-2.773 -0.902,-2.139 -2.009,-4.763 -2.93,-6.759 -2.163,4.958 -4.161,9.955 -6.187,15.063 -1.341,3.289 -2.107,5.682 -2.229,6.218 0.048,0.188 0.348,0.422 1.916,0.628 l 0.741,0.099 0.05,0.044 c 0.199,0.17 0.3,0.462 0.27,0.782 -0.03,0.315 -0.181,0.587 -0.394,0.709 l -0.057,0.032 -0.066,-0.003 c -2.006,-0.096 -3.58,-0.135 -5.434,-0.135 -1.88,0 -3.319,0.042 -4.664,0.135 l -0.074,0.005 -0.061,-0.039 c -0.23,-0.143 -0.38,-0.413 -0.403,-0.721 -0.023,-0.306 0.084,-0.592 0.286,-0.765 l 0.052,-0.045 0.877,-0.099 c 1.801,-0.208 2.445,-1.069 3.464,-3.55 l 7.919,-19.529 c 0.648,-1.599 1.529,-3.93 2.061,-5.958 m -35.193,1.991 -1.202,-0.145 -0.055,-0.055 c -0.224,-0.225 -0.255,-0.603 -0.21,-0.881 0.047,-0.293 0.178,-0.513 0.359,-0.603 l 0.052,-0.026 0.057,0.002 c 2.187,0.087 3.736,0.134 5.661,0.134 1.85,0 3.385,-0.047 5.572,-0.134 l 0.057,-0.002 0.052,0.026 c 0.249,0.124 0.357,0.481 0.375,0.773 0.021,0.346 -0.074,0.615 -0.262,0.74 l -1.222,0.171 c -2.476,0.294 -2.547,0.742 -2.547,5.491 v 16.019 c 0,4.794 0.083,5.328 2.538,5.536 l 1.184,0.095 0.047,0.032 c 0.188,0.124 0.283,0.393 0.262,0.738 -0.018,0.293 -0.126,0.651 -0.375,0.776 l -0.052,0.026 -0.057,-0.003 c -2.131,-0.085 -3.726,-0.135 -5.572,-0.135 -1.93,0 -3.478,0.048 -5.661,0.135 l -0.057,0.003 -0.052,-0.026 c -0.249,-0.125 -0.357,-0.482 -0.374,-0.774 -0.01,-0.163 -0.005,-0.563 0.26,-0.74 l 0.048,-0.032 1.183,-0.095 c 2.456,-0.208 2.539,-0.741 2.539,-5.536 V 42.25 c 0,-4.75 -0.071,-5.197 -2.548,-5.491 M 184.672,65.473 184.6,65.469 c -1.482,-0.087 -2.657,-0.135 -4.622,-0.135 -1.587,0 -3.072,0.038 -5.3,0.135 l -0.046,0.002 -0.043,-0.016 c -0.221,-0.083 -0.377,-0.298 -0.429,-0.591 -0.051,-0.295 0.012,-0.692 0.272,-0.915 l 0.052,-0.045 0.831,-0.098 c 1.603,-0.2 2.39,-0.44 2.628,-0.797 0.558,-0.881 0.866,-4.146 0.866,-9.194 v -9.63 c 0,-0.606 0,-1.228 -0.062,-1.551 -1.64,1.687 -3.355,3.607 -5.506,6.015 l -6.099,6.845 -0.041,0.046 c -4.469,5.01 -7.03,8.302 -7.612,9.786 l -0.066,0.168 -0.178,-0.027 c -0.546,-0.084 -1.288,-0.133 -2.036,-0.133 -0.788,0 -3.187,0 -5.069,0.135 l -0.062,0.004 -0.054,-0.027 c -0.208,-0.104 -0.348,-0.315 -0.393,-0.593 -0.054,-0.334 0.044,-0.693 0.244,-0.893 l 0.056,-0.055 0.84,-0.099 c 1.228,-0.153 2.148,-0.504 2.652,-1.008 0.868,-0.951 0.932,-1.802 0.932,-3.089 V 46.297 c 0.003,-2.367 0.008,-7.293 -0.566,-8.768 -0.172,-0.378 -0.779,-0.637 -1.8,-0.77 l -1.293,-0.144 -0.056,-0.056 c -0.175,-0.175 -0.264,-0.46 -0.238,-0.763 0.024,-0.303 0.155,-0.559 0.356,-0.703 l 0.064,-0.046 0.08,0.004 c 1.528,0.087 2.724,0.134 4.668,0.134 1.578,0 3.1,-0.039 5.254,-0.134 l 0.078,-0.003 0.063,0.045 c 0.186,0.132 0.309,0.344 0.348,0.597 0.047,0.298 -0.03,0.606 -0.209,0.845 l -0.06,0.08 -1.498,0.145 c -1.138,0.09 -1.908,0.36 -2.117,0.741 -0.503,0.889 -0.78,4.158 -0.78,9.204 v 9.809 c 0,0.924 0.018,1.918 0.136,2.545 0.685,-0.751 1.982,-2.284 3.14,-3.653 0.738,-0.873 1.423,-1.683 1.865,-2.19 l 10.44,-11.879 c 3.469,-3.949 5.134,-5.912 5.745,-6.776 l 0.067,-0.095 h 0.116 c 0.534,0 0.933,0.242 1.069,0.649 l 0.015,0.046 -0.005,0.05 c -0.061,0.528 -0.134,2.318 -0.134,7.849 l -0.001,11.357 c -0.008,2.316 -0.024,7.135 0.652,8.566 0.092,0.184 0.693,0.565 2.352,0.823 l 0.704,0.102 0.053,0.052 c 0.19,0.191 0.286,0.506 0.251,0.821 -0.034,0.284 -0.171,0.523 -0.381,0.654 z M 141.46,65.435 c 0.192,-0.119 0.319,-0.321 0.358,-0.568 0.047,-0.301 -0.037,-0.634 -0.214,-0.847 l -0.061,-0.072 -1.174,-0.098 c -1.041,-0.084 -1.832,-0.447 -2.063,-0.95 -0.61,-1.436 -0.61,-6.602 -0.61,-9.085 V 48.73 c 0,-5.026 -1.05,-8.593 -3.21,-10.908 -1.893,-2.07 -5.25,-3.356 -8.759,-3.356 -3.723,0 -6.604,0.851 -8.562,2.528 -2.48,2.06 -3.588,5.389 -3.588,10.791 v 10.62 c 0,4.638 -0.092,5.238 -2.494,5.445 l -1.181,0.095 -0.048,0.032 c -0.187,0.124 -0.282,0.385 -0.262,0.716 0.018,0.282 0.125,0.628 0.375,0.753 l 0.052,0.026 0.057,-0.003 c 2.183,-0.087 3.716,-0.135 5.572,-0.135 1.873,0 3.386,0.048 5.525,0.135 l 0.058,0.003 0.051,-0.026 c 0.25,-0.125 0.358,-0.471 0.375,-0.753 0.021,-0.331 -0.075,-0.592 -0.261,-0.716 l -0.106,-0.037 -1.08,-0.09 c -2.4,-0.207 -2.493,-0.807 -2.493,-5.445 v -9.72 c 0,-8.044 2.831,-11.79 8.91,-11.79 7.252,0 8.775,6.387 8.775,11.745 v 5.175 c 0,4.995 -0.294,8.264 -0.826,9.203 -0.262,0.45 -0.999,0.746 -2.072,0.832 l -1.218,0.098 -0.06,0.07 c -0.173,0.201 -0.248,0.49 -0.206,0.794 0.037,0.273 0.162,0.499 0.342,0.619 l 0.062,0.042 0.074,-0.004 c 1.719,-0.091 3.394,-0.135 5.118,-0.135 1.927,0 3.143,0.048 4.712,0.135 l 0.072,0.004 z"
             style="fill:#ffffff;fill-opacity:1;fill-rule:nonzero;stroke:none"
             id="path27" /></g></g></g></g></svg>
