<?xml version="1.0" encoding="UTF-8" standalone="no"?>
<!-- Generator: Adobe Illustrator 24.0.3, SVG Export Plug-In . SVG Version: 6.00 Build 0)  -->

<svg
   version="1.1"
   x="0px"
   y="0px"
   viewBox="0 0 917.50906 239.18906"
   xml:space="preserve"
   id="svg122"
   sodipodi:docname="uio-logo-inv.svg"
   width="242.7576mm"
   height="63.285439mm"
   inkscape:version="1.1.1 (3bf5ae0d25, 2021-09-20)"
   xmlns:inkscape="http://www.inkscape.org/namespaces/inkscape"
   xmlns:sodipodi="http://sodipodi.sourceforge.net/DTD/sodipodi-0.dtd"
   xmlns="http://www.w3.org/2000/svg"
   xmlns:svg="http://www.w3.org/2000/svg"><defs
   id="defs126" /><sodipodi:namedview
   id="namedview124"
   pagecolor="#ffffff"
   bordercolor="#666666"
   borderopacity="1.0"
   inkscape:pageshadow="2"
   inkscape:pageopacity="0.0"
   inkscape:pagecheckerboard="0"
   showgrid="false"
   fit-margin-left="1"
   fit-margin-top="1"
   fit-margin-right="1"
   fit-margin-bottom="1"
   units="mm"
   inkscape:zoom="0.78714286"
   inkscape:cx="456.71506"
   inkscape:cy="120.05445"
   inkscape:window-width="1680"
   inkscape:window-height="987"
   inkscape:window-x="3592"
   inkscape:window-y="26"
   inkscape:window-maximized="1"
   inkscape:current-layer="svg122"
   inkscape:document-units="mm" />
<g
   id="Segl"
   transform="translate(-243.40047,-240.40047)"
   style="fill:#ffffff">
	<g
   id="g80"
   style="fill:#ffffff">
		<g
   id="g4"
   style="fill:#ffffff">
			<path
   d="m 247.18,360 c 0,-27.98 9.92,-53.65 26.44,-73.67 v 0 c 21.24,-25.74 53.39,-42.15 89.36,-42.15 v 0 c 63.97,0 115.81,51.86 115.82,115.82 v 0 c 0,63.95 -51.85,115.81 -115.82,115.81 v 0 c -63.95,0 -115.8,-51.85 -115.8,-115.81 z m 1.72,0 c 0,31.51 12.77,60.02 33.42,80.67 v 0 c 20.65,20.65 49.16,33.42 80.66,33.42 v 0 c 31.51,0 60.03,-12.77 80.68,-33.42 v 0 c 20.65,-20.65 33.42,-49.16 33.42,-80.67 v 0 c 0,-31.5 -12.77,-60.02 -33.42,-80.67 v 0 c -20.65,-20.65 -49.17,-33.42 -80.68,-33.42 v 0 c -35.44,0 -67.1,16.16 -88.03,41.52 v 0 0 C 258.67,307.16 248.9,332.44 248.9,360 Z"
   id="path2"
   style="fill:#ffffff" />
		</g>
		<g
   id="g10"
   style="fill:#ffffff">
			<path
   d="m 272.62,406.98 c 0.02,-1.51 1.26,-2.72 2.77,-2.7 1.51,0.02 2.73,1.26 2.71,2.77 -0.02,1.52 -1.26,2.73 -2.77,2.71 -1.51,-0.02 -2.72,-1.26 -2.71,-2.78 z"
   id="path6"
   style="fill:#ffffff" />
			<path
   d="m 446.92,408.62 c 0.02,-1.51 1.26,-2.72 2.77,-2.7 1.51,0.02 2.73,1.26 2.71,2.77 -0.02,1.51 -1.26,2.73 -2.77,2.71 -1.51,-0.03 -2.73,-1.27 -2.71,-2.78 z"
   id="path8"
   style="fill:#ffffff" />
		</g>
		<g
   id="g18"
   style="fill:#ffffff">
			<g
   id="g16"
   style="fill:#ffffff">
				<g
   id="g14"
   style="fill:#ffffff">
					<path
   d="m 442.2,326.73 c -4.33,-10.22 -10.51,-19.39 -18.39,-27.27 -7.87,-7.86 -17.04,-14.05 -27.25,-18.37 -10.57,-4.46 -21.81,-6.72 -33.37,-6.72 -11.58,0 -22.81,2.26 -33.39,6.72 -10.21,4.32 -19.37,10.52 -27.26,18.37 -7.87,7.88 -14.05,17.04 -18.36,27.27 -4.48,10.56 -6.75,21.8 -6.75,33.36 0,11.59 2.27,22.83 6.75,33.39 4.31,10.2 10.49,19.38 18.36,27.25 7.88,7.87 17.04,14.06 27.26,18.38 3.2,1.36 6.46,2.5 9.77,3.45 0.03,0.01 0.06,0.02 0.09,0.03 1.66,0.52 3.35,0.93 5.05,1.27 6.03,1.32 12.2,1.99 18.48,1.99 3.82,0 7.61,-0.25 11.35,-0.74 0.01,0 0.02,0 0.03,0 2.18,-0.13 3.72,-0.46 4.73,-0.77 5.9,-1.12 11.68,-2.86 17.26,-5.22 10.21,-4.32 19.38,-10.51 27.25,-18.38 l -0.61,-0.61 0.61,0.61 c 7.88,-7.87 14.05,-17.05 18.38,-27.25 4.46,-10.56 6.73,-21.8 6.73,-33.39 0,-11.57 -2.26,-22.8 -6.72,-33.37 z m -132.21,98.41 c -0.13,-0.11 -0.35,-0.47 -0.24,-0.75 0.05,-0.11 0.11,-0.24 0.18,-0.36 0.37,-0.69 0.97,-1.49 1.48,-2.1 0.89,1.92 3.04,5.63 7.58,9.64 -3.14,-1.94 -6.14,-4.08 -9,-6.43 z m -0.71,-50.84 c 1.76,1.72 2.07,3.21 2.08,4.22 0,0.41 -0.06,0.73 -0.11,0.95 -0.03,0.11 -0.05,0.19 -0.07,0.24 0,0.01 -0.01,0.02 -0.01,0.03 -0.08,0.12 -0.77,1.42 -2.74,1.42 -0.3,0 -0.65,-0.03 -1.03,-0.11 -3.33,-0.65 -6.63,-1.94 -9.35,-2.28 -0.04,-0.01 -0.1,0 -0.15,-0.01 l 6.54,-8.97 c 2.14,1.97 3.99,3.69 4.84,4.51 z m -13.7,-14.95 42.62,-43.1 -25.55,59.99 c -0.38,-1 -1.05,-2.1 -2.17,-3.18 -2.39,-2.32 -12.24,-11.29 -14.9,-13.71 z m 11.48,23.39 c 0.48,0.09 0.94,0.14 1.36,0.14 1.52,0.01 2.62,-0.57 3.3,-1.16 0.68,-0.59 0.96,-1.17 0.99,-1.24 v -0.01 c 0,0 0,-0.01 0,-0.01 0,-0.01 0.01,-0.02 0.02,-0.05 l 0.05,-0.11 26.21,-61.3 c 0.06,0.41 0.18,1.2 0.29,1.58 0.41,6.88 1.99,11.71 3.65,15.41 0.96,2.14 1.94,3.78 2.7,4.93 0.38,0.58 0.71,1.04 0.96,1.37 0.08,0.11 0.16,0.21 0.22,0.29 l -6.11,21.11 c -0.1,0.33 0.02,0.7 0.29,0.91 l 1.46,1.16 c 0,0 0.18,0.17 0.1,0.49 -0.09,0.32 -6.8,25.1 -6.8,25.1 l -21.32,24.48 c -1.58,-1.31 -6.2,-5.59 -12.32,-15.1 -5.33,-8.27 -6.92,-13.49 -6.91,-16.46 0,-1.48 0.37,-2.38 0.81,-2.94 0.01,-0.01 0.01,-0.01 0.02,-0.02 l 0.02,-0.03 c 0.03,-0.03 0.05,-0.07 0.08,-0.1 0.49,-0.54 1.09,-0.73 1.54,-0.73 0.06,0 0.11,0 0.16,0.01 2.37,0.3 5.72,1.58 9.23,2.28 z m 45.21,-90.22 c -0.15,-0.44 -0.62,-0.68 -1.06,-0.54 0.38,-0.34 0.75,-0.66 1.11,-0.97 l 3.7,-0.48 c 0.47,-0.06 0.8,-0.5 0.74,-0.97 -0.06,-0.47 -0.49,-0.8 -0.97,-0.74 l -0.56,0.08 c 1.16,-0.68 2.34,-1.23 3.32,-1.63 0.66,-0.27 1.22,-0.48 1.62,-0.62 0.4,-0.13 0.61,-0.2 0.62,-0.2 0.46,-0.13 0.72,-0.61 0.58,-1.07 -0.14,-0.45 -0.62,-0.71 -1.07,-0.58 -0.03,0.01 -1.47,0.43 -3.33,1.28 0.27,-0.39 0.18,-0.92 -0.21,-1.2 -0.39,-0.27 -0.93,-0.18 -1.2,0.21 l -1.98,2.81 c -0.18,0.12 -0.36,0.23 -0.53,0.35 -0.25,0.18 -0.53,0.39 -0.83,0.63 l 0.2,-0.39 c 0.22,-0.42 0.05,-0.94 -0.37,-1.16 -0.42,-0.22 -0.94,-0.05 -1.16,0.37 l -2.17,4.22 c -0.54,0.5 -1.04,0.97 -1.47,1.38 0.07,-2.25 0.67,-6.22 3.2,-8.11 2.48,-1.9 4.54,-2.31 6.26,-2.31 1.01,0 1.9,0.15 2.69,0.27 0.37,0.05 1.7,0.37 2.85,0.66 1.16,0.3 2.21,0.57 2.21,0.58 l 0.22,0.03 c 1.27,0.01 1.9,0.33 2.24,0.67 0.34,0.34 0.47,0.8 0.48,1.31 0.01,0.43 -0.18,0.92 -0.39,1.29 -0.08,0.14 -0.15,0.24 -0.21,0.34 l -6.43,0.71 c -0.23,0.03 -0.45,0.15 -0.59,0.33 l -4.05,5.34 -1.98,0.01 -0.18,0.02 c -0.08,0.02 -0.44,0.1 -0.84,0.43 -0.41,0.32 -0.81,0.97 -0.79,1.8 -0.01,1.61 0.55,2.71 1.16,3.35 0.06,0.07 0.13,0.13 0.19,0.19 l -2.64,2.64 c -0.41,-0.11 -1.08,-0.34 -1.7,-0.78 -0.8,-0.56 -1.53,-1.39 -1.77,-2.84 -0.13,-0.84 -0.18,-1.53 -0.18,-2.08 0,-0.58 0.05,-1 0.11,-1.3 0.01,-0.01 0.02,-0.01 0.03,-0.02 0,0 0.39,-0.38 0.99,-0.96 l 3.64,-1.24 c 0.41,-0.17 0.65,-0.66 0.5,-1.11 z m 13.17,6.58 c 0,0 0.01,0.27 -0.21,0.4 -0.23,0.13 -0.38,0.35 -0.43,0.61 -0.04,0.26 0.07,0.5 0.21,0.71 0.03,0.05 0.04,0.16 -0.02,0.27 -0.06,0.1 -0.17,0.3 -0.17,0.3 -0.12,0.21 -0.15,0.46 -0.07,0.69 0,0 0,0 0.01,0.03 0.03,0.1 0.09,0.38 0.09,0.68 0,0.17 -0.13,0.65 -0.47,0.79 -0.32,0.14 -0.86,0.25 -1.58,0.27 l -1.82,-0.04 c -0.42,-0.01 -0.79,0.29 -0.86,0.7 -0.01,0.04 -0.05,0.27 -0.05,0.63 0,0.47 0.07,1.18 0.45,1.9 0.14,0.28 0.35,0.55 0.6,0.8 0,0 0,0.01 0.01,0.01 v 0 l 3.06,3.43 -7.94,0.54 -5.41,-4.23 c 0.27,-0.13 0.42,-0.21 0.42,-0.21 0.29,-0.14 0.48,-0.44 0.48,-0.77 v -2.5 l 3.47,-3.48 c 0.21,-0.21 0.3,-0.53 0.23,-0.82 -0.08,-0.3 -0.3,-0.53 -0.59,-0.61 v 0 c -0.16,-0.11 -1.2,-0.44 -1.23,-2.57 0.01,-0.35 0.1,-0.39 0.17,-0.48 0.03,-0.02 0.06,-0.04 0.08,-0.06 l 2.26,-0.02 c 0.27,0 0.52,-0.13 0.68,-0.34 0,0 3.61,-4.78 3.86,-5.08 0.25,-0.31 0.63,-0.34 0.63,-0.34 l 4.89,-0.53 c 0,0 0.25,-0.01 0.29,0.29 0.04,0.45 0.09,1 0.15,1.6 0.01,0.25 -0.15,0.34 -0.25,0.35 -0.62,0.02 -1.27,0.04 -1.96,0.06 -0.72,0.03 -1.51,0.36 -2.03,0.8 -0.39,0.32 -0.4,0.93 -0.04,1.28 0.2,0.19 0.63,0.26 1.1,0.4 0.59,0.18 1.25,0.4 1.58,0.3 0.42,-0.14 0.58,-0.51 0.61,-0.92 0.03,-0.45 0.3,-0.77 0.76,-0.77 0.19,0 0.31,0.16 0.33,0.32 0.09,0.86 0.24,1.94 0.3,2.56 0.03,0.3 0.05,0.58 0.07,0.82 0.01,0.31 -0.26,0.33 -0.4,0.35 -0.29,0.04 -0.51,0.04 -0.51,0.05 -0.23,0.01 -0.45,0.11 -0.6,0.29 -0.16,0.17 -0.23,0.4 -0.22,0.63 z m -9.98,14.3 c 0.15,0.12 0.34,0.18 0.53,0.18 0.02,0 0.04,0 0.06,0 l 10.02,-0.68 c 0.33,-0.02 0.62,-0.23 0.74,-0.54 0.13,-0.3 0.06,-0.65 -0.15,-0.9 l -1.8,-2.02 c 1.05,0.32 1.95,0.6 2.65,0.81 0.54,0.14 1.52,1 2.35,2.13 0.79,1.03 1.51,2.25 1.99,3.24 -0.35,1.78 -0.86,3.53 -1.4,5.29 l -4.44,3.37 -9.67,-6.51 c -0.49,-0.72 -2.74,-4 -4.9,-6.17 -1.15,-1.13 -2.77,-1.58 -4.39,-1.58 -0.3,0 -0.6,0.02 -0.9,0.05 0.42,-0.23 0.85,-0.46 1.26,-0.68 0.63,-0.33 1.24,-0.65 1.77,-0.93 z m -8.43,-1.65 c 1.32,0 2.49,0.38 3.18,1.07 1.12,1.12 2.33,2.64 3.24,3.88 0.92,1.24 1.54,2.17 1.54,2.18 0.06,0.1 0.14,0.18 0.24,0.24 l 10.32,6.95 c 0.31,0.21 0.71,0.2 1,-0.03 l 13.14,-9.99 0.06,-0.05 c 0,0 0.29,-0.26 0.67,-0.58 0.38,-0.32 0.86,-0.7 1.15,-0.88 0.68,-0.45 3.58,-2.17 5.43,-2.22 0.16,-0.01 0.32,-0.01 0.47,-0.01 0.89,-0.01 1.54,0.15 1.87,0.37 0.31,0.22 0.45,0.4 0.48,1.05 0,1.05 0.02,2.6 0.02,2.6 0,0.42 0.3,0.7 0.71,0.77 0.32,0 0.76,0.09 0.76,0.59 0,0.57 -0.39,0.65 -0.57,0.68 -0.31,0.04 -0.61,0.08 -0.73,0.09 h -0.81 l -0.22,0.03 c 0,0 -1.11,0.29 -2.3,0.57 -0.59,0.14 -1.21,0.29 -1.71,0.39 -0.25,0.05 -0.47,0.1 -0.64,0.13 -0.08,0.01 -0.15,0.02 -0.2,0.03 -0.05,0.01 -0.06,0 -0.06,0.01 -0.76,0 -1.94,0.13 -1.96,0.13 -0.24,0.03 -0.47,0.16 -0.61,0.36 0,0.01 -1.46,2.07 -3.28,4.5 -1.82,2.43 -4.03,5.25 -5.44,6.66 -1.47,1.47 -2.68,2.58 -3.53,3.32 -0.26,0.23 -0.49,0.42 -0.68,0.58 -0.1,0.08 -0.33,0.19 -0.58,0.09 -1.26,-0.52 -3.95,-1.6 -7.19,-2.98 -4.52,-1.93 -10.12,-4.44 -14.36,-6.71 -0.84,-0.43 -2.34,-1.35 -3.58,-2.66 -0.13,-0.14 -0.26,-0.29 -0.39,-0.44 -0.04,-0.05 -0.08,-0.1 -0.12,-0.14 -0.1,-0.12 -0.19,-0.24 -0.28,-0.35 -0.07,-0.09 -0.13,-0.19 -0.2,-0.28 -0.06,-0.08 -0.11,-0.16 -0.16,-0.25 -0.06,-0.09 -0.12,-0.19 -0.18,-0.29 -0.02,-0.04 -0.04,-0.08 -0.07,-0.12 -0.12,-0.21 -0.22,-0.42 -0.31,-0.64 -0.01,-0.03 -0.03,-0.06 -0.04,-0.09 -0.05,-0.13 -0.1,-0.26 -0.14,-0.39 0,0 0,0 0,0 0,0 0,0 0,-0.01 -0.08,-0.23 -0.14,-0.47 -0.19,-0.71 -0.02,-0.1 -0.04,-0.21 -0.06,-0.31 -0.01,-0.08 -0.02,-0.16 -0.03,-0.24 -0.02,-0.2 -0.04,-0.4 -0.04,-0.61 0,-0.14 0.01,-0.27 0.02,-0.41 0.01,-0.11 0.02,-0.23 0.04,-0.35 0,-0.02 0,-0.04 0,-0.06 0.04,-0.28 0.1,-0.56 0.18,-0.85 0,0 0,0 0,0 v 0 c 0.05,-0.17 0.1,-0.35 0.17,-0.53 0,-0.01 0.01,-0.02 0.01,-0.03 0.06,-0.16 0.13,-0.34 0.2,-0.51 0.01,-0.02 0.02,-0.05 0.03,-0.07 0.07,-0.16 0.15,-0.32 0.24,-0.48 0.02,-0.03 0.04,-0.07 0.06,-0.11 0.11,-0.19 0.22,-0.39 0.34,-0.59 v 0 c 0.78,-1.33 3.03,-2.32 5.09,-2.3 z m 26.98,-13.13 c 0,-0.38 0.13,-0.44 0.2,-0.43 1.31,0.21 2.03,0.78 2.49,1.32 0.28,0.34 0.45,0.69 0.55,0.94 0.05,0.13 0.08,0.23 0.1,0.3 0.01,0.03 0.01,0.06 0.02,0.07 v 0 c 0.07,0.41 0.43,0.72 0.85,0.72 h 16.8 c 0.43,0 0.79,-0.31 0.85,-0.73 0.02,-0.08 0.15,-0.63 0.69,-1.14 0.45,-0.42 1.19,-0.88 2.53,-1.05 0.18,-0.04 0.21,0.14 0.21,0.3 0,1.78 -0.06,5.49 -0.06,10.87 0,4.38 1.13,7.92 2.21,11.42 1.09,3.51 2.13,6.98 2.13,11.42 0,2.37 -0.45,4.64 -1.33,6.7 -0.77,-0.43 -1.42,-0.69 -1.78,-0.79 -0.12,-0.03 -0.24,-0.05 -0.36,-0.05 -0.68,0.03 -1.12,0.33 -1.55,0.63 -0.42,0.34 -0.75,0.58 -0.99,1.12 -0.07,0.18 -0.1,0.36 -0.1,0.53 0.01,0.47 0.17,0.79 0.29,1.04 -0.18,0.15 -0.39,0.32 -0.6,0.51 -0.28,0.25 -0.57,0.52 -0.82,0.81 -0.25,0.29 -0.48,0.56 -0.62,0.98 -0.08,0.26 -0.13,0.53 -0.13,0.81 0,0.53 0.15,1.01 0.39,1.5 -2.61,1.51 -5.88,2.4 -9.82,2.41 -5.75,0 -9.86,-1.98 -12.6,-4.84 -2.03,-2.14 -3.29,-4.8 -3.8,-7.56 0.85,-0.72 2.34,-2.03 4.23,-3.92 0.32,-0.32 0.67,-0.7 1.04,-1.12 0.61,2.16 1.82,3.96 3.4,5.3 2.21,1.88 5.1,2.89 8.09,2.98 0.05,0.01 0.11,0.02 0.16,0.02 0.02,0 0.05,0 0.07,-0.01 0.07,0 0.14,0.01 0.21,0.01 6.47,-0.02 11.32,-5.75 11.33,-12.09 0,-2.85 -0.67,-4.84 -1.29,-7.91 -0.63,-3.08 -1.25,-7.36 -1.25,-14.89 0,-0.23 -0.09,-0.45 -0.25,-0.61 -0.16,-0.16 -0.38,-0.25 -0.61,-0.25 H 378.3 c -0.23,0 -0.45,0.09 -0.61,0.25 -0.16,0.16 -0.25,0.38 -0.25,0.61 0,5.39 -0.35,8.86 -0.79,11.44 l -3.9,2.96 c 0.31,-1.12 0.59,-2.26 0.81,-3.42 0.02,-0.05 0.02,-0.1 0.03,-0.15 0.28,-1.5 0.45,-3.04 0.46,-4.63 0,-5.7 -0.02,-10.22 -0.04,-12.38 z m 23.92,47.67 c -0.47,-0.66 -0.62,-1.1 -0.61,-1.39 0,-0.1 0.01,-0.19 0.05,-0.3 v 0 c 0.07,-0.16 0.58,-0.71 1.04,-1.1 0.46,-0.41 0.88,-0.72 0.88,-0.72 0.24,-0.15 0.4,-0.54 0.38,-0.77 -0.01,-0.34 -0.1,-0.46 -0.16,-0.6 -0.06,-0.12 -0.12,-0.23 -0.17,-0.32 -0.06,-0.13 -0.1,-0.42 0.16,-0.67 0.29,-0.3 0.71,-0.18 0.79,-0.14 0.32,0.13 0.84,0.37 1.35,0.67 0.75,0.44 1.51,1.05 1.78,1.57 0.28,0.48 0.51,1.12 0.5,1.55 0,0.29 -0.12,0.5 -0.26,0.66 -0.28,0.32 -2.81,2.44 -3.07,2.6 -0.27,0.19 -1.35,0.65 -2.27,0.99 -0.27,0.1 -0.53,0.19 -0.76,0.28 -0.32,0.13 -0.37,-0.08 -0.37,-0.08 0,0 -0.06,-0.19 0.06,-0.31 0.15,-0.12 0.29,-0.25 0.43,-0.4 0.15,-0.2 0.38,-0.39 0.41,-0.93 0.03,-0.18 -0.03,-0.41 -0.16,-0.59 z m 2.53,59.79 c 0,0 0.03,0.25 -0.17,0.37 -0.2,0.11 -6.26,3.51 -6.26,3.51 l -0.7,-60.5 c 0.69,-0.22 1.35,-0.48 1.98,-0.77 z m -27.73,27.97 c 0,0 2.23,2.89 2.32,3.02 0.09,0.13 0.02,0.28 -0.04,0.33 -3.38,2.76 -8.86,4.69 -15.13,5.38 0.99,-4.55 4.79,-22.48 7.62,-40.74 2.91,-18.82 4.2,-36.69 4.45,-40.41 0,0 2.26,-0.15 2.66,-0.19 0.39,-0.04 0.44,0.19 0.44,0.43 -0.01,0.24 -2.48,71.6 -2.48,71.6 -0.02,0.23 0.04,0.42 0.16,0.58 z m -30.04,-71.02 c 0,0 5.6,-19.36 5.68,-19.62 0.07,-0.26 0.33,-0.33 0.33,-0.33 0,0 4.1,-1.15 4.75,-1.36 0.65,-0.21 1.73,-0.29 1.73,-0.29 l 14.09,-0.86 c 0.74,1.65 1.75,3.21 3.05,4.58 1.14,1.21 2.51,2.26 4.09,3.11 0,0 -0.03,10.72 -0.03,10.92 0,0.2 -0.1,0.43 -0.55,0.47 -0.45,0.04 -14.17,0.99 -17.59,1.24 -0.49,0.03 -1.07,0.12 -1.59,0.26 -0.52,0.15 -12.47,3.42 -12.47,3.42 0,0 -0.41,0.06 -0.61,-0.09 -0.2,-0.16 -0.31,-0.25 -0.68,-0.54 -0.37,-0.3 -0.2,-0.91 -0.2,-0.91 z m 5.3,-21.74 c -1.36,-1.87 -5.32,-7.41 -6.66,-17.52 0.09,0.11 0.19,0.21 0.28,0.31 1.43,1.5 3.06,2.5 4.03,3 8.63,4.62 22.48,10.08 22.5,10.09 0.01,0 0.02,0 0.03,0.01 0.12,0.58 0.28,1.14 0.47,1.71 l -13,0.79 c 0,0 -1.53,0.07 -2.63,0.38 -1.33,0.37 -4.37,1.24 -4.57,1.31 -0.26,0.07 -0.41,-0.02 -0.45,-0.08 z m 28.79,19.92 0.63,-0.13 c 0.4,-0.08 0.69,-0.44 0.69,-0.84 l 0.03,-11.17 c 2.3,0.93 4.97,1.46 8.01,1.46 0.01,0 0.02,0 0.03,0 1.95,0 3.77,-0.22 5.45,-0.6 l 0.8,69.21 v 0.04 c 0,0 0,0.05 0,0.17 0.01,0.71 -0.18,3.19 -2.21,4.65 -2.52,1.84 -8.16,4.77 -15.78,4.97 z m -0.34,-31.52 c 2.01,-2.47 4.23,-5.5 5.48,-7.22 v 14.37 c -0.86,-0.4 -1.66,-0.9 -2.36,-1.5 -1.63,-1.39 -2.77,-3.26 -3.12,-5.65 z m 7.2,7.78 v -16.13 c 0.15,-0.01 0.3,-0.01 0.42,-0.01 0.35,-0.01 0.71,-0.09 1.26,-0.2 0.16,-0.04 0.33,-0.07 0.51,-0.11 v 16.86 c -0.75,-0.08 -1.48,-0.21 -2.19,-0.41 z m 3.91,0.43 v -17.3 c 0.79,-0.19 1.48,-0.37 1.74,-0.43 h 0.32 v 17.35 c -0.66,0.21 -1.34,0.34 -2.06,0.38 z m 5.35,-21.21 c -0.1,-0.31 -0.29,-0.77 -0.88,-0.97 -0.15,-0.04 -0.32,-0.09 -0.47,-0.12 0,-0.54 -0.01,-1.3 -0.01,-1.89 0.01,-0.41 -0.06,-0.81 -0.2,-1.17 v -6.93 h 2.7 c 0.04,7.1 0.67,11.32 1.28,14.38 0.65,3.19 1.26,5.02 1.25,7.57 0,2.74 -1.05,5.35 -2.79,7.26 -0.71,0.79 -1.54,1.45 -2.45,1.96 v -16.75 c 0.06,-0.01 0.13,-0.02 0.18,-0.02 0.08,-0.01 0.16,-0.02 0.21,-0.02 0.05,0 0.07,0 0.07,0 0.32,0 0.55,-0.16 0.66,-0.27 0.37,-0.41 0.36,-0.65 0.46,-0.98 0.07,-0.32 0.1,-0.68 0.11,-1.04 0,-0.35 -0.02,-0.67 -0.12,-1.01 z m -3.29,-11.08 v 5.29 c -0.62,-0.23 -1.31,-0.31 -2.06,-0.32 v -4.97 z m -3.78,0 v 5.14 c -0.75,0.16 -1.5,0.42 -2.19,0.72 v -5.86 z m -3.91,0 v 6.72 c -0.58,0.32 -1.02,0.6 -1.27,0.75 -0.78,0.49 -1.83,1.43 -2.03,1.61 v 0.01 c 0.3,-2.3 0.52,-5.19 0.55,-9.09 z m -68.17,113.64 c 0.22,-0.25 23.43,-26.9 23.43,-26.9 0.09,-0.1 0.15,-0.21 0.18,-0.34 0,0 6.87,-25.35 6.92,-25.52 0.05,-0.18 0.23,-0.23 0.23,-0.23 0,0 12.18,-3.33 12.64,-3.47 0.47,-0.13 1.14,-0.19 1.14,-0.19 l 6.76,-0.47 c -0.08,0.79 -0.22,2.06 -0.44,3.69 -1.15,8.57 -4.66,27.05 -13.22,37.12 -12.75,15.07 -30.4,16.61 -37.01,16.61 -0.15,0 -0.29,0 -0.42,0 -0.26,-0.01 -0.43,-0.05 -0.21,-0.3 z m -0.42,2 c 0.31,0.01 0.66,0.01 1.04,0.01 6.84,0 25.05,-1.57 38.32,-17.21 10.92,-12.97 13.66,-37.71 14.09,-42.04 l 3.42,-0.24 c -0.12,1.77 -0.42,5.97 -0.96,11.64 -0.71,7.61 -1.83,17.85 -3.46,28.38 -1.63,10.53 -3.59,20.97 -5.14,28.77 -1.15,5.77 -2.07,10.09 -2.47,11.95 -0.04,0.17 -0.25,0.48 -0.65,0.48 -0.95,0 -1.9,0.09 -2.87,0.08 -3.14,0 -6.39,-0.29 -9.59,-0.91 -1.68,-0.37 -3.34,-0.78 -4.99,-1.26 -11.87,-3.74 -18.76,-9.03 -22.69,-13.31 -1.97,-2.15 -3.2,-4.06 -3.93,-5.42 -0.12,-0.22 -0.22,-0.42 -0.31,-0.61 -0.09,-0.19 0.02,-0.31 0.19,-0.31 z m 49.49,22.86 c 4.92,-0.85 9.27,-2.46 12.45,-4.75 l 2.71,0.78 c 0.1,0.03 0.2,0.04 0.3,0.04 0,0 2.52,-0.14 2.73,-0.15 0.72,-0.04 1.04,0.38 1.04,0.53 0,0.15 0.02,0.34 0.02,0.34 0,0 0.03,0.45 -0.26,0.74 -0.27,0.27 -2.21,0.8 -2.92,1.03 -5.14,0.97 -10.38,1.47 -15.7,1.47 -0.12,-0.02 -0.25,-0.03 -0.37,-0.03 z m 77.79,-51.31 c -4.25,10 -10.29,18.98 -18.02,26.71 -7.72,7.71 -16.7,13.77 -26.7,18.01 -3.94,1.67 -7.97,3.02 -12.07,4.05 l -0.1,-1.67 c 0,-1.01 -1.14,-1.51 -1.77,-1.51 l -3.61,0.06 c 0,0 -1.11,-0.27 -1.25,-0.31 -0.14,-0.04 -0.1,-0.18 -0.08,-0.21 0.25,-0.31 0.27,-0.75 0.02,-1.07 l -2.76,-3.6 0.09,-2.56 c 8.1,-0.2 14.07,-3.27 16.85,-5.3 2.74,-2.03 2.91,-5.12 2.92,-6.04 0,-0.13 0,-0.22 -0.01,-0.26 l -0.08,-7.18 c 0.03,-0.01 0.05,-0.02 0.08,-0.03 v 0 l 7.68,-4.31 c 0.3,-0.17 0.46,-0.49 0.44,-0.83 l -5.04,-56.18 c 0.22,-0.07 0.93,-0.32 1.74,-0.62 0.98,-0.38 2.02,-0.78 2.63,-1.18 0.55,-0.39 2.86,-2.33 3.42,-2.91 0.49,-0.52 0.67,-1.19 0.67,-1.78 -0.01,-0.92 -0.36,-1.75 -0.72,-2.4 -0.32,-0.55 -0.75,-1 -1.23,-1.39 1.06,-2.36 1.6,-4.97 1.59,-7.67 0,-4.71 -1.13,-8.42 -2.21,-11.93 -1.09,-3.51 -2.14,-6.83 -2.14,-10.91 0,-7.57 0.08,-12.07 0.08,-12.08 0,-0.23 -0.09,-0.45 -0.25,-0.62 -0.16,-0.17 -0.38,-0.26 -0.61,-0.26 -2.54,-0.01 -4.12,0.83 -4.99,1.77 -0.41,0.44 -0.65,0.87 -0.81,1.23 h -15.54 c -0.15,-0.39 -0.41,-0.89 -0.83,-1.4 -0.84,-1.04 -2.42,-2.04 -4.88,-2.03 -0.23,0 -0.45,0.09 -0.61,0.26 -0.16,0.16 -0.25,0.38 -0.25,0.61 0,0.01 0.05,5.71 0.05,13.7 0,0.63 -0.03,1.25 -0.08,1.87 -0.32,-0.5 -0.66,-1 -1.02,-1.48 -0.96,-1.23 -1.97,-2.32 -3.22,-2.73 -1.12,-0.34 -2.79,-0.86 -4.75,-1.46 -0.72,-0.23 -1.01,-0.55 -1.22,-0.92 -0.12,-0.21 -0.18,-0.45 -0.22,-0.67 l 0.95,0.02 h 0.05 c 0.86,-0.03 1.59,-0.14 2.22,-0.4 0.62,-0.25 1.18,-0.71 1.39,-1.4 0.11,-0.35 0.14,-0.69 0.14,-0.99 0,-0.34 -0.04,-0.63 -0.09,-0.85 l 0.41,-0.72 c 0.13,-0.23 0.15,-0.51 0.05,-0.75 0.19,-0.17 0.29,-0.43 0.27,-0.69 l -0.06,-0.88 c 0.04,-0.01 0.08,-0.02 0.13,-0.02 0.26,-0.05 0.53,-0.11 0.82,-0.24 0.14,-0.07 0.29,-0.15 0.45,-0.31 0.16,-0.15 0.33,-0.44 0.33,-0.77 0,-0.23 -0.05,-0.78 -0.13,-1.65 -0.19,-2.12 -0.52,-5.72 -0.63,-6.84 0.35,-0.47 0.96,-1.44 0.98,-2.71 0,-0.81 -0.23,-1.77 -0.98,-2.52 -0.72,-0.73 -1.85,-1.16 -3.35,-1.18 -0.67,-0.18 -4.14,-1.1 -5.15,-1.25 -0.75,-0.11 -1.75,-0.28 -2.93,-0.28 -2.01,-0.01 -4.55,0.53 -7.31,2.67 -3.57,2.81 -3.86,7.84 -3.88,10.07 0,0.43 0.01,0.77 0.03,0.96 -0.12,0.36 -0.3,1.1 -0.3,2.28 0,0.65 0.05,1.43 0.2,2.35 0.35,2.23 1.73,3.58 2.95,4.28 0.62,0.36 1.2,0.57 1.64,0.7 v 1.64 c -0.68,0.34 -4.97,2.23 -9.1,5.07 -0.09,0.08 -0.43,0.27 -0.75,0.64 -0.01,0.01 -0.02,0.01 -0.03,0.02 l -46.43,46.95 c -0.16,0.16 -0.25,0.39 -0.25,0.63 0.01,0.23 0.11,0.46 0.28,0.61 0.01,0.01 3.2,2.91 6.74,6.15 0.88,0.81 1.79,1.63 2.67,2.44 l -8.51,11.67 c -0.72,0.91 -1.18,2.24 -1.17,4 0.01,3.56 1.77,8.97 7.18,17.4 6.17,9.59 10.89,14.01 12.64,15.46 l -2.25,2.58 c -0.08,0.08 -0.8,0.84 -1.54,1.83 -0.39,0.51 -0.78,1.08 -1.09,1.66 -0.08,0.14 -0.15,0.28 -0.21,0.43 -1.52,-1.32 -3,-2.69 -4.44,-4.13 -7.71,-7.72 -13.77,-16.7 -17.99,-26.71 -4.39,-10.34 -6.61,-21.35 -6.61,-32.71 0,-11.33 2.22,-22.33 6.61,-32.69 4.23,-10.02 10.28,-19 17.99,-26.72 7.73,-7.71 16.7,-13.77 26.71,-18.01 10.37,-4.37 21.36,-6.59 32.71,-6.59 11.34,0 22.34,2.21 32.7,6.59 10.01,4.24 18.99,10.3 26.7,18.01 7.72,7.72 13.77,16.7 18.02,26.72 4.37,10.36 6.59,21.36 6.59,32.69 0.03,11.37 -2.19,22.38 -6.56,32.72 z"
   id="path12"
   style="fill:#ffffff" />
				</g>
			</g>
		</g>
		<g
   id="g58"
   style="fill:#ffffff">
			<path
   d="m 264.97,367.3 c 0.99,-0.13 1.84,-0.12 2.54,0.03 0.71,0.15 1.31,0.44 1.8,0.87 0.49,0.43 0.88,1.01 1.17,1.73 0.29,0.71 0.5,1.58 0.63,2.59 0.11,0.86 0.12,1.67 0.04,2.4 -0.09,0.73 -0.31,1.38 -0.66,1.94 -0.35,0.56 -0.83,1.02 -1.45,1.39 -0.62,0.36 -2.09,0.67 -2.09,0.67 -0.14,0.03 -0.37,0.07 -0.51,0.09 l -7.6,0.99 c -0.14,0.02 -0.26,0.15 -0.27,0.29 l -0.06,1.12 c -0.01,0.14 -0.13,0.28 -0.27,0.3 l -0.34,0.04 c -0.14,0.02 -0.27,-0.08 -0.29,-0.22 l -0.67,-5.12 c -0.02,-0.14 0.08,-0.27 0.23,-0.29 l 0.33,-0.04 c 0.14,-0.02 0.29,0.08 0.34,0.21 l 0.35,1.05 c 0.04,0.14 0.2,0.23 0.34,0.21 l 8.5,-1.11 c 1.04,-0.14 1.82,-0.55 2.34,-1.26 0.52,-0.7 0.7,-1.67 0.54,-2.89 -0.17,-1.27 -0.6,-2.15 -1.3,-2.64 -0.7,-0.49 -2.81,-0.48 -2.81,-0.48 -0.14,0 -0.38,0.02 -0.52,0.04 l -7.72,1.01 c -0.14,0.02 -0.27,0.15 -0.27,0.29 l -0.07,1.12 c -0.01,0.15 -0.13,0.28 -0.27,0.3 l -0.33,0.04 c -0.14,0.02 -0.27,-0.08 -0.29,-0.23 l -0.6,-4.59 c -0.02,-0.14 0.08,-0.27 0.22,-0.29 l 0.34,-0.04 c 0.14,-0.02 0.29,0.08 0.34,0.21 l 0.35,1.07 c 0.04,0.13 0.2,0.23 0.34,0.21 z"
   id="path20"
   style="fill:#ffffff" />
			<path
   d="m 255.8,355.4 c 0.01,-0.14 0.12,-0.32 0.24,-0.39 l 10.73,-6.4 -8.98,-0.66 c -0.14,-0.01 -0.29,0.09 -0.33,0.23 l -0.29,1.06 c -0.04,0.14 -0.19,0.24 -0.33,0.23 l -0.34,-0.02 c -0.14,-0.01 -0.25,-0.14 -0.24,-0.28 l 0.33,-4.41 c 0.01,-0.14 0.14,-0.25 0.28,-0.24 l 0.34,0.03 c 0.14,0.01 0.27,0.14 0.29,0.28 l 0.13,1.12 c 0.02,0.14 0.15,0.27 0.29,0.28 l 12.72,0.96 c 0.14,0.01 0.25,0.14 0.24,0.28 l -0.1,1.25 c -0.01,0.14 -0.12,0.32 -0.24,0.39 l -12.4,7.27 10.45,0.79 c 0.14,0.01 0.29,-0.09 0.33,-0.23 l 0.29,-1.06 c 0.04,-0.14 0.18,-0.24 0.33,-0.23 l 0.34,0.02 c 0.14,0.01 0.25,0.13 0.24,0.28 l -0.34,4.42 c -0.01,0.14 -0.14,0.25 -0.28,0.24 l -0.34,-0.03 c -0.14,-0.01 -0.27,-0.14 -0.29,-0.28 l -0.13,-1.11 c -0.02,-0.14 -0.15,-0.27 -0.29,-0.28 l -11.43,-0.87 c -0.14,-0.01 -0.29,0.09 -0.33,0.23 l -0.29,1.08 c -0.04,0.14 -0.18,0.24 -0.33,0.23 l -0.34,-0.02 c -0.14,-0.01 -0.25,-0.14 -0.24,-0.28 z"
   id="path22"
   style="fill:#ffffff" />
			<path
   d="m 260.2,331.58 c 0.14,0.04 0.25,0.18 0.24,0.32 l -0.06,1.1 c -0.01,0.14 0.1,0.29 0.24,0.33 l 11.13,2.78 c 0.14,0.04 0.3,-0.04 0.36,-0.17 l 0.46,-1 c 0.06,-0.13 0.22,-0.21 0.36,-0.17 l 0.33,0.08 c 0.14,0.04 0.23,0.18 0.19,0.32 l -1.25,5.01 c -0.04,0.14 -0.18,0.22 -0.31,0.19 l -0.33,-0.08 c -0.14,-0.03 -0.25,-0.18 -0.24,-0.32 l 0.06,-1.1 c 0.01,-0.14 -0.1,-0.29 -0.24,-0.32 l -11.13,-2.78 c -0.14,-0.04 -0.3,0.04 -0.36,0.17 l -0.47,1 c -0.06,0.13 -0.22,0.21 -0.36,0.17 l -0.33,-0.09 c -0.14,-0.03 -0.22,-0.17 -0.19,-0.31 l 1.25,-5.01 c 0.04,-0.14 0.18,-0.22 0.32,-0.19 z"
   id="path24"
   style="fill:#ffffff" />
			<path
   d="m 277.64,323.14 c 0.1,0.1 0.14,0.29 0.08,0.42 l -0.6,1.42 c -0.06,0.13 -0.22,0.23 -0.36,0.22 l -13.51,-0.91 c -0.14,-0.01 -0.33,0.08 -0.41,0.19 l -0.5,0.68 c -0.09,0.12 -0.26,0.17 -0.39,0.11 l -0.31,-0.13 c -0.13,-0.05 -0.19,-0.21 -0.14,-0.34 l 1.85,-4.35 c 0.06,-0.13 0.21,-0.19 0.34,-0.14 l 0.31,0.13 c 0.13,0.05 0.22,0.22 0.19,0.36 l -0.16,0.87 c -0.02,0.14 0.07,0.26 0.21,0.28 l 10.85,0.84 -7.97,-7.62 c -0.1,-0.1 -0.25,-0.08 -0.34,0.04 l -0.6,0.88 c -0.08,0.12 -0.25,0.17 -0.39,0.12 l -0.31,-0.13 c -0.13,-0.06 -0.19,-0.21 -0.14,-0.34 l 1.67,-3.92 c 0.06,-0.13 0.21,-0.19 0.34,-0.14 l 0.31,0.13 c 0.13,0.06 0.22,0.22 0.19,0.36 l -0.21,1.02 c -0.03,0.14 0.03,0.34 0.13,0.43 z"
   id="path26"
   style="fill:#ffffff" />
			<path
   d="m 304.77,286.07 c 0.33,-0.09 0.66,-0.21 1.01,-0.38 0.35,-0.16 0.64,-0.33 0.86,-0.49 0.78,-0.58 1.26,-1.19 1.45,-1.85 0.19,-0.66 0.05,-1.3 -0.41,-1.93 -0.27,-0.37 -0.59,-0.63 -0.95,-0.77 -0.36,-0.14 -0.74,-0.21 -1.14,-0.22 -0.4,-0.01 -0.82,0.03 -1.25,0.11 -0.43,0.08 -0.86,0.15 -1.29,0.22 -0.65,0.09 -1.23,0.16 -1.76,0.23 -0.53,0.07 -1.01,0.08 -1.44,0.02 -0.44,-0.05 -0.84,-0.18 -1.21,-0.39 -0.37,-0.21 -0.72,-0.54 -1.05,-0.99 -0.36,-0.49 -0.58,-1.01 -0.65,-1.54 -0.07,-0.53 -0.01,-1.07 0.17,-1.6 0.19,-0.54 0.5,-1.07 0.93,-1.59 0.44,-0.52 0.98,-1.02 1.62,-1.5 0.24,-0.18 0.51,-0.36 0.82,-0.53 0.3,-0.18 0.61,-0.34 0.93,-0.5 0.32,-0.15 0.63,-0.3 0.94,-0.43 0.31,-0.13 0.6,-0.22 0.6,-0.22 0.14,-0.04 0.28,-0.05 0.31,-0.02 0.04,0.03 0.12,0.16 0.19,0.28 l 1.09,1.91 c 0.07,0.13 0.03,0.3 -0.08,0.38 l -0.72,0.53 c -0.11,0.08 -0.3,0.08 -0.41,-0.01 L 302,273.67 c -0.23,0 -0.51,0.07 -0.83,0.19 -0.32,0.12 -0.66,0.32 -1.03,0.6 -0.67,0.5 -1.08,1.04 -1.25,1.65 -0.16,0.6 -0.04,1.18 0.36,1.73 0.26,0.35 0.54,0.59 0.84,0.73 0.3,0.13 0.62,0.2 0.96,0.2 0.34,0 0.7,-0.03 1.06,-0.11 0.37,-0.08 0.75,-0.15 1.14,-0.22 0.54,-0.07 1.1,-0.16 1.69,-0.27 0.58,-0.1 1.15,-0.14 1.71,-0.12 0.55,0.02 1.07,0.14 1.56,0.34 0.49,0.2 0.9,0.56 1.26,1.08 0.45,0.67 0.7,1.31 0.76,1.92 0.06,0.61 -0.02,1.19 -0.25,1.75 -0.22,0.55 -0.58,1.09 -1.07,1.61 -0.49,0.52 -1.07,1.02 -1.72,1.5 -0.59,0.44 -1.21,0.81 -1.86,1.13 -0.65,0.32 -1.49,0.66 -1.49,0.66 -0.13,0.05 -0.27,0.07 -0.3,0.04 -0.03,-0.03 -0.12,-0.16 -0.19,-0.28 l -1.1,-1.9 c -0.07,-0.13 -0.04,-0.3 0.08,-0.38 l 0.72,-0.53 c 0.11,-0.09 0.3,-0.08 0.41,0.01 z"
   id="path28"
   style="fill:#ffffff" />
			<path
   d="m 315.05,264.93 c 0.07,0.13 0.03,0.3 -0.08,0.4 l -0.86,0.69 c -0.11,0.09 -0.15,0.27 -0.08,0.39 l 5.43,10.11 c 0.07,0.13 0.24,0.19 0.37,0.15 l 1.05,-0.33 c 0.14,-0.04 0.3,0.02 0.37,0.15 l 0.16,0.3 c 0.07,0.13 0.02,0.28 -0.11,0.35 l -4.55,2.44 c -0.13,0.07 -0.28,0.02 -0.35,-0.11 l -0.16,-0.3 c -0.07,-0.12 -0.03,-0.3 0.08,-0.39 l 0.85,-0.7 c 0.11,-0.09 0.15,-0.26 0.08,-0.39 l -5.43,-10.1 c -0.07,-0.13 -0.23,-0.2 -0.37,-0.15 l -1.05,0.33 c -0.14,0.04 -0.3,-0.03 -0.37,-0.15 l -0.16,-0.3 c -0.07,-0.13 -0.02,-0.29 0.11,-0.35 l 4.55,-2.45 c 0.13,-0.07 0.29,-0.02 0.35,0.11 z"
   id="path30"
   style="fill:#ffffff" />
			<path
   d="m 320.7,261.63 c 0.03,-0.08 0.17,-0.19 0.3,-0.24 l 10.61,-3.86 c 0.14,-0.05 0.3,-0.07 0.37,-0.05 0.07,0.02 0.17,0.15 0.22,0.28 l 0.91,2.27 c 0.05,0.13 -0.01,0.28 -0.15,0.33 l -0.85,0.31 c -0.14,0.05 -0.31,-0.01 -0.39,-0.13 l -0.75,-1.11 c -0.08,-0.12 -0.26,-0.18 -0.39,-0.14 l -1.11,0.33 c -0.14,0.04 -0.36,0.11 -0.49,0.16 l -1.08,0.39 3.98,10.97 c 0.05,0.13 0.21,0.23 0.35,0.2 l 1.09,-0.17 c 0.14,-0.02 0.3,0.07 0.35,0.2 l 0.12,0.32 c 0.05,0.14 -0.02,0.28 -0.16,0.33 l -4.85,1.76 c -0.14,0.05 -0.29,-0.02 -0.33,-0.16 l -0.12,-0.32 c -0.05,-0.13 0.01,-0.3 0.13,-0.37 l 0.95,-0.57 c 0.12,-0.07 0.18,-0.24 0.13,-0.38 l -3.99,-10.97 -1.08,0.4 c -0.14,0.05 -0.35,0.14 -0.49,0.19 l -1.06,0.46 c -0.13,0.06 -0.23,0.22 -0.21,0.36 l 0.14,1.33 c 0.02,0.14 -0.08,0.3 -0.22,0.35 l -0.85,0.31 c -0.14,0.05 -0.28,-0.02 -0.33,-0.16 L 320.72,262 c -0.04,-0.11 -0.05,-0.29 -0.02,-0.37 z"
   id="path32"
   style="fill:#ffffff" />
			<path
   d="m 346.68,263.13 -4.74,0.9 -0.73,4.34 c -0.02,0.14 0.07,0.26 0.22,0.26 l 0.98,0.02 c 0.14,0 0.28,0.12 0.31,0.26 l 0.06,0.33 c 0.02,0.14 -0.07,0.28 -0.21,0.3 l -4.15,0.78 c -0.14,0.02 -0.28,-0.07 -0.3,-0.21 l -0.06,-0.33 c -0.03,-0.14 0.06,-0.3 0.19,-0.36 l 0.85,-0.36 c 0.13,-0.06 0.26,-0.22 0.29,-0.36 l 2.62,-13.64 c 0.03,-0.14 0.17,-0.28 0.3,-0.31 l 1.82,-0.34 c 0.14,-0.02 0.31,0.05 0.38,0.18 l 6.75,11.86 c 0.07,0.12 0.25,0.23 0.39,0.23 l 0.9,0.03 c 0.15,0 0.28,0.12 0.31,0.26 l 0.06,0.33 c 0.03,0.14 -0.07,0.28 -0.21,0.3 l -4.75,0.9 c -0.14,0.02 -0.28,-0.07 -0.31,-0.21 l -0.06,-0.33 c -0.03,-0.14 0.06,-0.3 0.19,-0.36 l 0.85,-0.36 c 0.13,-0.05 0.18,-0.2 0.12,-0.33 z m -3.44,-6.24 -1.09,6.03 4,-0.75 z"
   id="path34"
   style="fill:#ffffff" />
			<path
   d="m 359.81,266.05 c 0.31,0.12 0.66,0.22 1.04,0.29 0.38,0.07 0.71,0.11 0.98,0.11 0.97,0 1.72,-0.21 2.27,-0.63 0.54,-0.42 0.81,-1.01 0.81,-1.79 0,-0.46 -0.11,-0.86 -0.31,-1.18 -0.21,-0.33 -0.47,-0.61 -0.79,-0.86 -0.32,-0.25 -0.68,-0.46 -1.08,-0.65 -0.39,-0.19 -0.79,-0.39 -1.17,-0.59 -0.57,-0.31 -1.09,-0.59 -1.56,-0.85 -0.46,-0.26 -0.86,-0.53 -1.18,-0.83 -0.32,-0.3 -0.57,-0.64 -0.74,-1.03 -0.17,-0.39 -0.26,-0.86 -0.26,-1.42 0,-0.61 0.13,-1.16 0.38,-1.63 0.26,-0.47 0.62,-0.87 1.09,-1.19 0.47,-0.32 1.03,-0.57 1.69,-0.73 0.66,-0.17 1.39,-0.25 2.2,-0.26 0.3,0 0.62,0.02 0.97,0.06 0.35,0.04 0.7,0.09 1.04,0.15 0.35,0.06 0.69,0.13 1.01,0.21 0.33,0.08 0.61,0.18 0.61,0.18 0.13,0.05 0.26,0.12 0.27,0.16 0.01,0.05 0.01,0.2 -0.01,0.34 l -0.26,2.18 c -0.02,0.14 -0.15,0.26 -0.29,0.26 h -0.89 c -0.14,0 -0.29,-0.11 -0.32,-0.25 l -0.42,-1.69 c -0.19,-0.14 -0.45,-0.25 -0.78,-0.33 -0.33,-0.09 -0.72,-0.13 -1.19,-0.13 -0.83,0 -1.49,0.2 -1.98,0.59 -0.49,0.39 -0.73,0.93 -0.73,1.61 0,0.44 0.09,0.8 0.25,1.08 0.16,0.28 0.38,0.53 0.66,0.73 0.27,0.2 0.58,0.38 0.92,0.54 0.34,0.16 0.69,0.32 1.05,0.5 0.48,0.26 0.98,0.52 1.52,0.78 0.53,0.26 1.01,0.57 1.44,0.91 0.43,0.35 0.78,0.74 1.06,1.19 0.27,0.45 0.4,0.99 0.37,1.61 -0.04,0.81 -0.21,1.47 -0.52,2 -0.31,0.53 -0.72,0.95 -1.23,1.26 -0.51,0.32 -1.12,0.54 -1.82,0.66 -0.7,0.13 -1.46,0.19 -2.28,0.19 -0.74,0 -1.46,-0.06 -2.17,-0.18 -0.71,-0.13 -1.59,-0.35 -1.59,-0.35 -0.14,-0.04 -0.26,-0.1 -0.26,-0.15 -0.01,-0.04 0,-0.2 0.02,-0.34 l 0.24,-2.18 c 0.02,-0.14 0.15,-0.26 0.29,-0.26 h 0.89 c 0.14,0 0.29,0.11 0.32,0.25 z"
   id="path36"
   style="fill:#ffffff" />
			<path
   d="m 396.87,271.85 c -1.56,0.84 -3.4,0.91 -5.53,0.22 -1.03,-0.33 -1.89,-0.78 -2.6,-1.34 -0.71,-0.56 -1.24,-1.22 -1.61,-1.98 -0.37,-0.76 -0.56,-1.62 -0.57,-2.58 -0.01,-0.96 0.17,-2 0.53,-3.13 0.38,-1.18 0.87,-2.17 1.48,-2.96 0.6,-0.79 1.29,-1.39 2.06,-1.81 0.77,-0.41 1.62,-0.64 2.54,-0.67 0.92,-0.04 1.89,0.11 2.9,0.43 1.01,0.33 1.87,0.77 2.59,1.33 0.71,0.56 1.26,1.23 1.63,2 0.37,0.77 0.57,1.64 0.58,2.61 0.02,0.96 -0.16,2.02 -0.53,3.16 -0.76,2.31 -1.91,3.89 -3.47,4.72 z m 1.29,-10.3 c -0.38,-1.2 -1.21,-2 -2.49,-2.42 -1.3,-0.42 -2.45,-0.27 -3.46,0.45 -1,0.72 -1.84,2.09 -2.49,4.12 -0.67,2.05 -0.81,3.67 -0.44,4.87 0.37,1.2 1.21,2 2.5,2.42 1.3,0.42 2.45,0.27 3.46,-0.45 1.01,-0.72 1.84,-2.09 2.49,-4.12 0.66,-2.05 0.8,-3.67 0.43,-4.87 z"
   id="path38"
   style="fill:#ffffff" />
			<path
   d="m 405.28,276.06 c 0.22,0.26 0.47,0.51 0.77,0.76 0.3,0.25 0.57,0.44 0.81,0.57 0.85,0.46 1.61,0.64 2.29,0.53 0.68,-0.1 1.2,-0.5 1.57,-1.18 0.22,-0.41 0.32,-0.8 0.3,-1.19 -0.02,-0.38 -0.12,-0.76 -0.28,-1.13 -0.17,-0.37 -0.37,-0.73 -0.63,-1.08 -0.26,-0.36 -0.5,-0.71 -0.74,-1.08 -0.35,-0.55 -0.67,-1.05 -0.95,-1.5 -0.28,-0.45 -0.49,-0.88 -0.63,-1.3 -0.14,-0.42 -0.19,-0.83 -0.15,-1.26 0.04,-0.42 0.19,-0.88 0.45,-1.37 0.29,-0.54 0.67,-0.96 1.12,-1.24 0.45,-0.29 0.96,-0.47 1.53,-0.52 0.57,-0.06 1.18,0 1.84,0.17 0.66,0.17 1.34,0.45 2.05,0.83 0.26,0.14 0.54,0.31 0.82,0.52 0.29,0.2 0.57,0.41 0.84,0.63 0.28,0.22 0.54,0.45 0.79,0.67 0.25,0.23 0.45,0.45 0.45,0.45 0.1,0.11 0.17,0.23 0.15,0.27 -0.01,0.04 -0.09,0.18 -0.17,0.29 l -1.27,1.79 c -0.08,0.12 -0.26,0.16 -0.38,0.09 l -0.78,-0.43 c -0.13,-0.07 -0.2,-0.24 -0.16,-0.38 l 0.45,-1.68 c -0.1,-0.21 -0.28,-0.43 -0.52,-0.67 -0.25,-0.23 -0.57,-0.46 -0.98,-0.68 -0.73,-0.39 -1.4,-0.54 -2.02,-0.43 -0.62,0.11 -1.09,0.46 -1.41,1.06 -0.21,0.38 -0.31,0.74 -0.3,1.07 0.01,0.33 0.08,0.65 0.22,0.96 0.14,0.31 0.33,0.61 0.55,0.92 0.23,0.3 0.45,0.61 0.68,0.94 0.29,0.45 0.61,0.93 0.95,1.41 0.34,0.49 0.62,0.99 0.83,1.5 0.21,0.51 0.33,1.03 0.35,1.55 0.02,0.53 -0.13,1.06 -0.45,1.6 -0.42,0.69 -0.89,1.19 -1.42,1.5 -0.53,0.31 -1.09,0.48 -1.69,0.51 -0.6,0.03 -1.24,-0.07 -1.91,-0.29 -0.67,-0.23 -1.37,-0.53 -2.09,-0.92 -0.65,-0.35 -1.25,-0.75 -1.81,-1.2 -0.56,-0.45 -1.23,-1.07 -1.23,-1.07 -0.11,-0.1 -0.18,-0.21 -0.16,-0.26 0.02,-0.04 0.1,-0.17 0.18,-0.29 l 1.26,-1.8 c 0.08,-0.11 0.25,-0.15 0.38,-0.09 l 0.78,0.42 c 0.13,0.07 0.2,0.24 0.16,0.38 z"
   id="path40"
   style="fill:#ffffff" />
			<path
   d="m 420.17,285.46 c -0.09,0.11 -0.07,0.28 0.04,0.37 l 1.76,1.38 c 0.11,0.09 0.3,0.23 0.42,0.31 l 0.94,0.65 c 0.12,0.08 0.31,0.07 0.42,-0.02 l 1.15,-0.93 c 0.11,-0.09 0.3,-0.09 0.41,0 l 0.72,0.56 c 0.11,0.09 0.13,0.25 0.04,0.36 l -1.52,1.81 c -0.09,0.11 -0.21,0.24 -0.26,0.28 -0.05,0.05 -0.19,0.01 -0.3,-0.08 l -7.63,-5.98 c -0.11,-0.09 -0.13,-0.25 -0.04,-0.37 l 0.21,-0.26 c 0.09,-0.11 0.27,-0.15 0.39,-0.09 l 0.98,0.5 c 0.13,0.07 0.3,0.03 0.39,-0.09 l 7.08,-9.02 c 0.09,-0.11 0.08,-0.29 -0.01,-0.4 l -0.72,-0.83 c -0.09,-0.11 -0.1,-0.29 -0.01,-0.4 l 0.21,-0.26 c 0.09,-0.11 0.25,-0.14 0.37,-0.05 l 4.05,3.17 c 0.11,0.09 0.13,0.25 0.05,0.37 l -0.21,0.27 c -0.09,0.11 -0.26,0.15 -0.39,0.09 l -0.98,-0.5 c -0.13,-0.07 -0.31,-0.03 -0.39,0.09 z"
   id="path42"
   style="fill:#ffffff" />
			<path
   d="m 437.11,301.52 c -1.77,-0.08 -3.39,-0.95 -4.87,-2.63 -0.71,-0.81 -1.23,-1.63 -1.55,-2.47 -0.32,-0.84 -0.45,-1.68 -0.38,-2.53 0.07,-0.85 0.35,-1.68 0.82,-2.51 0.48,-0.83 1.16,-1.64 2.05,-2.42 0.93,-0.82 1.86,-1.42 2.78,-1.8 0.92,-0.38 1.82,-0.55 2.69,-0.51 0.87,0.04 1.71,0.28 2.53,0.72 0.81,0.44 1.57,1.05 2.27,1.85 0.7,0.8 1.22,1.62 1.55,2.46 0.33,0.85 0.45,1.7 0.38,2.55 -0.07,0.86 -0.35,1.7 -0.83,2.54 -0.48,0.84 -1.17,1.65 -2.07,2.45 -1.81,1.61 -3.6,2.38 -5.37,2.3 z m 6.35,-8.21 c 0.29,-1.22 -0.02,-2.34 -0.91,-3.35 -0.9,-1.02 -1.97,-1.48 -3.2,-1.37 -1.23,0.11 -2.65,0.87 -4.24,2.27 -1.62,1.43 -2.57,2.75 -2.86,3.97 -0.29,1.22 0.01,2.34 0.92,3.36 0.9,1.02 1.97,1.48 3.2,1.37 1.23,-0.11 2.65,-0.86 4.24,-2.27 1.62,-1.43 2.57,-2.75 2.85,-3.98 z"
   id="path44"
   style="fill:#ffffff" />
			<path
   d="m 449.33,310.52 c 0.11,-0.09 0.14,-0.27 0.07,-0.39 l -1.55,-2.64 -5.11,3.08 1.67,2.81 c 0.07,0.12 0.2,0.32 0.28,0.44 l 0.64,0.94 c 0.08,0.12 0.26,0.18 0.39,0.14 l 1.4,-0.46 c 0.13,-0.04 0.31,0.02 0.38,0.14 l 0.48,0.8 c 0.07,0.12 0.03,0.28 -0.1,0.35 l -2.07,1.14 c -0.13,0.07 -0.28,0.14 -0.34,0.17 -0.06,0.02 -0.18,-0.06 -0.25,-0.18 l -5.37,-9.04 c -0.07,-0.12 -0.03,-0.28 0.09,-0.36 l 0.29,-0.17 c 0.12,-0.07 0.3,-0.05 0.4,0.06 l 0.73,0.83 c 0.09,0.11 0.27,0.13 0.4,0.06 l 9.86,-5.86 c 0.12,-0.07 0.18,-0.24 0.14,-0.38 l -0.37,-1.04 c -0.05,-0.14 0.01,-0.3 0.14,-0.38 l 0.29,-0.17 c 0.12,-0.07 0.28,-0.03 0.36,0.09 l 5.12,8.62 c 0.07,0.12 0.13,0.28 0.12,0.36 -0.01,0.07 -0.11,0.2 -0.23,0.28 l -2.06,1.32 c -0.12,0.08 -0.28,0.04 -0.35,-0.08 l -0.47,-0.78 c -0.07,-0.12 -0.05,-0.3 0.06,-0.4 l 1.12,-1.05 c 0.1,-0.1 0.14,-0.28 0.07,-0.41 l -0.53,-1.03 c -0.06,-0.13 -0.18,-0.33 -0.25,-0.45 l -1.51,-2.55 -4.52,2.7 1.56,2.63 c 0.07,0.12 0.24,0.18 0.38,0.13 l 1.03,-0.39 c 0.13,-0.05 0.3,0.01 0.38,0.14 l 0.39,0.66 c 0.07,0.13 0.03,0.28 -0.09,0.36 l -3.33,1.98 c -0.12,0.07 -0.28,0.03 -0.36,-0.09 l -0.39,-0.66 c -0.07,-0.12 -0.04,-0.3 0.07,-0.39 z"
   id="path46"
   style="fill:#ffffff" />
			<path
   d="m 280.36,304.41 c -0.13,-0.06 -0.3,0 -0.38,0.12 l -1.68,2.56 5.02,3.23 1.79,-2.74 c 0.08,-0.12 0.2,-0.32 0.27,-0.45 l 0.56,-0.99 c 0.07,-0.13 0.05,-0.31 -0.05,-0.41 l -1.03,-1.05 c -0.1,-0.1 -0.12,-0.28 -0.04,-0.4 l 0.51,-0.78 c 0.08,-0.12 0.24,-0.15 0.36,-0.07 l 1.94,1.36 c 0.12,0.08 0.25,0.19 0.3,0.23 0.05,0.05 0.03,0.18 -0.05,0.3 l -5.74,8.81 c -0.08,0.12 -0.24,0.15 -0.36,0.07 l -0.28,-0.18 c -0.12,-0.08 -0.17,-0.25 -0.12,-0.38 l 0.42,-1.02 c 0.05,-0.13 0,-0.3 -0.12,-0.38 l -9.61,-6.26 c -0.12,-0.08 -0.3,-0.06 -0.4,0.05 l -0.77,0.79 c -0.1,0.1 -0.28,0.12 -0.4,0.04 l -0.28,-0.18 c -0.12,-0.08 -0.15,-0.24 -0.08,-0.36 l 5.48,-8.4 c 0.08,-0.12 0.2,-0.24 0.27,-0.27 0.07,-0.03 0.23,0.01 0.35,0.09 l 2.1,1.27 c 0.12,0.07 0.16,0.23 0.08,0.35 l -0.5,0.76 c -0.08,0.12 -0.25,0.18 -0.39,0.13 l -1.44,-0.53 c -0.13,-0.05 -0.31,0 -0.4,0.12 l -0.69,0.93 c -0.09,0.12 -0.22,0.31 -0.3,0.43 l -1.63,2.48 4.42,2.87 1.67,-2.56 c 0.08,-0.12 0.06,-0.3 -0.05,-0.39 l -0.8,-0.76 c -0.1,-0.1 -0.12,-0.28 -0.05,-0.4 l 0.42,-0.64 c 0.08,-0.12 0.24,-0.16 0.36,-0.08 l 3.25,2.12 c 0.12,0.08 0.16,0.24 0.08,0.36 l -0.42,0.65 c -0.08,0.12 -0.25,0.17 -0.38,0.11 z"
   id="path48"
   style="fill:#ffffff" />
			<path
   d="m 463.07,321.79 c 0.05,0.13 0.02,0.34 -0.07,0.46 l -7.32,10.14 8.52,-2.97 c 0.13,-0.05 0.23,-0.2 0.21,-0.34 l -0.16,-1.09 c -0.02,-0.14 0.07,-0.3 0.21,-0.34 l 0.32,-0.11 c 0.14,-0.05 0.29,0.03 0.33,0.16 l 1.45,4.18 c 0.05,0.14 -0.03,0.29 -0.16,0.33 l -0.32,0.11 c -0.13,0.05 -0.3,-0.01 -0.38,-0.14 l -0.56,-0.98 c -0.07,-0.12 -0.24,-0.19 -0.38,-0.14 l -12.06,4.17 c -0.14,0.05 -0.28,-0.03 -0.33,-0.16 l -0.41,-1.19 c -0.05,-0.14 -0.02,-0.34 0.07,-0.46 l 8.49,-11.61 -9.91,3.43 c -0.14,0.05 -0.23,0.2 -0.21,0.34 l 0.16,1.09 c 0.02,0.14 -0.07,0.3 -0.21,0.34 l -0.32,0.11 c -0.14,0.05 -0.29,-0.02 -0.33,-0.16 l -1.45,-4.18 c -0.05,-0.13 0.02,-0.29 0.16,-0.33 l 0.32,-0.11 c 0.13,-0.05 0.3,0.01 0.37,0.14 l 0.56,0.97 c 0.07,0.12 0.24,0.19 0.38,0.14 l 10.84,-3.75 c 0.14,-0.05 0.23,-0.2 0.21,-0.34 l -0.16,-1.11 c -0.02,-0.14 0.07,-0.3 0.21,-0.34 l 0.32,-0.11 c 0.14,-0.04 0.28,0.03 0.33,0.16 z"
   id="path50"
   style="fill:#ffffff" />
			<path
   d="m 455.55,343.72 c -0.08,0.32 -0.12,0.68 -0.14,1.07 -0.02,0.39 -0.01,0.72 0.03,0.99 0.14,0.95 0.45,1.67 0.94,2.15 0.49,0.48 1.12,0.67 1.89,0.56 0.46,-0.07 0.83,-0.22 1.13,-0.48 0.29,-0.25 0.54,-0.55 0.74,-0.9 0.2,-0.35 0.36,-0.74 0.49,-1.16 0.13,-0.42 0.27,-0.83 0.42,-1.24 0.23,-0.61 0.44,-1.17 0.63,-1.66 0.19,-0.5 0.41,-0.92 0.66,-1.29 0.25,-0.36 0.56,-0.65 0.92,-0.87 0.36,-0.22 0.82,-0.37 1.37,-0.45 0.61,-0.09 1.16,-0.04 1.66,0.15 0.5,0.19 0.95,0.49 1.33,0.91 0.38,0.42 0.7,0.94 0.96,1.58 0.26,0.63 0.44,1.35 0.56,2.14 0.04,0.3 0.07,0.62 0.08,0.96 0.01,0.35 0.01,0.7 0,1.05 -0.01,0.35 -0.04,0.7 -0.07,1.03 -0.04,0.34 -0.09,0.63 -0.09,0.63 -0.03,0.14 -0.08,0.27 -0.13,0.29 -0.04,0.02 -0.2,0.04 -0.34,0.04 l -2.2,0.05 c -0.14,0 -0.28,-0.11 -0.3,-0.25 l -0.13,-0.88 c -0.02,-0.14 0.07,-0.3 0.21,-0.36 l 1.61,-0.64 c 0.11,-0.21 0.18,-0.48 0.22,-0.81 0.04,-0.34 0.03,-0.73 -0.04,-1.2 -0.12,-0.82 -0.4,-1.45 -0.86,-1.88 -0.46,-0.43 -1.02,-0.59 -1.69,-0.5 -0.43,0.06 -0.78,0.19 -1.04,0.4 -0.26,0.2 -0.47,0.45 -0.64,0.75 -0.16,0.3 -0.3,0.63 -0.41,0.99 -0.11,0.36 -0.22,0.73 -0.35,1.1 -0.19,0.51 -0.38,1.05 -0.56,1.61 -0.19,0.56 -0.42,1.08 -0.71,1.56 -0.28,0.47 -0.63,0.88 -1.03,1.21 -0.41,0.33 -0.92,0.53 -1.55,0.59 -0.8,0.08 -1.49,0 -2.05,-0.24 -0.56,-0.24 -1.04,-0.58 -1.42,-1.04 -0.38,-0.46 -0.69,-1.03 -0.91,-1.71 -0.22,-0.67 -0.39,-1.42 -0.51,-2.23 -0.1,-0.73 -0.14,-1.45 -0.12,-2.17 0.03,-0.72 0.13,-1.62 0.13,-1.62 0.02,-0.14 0.06,-0.27 0.11,-0.28 0.04,-0.01 0.2,-0.02 0.34,-0.03 l 2.2,-0.06 c 0.14,-0.01 0.28,0.11 0.3,0.25 l 0.13,0.88 c 0.02,0.14 -0.07,0.3 -0.2,0.36 z"
   id="path52"
   style="fill:#ffffff" />
			<path
   d="m 469.32,363.04 c -0.14,0 -0.28,-0.11 -0.31,-0.25 l -0.22,-1.08 c -0.03,-0.14 -0.17,-0.25 -0.31,-0.25 l -11.47,0.05 c -0.15,0 -0.28,0.12 -0.31,0.26 l -0.2,1.08 c -0.03,0.14 -0.16,0.26 -0.31,0.26 h -0.34 c -0.14,0 -0.26,-0.12 -0.26,-0.26 l -0.02,-5.16 c 0,-0.14 0.12,-0.26 0.26,-0.26 h 0.34 c 0.14,0 0.28,0.11 0.31,0.25 l 0.21,1.08 c 0.03,0.14 0.17,0.25 0.31,0.25 l 11.47,-0.05 c 0.14,0 0.28,-0.12 0.31,-0.26 l 0.2,-1.08 c 0.03,-0.14 0.17,-0.26 0.31,-0.26 h 0.34 c 0.15,0 0.26,0.12 0.26,0.26 l 0.02,5.16 c 0,0.14 -0.12,0.26 -0.26,0.26 z"
   id="path54"
   style="fill:#ffffff" />
			<path
   d="m 456.19,371.77 c -0.17,0.29 -0.32,0.62 -0.45,0.98 -0.13,0.36 -0.22,0.68 -0.26,0.95 -0.15,0.95 -0.06,1.73 0.27,2.34 0.32,0.6 0.87,0.96 1.64,1.08 0.46,0.07 0.87,0.03 1.22,-0.12 0.35,-0.15 0.68,-0.37 0.97,-0.64 0.29,-0.28 0.56,-0.6 0.81,-0.96 0.25,-0.36 0.5,-0.71 0.77,-1.06 0.4,-0.51 0.76,-0.98 1.09,-1.4 0.33,-0.42 0.66,-0.76 1.01,-1.03 0.35,-0.27 0.72,-0.46 1.14,-0.57 0.41,-0.11 0.89,-0.12 1.44,-0.03 0.61,0.09 1.12,0.31 1.55,0.63 0.43,0.33 0.76,0.75 1,1.27 0.24,0.51 0.4,1.11 0.45,1.79 0.06,0.68 0.03,1.42 -0.1,2.21 -0.04,0.3 -0.12,0.61 -0.21,0.95 -0.09,0.34 -0.2,0.67 -0.31,1 -0.11,0.34 -0.24,0.65 -0.37,0.97 -0.13,0.31 -0.27,0.57 -0.27,0.57 -0.07,0.13 -0.16,0.23 -0.21,0.24 -0.05,0 -0.2,-0.03 -0.34,-0.06 l -2.12,-0.6 c -0.14,-0.04 -0.23,-0.19 -0.21,-0.33 l 0.14,-0.88 c 0.02,-0.14 0.16,-0.26 0.3,-0.28 l 1.73,-0.14 c 0.16,-0.17 0.31,-0.41 0.45,-0.71 0.14,-0.31 0.24,-0.69 0.32,-1.15 0.13,-0.82 0.04,-1.5 -0.27,-2.05 -0.31,-0.54 -0.8,-0.87 -1.47,-0.97 -0.43,-0.07 -0.8,-0.04 -1.11,0.07 -0.31,0.12 -0.59,0.29 -0.83,0.53 -0.24,0.24 -0.47,0.51 -0.68,0.82 -0.21,0.31 -0.43,0.63 -0.66,0.95 -0.33,0.43 -0.67,0.89 -1.01,1.37 -0.35,0.48 -0.72,0.91 -1.13,1.28 -0.41,0.37 -0.86,0.65 -1.35,0.85 -0.48,0.2 -1.04,0.24 -1.65,0.11 -0.79,-0.17 -1.42,-0.44 -1.89,-0.83 -0.47,-0.39 -0.82,-0.87 -1.05,-1.42 -0.23,-0.55 -0.35,-1.19 -0.36,-1.9 -0.01,-0.71 0.05,-1.47 0.17,-2.28 0.11,-0.73 0.29,-1.43 0.53,-2.11 0.24,-0.68 0.6,-1.51 0.6,-1.51 0.06,-0.13 0.14,-0.24 0.19,-0.24 0.04,0 0.2,0.03 0.33,0.07 l 2.12,0.58 c 0.14,0.04 0.23,0.18 0.21,0.33 l -0.14,0.88 c -0.02,0.14 -0.16,0.27 -0.3,0.28 z"
   id="path56"
   style="fill:#ffffff" />
		</g>
		<g
   id="g74"
   style="fill:#ffffff">
			<path
   d="m 301.44,445.62 c 0.13,0.06 0.3,0.01 0.38,-0.11 l 5.9,-8.48 -10.99,6.23 c -0.13,0.07 -0.32,0.05 -0.43,-0.04 l -0.44,-0.36 c -0.11,-0.09 -0.17,-0.28 -0.14,-0.42 l 3.18,-11.87 -6.67,7.27 c -0.1,0.1 -0.12,0.28 -0.03,0.39 l 0.67,0.91 c 0.09,0.12 0.08,0.3 -0.02,0.4 l -0.23,0.24 c -0.1,0.1 -0.26,0.11 -0.37,0.01 L 289,436.76 c -0.11,-0.1 -0.11,-0.26 -0.01,-0.37 l 0.23,-0.25 c 0.1,-0.1 0.28,-0.13 0.4,-0.05 l 0.94,0.59 c 0.12,0.07 0.3,0.05 0.4,-0.05 l 7.55,-8.38 c 0.1,-0.11 0.1,-0.28 0,-0.39 l -0.71,-0.85 c -0.09,-0.11 -0.09,-0.29 0,-0.4 l 0.21,-0.26 c 0.09,-0.11 0.26,-0.13 0.37,-0.04 l 3.4,2.76 c 0.11,0.09 0.17,0.28 0.14,0.42 l -2.71,10.45 9.31,-5.07 c 0.13,-0.07 0.32,-0.05 0.43,0.04 l 3.26,2.65 c 0.11,0.09 0.13,0.25 0.04,0.36 l -0.21,0.26 c -0.09,0.11 -0.27,0.15 -0.39,0.08 l -0.98,-0.53 c -0.13,-0.07 -0.3,-0.03 -0.39,0.08 l -6.44,9.15 c -0.08,0.12 -0.07,0.3 0.03,0.41 l 0.76,0.81 c 0.1,0.1 0.11,0.28 0.02,0.4 l -0.2,0.27 c -0.09,0.12 -0.25,0.14 -0.36,0.06 l -4.19,-3.07 c -0.11,-0.08 -0.14,-0.25 -0.06,-0.36 l 0.2,-0.27 c 0.08,-0.12 0.26,-0.16 0.39,-0.1 z"
   id="path60"
   style="fill:#ffffff" />
			<path
   d="m 326.06,444.89 c 1.01,0.51 1.89,1.09 2.65,1.74 0.75,0.64 1.32,1.37 1.7,2.17 0.38,0.8 0.55,1.69 0.51,2.66 -0.05,0.98 -0.37,2.05 -0.97,3.23 -0.56,1.1 -1.22,1.98 -1.98,2.63 -0.76,0.65 -1.58,1.09 -2.47,1.31 -0.89,0.22 -1.83,0.24 -2.83,0.06 -1,-0.18 -2.85,-0.97 -2.85,-0.97 -0.13,-0.06 -0.34,-0.15 -0.47,-0.22 l -4.96,-2.54 c -0.13,-0.06 -0.18,-0.22 -0.11,-0.35 l 0.15,-0.3 c 0.06,-0.13 0.23,-0.2 0.37,-0.16 l 1.07,0.31 c 0.14,0.04 0.3,-0.03 0.37,-0.16 l 5.21,-10.18 c 0.07,-0.13 0.03,-0.3 -0.09,-0.39 l -0.87,-0.68 c -0.11,-0.09 -0.15,-0.26 -0.09,-0.39 l 0.15,-0.3 c 0.07,-0.13 0.22,-0.18 0.35,-0.11 z m 2.33,6.03 c 0.14,-0.79 0.12,-1.51 -0.05,-2.15 -0.18,-0.64 -0.52,-1.22 -1.01,-1.72 -0.5,-0.51 -1.73,-1.24 -1.73,-1.24 -0.12,-0.08 -0.33,-0.19 -0.46,-0.25 l -1.3,-0.67 -5.53,10.81 1.24,0.64 c 0.6,0.3 1.18,0.55 1.73,0.74 0.56,0.18 1.09,0.27 1.61,0.26 0.82,-0.07 1.62,-0.39 2.41,-0.96 0.79,-0.58 1.51,-1.51 2.16,-2.79 0.48,-0.99 0.79,-1.88 0.93,-2.67 z"
   id="path62"
   style="fill:#ffffff" />
			<path
   d="m 350.52,454.96 c -0.03,-0.48 -0.02,-0.56 -0.03,-0.9 -0.02,-0.42 -0.15,-0.57 -0.57,-0.84 -0.17,-0.1 -0.35,-0.19 -0.54,-0.27 -0.31,-0.14 -0.66,-0.25 -1.05,-0.32 -0.71,-0.13 -1.38,-0.12 -2.01,0.02 -0.63,0.14 -1.19,0.42 -1.69,0.84 -0.5,0.42 -0.93,0.98 -1.29,1.68 -0.36,0.7 -0.62,1.55 -0.8,2.52 -0.38,2.08 -0.23,3.69 0.44,4.85 0.67,1.16 1.84,1.89 3.49,2.19 0.48,0.09 1.01,0.12 1.58,0.1 0.49,-0.02 1.04,-0.09 1.68,-0.17 0.33,-0.04 0.36,0.2 0.36,0.2 l 0.04,0.26 c 0,0 0.03,0.3 -0.22,0.4 -0.56,0.21 -1.2,0.36 -1.91,0.46 -0.83,0.11 -1.73,0.08 -2.72,-0.1 -0.94,-0.17 -1.8,-0.46 -2.58,-0.86 -0.78,-0.41 -1.41,-0.94 -1.92,-1.62 -0.5,-0.67 -0.85,-1.49 -1.04,-2.45 -0.19,-0.96 -0.16,-2.08 0.07,-3.37 0.24,-1.3 0.63,-2.38 1.18,-3.25 0.55,-0.86 1.22,-1.54 2.01,-2.03 0.78,-0.49 1.66,-0.79 2.64,-0.92 0.98,-0.13 2.01,-0.09 3.1,0.11 0.74,0.14 1.42,0.33 2.04,0.59 0.43,0.18 0.84,0.36 1.22,0.55 0.53,0.26 0.39,0.71 0.39,0.71 l -0.57,1.88 c 0,0 -0.14,0.41 -0.5,0.35 -0.32,-0.06 -0.52,-0.09 -0.52,-0.09 0,0 -0.25,-0.04 -0.28,-0.52 z"
   id="path64"
   style="fill:#ffffff" />
			<path
   d="m 372.31,455.44 c -0.14,-0.46 -0.15,-0.54 -0.24,-0.87 -0.12,-0.4 -0.29,-0.52 -0.76,-0.68 -0.18,-0.06 -0.38,-0.11 -0.59,-0.14 -0.33,-0.06 -0.7,-0.08 -1.09,-0.06 -0.73,0.04 -1.37,0.21 -1.95,0.49 -0.57,0.29 -1.05,0.69 -1.44,1.22 -0.39,0.53 -0.67,1.18 -0.85,1.94 -0.18,0.77 -0.24,1.65 -0.18,2.64 0.12,2.1 0.65,3.64 1.58,4.61 0.93,0.96 2.23,1.4 3.91,1.3 0.49,-0.03 1.01,-0.12 1.56,-0.28 0.47,-0.13 0.99,-0.33 1.59,-0.56 0.31,-0.12 0.4,0.11 0.4,0.11 l 0.09,0.24 c 0,0 0.1,0.28 -0.12,0.44 -0.49,0.34 -1.08,0.63 -1.75,0.9 -0.78,0.3 -1.66,0.49 -2.66,0.55 -0.96,0.06 -1.86,-0.02 -2.71,-0.23 -0.85,-0.21 -1.6,-0.58 -2.25,-1.11 -0.65,-0.53 -1.18,-1.25 -1.59,-2.13 -0.41,-0.89 -0.65,-1.99 -0.73,-3.29 -0.08,-1.32 0.05,-2.46 0.38,-3.43 0.33,-0.97 0.82,-1.79 1.47,-2.45 0.65,-0.66 1.43,-1.16 2.35,-1.52 0.92,-0.35 1.93,-0.57 3.04,-0.63 0.75,-0.05 1.46,-0.02 2.12,0.09 0.46,0.07 0.9,0.15 1.32,0.24 0.58,0.13 0.55,0.6 0.55,0.6 l -0.11,1.96 c 0,0 -0.03,0.43 -0.4,0.46 -0.33,0.02 -0.52,0.03 -0.52,0.03 0,0 -0.27,0.02 -0.42,-0.44 z"
   id="path66"
   style="fill:#ffffff" />
			<path
   d="m 393.57,450.96 c -0.24,-0.42 -0.26,-0.5 -0.42,-0.8 -0.2,-0.37 -0.39,-0.45 -0.88,-0.51 -0.19,-0.03 -0.4,-0.02 -0.61,-0.02 -0.34,0.01 -0.7,0.07 -1.08,0.17 -0.7,0.19 -1.3,0.49 -1.8,0.89 -0.5,0.4 -0.88,0.89 -1.15,1.49 -0.27,0.6 -0.41,1.29 -0.42,2.08 -0.02,0.79 0.11,1.66 0.37,2.62 0.56,2.03 1.4,3.42 2.51,4.17 1.11,0.75 2.48,0.9 4.1,0.45 0.47,-0.13 0.96,-0.33 1.46,-0.59 0.43,-0.23 0.9,-0.53 1.44,-0.88 0.28,-0.18 0.42,0.02 0.42,0.02 l 0.14,0.22 c 0,0 0.16,0.25 -0.02,0.45 -0.41,0.43 -0.92,0.84 -1.52,1.24 -0.7,0.47 -1.52,0.83 -2.49,1.1 -0.92,0.25 -1.82,0.37 -2.69,0.34 -0.87,-0.03 -1.68,-0.23 -2.43,-0.61 -0.75,-0.39 -1.41,-0.97 -2,-1.75 -0.59,-0.78 -1.06,-1.81 -1.4,-3.06 -0.35,-1.27 -0.47,-2.42 -0.35,-3.44 0.12,-1.02 0.43,-1.92 0.92,-2.7 0.49,-0.78 1.15,-1.44 1.98,-1.98 0.82,-0.53 1.77,-0.95 2.84,-1.25 0.72,-0.2 1.42,-0.32 2.09,-0.36 0.47,-0.03 0.92,-0.04 1.34,-0.04 0.59,0 0.66,0.47 0.66,0.47 l 0.31,1.94 c 0,0 0.06,0.43 -0.3,0.53 -0.32,0.09 -0.51,0.14 -0.51,0.14 0,0 -0.27,0.08 -0.51,-0.33 z"
   id="path68"
   style="fill:#ffffff" />
			<path
   d="m 411.26,447.49 -6.31,-2.86 c -0.13,-0.06 -0.35,-0.07 -0.49,-0.03 l -0.95,0.29 c -0.14,0.04 -0.31,-0.02 -0.38,-0.15 l -0.17,-0.29 c -0.07,-0.13 -0.03,-0.28 0.1,-0.36 l 4.54,-2.58 c 0.12,-0.07 0.28,-0.03 0.36,0.09 l 0.17,0.3 c 0.07,0.12 0.04,0.3 -0.06,0.4 l -0.56,0.52 c -0.11,0.1 -0.09,0.23 0.04,0.29 l 4.5,2.14 0.55,-5.02 c 0.02,-0.14 -0.08,-0.23 -0.22,-0.18 l -0.79,0.25 c -0.14,0.04 -0.31,-0.02 -0.38,-0.15 l -0.17,-0.29 c -0.07,-0.13 -0.03,-0.29 0.1,-0.36 l 3.6,-2.05 c 0.12,-0.07 0.28,-0.03 0.35,0.1 l 0.17,0.29 c 0.07,0.12 0.04,0.3 -0.07,0.4 l -0.82,0.72 c -0.11,0.09 -0.21,0.29 -0.22,0.43 l -0.7,6.39 6.99,3.25 c 0.13,0.06 0.35,0.07 0.49,0.03 l 0.97,-0.3 c 0.14,-0.04 0.31,0.02 0.38,0.15 l 0.17,0.29 c 0.07,0.12 0.03,0.28 -0.1,0.35 l -4.56,2.6 c -0.13,0.07 -0.28,0.03 -0.35,-0.1 l -0.17,-0.29 c -0.07,-0.13 -0.04,-0.31 0.07,-0.4 l 0.61,-0.55 c 0.11,-0.1 0.09,-0.23 -0.04,-0.29 l -5.25,-2.52 -0.64,5.88 c -0.02,0.14 0.08,0.22 0.22,0.18 l 0.75,-0.23 c 0.14,-0.04 0.31,0.02 0.38,0.15 l 0.17,0.29 c 0.07,0.12 0.03,0.28 -0.1,0.35 l -3.62,2.06 c -0.12,0.07 -0.28,0.03 -0.35,-0.1 l -0.17,-0.29 c -0.07,-0.13 -0.04,-0.3 0.07,-0.4 l 0.82,-0.72 c 0.11,-0.09 0.21,-0.29 0.23,-0.43 z"
   id="path70"
   style="fill:#ffffff" />
			<path
   d="m 426.9,428.29 c 0.09,0.11 0.1,0.29 0.01,0.4 l -0.68,0.88 c -0.09,0.11 -0.08,0.3 0.01,0.4 l 7.57,8.58 c 0.09,0.11 0.27,0.14 0.4,0.06 l 0.95,-0.56 c 0.12,-0.07 0.3,-0.05 0.4,0.06 l 0.22,0.25 c 0.09,0.11 0.08,0.27 -0.02,0.37 l -3.89,3.43 c -0.11,0.09 -0.27,0.09 -0.37,-0.02 l -0.22,-0.25 c -0.1,-0.11 -0.1,-0.29 -0.01,-0.4 l 0.68,-0.88 c 0.09,-0.11 0.08,-0.29 -0.01,-0.4 l -7.57,-8.58 c -0.09,-0.11 -0.27,-0.14 -0.4,-0.06 l -0.95,0.56 c -0.13,0.07 -0.3,0.04 -0.4,-0.06 l -0.22,-0.25 c -0.09,-0.11 -0.08,-0.27 0.02,-0.37 l 3.89,-3.43 c 0.11,-0.1 0.27,-0.08 0.37,0.02 z"
   id="path72"
   style="fill:#ffffff" />
		</g>
		<g
   id="g78"
   style="fill:#ffffff">
			<path
   d="m 297.9,293.89 c 0.14,0.02 0.34,-0.04 0.43,-0.14 l 2.16,-2.27 c 0.1,-0.11 0.09,-0.27 -0.01,-0.37 l -0.24,-0.23 c -0.11,-0.1 -0.29,-0.11 -0.4,-0.03 l -0.82,0.57 c -0.12,0.08 -0.33,0.13 -0.47,0.11 l -6.46,-1.05 c -0.14,-0.02 -0.21,-0.15 -0.15,-0.28 0,0 0.79,-1.7 0.76,-2.59 -0.03,-0.89 -0.43,-1.69 -1.19,-2.42 -0.54,-0.52 -1.09,-0.82 -1.64,-0.9 -0.55,-0.08 -1.09,-0.02 -1.62,0.17 -0.53,0.19 -1.03,0.49 -1.52,0.88 -0.49,0.39 -1.18,1.07 -1.18,1.07 -0.1,0.1 -0.27,0.27 -0.37,0.37 l -3.8,3.99 c -0.1,0.11 -0.09,0.27 0.01,0.37 l 0.24,0.23 c 0.1,0.1 0.28,0.11 0.4,0.03 l 0.91,-0.66 c 0.12,-0.08 0.3,-0.07 0.4,0.03 l 8.31,7.91 c 0.1,0.1 0.12,0.28 0.05,0.4 l -0.61,0.94 c -0.08,0.12 -0.06,0.3 0.05,0.4 l 0.25,0.23 c 0.1,0.1 0.27,0.09 0.37,-0.01 l 3.56,-3.74 c 0.1,-0.1 0.09,-0.27 -0.01,-0.37 l -0.25,-0.24 c -0.1,-0.1 -0.28,-0.11 -0.4,-0.03 l -0.9,0.64 c -0.12,0.08 -0.3,0.07 -0.4,-0.03 l -3.83,-3.64 0.57,-0.6 c 0.1,-0.1 0.3,-0.17 0.44,-0.14 z m -8.83,-1.45 c -0.1,0.11 -0.17,0.17 -0.17,0.17 l -4.13,-3.91 0.74,-0.77 c 0.1,-0.11 0.26,-0.27 0.37,-0.37 0,0 0.45,-0.44 0.77,-0.68 0.32,-0.23 0.64,-0.39 0.97,-0.46 0.33,-0.07 0.67,-0.05 1.02,0.07 0.35,0.12 0.71,0.36 1.09,0.71 0.82,0.78 1.21,1.54 1.16,2.28 -0.04,0.74 -0.98,2.02 -0.98,2.02 -0.08,0.12 -0.24,0.3 -0.33,0.4 z"
   id="path76"
   style="fill:#ffffff" />
		</g>
	</g>
</g>
<g
   id="Outline"
   transform="translate(-243.40047,-240.40047)"
   style="fill:#ffffff">
	<g
   id="g119"
   style="fill:#ffffff">
		<path
   d="m 533.16,301.42 v -1.22 h 22.78 v 1.22 c -6.6,0.82 -6.73,1.63 -6.73,8.77 v 19.65 c 0,10.67 3.6,16.66 12.85,16.66 10,0 13.4,-7 13.6,-17.2 v -19.17 c 0,-7 -0.14,-7.89 -6.73,-8.7 v -1.22 h 16.66 v 1.22 c -6.6,0.82 -6.73,1.7 -6.73,8.7 v 19.04 c 0,14.75 -6.87,21.21 -19.04,21.21 -13.53,0 -19.92,-7 -19.92,-19.58 v -20.6 c 0,-7.02 -0.14,-7.97 -6.74,-8.78 z"
   id="path83"
   style="fill:#ffffff" />
		<path
   d="m 623.53,301.42 v -1.22 h 16.66 v 1.22 c -6.6,0.82 -6.73,1.7 -6.73,8.7 v 39.37 h -5.71 l -28.96,-37.46 v 27.54 c 0,7 0.14,7.89 6.73,8.7 v 1.22 h -16.66 v -1.22 c 6.6,-0.82 6.73,-1.7 6.73,-8.7 v -31.69 l -1.16,-1.5 c -2.38,-3.13 -3.67,-4.42 -5.58,-5.17 v -1.02 h 12.65 l 28.76,36.99 v -27.06 c 0,-7 -0.13,-7.89 -6.73,-8.7 z"
   id="path85"
   style="fill:#ffffff" />
		<path
   d="m 660.39,339.56 c 0,7 0.14,7.89 6.73,8.7 v 1.22 h -22.78 v -1.22 c 6.6,-0.82 6.73,-1.7 6.73,-8.7 v -29.44 c 0,-7 -0.14,-7.89 -6.73,-8.7 v -1.22 h 22.78 v 1.22 c -6.6,0.82 -6.73,1.7 -6.73,8.7 z"
   id="path87"
   style="fill:#ffffff" />
		<path
   d="m 677.6,308.08 c -1.9,-4.96 -2.72,-6.12 -6.94,-6.66 v -1.22 h 21.01 v 1.22 c -4.28,0.54 -5.58,1.77 -4.35,5.17 l 11.97,32.7 8.29,-24 c 4.42,-12.78 2.52,-13.33 -2.72,-13.87 v -1.22 h 15.71 v 1.22 c -4.56,0.54 -5.24,1.43 -8.77,11.56 l -12.85,36.51 h -5.51 z"
   id="path89"
   style="fill:#ffffff" />
		<path
   d="M 749.33,349.49 H 724.1 v -1.22 c 6.6,-0.82 6.73,-1.7 6.73,-8.7 v -29.44 c 0,-7 -0.14,-7.89 -6.73,-8.7 v -1.22 h 24.54 c 4.69,0 10.74,0 16.05,-0.2 l 1.63,16.25 h -1.36 c -3.4,-11.49 -8.02,-13.6 -21.21,-13.6 h -3.6 v 19.92 h 7.96 c 3.88,0 6.32,-1.9 7,-7.62 h 1.22 v 18.22 h -1.22 c -0.68,-5.71 -3.13,-7.62 -7,-7.62 h -7.96 v 18.63 c 0,2.38 0.48,2.92 3.47,2.92 h 2.58 c 12.38,0 16.73,-2.79 20.4,-13.8 h 1.29 l -2.72,16.25 c -5.43,-0.07 -11.01,-0.07 -15.84,-0.07 z"
   id="path91"
   style="fill:#ffffff" />
		<path
   d="m 774.22,348.26 c 6.6,-0.82 6.73,-1.7 6.73,-8.7 v -29.44 c 0,-7 -0.14,-7.89 -6.73,-8.7 v -1.22 h 8.7 c 3.33,0 10.2,-0.07 12.31,-0.07 12.58,0 22.3,3.4 22.3,12.99 0,6.6 -4.96,10.47 -12.31,12.24 l 10.54,16.32 c 3.13,4.83 4.15,6.05 8.91,6.6 v 1.22 h -15.23 c -1.29,-2.52 -3.4,-6.26 -5.64,-9.93 l -2.92,-4.56 c -2.86,-4.49 -4.35,-6.8 -5.71,-8.64 h -4.89 v 13.19 c 0,7 0.13,7.89 7.41,8.7 v 1.22 h -23.46 v -1.22 z m 20.6,-45.69 h -4.55 v 21.35 h 4.55 c 7.82,0 12.38,-2.72 12.38,-10.67 0,-7.95 -4.56,-10.68 -12.38,-10.68 z"
   id="path93"
   style="fill:#ffffff" />
		<path
   d="m 829.98,346.7 v -16.59 h 1.36 c 1.9,12.65 6.94,17.75 15.03,17.75 5.98,0 10.95,-2.92 10.95,-9.04 0,-4.62 -3.67,-7 -9.11,-9.59 l -6.05,-2.86 c -7.21,-3.4 -11.76,-7.89 -11.76,-14.48 0,-7.82 7.41,-13.26 16.93,-13.26 4.89,0 11.29,1.36 14.62,3.4 v 13.94 h -1.36 c -1.9,-9.72 -6.59,-14.82 -13.33,-14.82 -5.51,0 -9.38,2.58 -9.38,7.34 0,4.69 3.2,6.87 6.8,8.57 l 7.21,3.4 c 7.55,3.54 13.19,7.28 13.19,14.69 0,8.91 -8.5,15.23 -18.7,15.23 -6.68,-0.01 -12.45,-1.57 -16.4,-3.68 z"
   id="path95"
   style="fill:#ffffff" />
		<path
   d="m 887.58,339.56 c 0,7 0.13,7.89 6.73,8.7 v 1.22 h -22.78 v -1.22 c 6.6,-0.82 6.73,-1.7 6.73,-8.7 v -29.44 c 0,-7 -0.14,-7.89 -6.73,-8.7 v -1.22 h 22.78 v 1.22 c -6.6,0.82 -6.73,1.7 -6.73,8.7 z"
   id="path97"
   style="fill:#ffffff" />
		<path
   d="m 911.99,348.26 c 7.21,-0.82 7.48,-1.9 7.48,-8.7 v -37.12 h -1.7 c -9.52,0 -13.53,4.83 -16.93,15.71 h -1.36 L 901.52,300 c 5.23,0.2 11.56,0.2 16.25,0.2 h 12.65 c 4.69,0 11.02,0 16.32,-0.2 l 2.04,18.15 h -1.43 c -3.33,-10.88 -7.34,-15.71 -16.86,-15.71 h -1.7 v 37.12 c 0,6.8 0.27,7.89 7.48,8.7 v 1.22 H 912 v -1.22 z"
   id="path99"
   style="fill:#ffffff" />
		<path
   d="m 979.17,349.49 h -25.23 v -1.22 c 6.59,-0.82 6.73,-1.7 6.73,-8.7 v -29.44 c 0,-7 -0.14,-7.89 -6.73,-8.7 v -1.22 h 24.55 c 4.69,0 10.74,0 16.05,-0.2 l 1.63,16.25 h -1.36 c -3.4,-11.49 -8.02,-13.6 -21.21,-13.6 H 970 v 19.92 h 7.96 c 3.88,0 6.32,-1.9 7,-7.62 h 1.22 v 18.22 h -1.22 c -0.68,-5.71 -3.13,-7.62 -7,-7.62 H 970 v 18.63 c 0,2.38 0.48,2.92 3.47,2.92 h 2.58 c 12.38,0 16.73,-2.79 20.4,-13.8 h 1.29 l -2.72,16.25 c -5.45,-0.07 -11.02,-0.07 -15.85,-0.07 z"
   id="path101"
   style="fill:#ffffff" />
		<path
   d="m 1016.16,348.26 c 7.21,-0.82 7.48,-1.9 7.48,-8.7 v -37.12 h -1.7 c -9.52,0 -13.53,4.83 -16.93,15.71 h -1.36 l 2.04,-18.15 c 5.24,0.2 11.56,0.2 16.25,0.2 h 12.65 c 4.69,0 11.02,0 16.32,-0.2 l 2.04,18.15 h -1.43 c -3.33,-10.88 -7.34,-15.71 -16.86,-15.71 h -1.7 v 37.12 c 0,6.8 0.27,7.89 7.48,8.7 v 1.22 h -24.27 v -1.22 z"
   id="path103"
   style="fill:#ffffff" />
		<path
   d="m 1083.34,349.49 h -25.23 v -1.22 c 6.6,-0.82 6.73,-1.7 6.73,-8.7 v -29.44 c 0,-7 -0.14,-7.89 -6.73,-8.7 v -1.22 h 24.54 c 4.69,0 10.74,0 16.05,-0.2 l 1.63,16.25 h -1.36 c -3.4,-11.49 -8.02,-13.6 -21.21,-13.6 h -3.6 v 19.92 h 7.96 c 3.88,0 6.32,-1.9 7,-7.62 h 1.22 v 18.22 h -1.22 c -0.68,-5.71 -3.13,-7.62 -7,-7.62 h -7.96 v 18.63 c 0,2.38 0.48,2.92 3.47,2.92 h 2.58 c 12.38,0 16.73,-2.79 20.4,-13.8 h 1.29 l -2.72,16.25 c -5.43,-0.07 -11.01,-0.07 -15.84,-0.07 z"
   id="path105"
   style="fill:#ffffff" />
		<path
   d="m 1120.34,348.26 c 7.21,-0.82 7.48,-1.9 7.48,-8.7 v -37.12 h -1.7 c -9.52,0 -13.53,4.83 -16.93,15.71 h -1.36 l 2.04,-18.15 c 5.24,0.2 11.56,0.2 16.25,0.2 h 12.65 c 4.69,0 11.01,0 16.32,-0.2 l 2.04,18.15 h -1.43 c -3.33,-10.88 -7.34,-15.71 -16.86,-15.71 h -1.7 v 37.12 c 0,6.8 0.27,7.89 7.48,8.7 v 1.22 h -24.27 v -1.22 z"
   id="path107"
   style="fill:#ffffff" />
		<path
   d="m 550.5,410.56 c 0,7 0.14,7.89 6.73,8.7 v 1.22 h -22.78 v -1.22 c 6.6,-0.82 6.73,-1.7 6.73,-8.7 v -29.44 c 0,-7 -0.14,-7.89 -6.73,-8.7 v -1.22 h 22.78 v 1.22 c -6.6,0.82 -6.73,1.7 -6.73,8.7 z"
   id="path109"
   style="fill:#ffffff" />
		<path
   d="m 607.35,369.83 c 13.33,0 25.91,8.97 25.91,25.77 0,16.79 -12.58,25.77 -25.91,25.77 -13.33,0 -25.91,-8.97 -25.91,-25.77 0,-16.79 12.58,-25.77 25.91,-25.77 z m 0,2.52 c -9.38,0 -15.5,8.91 -15.5,23.25 0,14.35 6.12,23.25 15.5,23.25 9.38,0 15.5,-8.91 15.5,-23.25 0,-14.34 -6.12,-23.25 -15.5,-23.25 z"
   id="path111"
   style="fill:#ffffff" />
		<path
   d="m 642.3,417.7 v -16.59 h 1.36 c 1.9,12.65 6.94,17.75 15.03,17.75 5.98,0 10.95,-2.92 10.95,-9.04 0,-4.62 -3.67,-7 -9.11,-9.59 l -6.05,-2.86 c -7.21,-3.4 -11.76,-7.89 -11.76,-14.48 0,-7.82 7.41,-13.26 16.93,-13.26 4.9,0 11.29,1.36 14.62,3.4 v 13.94 h -1.36 c -1.9,-9.72 -6.6,-14.82 -13.33,-14.82 -5.51,0 -9.38,2.58 -9.38,7.34 0,4.69 3.2,6.87 6.8,8.57 l 7.21,3.4 c 7.55,3.54 13.19,7.28 13.19,14.69 0,8.91 -8.5,15.23 -18.7,15.23 -6.67,-0.01 -12.45,-1.57 -16.4,-3.68 z"
   id="path113"
   style="fill:#ffffff" />
		<path
   d="m 683.85,419.26 c 6.6,-0.82 6.73,-1.7 6.73,-8.7 v -29.44 c 0,-7 -0.14,-7.89 -6.73,-8.7 v -1.22 h 22.78 v 1.22 c -6.59,0.82 -6.73,1.7 -6.73,8.7 v 34.2 c 0,2.24 0.68,2.79 2.79,2.79 h 2.11 c 12.31,0 15.57,-2.99 19.24,-14.62 h 1.36 l -2.18,17.07 c -3.26,-0.07 -11.22,-0.07 -13.94,-0.07 h -25.43 z"
   id="path115"
   style="fill:#ffffff" />
		<path
   d="m 756.34,369.83 c 13.33,0 25.91,8.97 25.91,25.77 0,16.79 -12.58,25.77 -25.91,25.77 -13.33,0 -25.91,-8.97 -25.91,-25.77 0,-16.79 12.58,-25.77 25.91,-25.77 z m 0,2.52 c -9.38,0 -15.5,8.91 -15.5,23.25 0,14.35 6.12,23.25 15.5,23.25 9.38,0 15.5,-8.91 15.5,-23.25 0,-14.34 -6.12,-23.25 -15.5,-23.25 z"
   id="path117"
   style="fill:#ffffff" />
	</g>
</g>
</svg>
