<?xml version="1.0" encoding="UTF-8" standalone="no"?>
<!-- Created with Inkscape (http://www.inkscape.org/) -->

<svg
   width="280.4173mm"
   height="56.087677mm"
   viewBox="0 0 280.4173 56.087677"
   version="1.1"
   id="svg5"
   inkscape:version="1.1.1 (3bf5ae0d25, 2021-09-20)"
   sodipodi:docname="uit-logo.svg"
   xmlns:inkscape="http://www.inkscape.org/namespaces/inkscape"
   xmlns:sodipodi="http://sodipodi.sourceforge.net/DTD/sodipodi-0.dtd"
   xmlns="http://www.w3.org/2000/svg"
   xmlns:svg="http://www.w3.org/2000/svg">
  <sodipodi:namedview
     id="namedview7"
     pagecolor="#ffffff"
     bordercolor="#666666"
     borderopacity="1.0"
     inkscape:pageshadow="2"
     inkscape:pageopacity="0.0"
     inkscape:pagecheckerboard="0"
     inkscape:document-units="mm"
     showgrid="false"
     fit-margin-left="1"
     fit-margin-top="1"
     fit-margin-bottom="1"
     fit-margin-right="1"
     inkscape:zoom="0.64052329"
     inkscape:cx="420.74973"
     inkscape:cy="267.74983"
     inkscape:window-width="1680"
     inkscape:window-height="987"
     inkscape:window-x="3592"
     inkscape:window-y="26"
     inkscape:window-maximized="1"
     inkscape:current-layer="g19" />
  <defs
     id="defs2">
    <clipPath
       clipPathUnits="userSpaceOnUse"
       id="clipPath23">
      <path
         d="M 0,155.906 H 790.866 V 0 H 0 Z"
         id="path21" />
    </clipPath>
  </defs>
  <g
     inkscape:label="Layer 1"
     inkscape:groupmode="layer"
     id="layer1"
     transform="translate(49.332431,-77.703036)">
    <g
       id="g19"
       clip-path="url(#clipPath23)"
       transform="matrix(0.35277777,0,0,-0.35277777,-48.623931,133.24703)">
      <g
         id="g25"
         transform="translate(234.8504,138.898)">
        <path
           d="m 0,0 v -31.375 c 0,-3.582 -0.802,-6.722 -2.404,-9.419 -1.604,-2.698 -3.92,-4.765 -6.949,-6.202 -3.029,-1.438 -6.611,-2.155 -10.745,-2.155 -6.235,0 -11.077,1.596 -14.527,4.792 -3.449,3.195 -5.173,7.567 -5.173,13.117 V 0 h 10.248 v -29.684 c 0,-3.736 0.751,-6.478 2.255,-8.224 1.503,-1.747 3.991,-2.62 7.462,-2.62 3.361,0 5.798,0.879 7.313,2.636 1.514,1.758 2.272,4.516 2.272,8.275 V 0 Z"
           style="fill:#231f20;fill-opacity:1;fill-rule:nonzero;stroke:none"
           id="path27" />
      </g>
      <path
         d="m 256.043,90.41 h -10.115 v 37.079 h 10.115 z m -10.546,46.664 c 0,3.294 1.835,4.941 5.505,4.941 3.67,0 5.506,-1.647 5.506,-4.941 0,-1.571 -0.459,-2.792 -1.377,-3.665 -0.917,-0.874 -2.294,-1.311 -4.129,-1.311 -3.67,0 -5.505,1.659 -5.505,4.976"
         style="fill:#231f20;fill-opacity:1;fill-rule:nonzero;stroke:none"
         id="path29" />
      <g
         id="g31"
         transform="translate(287.5159,90.4097)">
        <path
           d="m 0,0 h -10.281 v 39.932 h -13.167 v 8.556 H 13.167 V 39.932 H 0 Z"
           style="fill:#231f20;fill-opacity:1;fill-rule:nonzero;stroke:none"
           id="path33" />
      </g>
      <g
         id="g35"
         transform="translate(364.2278,90.4097)">
        <path
           d="m 0,0 h -6.435 l -26.499,40.694 h -0.265 c 0.353,-4.776 0.531,-9.154 0.531,-13.133 V 0 h -5.207 v 48.488 h 6.368 L -5.075,7.96 h 0.266 c -0.045,0.597 -0.144,2.515 -0.299,5.754 -0.155,3.239 -0.21,5.556 -0.165,6.948 V 48.488 H 0 Z"
           style="fill:#231f20;fill-opacity:1;fill-rule:nonzero;stroke:none"
           id="path37" />
      </g>
      <g
         id="g39"
         transform="translate(380.4124,108.6177)">
        <path
           d="m 0,0 c 0,-4.644 0.929,-8.182 2.786,-10.613 1.858,-2.433 4.588,-3.649 8.192,-3.649 3.604,0 6.339,1.211 8.209,3.632 1.868,2.421 2.802,5.964 2.802,10.63 0,4.621 -0.934,8.131 -2.802,10.53 -1.87,2.399 -4.627,3.598 -8.276,3.598 -3.603,0 -6.323,-1.183 -8.158,-3.548 C 0.917,8.214 0,4.687 0,0 m 27.693,0 c 0,-5.926 -1.492,-10.553 -4.477,-13.88 -2.985,-3.328 -7.109,-4.991 -12.37,-4.991 -3.251,0 -6.136,0.763 -8.657,2.288 -2.52,1.525 -4.466,3.715 -5.837,6.566 -1.372,2.853 -2.056,6.192 -2.056,10.017 0,5.925 1.48,10.541 4.444,13.847 2.962,3.304 7.075,4.958 12.337,4.958 5.086,0 9.126,-1.692 12.122,-5.075 C 26.195,10.348 27.693,5.771 27.693,0"
           style="fill:#231f20;fill-opacity:1;fill-rule:nonzero;stroke:none"
           id="path41" />
      </g>
      <g
         id="g43"
         transform="translate(434.3401,127.4224)">
        <path
           d="M 0,0 C 1.613,0 3.062,-0.133 4.345,-0.398 L 3.581,-5.506 c -1.503,0.332 -2.83,0.498 -3.979,0.498 -2.941,0 -5.456,-1.194 -7.545,-3.582 -2.09,-2.388 -3.134,-5.362 -3.134,-8.922 v -19.501 h -5.506 v 36.35 h 4.544 l 0.63,-6.733 h 0.265 c 1.348,2.366 2.973,4.19 4.875,5.472 C -4.367,-0.642 -2.278,0 0,0"
           style="fill:#231f20;fill-opacity:1;fill-rule:nonzero;stroke:none"
           id="path45" />
      </g>
      <g
         id="g47"
         transform="translate(449.2308,115.1177)">
        <path
           d="m 0,0 c 0,-2.543 0.719,-4.466 2.156,-5.771 1.437,-1.304 3.438,-1.957 6.003,-1.957 5.372,0 8.059,2.61 8.059,7.828 0,5.461 -2.72,8.192 -8.158,8.192 C 5.473,8.292 3.482,7.595 2.09,6.202 0.696,4.81 0,2.741 0,0 m -2.984,-30.811 c 0,-1.967 0.829,-3.46 2.487,-4.477 1.658,-1.017 4.034,-1.525 7.13,-1.525 4.621,0 8.043,0.691 10.264,2.073 2.223,1.382 3.334,3.256 3.334,5.621 0,1.969 -0.608,3.333 -1.824,4.096 -1.217,0.762 -3.505,1.144 -6.865,1.144 H 4.941 c -2.498,0 -4.443,-0.597 -5.837,-1.791 -1.392,-1.193 -2.088,-2.907 -2.088,-5.141 M 26.002,11.642 V 8.159 L 19.27,7.363 c 0.618,-0.774 1.17,-1.786 1.658,-3.035 0.485,-1.249 0.729,-2.659 0.729,-4.228 0,-3.56 -1.217,-6.401 -3.648,-8.524 -2.433,-2.122 -5.771,-3.183 -10.016,-3.183 -1.084,0 -2.1,0.087 -3.052,0.264 -2.343,-1.238 -3.515,-2.797 -3.515,-4.676 0,-0.995 0.409,-1.73 1.227,-2.206 0.818,-0.475 2.222,-0.712 4.212,-0.712 H 13.3 c 3.934,0 6.959,-0.83 9.07,-2.488 2.111,-1.658 3.167,-4.067 3.167,-7.229 0,-4.025 -1.614,-7.092 -4.842,-9.204 -3.228,-2.112 -7.937,-3.167 -14.129,-3.167 -4.754,0 -8.418,0.884 -10.994,2.653 -2.576,1.769 -3.863,4.268 -3.863,7.495 0,2.211 0.707,4.124 2.122,5.738 1.415,1.614 3.405,2.708 5.97,3.284 -0.929,0.419 -1.708,1.072 -2.338,1.956 -0.63,0.884 -0.945,1.912 -0.945,3.085 0,1.326 0.353,2.487 1.061,3.482 0.707,0.995 1.824,1.956 3.35,2.885 -1.88,0.774 -3.411,2.09 -4.594,3.947 -1.183,1.857 -1.774,3.979 -1.774,6.367 0,3.981 1.194,7.048 3.582,9.204 2.387,2.156 5.771,3.234 10.148,3.234 1.901,0 3.615,-0.222 5.141,-0.663 z"
           style="fill:#231f20;fill-opacity:1;fill-rule:nonzero;stroke:none"
           id="path49" />
      </g>
      <g
         id="g51"
         transform="translate(496.5579,122.8121)">
        <path
           d="m 0,0 c -2.919,0 -5.246,-0.95 -6.981,-2.852 -1.737,-1.902 -2.759,-4.533 -3.068,-7.893 H 8.955 c 0,3.471 -0.775,6.13 -2.322,7.976 C 5.084,-0.923 2.873,0 0,0 m 1.492,-33.065 c -5.373,0 -9.612,1.635 -12.719,4.908 -3.106,3.272 -4.66,7.815 -4.66,13.631 0,5.859 1.444,10.513 4.328,13.963 2.886,3.449 6.761,5.173 11.625,5.173 4.555,0 8.159,-1.498 10.811,-4.494 2.654,-2.996 3.98,-6.948 3.98,-11.856 v -3.483 h -25.039 c 0.111,-4.267 1.188,-7.506 3.234,-9.717 2.045,-2.211 4.925,-3.317 8.639,-3.317 3.914,0 7.782,0.819 11.608,2.454 v -4.908 c -1.945,-0.841 -3.787,-1.442 -5.522,-1.808 -1.736,-0.364 -3.832,-0.546 -6.285,-0.546"
           style="fill:#231f20;fill-opacity:1;fill-rule:nonzero;stroke:none"
           id="path53" />
      </g>
      <g
         id="g55"
         transform="translate(544.2493,100.3257)">
        <path
           d="m 0,0 c 0,-3.383 -1.261,-5.991 -3.781,-7.826 -2.521,-1.836 -6.058,-2.753 -10.613,-2.753 -4.82,0 -8.579,0.763 -11.276,2.288 v 5.107 c 1.746,-0.884 3.62,-1.581 5.621,-2.088 2.001,-0.509 3.931,-0.764 5.788,-0.764 2.873,0 5.085,0.459 6.633,1.377 1.547,0.917 2.321,2.315 2.321,4.195 0,1.415 -0.613,2.625 -1.84,3.632 -1.227,1.006 -3.621,2.194 -7.18,3.565 -3.383,1.26 -5.788,2.36 -7.214,3.3 -1.426,0.94 -2.487,2.006 -3.184,3.2 -0.696,1.195 -1.045,2.621 -1.045,4.279 0,2.963 1.206,5.3 3.616,7.014 2.409,1.713 5.715,2.571 9.916,2.571 3.914,0 7.738,-0.796 11.475,-2.388 L -2.72,20.231 c -3.648,1.503 -6.954,2.255 -9.916,2.255 -2.609,0 -4.577,-0.409 -5.904,-1.226 -1.326,-0.819 -1.989,-1.947 -1.989,-3.383 0,-0.974 0.249,-1.803 0.746,-2.487 0.497,-0.686 1.299,-1.339 2.404,-1.957 1.106,-0.62 3.229,-1.515 6.368,-2.687 4.312,-1.57 7.224,-3.15 8.74,-4.743 C -0.758,4.411 0,2.41 0,0"
           style="fill:#231f20;fill-opacity:1;fill-rule:nonzero;stroke:none"
           id="path57" />
      </g>
      <g
         id="g59"
         transform="translate(205.0345,21.2896)">
        <path
           d="m 0,0 c 3.427,0 6.119,0.94 8.076,2.819 1.957,1.879 2.935,4.511 2.935,7.894 v 3.283 L 5.506,13.764 C 1.128,13.609 -2.029,12.93 -3.963,11.725 -5.898,10.52 -6.865,8.646 -6.865,6.103 -6.865,4.113 -6.263,2.599 -5.058,1.56 -3.853,0.52 -2.167,0 0,0 M 12.437,-3.88 11.343,1.294 H 11.078 C 9.264,-0.983 7.457,-2.525 5.655,-3.333 3.853,-4.14 1.603,-4.543 -1.094,-4.543 c -3.604,0 -6.429,0.929 -8.474,2.786 -2.045,1.857 -3.068,4.499 -3.068,7.926 0,7.341 5.87,11.187 17.611,11.542 l 6.169,0.199 v 2.255 c 0,2.853 -0.614,4.958 -1.841,6.318 -1.227,1.36 -3.19,2.039 -5.887,2.039 -3.029,0 -6.456,-0.928 -10.281,-2.785 l -1.692,4.212 c 1.791,0.973 3.753,1.736 5.888,2.288 2.133,0.553 4.272,0.829 6.417,0.829 4.333,0 7.545,-0.962 9.634,-2.885 2.09,-1.923 3.135,-5.008 3.135,-9.253 V -3.88 Z"
           style="fill:#231f20;fill-opacity:1;fill-rule:nonzero;stroke:none"
           id="path61" />
      </g>
      <g
         id="g63"
         transform="translate(249.4764,54.4224)">
        <path
           d="M 0,0 C 1.614,0 3.062,-0.133 4.345,-0.398 L 3.582,-5.506 c -1.504,0.332 -2.831,0.498 -3.98,0.498 -2.941,0 -5.456,-1.194 -7.545,-3.582 -2.09,-2.388 -3.134,-5.362 -3.134,-8.922 v -19.501 h -5.506 v 36.35 h 4.544 l 0.63,-6.733 h 0.265 c 1.349,2.366 2.974,4.19 4.875,5.472 C -4.367,-0.642 -2.278,0 0,0"
           style="fill:#231f20;fill-opacity:1;fill-rule:nonzero;stroke:none"
           id="path65" />
      </g>
      <g
         id="g67"
         transform="translate(266.0589,36.0152)">
        <path
           d="m 0,0 c 0.95,1.349 2.398,3.118 4.345,5.307 l 11.74,12.437 h 6.534 L 7.893,2.256 23.647,-18.605 H 16.98 L 4.146,-1.426 0,-5.008 V -18.605 H -5.439 V 33 H 0 V 5.639 C 0,4.422 -0.089,2.543 -0.266,0 Z"
           style="fill:#231f20;fill-opacity:1;fill-rule:nonzero;stroke:none"
           id="path69" />
      </g>
      <g
         id="g71"
         transform="translate(308.013,21.2896)">
        <path
           d="M 0,0 C 0.973,0 1.912,0.072 2.819,0.216 3.726,0.359 4.444,0.509 4.975,0.664 V -3.548 C 4.378,-3.836 3.499,-4.073 2.338,-4.262 1.177,-4.449 0.133,-4.543 -0.796,-4.543 c -7.031,0 -10.547,3.703 -10.547,11.11 v 21.624 h -5.206 v 2.654 l 5.206,2.288 2.322,7.761 h 3.184 V 32.47 H 4.709 V 28.191 H -5.837 V 6.8 c 0,-2.19 0.519,-3.87 1.559,-5.042 C -3.239,0.586 -1.813,0 0,0"
           style="fill:#231f20;fill-opacity:1;fill-rule:nonzero;stroke:none"
           id="path73" />
      </g>
      <path
         d="m 325.757,17.41 h -5.506 v 36.35 h 5.506 z m -5.971,46.199 c 0,1.261 0.31,2.184 0.929,2.769 0.619,0.586 1.393,0.879 2.322,0.879 0.884,0 1.647,-0.298 2.289,-0.895 0.64,-0.597 0.961,-1.515 0.961,-2.753 0,-1.238 -0.321,-2.161 -0.961,-2.77 -0.642,-0.608 -1.405,-0.911 -2.289,-0.911 -0.929,0 -1.703,0.303 -2.322,0.911 -0.619,0.609 -0.929,1.532 -0.929,2.77"
         style="fill:#231f20;fill-opacity:1;fill-rule:nonzero;stroke:none"
         id="path75" />
      <g
         id="g77"
         transform="translate(360.8792,27.3257)">
        <path
           d="m 0,0 c 0,-3.383 -1.261,-5.991 -3.781,-7.826 -2.521,-1.836 -6.059,-2.753 -10.614,-2.753 -4.82,0 -8.578,0.763 -11.275,2.288 v 5.107 c 1.746,-0.884 3.62,-1.581 5.621,-2.088 2.001,-0.509 3.93,-0.764 5.787,-0.764 2.874,0 5.086,0.459 6.634,1.377 1.547,0.917 2.321,2.315 2.321,4.195 0,1.415 -0.613,2.625 -1.841,3.632 -1.227,1.006 -3.621,2.194 -7.18,3.565 -3.383,1.26 -5.787,2.36 -7.214,3.3 -1.426,0.94 -2.487,2.006 -3.184,3.2 -0.696,1.195 -1.044,2.621 -1.044,4.279 0,2.963 1.205,5.3 3.615,7.014 2.409,1.713 5.715,2.571 9.916,2.571 3.914,0 7.739,-0.796 11.476,-2.388 L -2.72,20.231 c -3.648,1.503 -6.954,2.255 -9.917,2.255 -2.609,0 -4.576,-0.409 -5.903,-1.226 -1.327,-0.819 -1.99,-1.947 -1.99,-3.383 0,-0.974 0.249,-1.803 0.746,-2.487 0.498,-0.686 1.299,-1.339 2.405,-1.957 1.105,-0.62 3.228,-1.515 6.367,-2.687 4.312,-1.57 7.225,-3.15 8.74,-4.743 C -0.758,4.411 0,2.41 0,0"
           style="fill:#231f20;fill-opacity:1;fill-rule:nonzero;stroke:none"
           id="path79" />
      </g>
      <g
         id="g81"
         transform="translate(375.2728,36.0152)">
        <path
           d="m 0,0 c 0.95,1.349 2.398,3.118 4.345,5.307 l 11.74,12.437 h 6.534 L 7.894,2.256 23.647,-18.605 H 16.98 L 4.146,-1.426 0,-5.008 V -18.605 H -5.439 V 33 H 0 V 5.639 C 0,4.422 -0.089,2.543 -0.266,0 Z"
           style="fill:#231f20;fill-opacity:1;fill-rule:nonzero;stroke:none"
           id="path83" />
      </g>
      <g
         id="g85"
         transform="translate(419.3499,49.812)">
        <path
           d="m 0,0 c -2.919,0 -5.246,-0.95 -6.981,-2.852 -1.737,-1.902 -2.759,-4.533 -3.068,-7.893 H 8.954 c 0,3.471 -0.773,6.13 -2.321,7.976 C 5.085,-0.923 2.874,0 0,0 m 1.492,-33.065 c -5.373,0 -9.612,1.635 -12.719,4.908 -3.106,3.272 -4.66,7.815 -4.66,13.631 0,5.859 1.444,10.513 4.328,13.963 2.886,3.449 6.761,5.173 11.625,5.173 4.555,0 8.159,-1.498 10.812,-4.494 2.653,-2.996 3.98,-6.948 3.98,-11.856 v -3.483 h -25.04 c 0.111,-4.267 1.188,-7.506 3.234,-9.717 2.045,-2.211 4.925,-3.317 8.639,-3.317 3.913,0 7.783,0.819 11.608,2.454 v -4.908 c -1.945,-0.841 -3.786,-1.442 -5.522,-1.808 -1.736,-0.364 -3.831,-0.546 -6.285,-0.546"
           style="fill:#231f20;fill-opacity:1;fill-rule:nonzero;stroke:none"
           id="path87" />
      </g>
      <g
         id="g89"
         transform="translate(466.4114,53.7593)">
        <path
           d="m 0,0 v -23.581 c 0,-2.963 0.674,-5.174 2.023,-6.633 1.348,-1.459 3.46,-2.189 6.334,-2.189 3.803,0 6.584,1.039 8.342,3.118 1.757,2.078 2.636,5.472 2.636,10.181 V 0 h 5.506 v -36.35 h -4.544 l -0.796,4.875 h -0.298 c -1.128,-1.791 -2.692,-3.162 -4.693,-4.112 -2.001,-0.95 -4.284,-1.426 -6.849,-1.426 -4.423,0 -7.733,1.05 -9.932,3.151 -2.202,2.1 -3.301,5.461 -3.301,10.082 V 0 Z"
           style="fill:#231f20;fill-opacity:1;fill-rule:nonzero;stroke:none"
           id="path91" />
      </g>
      <g
         id="g93"
         transform="translate(527.8001,17.4097)">
        <path
           d="m 0,0 v 23.515 c 0,2.962 -0.675,5.173 -2.022,6.632 -1.35,1.459 -3.461,2.189 -6.335,2.189 -3.803,0 -6.589,-1.027 -8.358,-3.084 -1.769,-2.057 -2.653,-5.45 -2.653,-10.182 V 0 h -5.506 v 36.35 h 4.478 l 0.895,-4.976 h 0.266 c 1.127,1.791 2.708,3.179 4.742,4.163 2.034,0.984 4.3,1.476 6.799,1.476 4.378,0 7.672,-1.057 9.883,-3.167 2.21,-2.113 3.317,-5.49 3.317,-10.133 L 5.506,0 Z"
           style="fill:#231f20;fill-opacity:1;fill-rule:nonzero;stroke:none"
           id="path95" />
      </g>
      <path
         d="m 550.121,17.41 h -5.506 v 36.35 h 5.506 z m -5.969,46.199 c 0,1.261 0.309,2.184 0.928,2.769 0.619,0.586 1.393,0.879 2.322,0.879 0.883,0 1.646,-0.298 2.288,-0.895 0.641,-0.597 0.962,-1.515 0.962,-2.753 0,-1.238 -0.321,-2.161 -0.962,-2.77 -0.642,-0.608 -1.405,-0.911 -2.288,-0.911 -0.929,0 -1.703,0.303 -2.322,0.911 -0.619,0.609 -0.928,1.532 -0.928,2.77"
         style="fill:#231f20;fill-opacity:1;fill-rule:nonzero;stroke:none"
         id="path97" />
      <g
         id="g99"
         transform="translate(569.7552,17.4097)">
        <path
           d="m 0,0 -13.797,36.35 h 5.903 L -0.066,14.792 C 1.702,9.751 2.741,6.479 3.051,4.975 h 0.265 c 0.244,1.171 1.012,3.598 2.305,7.28 1.294,3.681 4.196,11.712 8.706,24.095 H 20.23 L 6.434,0 Z"
           style="fill:#231f20;fill-opacity:1;fill-rule:nonzero;stroke:none"
           id="path101" />
      </g>
      <g
         id="g103"
         transform="translate(609.6859,49.812)">
        <path
           d="m 0,0 c -2.919,0 -5.246,-0.95 -6.981,-2.852 -1.736,-1.902 -2.758,-4.533 -3.068,-7.893 H 8.955 c 0,3.471 -0.774,6.13 -2.322,7.976 C 5.085,-0.923 2.874,0 0,0 m 1.492,-33.065 c -5.372,0 -9.612,1.635 -12.719,4.908 -3.106,3.272 -4.659,7.815 -4.659,13.631 0,5.859 1.443,10.513 4.328,13.963 2.885,3.449 6.76,5.173 11.624,5.173 4.555,0 8.16,-1.498 10.812,-4.494 2.653,-2.996 3.98,-6.948 3.98,-11.856 v -3.483 h -25.04 c 0.111,-4.267 1.189,-7.506 3.234,-9.717 2.045,-2.211 4.925,-3.317 8.639,-3.317 3.914,0 7.783,0.819 11.609,2.454 v -4.908 c -1.946,-0.841 -3.787,-1.442 -5.523,-1.808 -1.736,-0.364 -3.831,-0.546 -6.285,-0.546"
           style="fill:#231f20;fill-opacity:1;fill-rule:nonzero;stroke:none"
           id="path105" />
      </g>
      <g
         id="g107"
         transform="translate(650.513,54.4224)">
        <path
           d="M 0,0 C 1.613,0 3.063,-0.133 4.345,-0.398 L 3.582,-5.506 c -1.504,0.332 -2.831,0.498 -3.98,0.498 -2.941,0 -5.456,-1.194 -7.545,-3.582 -2.089,-2.388 -3.134,-5.362 -3.134,-8.922 v -19.501 h -5.506 v 36.35 h 4.544 l 0.63,-6.733 h 0.265 c 1.349,2.366 2.974,4.19 4.875,5.472 C -4.367,-0.642 -2.277,0 0,0"
           style="fill:#231f20;fill-opacity:1;fill-rule:nonzero;stroke:none"
           id="path109" />
      </g>
      <g
         id="g111"
         transform="translate(685.1048,27.3257)">
        <path
           d="m 0,0 c 0,-3.383 -1.261,-5.991 -3.781,-7.826 -2.521,-1.836 -6.058,-2.753 -10.613,-2.753 -4.82,0 -8.579,0.763 -11.276,2.288 v 5.107 c 1.746,-0.884 3.62,-1.581 5.621,-2.088 2.001,-0.509 3.931,-0.764 5.788,-0.764 2.873,0 5.085,0.459 6.633,1.377 1.547,0.917 2.321,2.315 2.321,4.195 0,1.415 -0.613,2.625 -1.84,3.632 -1.227,1.006 -3.621,2.194 -7.18,3.565 -3.383,1.26 -5.788,2.36 -7.214,3.3 -1.426,0.94 -2.487,2.006 -3.184,3.2 -0.696,1.195 -1.045,2.621 -1.045,4.279 0,2.963 1.206,5.3 3.616,7.014 2.409,1.713 5.715,2.571 9.916,2.571 3.914,0 7.738,-0.796 11.475,-2.388 L -2.72,20.231 c -3.648,1.503 -6.954,2.255 -9.916,2.255 -2.609,0 -4.577,-0.409 -5.904,-1.226 -1.326,-0.819 -1.989,-1.947 -1.989,-3.383 0,-0.974 0.249,-1.803 0.746,-2.487 0.497,-0.686 1.299,-1.339 2.404,-1.957 1.106,-0.62 3.229,-1.515 6.368,-2.687 4.312,-1.57 7.224,-3.15 8.74,-4.743 C -0.758,4.411 0,2.41 0,0"
           style="fill:#231f20;fill-opacity:1;fill-rule:nonzero;stroke:none"
           id="path113" />
      </g>
      <path
         d="m 699.565,17.41 h -5.506 v 36.35 h 5.506 z m -5.97,46.199 c 0,1.261 0.31,2.184 0.929,2.769 0.618,0.586 1.392,0.879 2.321,0.879 0.884,0 1.647,-0.298 2.288,-0.895 0.642,-0.597 0.962,-1.515 0.962,-2.753 0,-1.238 -0.32,-2.161 -0.962,-2.77 -0.641,-0.608 -1.404,-0.911 -2.288,-0.911 -0.929,0 -1.703,0.303 -2.321,0.911 -0.619,0.609 -0.929,1.532 -0.929,2.77"
         style="fill:#231f20;fill-opacity:1;fill-rule:nonzero;stroke:none"
         id="path115" />
      <g
         id="g117"
         transform="translate(722.9798,21.2896)">
        <path
           d="M 0,0 C 0.973,0 1.912,0.072 2.818,0.216 3.725,0.359 4.443,0.509 4.975,0.664 V -3.548 C 4.377,-3.836 3.498,-4.073 2.338,-4.262 1.177,-4.449 0.132,-4.543 -0.797,-4.543 c -7.03,0 -10.546,3.703 -10.546,11.11 v 21.624 h -5.207 v 2.654 l 5.207,2.288 2.322,7.761 h 3.183 V 32.47 H 4.709 V 28.191 H -5.838 V 6.8 c 0,-2.19 0.52,-3.87 1.56,-5.042 C -3.24,0.586 -1.813,0 0,0"
           style="fill:#231f20;fill-opacity:1;fill-rule:nonzero;stroke:none"
           id="path119" />
      </g>
      <g
         id="g121"
         transform="translate(749.0804,49.812)">
        <path
           d="m 0,0 c -2.919,0 -5.246,-0.95 -6.981,-2.852 -1.736,-1.902 -2.758,-4.533 -3.068,-7.893 H 8.955 c 0,3.471 -0.774,6.13 -2.322,7.976 C 5.085,-0.923 2.874,0 0,0 m 1.492,-33.065 c -5.372,0 -9.612,1.635 -12.719,4.908 -3.106,3.272 -4.659,7.815 -4.659,13.631 0,5.859 1.443,10.513 4.328,13.963 2.885,3.449 6.76,5.173 11.624,5.173 4.555,0 8.16,-1.498 10.812,-4.494 2.653,-2.996 3.98,-6.948 3.98,-11.856 v -3.483 h -25.04 c 0.111,-4.267 1.189,-7.506 3.234,-9.717 2.045,-2.211 4.925,-3.317 8.639,-3.317 3.914,0 7.783,0.819 11.609,2.454 v -4.908 c -1.946,-0.841 -3.787,-1.442 -5.523,-1.808 -1.736,-0.364 -3.831,-0.546 -6.285,-0.546"
           style="fill:#231f20;fill-opacity:1;fill-rule:nonzero;stroke:none"
           id="path123" />
      </g>
      <g
         id="g125"
         transform="translate(785.0657,21.2896)">
        <path
           d="M 0,0 C 0.973,0 1.912,0.072 2.818,0.216 3.725,0.359 4.443,0.509 4.975,0.664 V -3.548 C 4.377,-3.836 3.498,-4.073 2.338,-4.262 1.177,-4.449 0.132,-4.543 -0.797,-4.543 c -7.03,0 -10.546,3.703 -10.546,11.11 v 21.624 h -5.207 v 2.654 l 5.207,2.288 2.322,7.761 h 3.183 V 32.47 H 4.709 V 28.191 H -5.838 V 6.8 c 0,-2.19 0.52,-3.87 1.56,-5.042 C -3.24,0.586 -1.813,0 0,0"
           style="fill:#231f20;fill-opacity:1;fill-rule:nonzero;stroke:none"
           id="path127" />
      </g>
      <g
         id="g129"
         transform="translate(44.511,11.4615)">
        <path
           d="M 0,0 C -1.614,0.809 -2.315,2.633 -1.458,4.341 -0.593,6.068 1.288,6.599 2.901,5.79 4.516,4.981 5.235,3.148 4.369,1.421 3.514,-0.288 1.613,-0.808 0,0"
           style="fill:#231f20;fill-opacity:1;fill-rule:nonzero;stroke:none"
           id="path131" />
      </g>
      <g
         id="g133"
         transform="translate(60.8978,8.5708)">
        <path
           d="M 0,0 1.393,7.668 4.067,7.183 2.723,-0.214 C 2.325,-2.408 3.095,-3.627 4.788,-3.935 6.481,-4.242 7.632,-3.372 8.03,-1.178 L 9.374,6.218 12.048,5.732 10.655,-1.936 C 10.014,-5.466 7.569,-6.921 4.353,-6.337 1.155,-5.757 -0.642,-3.53 0,0"
           style="fill:#231f20;fill-opacity:1;fill-rule:nonzero;stroke:none"
           id="path135" />
      </g>
      <g
         id="g137"
         transform="translate(79.1507,1.2935)">
        <path
           d="m 0,0 h -2.718 l -0.003,12.712 h 2.718 z"
           style="fill:#231f20;fill-opacity:1;fill-rule:nonzero;stroke:none"
           id="path139" />
      </g>
      <g
         id="g141"
         transform="translate(82.6346,14.312)">
        <path
           d="M 0,0 10.957,1.905 11.364,-0.437 7.224,-1.156 9.048,-11.653 6.352,-12.123 4.526,-1.625 0.408,-2.342 Z"
           style="fill:#231f20;fill-opacity:1;fill-rule:nonzero;stroke:none"
           id="path143" />
      </g>
      <g
         id="g145"
         transform="translate(110.2332,11.4468)">
        <path
           d="M 0,0 C -1.615,-0.805 -3.494,-0.271 -4.347,1.439 -5.208,3.168 -4.503,4.989 -2.889,5.795 -1.273,6.6 0.625,6.075 1.486,4.347 2.339,2.637 1.615,0.806 0,0"
           style="fill:#231f20;fill-opacity:1;fill-rule:nonzero;stroke:none"
           id="path147" />
      </g>
      <g
         id="g149"
         transform="translate(103.8206,101.9888)">
        <path
           d="M 0,0 H 14.553 C 13.71,1.443 13.064,2.488 12.071,3.83 H 2.021 C 1.455,4.937 0.48,6.503 0.48,6.503 H 9.964 C 8.626,8.107 7.175,9.62 5.627,11.035 H -5.614 L -17.376,3.718 -7.153,-4.447 Z"
           style="fill:#231f20;fill-opacity:1;fill-rule:nonzero;stroke:none"
           id="path151" />
      </g>
      <g
         id="g153"
         transform="translate(56.5169,83.0582)">
        <path
           d="m 0,0 h -7.05 l -1.323,2.209 h -7.788 c 2.59,3.556 6.953,6.507 10.721,6.507 H 0 Z m 6.533,8.716 c 1.823,0 3.3,-1.478 3.3,-3.301 0,-1.822 -1.477,-3.3 -3.3,-3.3 -1.823,0 -3.3,1.478 -3.3,3.3 0,1.823 1.477,3.301 3.3,3.301 M -19.28,4.297 c -1.017,-1.236 -2.564,-2.96 -2.564,-4.185 0,-0.667 0.541,-1.275 1.267,-1.271 h 10.141 l 1.679,-2.789 h 51.305 l 2.579,3.835 h 22.96 C 67.93,1.419 67.698,2.931 67.398,4.414 H 55.247 C 55.109,5.305 54.951,6.317 54.789,7.086 H 66.778 C 66.3,8.914 65.712,10.697 65.027,12.429 H 38.438 L 16.477,29.966 h -27.483 c -1.548,-1.415 -3,-2.928 -4.337,-4.532 l 9.506,-0.001 c -0.418,-0.667 -1.142,-1.919 -1.54,-2.672 h -10.051 c -0.993,-1.342 -1.657,-2.383 -2.504,-3.83 H 6.847 l 5.94,-6.502 H -3.872 c -6.165,0 -10.572,-2.538 -15.408,-8.132"
           style="fill:#231f20;fill-opacity:1;fill-rule:nonzero;stroke:none"
           id="path155" />
      </g>
      <g
         id="g157"
         transform="translate(89.4666,51.482)">
        <path
           d="m 0,0 c 0,-1.822 -1.478,-3.3 -3.3,-3.3 -1.823,0 -3.301,1.478 -3.301,3.3 0,1.823 1.478,3.301 3.301,3.301 C -1.478,3.301 0,1.823 0,0 m 3.232,3.301 h 5.355 c 3.431,0 7.358,-2.72 9.746,-5.995 H 11.162 L 9.941,-4.733 H 3.232 Z m 31.63,16.073 c 0.247,1.602 0.409,3.235 0.487,4.885 H -2.873 L -31.062,6.727 h -23.946 c 0.778,-1.683 1.589,-3.199 2.553,-4.768 h 10.593 c 0.446,-1.062 1.291,-2.68 1.291,-2.68 h -10.123 c 1.115,-1.585 2.22,-2.979 3.518,-4.41 l 11.865,0.004 2.485,-3.247 h 44.608 l 1.318,2.57 h 9.104 c 0.669,0 1.168,0.56 1.168,1.176 0,1.126 -1.452,2.992 -2.393,4.131 -3.5,4.23 -7.692,7.224 -14.037,7.224 h -9.454 l 6.957,6.384 h 29.018 c 0.373,1.262 0.642,2.327 0.912,3.595 H 22.246 c 0.15,1.014 0.27,1.861 0.359,2.668 z"
           style="fill:#231f20;fill-opacity:1;fill-rule:nonzero;stroke:none"
           id="path159" />
      </g>
      <g
         id="g161"
         transform="translate(29.7625,35.6431)">
        <path
           d="m 0,0 1.548,-1.47 -1.506,-10.486 5.951,6.267 1.885,-1.789 -8.934,-9.41 -1.839,1.745 1.492,9.889 -5.646,-5.945 -1.885,1.789 z"
           style="fill:#231f20;fill-opacity:1;fill-rule:nonzero;stroke:none"
           id="path163" />
      </g>
      <g
         id="g165"
         transform="translate(15.616,36.7408)">
        <path
           d="M 0,0 C 1.139,-1.704 3.336,-1.838 5.445,-0.43 7.553,0.979 8.273,3.061 7.134,4.765 5.984,6.486 3.774,6.637 1.666,5.229 -0.442,3.82 -1.15,1.722 0,0 M 9.137,6.103 C 11.144,3.098 10.186,-0.566 6.971,-2.713 3.738,-4.873 0.004,-4.343 -2.003,-1.339 -4.01,1.666 -3.082,5.335 0.152,7.495 3.367,9.643 7.13,9.107 9.137,6.103"
           style="fill:#231f20;fill-opacity:1;fill-rule:nonzero;stroke:none"
           id="path167" />
      </g>
      <g
         id="g169"
         transform="translate(12.5267,50.1275)">
        <path
           d="M 0,0 -0.918,2.317 C -1.416,3.575 -2.34,3.96 -3.342,3.563 -4.364,3.158 -4.775,2.245 -4.277,0.988 L -3.359,-1.33 Z M 2.063,0.816 6.562,2.598 7.55,0.104 -4.512,-4.673 -6.481,0.298 c -1.003,2.533 -0.316,4.76 2.158,5.74 1.926,0.762 3.565,0.184 4.646,-1.343 L 3.738,9.729 4.858,6.901 1.542,2.133 Z"
           style="fill:#231f20;fill-opacity:1;fill-rule:nonzero;stroke:none"
           id="path171" />
      </g>
      <g
         id="g173"
         transform="translate(11.4559,69.896)">
        <path
           d="m 0,0 -1.939,-0.322 0.361,-2.169 -2.191,-0.364 -0.762,4.586 5.359,0.892 c 1.48,-1.039 2.303,-2.639 2.585,-4.327 0.645,-3.879 -1.661,-6.77 -5.54,-7.414 -3.961,-0.659 -7.088,1.649 -7.726,5.486 -0.243,1.46 -0.062,2.82 0.453,3.847 l 2.669,0.444 c -0.661,-1.181 -0.929,-2.405 -0.683,-3.886 0.382,-2.293 2.317,-3.622 4.84,-3.202 2.482,0.412 3.976,2.119 3.598,4.392 C 0.886,-1.203 0.553,-0.487 0,0"
           style="fill:#231f20;fill-opacity:1;fill-rule:nonzero;stroke:none"
           id="path175" />
      </g>
      <g
         id="g177"
         transform="translate(1.1453,85.4029)">
        <path
           d="M 0,0 2.366,-0.086 2.142,-6.233 4.973,-6.337 5.176,-0.76 7.479,-0.843 7.276,-6.42 l 3.084,-0.112 0.223,6.147 2.388,-0.086 -0.32,-8.809 -12.97,0.47 z"
           style="fill:#231f20;fill-opacity:1;fill-rule:nonzero;stroke:none"
           id="path179" />
      </g>
      <g
         id="g181"
         transform="translate(11.0364,88.566)">
        <path
           d="M 0,0 C 1.103,0.94 1.988,2.257 2.321,3.721 2.612,4.998 2.441,6.056 1.452,6.28 0.627,6.469 0.196,6.003 -0.37,5.135 L -1.41,3.421 C -2.455,1.687 -3.705,0.67 -5.807,1.148 -8.156,1.683 -8.974,3.994 -8.411,6.467 -8.06,8.013 -7.403,9.185 -6.55,10.074 L -3.974,9.488 C -5.026,8.579 -5.814,7.501 -6.146,6.038 -6.405,4.904 -6.21,3.949 -5.344,3.752 -4.561,3.574 -4.135,4.02 -3.645,4.84 l 1.131,1.823 C -1.31,8.622 0.064,9.327 1.94,8.9 4.434,8.333 5.207,5.924 4.597,3.245 4.213,1.556 3.381,0.185 2.597,-0.591 Z"
           style="fill:#231f20;fill-opacity:1;fill-rule:nonzero;stroke:none"
           id="path183" />
      </g>
      <g
         id="g185"
         transform="translate(16.991,111.1802)">
        <path
           d="M 0,0 1.595,2.74 -2.929,3.539 Z M -5.05,6.363 8.663,4.128 7.281,1.754 3.993,2.323 1.548,-1.878 3.677,-4.438 2.316,-6.775 -6.4,4.044 Z"
           style="fill:#231f20;fill-opacity:1;fill-rule:nonzero;stroke:none"
           id="path187" />
      </g>
      <g
         id="g189"
         transform="translate(23.9139,124.0328)">
        <path
           d="M 0,0 1.681,1.842 C 2.593,2.841 2.533,3.841 1.736,4.567 0.925,5.308 -0.076,5.277 -0.988,4.278 L -2.669,2.437 Z m 1.639,-1.496 3.575,-3.263 -1.81,-1.983 -9.585,8.749 3.606,3.949 C -0.737,7.97 1.565,8.329 3.532,6.534 5.062,5.138 5.26,3.412 4.363,1.771 L 10.387,0.908 8.334,-1.34 2.593,-0.45 Z"
           style="fill:#231f20;fill-opacity:1;fill-rule:nonzero;stroke:none"
           id="path191" />
      </g>
      <g
         id="g193"
         transform="translate(34.1678,134.2134)">
        <path
           d="M 0,0 0.574,7.296 3.214,9.2 2.479,1.007 10.962,-1.214 8.271,-3.155 0.891,-1.234 4.329,-5.999 2.134,-7.582 -5.46,2.942 -3.266,4.525 Z"
           style="fill:#231f20;fill-opacity:1;fill-rule:nonzero;stroke:none"
           id="path195" />
      </g>
      <g
         id="g197"
         transform="translate(39.8553,144.8452)">
        <path
           d="M 0,0 10.018,4.721 11.027,2.579 7.242,0.795 11.765,-8.802 9.299,-9.964 4.776,-0.367 1.009,-2.142 Z"
           style="fill:#231f20;fill-opacity:1;fill-rule:nonzero;stroke:none"
           id="path199" />
      </g>
      <g
         id="g201"
         transform="translate(60.3367,139.1743)">
        <path
           d="m 0,0 -2.591,-0.781 -3.749,12.427 2.59,0.781 z"
           style="fill:#231f20;fill-opacity:1;fill-rule:nonzero;stroke:none"
           id="path203" />
      </g>
      <g
         id="g205"
         transform="translate(63.2464,143.6851)">
        <path
           d="M 0,0 C 1.275,-0.689 2.821,-1.042 4.307,-0.826 5.604,-0.638 6.528,-0.097 6.383,0.907 6.261,1.743 5.671,1.979 4.658,2.194 L 2.684,2.548 c -1.995,0.35 -3.393,1.151 -3.704,3.285 -0.346,2.385 1.515,3.98 4.025,4.345 1.57,0.227 2.9,0.036 4.037,-0.439 L 7.422,7.125 C 6.195,7.779 4.906,8.126 3.421,7.909 2.27,7.742 1.449,7.218 1.577,6.339 1.693,5.544 2.262,5.307 3.204,5.144 L 5.312,4.746 C 7.573,4.327 8.726,3.299 9.003,1.396 9.371,-1.136 7.402,-2.726 4.683,-3.121 2.968,-3.37 1.388,-3.087 0.383,-2.635 Z"
           style="fill:#231f20;fill-opacity:1;fill-rule:nonzero;stroke:none"
           id="path207" />
      </g>
      <g
         id="g209"
         transform="translate(78.8289,148.9029)">
        <path
           d="M 0,0 5.012,5.334 8.263,5.169 2.565,-0.765 7.797,-7.803 4.482,-7.635 -0.077,-1.521 -0.373,-7.389 -3.075,-7.252 -2.419,5.71 0.283,5.573 Z"
           style="fill:#231f20;fill-opacity:1;fill-rule:nonzero;stroke:none"
           id="path211" />
      </g>
      <g
         id="g213"
         transform="translate(100.6663,151.0093)">
        <path
           d="m 0,0 -0.581,-2.296 -5.965,1.507 -0.695,-2.746 5.412,-1.368 -0.564,-2.235 -5.412,1.368 -0.757,-2.993 5.965,-1.508 -0.584,-2.316 -8.549,2.16 3.181,12.587 z"
           style="fill:#231f20;fill-opacity:1;fill-rule:nonzero;stroke:none"
           id="path215" />
      </g>
      <g
         id="g217"
         transform="translate(108.6868,139.4283)">
        <path
           d="M 0,0 4.055,6.61 6.359,5.197 2.451,-1.18 c -1.161,-1.891 -0.884,-3.3 0.575,-4.194 1.458,-0.896 2.84,-0.502 3.999,1.39 l 3.91,6.377 2.306,-1.414 -4.053,-6.612 C 7.322,-8.677 4.53,-9.146 1.757,-7.446 -1,-5.757 -1.865,-3.045 0,0"
           style="fill:#231f20;fill-opacity:1;fill-rule:nonzero;stroke:none"
           id="path219" />
      </g>
      <g
         id="g221"
         transform="translate(125.4334,119.8931)">
        <path
           d="M 0,0 -1.535,1.483 0.06,11.956 -5.944,5.74 -7.813,7.545 1.198,16.878 3.023,15.117 1.448,5.241 7.142,11.14 9.011,9.334 Z"
           style="fill:#231f20;fill-opacity:1;fill-rule:nonzero;stroke:none"
           id="path223" />
      </g>
      <g
         id="g225"
         transform="translate(129.2776,114.6636)">
        <path
           d="M 0,0 -1.61,2.174 8.816,9.903 10.427,7.729 Z"
           style="fill:#231f20;fill-opacity:1;fill-rule:nonzero;stroke:none"
           id="path227" />
      </g>
      <g
         id="g229"
         transform="translate(133.1404,108.4917)">
        <path
           d="M 0,0 9.253,10.315 10.574,7.786 3.811,0.464 13.684,1.828 14.975,-0.645 1.212,-2.323 Z"
           style="fill:#231f20;fill-opacity:1;fill-rule:nonzero;stroke:none"
           id="path231" />
      </g>
      <g
         id="g233"
         transform="translate(152.1448,94.9849)">
        <path
           d="m 0,0 -2.273,-0.662 -1.721,5.903 -2.72,-0.793 1.563,-5.355 -2.211,-0.646 -1.562,5.357 -2.962,-0.865 1.722,-5.903 -2.293,-0.669 -2.468,8.46 12.457,3.632 z"
           style="fill:#231f20;fill-opacity:1;fill-rule:nonzero;stroke:none"
           id="path235" />
      </g>
      <g
         id="g237"
         transform="translate(147.6136,85.4996)">
        <path
           d="m 0,0 0.193,-2.486 c 0.104,-1.348 0.875,-1.988 1.95,-1.905 1.096,0.086 1.758,0.836 1.653,2.185 L 3.603,0.279 Z M -2.211,-0.172 -7.035,-0.547 -7.244,2.129 5.691,3.133 6.105,-2.196 C 6.317,-4.914 5.003,-6.839 2.35,-7.045 c -2.064,-0.16 -3.46,0.876 -4.043,2.653 l -4.749,-3.801 -0.235,3.033 4.575,3.577 z"
           style="fill:#231f20;fill-opacity:1;fill-rule:nonzero;stroke:none"
           id="path239" />
      </g>
      <g
         id="g241"
         transform="translate(144.5052,73.9332)">
        <path
           d="m 0,0 c -1.005,-1.046 -1.756,-2.442 -1.944,-3.933 -0.165,-1.3 0.109,-2.336 1.116,-2.464 0.838,-0.105 1.223,0.401 1.702,1.321 l 0.867,1.808 c 0.87,1.829 2.015,2.963 4.154,2.693 2.392,-0.303 3.432,-2.522 3.114,-5.04 C 8.811,-7.188 8.273,-8.42 7.51,-9.389 l -2.622,0.332 c 0.959,1.008 1.636,2.16 1.824,3.648 C 6.859,-4.256 6.571,-3.324 5.69,-3.213 4.894,-3.111 4.513,-3.598 4.105,-4.461 L 3.158,-6.389 c -1.007,-2.067 -2.306,-2.905 -4.214,-2.664 -2.539,0.321 -3.546,2.643 -3.201,5.37 0.217,1.72 0.911,3.166 1.615,4.016 z"
           style="fill:#231f20;fill-opacity:1;fill-rule:nonzero;stroke:none"
           id="path243" />
      </g>
      <g
         id="g245"
         transform="translate(138.2191,59.521)">
        <path
           d="M 0,0 0.729,2.606 13.229,-0.886 12.5,-3.491 Z"
           style="fill:#231f20;fill-opacity:1;fill-rule:nonzero;stroke:none"
           id="path247" />
      </g>
      <g
         id="g249"
         transform="translate(149.4271,51.5513)">
        <path
           d="m 0,0 -4.557,-10.097 -2.158,0.975 1.722,3.815 -9.672,4.365 1.123,2.486 9.671,-4.366 1.714,3.796 z"
           style="fill:#231f20;fill-opacity:1;fill-rule:nonzero;stroke:none"
           id="path251" />
      </g>
      <g
         id="g253"
         transform="translate(137.2737,30.1392)">
        <path
           d="M 0,0 -1.934,1.365 1.612,6.388 -0.701,8.021 -3.917,3.464 -5.799,4.793 -2.582,9.35 -5.103,11.128 -8.648,6.105 -10.597,7.481 -5.517,14.68 5.081,7.197 Z"
           style="fill:#231f20;fill-opacity:1;fill-rule:nonzero;stroke:none"
           id="path255" />
      </g>
      <g
         id="g257"
         transform="translate(134.0491,26.2779)">
        <path
           d="m 0,0 -8.032,-7.619 -1.628,1.718 3.035,2.879 -7.3,7.693 1.978,1.877 7.299,-7.695 3.019,2.864 z"
           style="fill:#231f20;fill-opacity:1;fill-rule:nonzero;stroke:none"
           id="path259" />
      </g>
      <g
         id="g261"
         transform="translate(57.1043,60.5845)">
        <path
           d="M 0,0 13.019,8.023 1.548,15.156 H -26.92 c 0.085,-1.572 0.234,-3.356 0.474,-4.885 h 12.251 c 0.132,-1.188 0.361,-2.667 0.361,-2.667 h -12.132 c 0.272,-1.261 0.547,-2.375 0.915,-3.595 h 18.612 z"
           style="fill:#231f20;fill-opacity:1;fill-rule:nonzero;stroke:none"
           id="path263" />
      </g>
    </g>
  </g>
</svg>
